<svg xmlns="http://www.w3.org/2000/svg" xmlns:xlink="http://www.w3.org/1999/xlink" viewBox="0 0 923.55 404.54"><defs><style>.cls-1{fill:#fd6e00;}.cls-2{filter:url(#filter);}.cls-3{fill:#fff;}.cls-4{fill:#6c0204;}.cls-5{fill:#af1b23;}</style><filter id="filter"><feOffset dx="8" dy="3" input="SourceAlpha"/><feGaussianBlur result="blur"/><feFlood flood-color="#fff"/><feComposite operator="in" in2="blur"/><feComposite in="SourceGraphic"/></filter></defs><g id="Layer_1" data-name="Layer 1"><path d="M159.2,121.43c-3.32-24.21-4.82-37.06,1.1-48,15.52-28.67,80.15-30.08,96.39-3.12,7.65,12.7,3.66,30.23,7.16,30.77,4.72.73,4.66-32.51,24.17-46.79,17-12.46,46.91-9,58.21,6.79,5.14,7.16,6.06,16.35,9.9,16.3,4.34-.06,4.33-11.47,12.16-19.75,9.11-9.65,25.85-11.83,37.86-6.42,17.14,7.72,20.91,29.19,28.14,27.39,5.52-1.37,2.68-13.73,11.63-22.66,11-11,29.85-6.82,35.85-5.5a58.07,58.07,0,0,1,20.75,9.26,63.48,63.48,0,0,1,31-11.19c6.73-.5,22.09-1.67,36.23,9.26a52.26,52.26,0,0,1,14.4,17.77c.07-2.8.62-11.37,6.53-17.9,6.26-6.91,14.52-7.1,19.88-7.22,14.4-.32,25,8,29.23,11.65a163.52,163.52,0,0,1,24.35-6.22c35.87-6.25,86.3-2.42,92.3,18.62,2.86,10-5,22-5.86,23.32-1.18,1.8-8,12.17-17.56,12.42-4.34.11-4.94-2-7.61-1.29-8.73,2.22-11.79,26.92-10.92,44.08a105.17,105.17,0,0,0,6.63,31.68,26.34,26.34,0,0,1,11.9,1.49c14.17,5.34,18.72,21.56,19.3,23.73a84.32,84.32,0,0,1,32.6-22.84c21.9-8.41,40.6-4.46,49.77-2.39,16.85,3.81,50.21,16.07,50.64,34,.16,6.75-4.29,17.93-12.19,24.12-4.1,3.21-9,4.91-8.68,7.2.24,2,4.2,2.3,8,4,11.57,5.24,15.7,21,16.2,23,3.54,14.26-2.15,26.07-4,29.89-10.2,21-32.41,27.13-39,28.95-17,4.68-46.46,5.62-61.18-8.37-2.14-2-6.95-7.22-12.62-6.42-5,.69-7.37,5.52-10.32,9C748.11,346,718.24,341,715.92,340.58c-9.24-1.66-23.7-6.71-34.53-7.44-10.23-.68-9.44,1-39.82,3.72-25.78,2.28-31.55,1.51-36.86-2.79-6.38-5.16-8.58-12.58-14.19-12.31-4.14.2-4.6,4.3-10.59,8.65-8.67,6.3-20.5,7-29.06,4.18-6.31-2-6.88-4.7-12.15-5-6.64-.33-10.25,3.64-15.73,6.53-11.7,6.18-27.84,5.29-37.95-1.27-11.62-7.54-11.76-20.28-19.4-20.52-5.91-.17-8.19,7.41-14.79,13.71-20.6,19.68-66.26,10.58-73.88-9-2.6-6.69-1.13-15.61-5.18-17.05-2.53-.9-5.6,1.72-8.5,4.22-3.17,2.72-5.6,5.8-9.06,11.52-7.26,12-6.79,15.38-11.23,17.88-4.13,2.34-6.07.29-9.42,3.18-3.8,3.28-2.56,7-5.87,11.65-4,5.61-11.94,9-15.35,6.38-3.6-2.75,1.83-12-2.83-17.42-1.51-1.76-2.18-1-6.17-4.06-4.82-3.74-4.91-5.73-7.34-6.56-4.18-1.42-5.76,3.95-11.88,5.14-7.64,1.49-10.89-5.66-19.64-4.67-3.85.43-4.88,2-9.49,4.2-9.31,4.44-23.34,6.68-34.52,1.55-10.27-4.71-11-12.35-17.76-11.95s-7.07,7.85-16.35,13.28c-10,5.85-25.65,6.61-33.72-1.33-4-3.94-5.17-9.08-9.49-9.52-3.79-.38-6.9,3.19-8.07,4.43-11.7,12.4-34.32,12.17-40.17,12.18-16.79,0-29.14-7-34.45-10.12-7.54-4.42-18.65-10.93-23.9-24.42a42.93,42.93,0,0,1-2.31-8.81c-2.21-14.42,3.84-24.12,7.16-34.9,7.7-25-6.58-32.07,2-52.19,6.79-16,20.86-23.4,24.5-25.15,18.36-8.82,38-3,44-1.24,1.65.49,3.11,1,3.25,1,18.3,6.36,23.35,16.27,28.31,14.06,4.41-2,1.51-10.23,8-15.74,4.7-4,8.37-1.48,11.84-4C171.61,174.55,163.28,151.18,159.2,121.43Z"/><path class="cls-1" d="M163.69,123.41c-3.23-22.3-4.69-34.15,1.08-44.23,15.1-26.41,78-27.71,93.81-2.88,7.45,11.71,3.57,27.85,7,28.35,4.6.67,4.54-29.95,23.53-43.1,16.58-11.48,45.66-8.25,56.66,6.26,5,6.59,5.9,15.06,9.64,15,4.22-.06,4.21-10.56,11.83-18.2,8.87-8.88,25.16-10.89,36.85-5.9C420.73,65.83,424.4,85.61,431.43,84c5.38-1.27,2.61-12.65,11.33-20.88C453.47,53,471.81,56.79,477.65,58a57.89,57.89,0,0,1,20.19,8.52A64,64,0,0,1,528,56.23c6.55-.47,21.5-1.54,35.26,8.53a48.58,48.58,0,0,1,14,16.36c.07-2.57.61-10.47,6.37-16.48C589.7,58.27,597.73,58.1,603,58c14-.3,24.38,7.33,28.45,10.73A165.61,165.61,0,0,1,655.1,63c34.91-5.76,84-2.23,89.83,17.15,2.79,9.25-4.85,20.26-5.7,21.49-1.15,1.66-7.77,11.2-17.09,11.43-4.22.1-4.81-1.81-7.4-1.18-8.5,2.05-11.48,24.79-10.64,40.61a92.36,92.36,0,0,0,6.46,29.17A27,27,0,0,1,722.14,183c13.8,4.92,18.22,19.87,18.78,21.86a82,82,0,0,1,31.73-21c21.32-7.75,39.52-4.11,48.44-2.2,16.4,3.5,48.87,14.8,49.29,31.31.16,6.22-4.17,16.52-11.86,22.22-4,3-8.72,4.52-8.46,6.64.24,1.86,4.09,2.11,7.81,3.71,11.25,4.82,15.27,19.35,15.76,21.22,3.45,13.14-2.09,24-3.9,27.54-9.93,19.34-31.55,25-38,26.67-16.53,4.31-45.22,5.17-59.54-7.71-2.08-1.87-6.77-6.65-12.29-5.92-4.83.64-7.17,5.08-10,8.31-13,14.62-42.09,10-44.35,9.64-9-1.52-23.07-6.18-33.6-6.85-10-.62-9.19.95-38.76,3.43-25.09,2.1-30.71,1.39-35.88-2.57-6.2-4.76-8.34-11.59-13.81-11.34-4,.18-4.47,4-10.3,8-8.44,5.8-20,6.43-28.29,3.85-6.14-1.89-6.69-4.33-11.82-4.57-6.46-.3-10,3.35-15.31,6-11.39,5.69-27.1,4.87-36.94-1.18-11.3-6.94-11.45-18.68-18.88-18.89-5.76-.17-8,6.82-14.4,12.62-20,18.13-64.49,9.75-71.9-8.26-2.54-6.17-1.11-14.38-5-15.71-2.47-.83-5.45,1.59-8.28,3.88-3.08,2.51-5.45,5.35-8.81,10.62-7.07,11.07-6.62,14.17-10.93,16.48-4,2.14-5.91.26-9.17,2.92-3.7,3-2.49,6.43-5.72,10.73-3.87,5.17-11.62,8.29-14.94,5.88-3.5-2.53,1.78-11-2.75-16-1.47-1.63-2.12-.89-6-3.75-4.69-3.44-4.77-5.28-7.14-6-4.06-1.3-5.61,3.64-11.56,4.74-7.44,1.37-10.6-5.22-19.12-4.31-3.75.4-4.75,1.85-9.23,3.88-9.07,4.09-22.72,6.15-33.6,1.42-10-4.34-10.67-11.38-17.29-11s-6.88,7.23-15.92,12.24c-9.72,5.39-25,6.09-32.81-1.23-3.9-3.63-5-8.37-9.23-8.77-3.7-.35-6.72,2.94-7.86,4.08-11.39,11.43-33.41,11.21-39.1,11.22-16.34,0-28.36-6.46-33.53-9.33-7.34-4.06-18.15-10.06-23.26-22.49a37.68,37.68,0,0,1-2.25-8.12c-2.15-13.28,3.74-22.21,7-32.14,7.5-23-6.41-29.54,1.91-48.08C57.6,191.85,71.29,185,74.83,183.42c17.87-8.12,37-2.77,42.79-1.15,1.62.45,3,.92,3.17,1,17.82,5.87,22.73,15,27.56,13,4.29-1.8,1.47-9.42,7.8-14.49,4.58-3.66,8.15-1.37,11.52-3.72C175.77,172.34,167.66,150.82,163.69,123.41Z"/><g class="cls-2"><path d="M236.84,120.91a34.91,34.91,0,0,1,11.85,6,38.88,38.88,0,0,1,13.91,20.86,32.29,32.29,0,0,1,.88,12.15,31,31,0,0,1-4,11.71,30.52,30.52,0,0,1-9.37,9.88,52.51,52.51,0,0,1-13.54,4.24,85.88,85.88,0,0,1-14.27,1.17q-7,0-14-.66t-13.76-1.39c-4-.68-6.93-2-8.79-4s-2.29-5-1.31-9.07q.44-7.32.88-14.49t.65-14.42q.22-7.24,0-14.49A128.86,128.86,0,0,0,184.73,114a42.62,42.62,0,0,0-.66-7.1,57.68,57.68,0,0,1-.8-7.61,19,19,0,0,1,.95-6.95,9.2,9.2,0,0,1,4.61-5.13,54.09,54.09,0,0,1,13-4.17,75.38,75.38,0,0,1,13.75-1.24q3.07,0,6.08.22c2,.14,4,.31,5.93.51q9.51,1.17,14.71,5.19a15.93,15.93,0,0,1,6.29,9.52,18.36,18.36,0,0,1-1.9,11.71A36.54,36.54,0,0,1,236.84,120.91Zm-22.25-11.13a8.18,8.18,0,0,0,6.07-.22,8.68,8.68,0,0,0,3.88-3.51,8.28,8.28,0,0,0,1-5.12,7.94,7.94,0,0,0-2.64-5.05c-2.73-1.46-4.78-2.2-6.15-2.2A2.8,2.8,0,0,0,214,95.22a9.2,9.2,0,0,0-.73,4,35.18,35.18,0,0,0,.44,5.27C214,106.34,214.3,108.13,214.59,109.78Zm1.61,52.11a7.46,7.46,0,0,0,3.37.88,7.8,7.8,0,0,0,4.9-1.76,10.94,10.94,0,0,0,3.37-4.24,9,9,0,0,0,.65-5.2,7,7,0,0,0-3.07-4.61,12.76,12.76,0,0,0-5.41-1.61,3.13,3.13,0,0,0-3.15,1.69,10.3,10.3,0,0,0-.88,4.17,49.22,49.22,0,0,0,.15,5.34A40.14,40.14,0,0,1,216.2,161.89Z"/><path d="M307.24,161.6c0,2.63,0,5.27-.07,7.9a37,37,0,0,0,.66,7.76c.09,1.66.12,3.05.07,4.17a5,5,0,0,1-.8,2.71,4.83,4.83,0,0,1-2.27,1.61,23.4,23.4,0,0,1-4.47,1q-7,.28-13.24.14a25,25,0,0,1-10.54-2.27,11.92,11.92,0,0,1-6.08-7q-1.75-4.9.3-14,4.38-19.62,9.73-38.79t10.61-38.64c1-2.25,3-3.78,6.15-4.61a40.43,40.43,0,0,1,10.39-1.25,95.09,95.09,0,0,1,12.44.81c4.1.54,7.32.9,9.66,1.1a34.79,34.79,0,0,1,10.76,11.41,76.74,76.74,0,0,1,6.59,14.64,143.09,143.09,0,0,1,4.24,16q1.68,8.21,3.59,15.52.74,5.27,2,11.93a67.32,67.32,0,0,1,1.18,13,28.67,28.67,0,0,1-2.42,11.56c-1.56,3.46-4.54,6-8.93,7.68-2.63.3-5,.54-7,.74s-3.91.29-5.57.29q-6.44,0-9.07-1.83a8.39,8.39,0,0,1-3.37-5.56,47,47,0,0,1-.66-9.44A87.06,87.06,0,0,0,320,154.57c-.1-1.26-.3-2.7-.59-4.31a16.63,16.63,0,0,0-1.46-4.47,10.37,10.37,0,0,0-2.64-3.37,4.84,4.84,0,0,0-4.1-.87,3.51,3.51,0,0,0-2.19,1.24,5.81,5.81,0,0,0-1,2.12,36.59,36.59,0,0,0-.8,8.27Q307.25,157.35,307.24,161.6Zm.88-52a8.52,8.52,0,0,0,2.63,1.46,9.42,9.42,0,0,0,3.22.59,6,6,0,0,0,3.52-1,3,3,0,0,0,1.17-3.07,28.24,28.24,0,0,1-.59-4.68,28.58,28.58,0,0,0-.73-5.2,8.43,8.43,0,0,0-2-3.95c-1-1-2.49-1.34-4.54-1A12.78,12.78,0,0,0,309.66,96c-.35,1.46-.66,3-1,4.61a39.79,39.79,0,0,0-.59,4.83A28.84,28.84,0,0,0,308.12,109.64Z"/><path d="M479.23,88.41q.43,8.79.22,17.57t-.66,17.56q-.44,8.79-1,17.57t-.51,17.56c-.1,2.25-.2,4.61-.3,7.1a37.78,37.78,0,0,1-.95,7.17,20.12,20.12,0,0,1-2.63,6.3,11.23,11.23,0,0,1-5.64,4.32,66.3,66.3,0,0,1-8.71,2.63,41,41,0,0,1-9.15,1,35.13,35.13,0,0,1-13.46-2.63,11.3,11.3,0,0,1-2.71-2.34,5.52,5.52,0,0,1-1.24-3.22,33.63,33.63,0,0,0-1.91-8.2c-1-2.63-2.05-5.22-3.22-7.76a55.12,55.12,0,0,0-3.58-7.61q-2.56-4.68-5.57-9.07a59.38,59.38,0,0,0-6.07-7.61q-3.07-3.22-5.27-3.22t-2.85,3.22q-.81,3.21.22,11.12a31.21,31.21,0,0,0,.65,5.71q.66,3.36,1.47,7.1c.53,2.49,1,5,1.39,7.54a28.75,28.75,0,0,1,.29,7,11,11,0,0,1-1.83,5.42,6.68,6.68,0,0,1-4.9,2.63c-2.64.29-5.76.76-9.37,1.39a61.07,61.07,0,0,1-10.68,1,35.45,35.45,0,0,1-5.79-.44,16.2,16.2,0,0,1-5-1.61,12,12,0,0,1-3.88-3.14,12.2,12.2,0,0,1-2.34-4.91,205.91,205.91,0,0,1,.22-21.37q.66-10.68,1.31-21.37t.74-21.37a127.3,127.3,0,0,0-1.69-21.37,5.41,5.41,0,0,1,.95-4.53,9.05,9.05,0,0,1,3.59-2.49,18,18,0,0,1,4.83-1.17c1.76-.2,3.32-.39,4.68-.59a27.31,27.31,0,0,0,5.05-.8,20.19,20.19,0,0,1,5.05-.66,9.12,9.12,0,0,1,3.81.73,55.4,55.4,0,0,1,12.22,8.63q5.49,5.13,10.54,10.84t9.95,11.49a122.51,122.51,0,0,0,10.47,10.9,17.72,17.72,0,0,0,2.56-8.12,63.93,63.93,0,0,0,0-9.59c-.24-3.32-.49-6.63-.73-9.95a31.75,31.75,0,0,1,.51-9.08,16.36,16.36,0,0,1,7.83-4.61,38.12,38.12,0,0,1,10.47-1.39,47.76,47.76,0,0,1,12.88,1.76A22.64,22.64,0,0,1,479.23,88.41Z"/><path d="M562.81,129.11a76.79,76.79,0,0,1-1.25,17.71,62.14,62.14,0,0,1-5.85,17.34,49,49,0,0,1-10.83,14.13,33.52,33.52,0,0,1-16.18,7.9c-2,.2-4.2.39-6.73.59s-5.18.29-7.91.29a69.29,69.29,0,0,1-9-.59,25,25,0,0,1-8-2.34,14.31,14.31,0,0,1-5.56-4.76,11.66,11.66,0,0,1-1.61-7.83q.43-10.38-.14-20.78t-1-20.79q-.44-10.38.15-20.71a97.83,97.83,0,0,1,3.36-20.42,7.09,7.09,0,0,1,2.64-3.66,13.07,13.07,0,0,1,4-1.75,24.26,24.26,0,0,1,4.69-.73,30.69,30.69,0,0,0,4.46-.59c1.66-.19,3.24-.37,4.76-.51s3-.22,4.46-.22A52.28,52.28,0,0,1,536,84.68a41.55,41.55,0,0,1,14.78,9.44,40.42,40.42,0,0,1,9.37,15A50.42,50.42,0,0,1,562.81,129.11ZM517.58,129a11,11,0,0,0,3.51.58,7.93,7.93,0,0,0,6.15-2.56,13.8,13.8,0,0,0,3.22-6.14,18.66,18.66,0,0,0,.22-7.54,12.28,12.28,0,0,0-3.15-6.59q-4.1-3.94-7-3.95c-1.75,0-3,1-3.87,2.93a20.6,20.6,0,0,0-1.47,7,40.28,40.28,0,0,0,.51,8.64A38.76,38.76,0,0,0,517.58,129Z"/><path d="M606.72,88.71q-.45,10.1-1.1,20.27t-1.1,20.34q-.43,10.19-.22,20.35a188.4,188.4,0,0,0,1.54,20.27,23.5,23.5,0,0,1,.07,8.86,9.44,9.44,0,0,1-3,5.27,11.89,11.89,0,0,1-5.86,2.41,36.78,36.78,0,0,1-8.78.15,44.45,44.45,0,0,1-9.22-1.46,9.45,9.45,0,0,1-5-3.3,11.33,11.33,0,0,1-2-5.93,61.15,61.15,0,0,1,.15-9.22A173.38,173.38,0,0,0,573.49,148q.13-9.37-.15-18.81t-.73-18.81q-.43-9.36-.59-18.74a6.71,6.71,0,0,1,1-4.53A8.9,8.9,0,0,1,576.49,84a19.67,19.67,0,0,1,5.19-1.75,31.45,31.45,0,0,1,6.15-.59,36.15,36.15,0,0,1,11.71,1.9Q605.11,85.48,606.72,88.71Z"/><path d="M710.78,91.05q-1,3.23-2.34,7.68a43.35,43.35,0,0,1-3.36,8.27,19.22,19.22,0,0,1-5.05,6.15c-2,1.56-4.57,2-7.69,1.32a37.22,37.22,0,0,0-4.39-1.25,22.62,22.62,0,0,0-4.83-.51,11.33,11.33,0,0,0-6.51,1.83c-1.81,1.22-2.56,3.39-2.27,6.51q-1,7.62-1.68,15.45a138.83,138.83,0,0,0-.44,15.66,107,107,0,0,0,1.53,15.44A73.66,73.66,0,0,0,678,182.53a19.28,19.28,0,0,1-7.54,3.37,42.6,42.6,0,0,1-8.71.88,72.12,72.12,0,0,1-7.9-.44c-2.64-.3-5.13-.54-7.47-.74q-7.32-1-8.86-5t.37-10.61q2.49-13.91,6-27.3t5.86-27.29a77.45,77.45,0,0,0-11.64,3.14q-5.49,2-11.34,3.59-4.54,1-7-.66a8.74,8.74,0,0,1-3.36-4.9,23.61,23.61,0,0,1-.81-7.54,59,59,0,0,1,1-8.64q.81-4.31,1.83-8.12c.69-2.54,1.22-4.54,1.61-6a37.22,37.22,0,0,1,7-2.12q4.31-1,9.66-1.61t11.49-1q6.15-.36,12.44-.36,7.9,0,15.81.58t14.71,1.76A67,67,0,0,1,703,86.51,21.34,21.34,0,0,1,710.78,91.05Z"/><path d="M124.12,235.87A35.82,35.82,0,0,1,136.25,242a40.23,40.23,0,0,1,9,9.66,39.54,39.54,0,0,1,5.24,11.68,32.74,32.74,0,0,1,.9,12.43,31.76,31.76,0,0,1-4,12,31.15,31.15,0,0,1-9.58,10.1,53.78,53.78,0,0,1-13.85,4.35,87.71,87.71,0,0,1-14.6,1.19q-7.2,0-14.38-.67t-14.07-1.42q-6.15-1.05-9-4.05c-1.9-2-2.34-5.09-1.35-9.28q.45-7.49.9-14.82t.68-14.75q.22-7.41,0-14.83a132.62,132.62,0,0,0-1.28-14.75,43.62,43.62,0,0,0-.67-7.26,58.75,58.75,0,0,1-.82-7.78,19.51,19.51,0,0,1,1-7.12A9.42,9.42,0,0,1,75,201.43a55.62,55.62,0,0,1,13.32-4.27,78.11,78.11,0,0,1,14.08-1.27c2.09,0,4.17.08,6.21.23s4.07.32,6.07.52q9.74,1.2,15.05,5.32a16.21,16.21,0,0,1,6.43,9.73q1.13,5.61-1.94,12A37.35,37.35,0,0,1,124.12,235.87Zm-22.76-11.38a8.44,8.44,0,0,0,6.21-.22,9,9,0,0,0,4-3.6,8.43,8.43,0,0,0,1-5.24,8.1,8.1,0,0,0-2.69-5.16q-4.2-2.25-6.29-2.25a2.87,2.87,0,0,0-2.85,1.57,9.45,9.45,0,0,0-.75,4,35.67,35.67,0,0,0,.45,5.39C100.76,221,101.06,222.8,101.36,224.49ZM103,277.8a7.68,7.68,0,0,0,3.44.9,8,8,0,0,0,5-1.8,11.17,11.17,0,0,0,3.44-4.34,9.24,9.24,0,0,0,.68-5.32,7.21,7.21,0,0,0-3.15-4.72,13.1,13.1,0,0,0-5.54-1.64,3.21,3.21,0,0,0-3.22,1.72,10.59,10.59,0,0,0-.9,4.27,51.42,51.42,0,0,0,.15,5.46A40.5,40.5,0,0,1,103,277.8Z"/><path d="M200.19,271.36a127,127,0,0,1-.45,13.78,27,27,0,0,1-3.22,11,16,16,0,0,1-7.79,6.81q-5.16,2.25-14.15,1.35a12.52,12.52,0,0,1-4.49-1.2,15.38,15.38,0,0,1-4-2.62,11.24,11.24,0,0,1-2.69-3.66,10.56,10.56,0,0,1-1-4.5q.3-12.27.9-24.4a131.4,131.4,0,0,0-1-24.26,71.78,71.78,0,0,0-.45-7.41q-.45-4.27-.82-9.06c-.25-3.2-.35-6.39-.3-9.59a39.38,39.38,0,0,1,1.05-8.76A17.62,17.62,0,0,1,165,202a10,10,0,0,1,6.29-3.59q8.24-.45,18.26-1.8a150.37,150.37,0,0,1,20.07-1.35,81,81,0,0,1,12.2.9,40.12,40.12,0,0,1,10.93,3.22,27.94,27.94,0,0,1,8.84,6.44,29.79,29.79,0,0,1,6.06,10.41,36,36,0,0,1,2.92,14.67,31.51,31.51,0,0,1-3.07,12.8,36.94,36.94,0,0,1-7.93,10.78,61.44,61.44,0,0,1-11.83,8.76q-.45,2.1,2.84,4.05t7.94,4.19q4.64,2.25,9.28,4.79a20.17,20.17,0,0,1,6.89,5.69,8.41,8.41,0,0,1,2.32,5.62,9.49,9.49,0,0,1-1.8,5.24,17.83,17.83,0,0,1-4.71,4.49,33.73,33.73,0,0,1-6.37,3.37,30.84,30.84,0,0,1-6.66,1.87,15.11,15.11,0,0,1-5.84-.08,21.68,21.68,0,0,1-10.26-4.56,49.81,49.81,0,0,1-7.78-8.09q-3.53-4.56-6.67-9.58A60.72,60.72,0,0,0,200.19,271.36Zm-1.8-36.24a8.36,8.36,0,0,0,2,.6,12.27,12.27,0,0,0,1.87.15,9.31,9.31,0,0,0,5.62-1.8,14.23,14.23,0,0,0,4-4.56,17.83,17.83,0,0,0,2.1-5.92,13,13,0,0,0-.3-5.91,9.84,9.84,0,0,0-3.07-4.72,10,10,0,0,0-6.29-2.09q-3.75-.15-4.79,2.62a18,18,0,0,0-1,6.73q.07,4,.38,8.09A17.68,17.68,0,0,1,198.39,235.12Z"/><path d="M461.78,205.32q-1,3.3-2.4,7.87a45,45,0,0,1-3.44,8.46,19.73,19.73,0,0,1-5.17,6.29q-3.07,2.38-7.86,1.34a38.94,38.94,0,0,0-4.49-1.27,23.07,23.07,0,0,0-4.94-.52,11.62,11.62,0,0,0-6.67,1.87q-2.78,1.88-2.32,6.66-1,7.78-1.72,15.8a142.86,142.86,0,0,0-.45,16,110.55,110.55,0,0,0,1.57,15.8,75.73,75.73,0,0,0,4.35,15.27,19.63,19.63,0,0,1-7.72,3.45,43.71,43.71,0,0,1-8.91.89,72.93,72.93,0,0,1-8.08-.45c-2.7-.3-5.24-.54-7.64-.74q-7.49-1.05-9.06-5.17t.38-10.86q2.54-14.22,6.14-27.92t6-27.93a78.35,78.35,0,0,0-11.91,3.22q-5.61,2-11.6,3.67c-3.1.7-5.47.47-7.12-.67a9,9,0,0,1-3.44-5,24.34,24.34,0,0,1-.82-7.71,59.16,59.16,0,0,1,1-8.84q.82-4.41,1.87-8.31t1.65-6.14a39.12,39.12,0,0,1,7.11-2.17c2.94-.65,6.24-1.2,9.88-1.64s7.57-.8,11.76-1,8.43-.38,12.73-.38q8.08,0,16.17.6t15.05,1.8a69.63,69.63,0,0,1,12.2,3.14A22.13,22.13,0,0,1,461.78,205.32Z"/><path d="M520.62,262.67a8,8,0,0,0-5.09-1.64,9,9,0,0,0-5.54,1.79q-2.39,1.8-1.34,5.1a121.38,121.38,0,0,1,3.14,12.95,48.87,48.87,0,0,1,.6,13.25,10.84,10.84,0,0,1-4.27,6,21.5,21.5,0,0,1-7,3.07,38.76,38.76,0,0,1-8,1.12q-4.12.15-7.57.15a16.82,16.82,0,0,1-9-4.27,19.61,19.61,0,0,1-4.87-7.78,35.89,35.89,0,0,1-1.79-10.18c-.15-3.75-.18-7.49-.08-11.24s.2-7.41.3-11a57,57,0,0,0-.45-9.58q.3-10.34.9-20.67t1.65-20.66a11.19,11.19,0,0,1,1.72-5.92,12.27,12.27,0,0,1,4-3.74,16.63,16.63,0,0,1,5.62-1.95,40.07,40.07,0,0,1,6.44-.52,54.93,54.93,0,0,1,7.56.52,57.78,57.78,0,0,1,6.51,1.28,10.22,10.22,0,0,1,5.62,5.76,21.94,21.94,0,0,1,1.12,8,54.58,54.58,0,0,1-1.05,8.84,51.43,51.43,0,0,0-1,8.08c2.69,1.7,5,2.55,6.88,2.55a4.21,4.21,0,0,0,4.27-2.92q1.13-2.92.37-8c-.1-2.1-.14-4.29-.14-6.59a31.34,31.34,0,0,1,.67-6.59,16.75,16.75,0,0,1,2.47-5.84,11.79,11.79,0,0,1,5.09-4.19,48.87,48.87,0,0,1,18.72-3.75,45.61,45.61,0,0,1,7.63.6A20.25,20.25,0,0,1,559,196a4.37,4.37,0,0,1,2,1.72,5.37,5.37,0,0,1,.68,2.39c0,.9.07,2,.07,3.45q-.15,9-.75,17.89t-1.12,17.75q-.52,8.84-.75,17.74t.38,17.89q1.19,8.4-.38,13.85a17.08,17.08,0,0,1-5.46,8.69,21.42,21.42,0,0,1-9.89,4.34,66.36,66.36,0,0,1-13.62,1c-3.1-.19-5.27-1.12-6.52-2.77a12.24,12.24,0,0,1-2.32-6,37.06,37.06,0,0,1-.15-7.49,58.36,58.36,0,0,0,.15-7.11q0-4.2-.22-8.32T520.62,262.67Z"/><path d="M741.07,271.44c-7-4.61-13.4.08-19,4.4a49.22,49.22,0,0,1-24.49,9.68c-22.52,2.59-43.54-7.88-62-19.67a5.15,5.15,0,0,0-3-.87,11.18,11.18,0,0,0-3.87-.66,21.84,21.84,0,0,0-4.86.6c-1.75.4-3.45.88-5.09,1.42s-3.22,1.13-4.72,1.72-2.85,1.15-4,1.65a7.59,7.59,0,0,1-3.6,1.2c-1.89,0-3.12-1.05-3.67-3.14a11.11,11.11,0,0,1,.38-6.59,10.94,10.94,0,0,1,3.29-1.2,19.26,19.26,0,0,1,3.45-.3,38.81,38.81,0,0,1,5.91.45,22.37,22.37,0,0,0,5.77.15q3.74,0,5.39-2.55a15.27,15.27,0,0,0,2.17-6.14,29.88,29.88,0,0,0,.15-7.33c-.25-2.5-.48-4.59-.68-6.29q-1.5-7.18-9.13-6.29a23.65,23.65,0,0,0-4.64.75,45.47,45.47,0,0,0-4.42,1.42l-4.34,1.65a27,27,0,0,1-4.57,1.27,34.63,34.63,0,0,0-.6-3.82,32.51,32.51,0,0,1-.6-4.12,7,7,0,0,1,.53-3.44,3.71,3.71,0,0,1,2.92-1.95,12.31,12.31,0,0,1,3.74-.89c1.3-.1,2.64-.15,4-.15q3.3,0,6.67.3c2.24.2,4.46.29,6.66.29a26.41,26.41,0,0,0,7.11-.89,10.45,10.45,0,0,0,5.47-3.75q1.2-1.93,2.62-4.49a23.7,23.7,0,0,0,2.17-5.24,11.46,11.46,0,0,0,.3-5.17,6.19,6.19,0,0,0-3-4.11l-6.88-1.05q-3.9-.6-8.31-1.2c-3-.4-6-.72-9.14-1s-6.26-.38-9.36-.38a87.07,87.07,0,0,0-9,.45,38.34,38.34,0,0,0-8,1.65,25.1,25.1,0,0,0-6.59,3.22,16.11,16.11,0,0,0-4.72,5,109.35,109.35,0,0,0-3,12.43q-1.35,7.19-2.25,15.35t-1.2,16.7q-.3,8.54-.07,16.62a141,141,0,0,0,1.2,15.2A65,65,0,0,0,575,294.72a13.22,13.22,0,0,0,8.53,7,46.58,46.58,0,0,0,13.33,1.79,118.6,118.6,0,0,0,14.6-.9l3.77-.43a5.24,5.24,0,0,0,3.55.14c.8-.23,1.6-.43,2.41-.64.81-.05,1.59-.09,2.32-.11a17,17,0,0,0,2.83-.78l.1,0a13.83,13.83,0,0,0,1.47-.63,138.51,138.51,0,0,1,44,4.29c10.21,2.76,16.53,6,28.21,5.8a72.14,72.14,0,0,0,26.72-5.86c7.2-3,15.34-7,18.82-14.46C748.49,283.74,747.07,275.36,741.07,271.44Z"/><path d="M684.23,251.37a80.77,80.77,0,0,1-.37,10.15,18.27,18.27,0,0,1-2.65,8.11,12.91,12.91,0,0,1-6.42,5q-4.26,1.65-11.66,1a11.28,11.28,0,0,1-3.7-.88,13.13,13.13,0,0,1-3.27-1.93,8.72,8.72,0,0,1-2.23-2.71,7.13,7.13,0,0,1-.8-3.31q.25-9,.74-18A87.17,87.17,0,0,0,653,231a47,47,0,0,0-.37-5.47c-.25-2.1-.48-4.32-.68-6.68a66.54,66.54,0,0,1-.25-7.06,25.87,25.87,0,0,1,.87-6.46,12.42,12.42,0,0,1,2.65-5,8.48,8.48,0,0,1,5.18-2.65q6.8-.33,15.06-1.32a136.85,136.85,0,0,1,16.54-1,74.85,74.85,0,0,1,10,.66,36.55,36.55,0,0,1,9,2.38,23,23,0,0,1,7.28,4.74,21.63,21.63,0,0,1,5,7.68,24.16,24.16,0,0,1,2.41,10.81,21.3,21.3,0,0,1-2.53,9.44,27.81,27.81,0,0,1-6.54,7.95,51.41,51.41,0,0,1-9.75,6.46q-.37,1.54,2.34,3t6.54,3.09c2.55,1.1,5.11,2.28,7.66,3.53a16.33,16.33,0,0,1,5.67,4.19,5.88,5.88,0,0,1,1.92,4.14,6.57,6.57,0,0,1-1.49,3.87,14.19,14.19,0,0,1-3.88,3.31,29.35,29.35,0,0,1-5.25,2.48,28.31,28.31,0,0,1-5.49,1.38,14,14,0,0,1-4.81-.05,19,19,0,0,1-8.46-3.37,39.25,39.25,0,0,1-6.41-6,86.58,86.58,0,0,1-5.49-7.07A45.2,45.2,0,0,0,684.23,251.37Zm-1.48-26.72a7.43,7.43,0,0,0,1.67.45,11.87,11.87,0,0,0,1.54.11,8.34,8.34,0,0,0,4.63-1.33,10.89,10.89,0,0,0,3.33-3.36,12.49,12.49,0,0,0,1.73-4.36,8.62,8.62,0,0,0-.25-4.36,7.17,7.17,0,0,0-2.53-3.48,8.78,8.78,0,0,0-5.18-1.55q-3.09-.11-4,1.93a11.9,11.9,0,0,0-.8,5q.06,2.93.31,6A11.7,11.7,0,0,1,682.75,224.65Z"/><path d="M795.73,262.58a10.37,10.37,0,0,0-5.16-6.21,38.19,38.19,0,0,0-8.61-3.22c-3.2-.8-6.44-1.47-9.74-2a28,28,0,0,1-8.38-2.62q-9-3.6-13.7-8.84a20.08,20.08,0,0,1-3.67-23,30,30,0,0,1,8.39-10.63,45.54,45.54,0,0,1,14.22-7.71,58,58,0,0,1,19.32-3,83.74,83.74,0,0,1,18,2.1,104.08,104.08,0,0,1,20.14,6.88c2.29.6,3.52,1.88,3.67,3.82a14.47,14.47,0,0,1-1.13,6.37,40.69,40.69,0,0,1-3.44,6.81q-2.1,3.38-3.14,5.17A13.7,13.7,0,0,1,818,231a9.69,9.69,0,0,1-4.64,1.2,12.63,12.63,0,0,1-4.79-1c-1.6-.64-3.24-1.39-4.94-2.24s-3.42-1.62-5.17-2.32a16.68,16.68,0,0,0-5.31-1.2,3.81,3.81,0,0,0-4.05,2.24A3.73,3.73,0,0,0,789,230a3.79,3.79,0,0,0,1.5,2.17,26.63,26.63,0,0,0,5.17,3.29,39.13,39.13,0,0,0,5.69,2.25q2.91.9,5.91,1.57c2,.45,3.94.92,5.84,1.42q9.28,2.4,13.78,8.24A24.78,24.78,0,0,1,832,262a35.32,35.32,0,0,1-1.94,14.83,42.86,42.86,0,0,1-7.79,13.77A37.36,37.36,0,0,1,810,300.24a27.53,27.53,0,0,1-15.42,2.62,57.54,57.54,0,0,1-8-.3,92.19,92.19,0,0,1-9.35-1.42,72.2,72.2,0,0,1-9.51-2.62,39.93,39.93,0,0,1-8.46-4,23.66,23.66,0,0,1-6.22-5.69,15.13,15.13,0,0,1-2.92-7.64c.2-2,.45-4.32.75-7a28.19,28.19,0,0,1,1.8-7.34,15.27,15.27,0,0,1,3.74-5.61q2.4-2.25,6.59-1.8a21.93,21.93,0,0,1,5.54,1.87l6.14,2.92a67.1,67.1,0,0,0,6.29,2.62,17.77,17.77,0,0,0,6,1.12,10,10,0,0,0,4.79-1.19A10.85,10.85,0,0,0,795.73,262.58Z"/></g><path class="cls-3" d="M363.8,243.32a41.92,41.92,0,0,0-4.18-13.86,43.08,43.08,0,0,0-7.28-10.36,32.62,32.62,0,0,0-7-5.59,12,12,0,0,0-2.27-1.09c-.55-.19-.89-.21-1-.06s.12.38.54.77,1.08.88,1.86,1.57a54.4,54.4,0,0,1,6.25,5.86,46.1,46.1,0,0,1,9.5,16.18,47.33,47.33,0,0,1,1.64,6.84,46.22,46.22,0,0,1,.47,7,48.92,48.92,0,0,1-.68,6.83A45.46,45.46,0,0,1,357.94,269a41.91,41.91,0,0,1-4.56,7.39c-.62.86-1.19,1.46-1.54,1.9l-.56.66.6-.63c.38-.41,1-1,1.66-1.8a41.32,41.32,0,0,0,5-7.19A45.39,45.39,0,0,0,363,257.7a47.8,47.8,0,0,0,1-7A46.45,46.45,0,0,0,363.8,243.32Z"/><path class="cls-3" d="M282.18,286.69l-.64-.85-.73-1c-.24-.35-.5-.72-.76-1.11a55.18,55.18,0,0,1-3.3-5.44,66.52,66.52,0,0,1-3-6.6,71.77,71.77,0,0,1-2.14-6.87c-.53-2.23-1-4.33-1.26-6.14-.62-3.62-.93-6.09-1.67-6.09-.53,0-.86,2.56-.46,6.38a42.41,42.41,0,0,0,1.23,6.42,51.91,51.91,0,0,0,2.54,7A55.83,55.83,0,0,0,275.6,279a50,50,0,0,0,3.88,5.19c.31.36.6.71.89,1l.84.89.73.78c.24.24.46.44.66.63l1.25,1.19-1.1-1.33C282.58,287.18,282.38,287,282.18,286.69Z"/><path class="cls-3" d="M299.28,207.47c.52-.2,1.05-.44,1.61-.63l1.77-.59c.3-.1.61-.21.92-.3l1-.26c.65-.16,1.31-.36,2-.52a53,53,0,0,1,8.66-1.18,51.5,51.5,0,0,1,8.77.47c.7.11,1.37.26,2,.38l1,.18c.33.07.64.17.95.25l1.83.47c.59.16,1.14.38,1.68.55s1.05.35,1.54.53l1.35.57,1.19.5c.37.16.69.34,1,.49l1.87,1-1.77-1.13c-.28-.18-.58-.39-.93-.59l-1.16-.61-1.31-.7c-.47-.23-1-.44-1.51-.68s-1.07-.49-1.66-.7l-1.82-.64c-.31-.11-.63-.23-1-.32l-1-.27c-.67-.18-1.36-.39-2.07-.55a47.8,47.8,0,0,0-9-1.06A45.94,45.94,0,0,0,306,203c-.71.15-1.41.35-2.09.52l-1,.27c-.33.1-.65.22-1,.33l-1.84.65c-.6.22-1.15.5-1.68.74s-1.05.47-1.52.72-.91.52-1.31.77-.79.48-1.14.7a10.26,10.26,0,0,0-.89.7c-1.06.88-1.56,1.5-1.36,1.8C292.56,210.7,295.14,209.13,299.28,207.47Z"/><path class="cls-3" d="M355.76,268l.15-.29c.4-.86.83-1.73,1.19-2.65s.71-1.86,1-2.81.6-2,.83-3a37.59,37.59,0,0,0,1-6.18,40.91,40.91,0,0,0,0-6.26,43.53,43.53,0,0,0-.89-6,44.45,44.45,0,0,0-1.61-5.4c-.34-.82-.63-1.64-1-2.4L356,231.9l-.54-1.06a39.66,39.66,0,0,0-4.06-6.3c-.54-.72-1-1.24-1.33-1.61l-.49-.56.44.6c.29.39.73.94,1.22,1.7a40.48,40.48,0,0,1,3.57,6.48l.47,1.08.43,1.13c.31.76.55,1.58.83,2.41a45.05,45.05,0,0,1,1.26,5.32,43.66,43.66,0,0,1,.57,5.8,42.63,42.63,0,0,1-.29,6,39.43,39.43,0,0,1-.95,5,42.73,42.73,0,0,0-55.64-47.94l.51-.2a45,45,0,0,1,5-1.48,43.8,43.8,0,0,1,13.83-.84c2.59.24,4.74.63,6.27.88a15.25,15.25,0,0,0,1.81.21c.44,0,.7-.07.76-.24s-.12-.32-.49-.55a9.23,9.23,0,0,0-1.67-.82,28.08,28.08,0,0,0-6.43-1.61,37.91,37.91,0,0,0-9.38-.06,41,41,0,0,0-5.21,1,37.64,37.64,0,0,0-10,4.24,43.37,43.37,0,0,0-4.31,3,41.76,41.76,0,0,0-4.58,4.34,43.53,43.53,0,0,0-5.16,5.18c1-1.68,1.84-3.08,2.52-4.18.5-.86.91-1.51,1.13-2s.29-.82.15-.93-.37,0-.79.4a13.41,13.41,0,0,0-1.66,1.66,40.78,40.78,0,0,0-4.77,6.84,54.42,54.42,0,0,0-4.61,10.88,54.77,54.77,0,0,0-2.25,13.33,60.35,60.35,0,0,0,.15,6.87,61.44,61.44,0,0,0,.95,6.57,57.9,57.9,0,0,0,3.53,11.17,54.79,54.79,0,0,0,3.86,7.3c.51.85,1,1.48,1.27,1.93l.46.67-.41-.7c-.27-.47-.69-1.13-1.14-2a56.51,56.51,0,0,1-3.38-7.46,61.18,61.18,0,0,1-2.26-7.88,42.69,42.69,0,0,0,58.63,23.36l-.39.24c-.58.35-1.08.64-1.51.87l-1.34.72,1.43-.54c.46-.16,1-.39,1.62-.67l1-.43,1.08-.53a47.55,47.55,0,0,0,5-2.86,50.64,50.64,0,0,0,5.27-4,46.25,46.25,0,0,0,4.64-4.78,36.2,36.2,0,0,0,3.35-4.75A17.71,17.71,0,0,0,355.76,268Z"/><path class="cls-4" d="M374.46,245.79s2.33-.68,2.33-1.92-1.78-3.43-2.61-4.66-3.7-2.61-3.7-2.61-.69-1.1-1.51-1.24a28.57,28.57,0,0,0-2.88-.13s-7.92-3.07-11.35-2.93-7.14,3.11-7.14,3.11-6.5-1.28-9,.78c.69-1-1.51-5.36-4.25-5.77s-11.94,1.51-11.94,1.51.41-1.78-1.92-2.06a26.75,26.75,0,0,0-6.59.69s-4.53-7.33-6.59-7.61-6.59,4.73-6.59,4.73l-6.31-1.79s-5.63-2.33-8.1-1.64c-.55-.14-10.57-4-12.49-4.12a51,51,0,0,0-7.41.82s-4.12-1.65-5.49-1.23a21.33,21.33,0,0,0-4,2.19,2.54,2.54,0,0,0-2.2.69c-1,1-2.61,5.21-2.61,5.21l-4.12,3.3,2.2,2.61,4-3s.82,2.19,2.75,1.51,5.21-4,5.21-4a24.2,24.2,0,0,1,4.67,0c1.65.27,2.74,2.33,5.35,2.88a12.74,12.74,0,0,0,5.77-.55s.68,5.76,11.25,7.14c.14.55-.55,8.64,1.79,12.21-.42.41,2.05,7.14,6.58,9.2,0,0-1.37,2.06,1.65,3,.14.68-3.13,8,3.22,10-4.4,4.72-11.07,5.53-16.93,7.16s-11.82,4.82-12.5,7-1.65,4.52-2.06,5.62-.55,4.67.68,6.32,4.12,1.23,4.12,1.23a24.17,24.17,0,0,0,7.82,1.79c4.53.27,5.91-.83,7.69-1.79A57,57,0,0,1,298,297l2.05-1.51s10,11.53,11.67,11.12,1.92-1.92,1.51-3.43-8-10.57-8-10.57,5.9.55,8-.55c.55.14,6,2.06,8.92,1.24-.55.68-3.29,2.6-3.57,4.25s2.2,5.08,2.2,5.08-2.2,22.78-.41,23.2,5.21-2.2,6-4.53c.53-1.5-.25-6-.87-9a9.77,9.77,0,0,1,.59-5.8,42,42,0,0,1,6.35-2.95,16.56,16.56,0,0,0,4.41-2,38.58,38.58,0,0,0,3.52-3.95,28.83,28.83,0,0,0,2.88-6.18s4.8-6.17,5.35-9.33.42-7-1.37-8.65a4.85,4.85,0,0,0-4.25-1s-2.61-2.61-4.81-2.88a17.4,17.4,0,0,0-5.49.69l-7.41.68s2.47-2.19,2.61-3.57,2.47-2,2.33-4.39a7.32,7.32,0,0,1,.41-3.43s3.16-6,3.3-6.59a36.33,36.33,0,0,1,2.19-3.7s6.87-.83,10.3-4c1.64-.69,6.31-.69,9.06-2.61,1.09-.28,6.31-2.06,6.31-2.06l4.8,1.65s1.93,4.11,2.75,4.66a3.87,3.87,0,0,0,2.33.28l3.85,4,2.06-1.51Z"/><path class="cls-5" d="M343,272.42s-2.61-2.61-4.81-2.88a17.4,17.4,0,0,0-5.49.69l-7.41.68s.22-.19.52-.5a6.56,6.56,0,0,0-1.31.74,7.49,7.49,0,0,0-.9.79c-.16.17.1.43.26.26l.28-.26c-.08.14.08.36.24.25a4.71,4.71,0,0,1,3.31-.58,24.83,24.83,0,0,0,3.53.35c1.39-.06,2.74-.47,4.13-.54a11.42,11.42,0,0,1,3.85.49c2.07.64,4.3,2.12,4.79,4.38a3.09,3.09,0,0,1,0,1.54,16.25,16.25,0,0,1-.75,1.58,1.92,1.92,0,0,0,0,1.54,11.65,11.65,0,0,0,1,1.57,8.29,8.29,0,0,1,1.41,3.9,4.44,4.44,0,0,1-1.25,3.43.16.16,0,0,0,0,.2c1.43-2,4-5.77,4.37-8,.55-3.16.42-7-1.37-8.65A4.85,4.85,0,0,0,343,272.42Z"/><path class="cls-5" d="M307.55,272.29c-2.19-1.31-5.66-3.28-3.38-10,0-.1-8.05-4.35-8.07-4a8.38,8.38,0,0,0,1.49.89s-1.37,2.06,1.65,3c.14.68-3.13,8,3.22,10-4.4,4.72-11.07,5.53-16.93,7.16s-11.52,5.37-12.21,7.57-2.11,2.28-2.35,5.07c-.1,1.17-.55,4.67.68,6.32s4.12,1.23,4.12,1.23.5.23,1.37.52a9.63,9.63,0,0,1-2.8-2.09,4.1,4.1,0,0,1-.93-1.89,5.46,5.46,0,0,1,.31-2.62c.29-.92.66-1.82.86-2.77a4.69,4.69,0,0,0,.51,1.06,4,4,0,0,0,2.68,1.84,3.37,3.37,0,0,0,.84,0c.23,0,.23-.4,0-.37a3.33,3.33,0,0,1-2.93-1.29,4.12,4.12,0,0,1-.91-3.27c.4-2.58,2.67-4.36,5-5.28a30.05,30.05,0,0,1,4.13-1.22c1.5-.36,3-.76,4.46-1.19s3-.92,4.44-1.43c1.19-.42,2.37-.85,3.51-1.38a13.23,13.23,0,0,0,5.63-4.31l.19-.29.35.16,2.86,1.3,6.42,2.92c.11.05,1.34.41,1.33.26C312.77,275.6,309.58,273.51,307.55,272.29Z"/><path class="cls-5" d="M354.74,232.3c-3.43.13-7.14,3.11-7.14,3.11s-6.5-1.28-9,.78c.69-1-1.51-5.36-4.25-5.77s-11.94,1.51-11.94,1.51.41-1.78-1.92-2.06a26.75,26.75,0,0,0-6.59.69s-4.53-7.33-6.59-7.61-6.59,4.73-6.59,4.73l-6.31-1.79s-5.63-2.33-8.1-1.64c-.55-.14-10.57-4-12.49-4.12a38.69,38.69,0,0,0-6.15.61.47.47,0,0,1,.05.1,1,1,0,0,1,0,.37c-.19-.14-.37.17-.18.31l0,0a.25.25,0,0,1-.29,0c-.22-.09-.4.22-.19.32a.68.68,0,0,0,.77-.14c1.56.94,3.49.57,5.22.3a10.75,10.75,0,0,1,3.44-.14,11,11,0,0,1,2.94,1.05c1.9.95,3.68,2.15,5.79,2.59,1.2.25,2.44.32,3.64.54a14.73,14.73,0,0,1,3.47,1.15,37.1,37.1,0,0,1,6.51,4.24.2.2,0,0,0,.23,0c1.93-1.92,4.68-4.4,7.64-3.94,2.47.38,3.68,2.76,5.09,4.54a6.37,6.37,0,0,0,2.75,2.2.18.18,0,0,0,.22-.13c.24-1.15,1.52-1.42,2.54-1.33,1.29.12,2.37.95,3.56,1.42a4.06,4.06,0,0,0,1.92.32,6,6,0,0,0,1.64-.54,3.41,3.41,0,0,1,1.88-.48c.75.15.94.92,1.24,1.5,1,2,3.62,1.4,5.45,1.5a4.85,4.85,0,0,1,1.8.39c.59.28,1.1.69,1.66,1a3.82,3.82,0,0,0,3.1.49A30.52,30.52,0,0,0,343,237a5.41,5.41,0,0,1,1.81-.41A7.67,7.67,0,0,1,347,237a5.15,5.15,0,0,0,2,.22,6.92,6.92,0,0,0,1.87-.6,10.39,10.39,0,0,1,2.23-.73,12.94,12.94,0,0,1,2.32-.17c2.64,0,5.44.52,7.91-.71a5.55,5.55,0,0,0,.81-.51C361.5,233.6,357.08,232.2,354.74,232.3Z"/><path class="cls-5" d="M336,284.42a2.7,2.7,0,0,1-3,.39,1.57,1.57,0,0,1-.44-2.23.17.17,0,0,0,0-.28c-1.58-.82-3.18.73-3.73,2.11-.36.89-.52,1.84-.84,2.74a4.8,4.8,0,0,1-.64,1.23c-.27.37-.62.67-.87,1.06a2.57,2.57,0,0,0-.36,1.3,1.54,1.54,0,0,1-.55,1.32,10,10,0,0,1-1.28.71c-.46.23-.92.45-1.37.7-1.61.87-3.29,2.13-3.67,4a4.41,4.41,0,0,0,.51,2.82,11.85,11.85,0,0,1,1.06,2.39h0c-.15,1.59-2.12,22.7-.4,23.1a2.25,2.25,0,0,0,.82,0l.05-.17a14.71,14.71,0,0,0,.27-2.49c.05-.9.07-1.81,0-2.72a35.86,35.86,0,0,0-.59-5.37c-.16-.9-.32-1.8-.41-2.71a17.26,17.26,0,0,1,0-2.69c.1-1.8.38-3.6.35-5.4,0-.4,0-.8-.07-1.19h.08s0,.08,0,.12c0,.23.39.23.37,0l-.06-.35c.12.16.4,0,.3-.21-1-1.89.27-4,1.76-5.23,1.68-1.32,3.77-2,5.52-3.17a7.11,7.11,0,0,0,2.1-2.13.78.78,0,0,0,.19-.36c0-.19-.24-.33-.34-.14a2.15,2.15,0,0,1-.14.26.65.65,0,0,1-.59.1c-.43-.12-.54-.62-.5-1a3.63,3.63,0,0,1,1.11-2,22.62,22.62,0,0,1,3.75-2.57,7.7,7.7,0,0,0,1.88-1.67C336.37,284.56,336.22,284.28,336,284.42Z"/><path d="M309.71,213.33c1.77-1.21,2.56-3.13,1.77-4.29s-2.87-1.11-4.64.1-2.56,3.13-1.77,4.29S308,214.55,309.71,213.33Z"/><path d="M315.5,207.47c1.22-.83,1.76-2.15,1.22-2.94s-2-.77-3.19.06-1.76,2.15-1.21,2.95S314.29,208.3,315.5,207.47Z"/><path d="M345,207.29c1.21-.83,1.75-2.15,1.21-2.95s-2-.76-3.18.07-1.76,2.15-1.22,3S343.75,208.12,345,207.29Z"/><path d="M349.58,250.35c-1.21.83-1.75,2.15-1.21,2.94s2,.77,3.19-.07,1.75-2.15,1.21-2.94S350.8,249.51,349.58,250.35Z"/><path d="M345.84,230.63c1.22-.84,1.76-2.15,1.21-2.95s-2-.76-3.18.07-1.76,2.15-1.21,2.94S344.63,231.46,345.84,230.63Z"/><path d="M286.45,217.17c-1.21.84-1.76,2.15-1.21,3s2,.76,3.18-.07,1.76-2.15,1.21-2.94S287.66,216.34,286.45,217.17Z"/><path d="M315.42,211.53c.35.51,1.26.49,2,0s1.12-1.37.77-1.88-1.26-.49-2,0S315.07,211,315.42,211.53Z"/><path d="M336.81,219c.77-.54,1.12-1.38.77-1.89s-1.26-.49-2,0-1.12,1.38-.77,1.89S336,219.55,336.81,219Z"/><path d="M340.46,216.28c.57-.39.88-.94.68-1.23s-.82-.21-1.39.18-.88,1-.68,1.23S339.89,216.67,340.46,216.28Z"/><path d="M301.72,210.1c.57-.39.88-.94.68-1.23s-.82-.2-1.39.19-.88.94-.68,1.23S301.15,210.5,301.72,210.1Z"/><path d="M328.49,218.36c.57-.39.87-.94.67-1.23s-.82-.2-1.39.19-.88.94-.68,1.23S327.91,218.76,328.49,218.36Z"/><path d="M294.16,218.34c-.57.39-.87.95-.67,1.23s.82.21,1.39-.18.87-.94.68-1.23S294.73,218,294.16,218.34Z"/><path d="M343.62,250.26c.57-.39.88-.95.68-1.24s-.82-.2-1.4.19-.87.94-.67,1.23S343.05,250.65,343.62,250.26Z"/><path d="M305,280.12a2.55,2.55,0,0,0-.31-.47A1.08,1.08,0,0,0,305,280.12Z"/><path d="M321.32,303.69a.49.49,0,0,0,.57-.23.51.51,0,0,0,0-.39c0-.07-.07-.1-.13-.14-.38-.52-.81-1.09-1.19-1.71a6.55,6.55,0,0,1-.95-2.33,3.22,3.22,0,0,1,.46-2.43,2.91,2.91,0,0,1,.43-.51c.16-.17.35-.31.53-.47a7.48,7.48,0,0,1,1.25-.77,15.62,15.62,0,0,1,2.9-.95c1-.25,2-.46,2.91-.73a12,12,0,0,0,2.56-1,6.6,6.6,0,0,0,1.81-1.53,8.48,8.48,0,0,1-2,1,16.45,16.45,0,0,1-2.55.6l-.68.1a5.22,5.22,0,0,1,1.16-3.38c.5-.26,1-.5,1.54-.74a42.21,42.21,0,0,0,4.72-2.23,10.06,10.06,0,0,0,3.22-2.81,17.53,17.53,0,0,1-3.66,1.94c-1,.42-2.14.81-3.32,1.27a3,3,0,0,1-.71-1.9,4.36,4.36,0,0,1,0-.51,8.73,8.73,0,0,1,.93-.78c.52-.38,1.09-.72,1.65-1.05s1.11-.67,1.62-1a25.58,25.58,0,0,0,2.6-1.91,24.89,24.89,0,0,0-3.06,1.05c-.56.23-1.14.48-1.75.76q-.52.25-1.08.57l.07-.11A11.07,11.07,0,0,1,329,282a66.4,66.4,0,0,1,8.37-6,22.23,22.23,0,0,0-4.52,1.81,26.28,26.28,0,0,0-3.31,2.1l.21-.23q1.76-2,3.44-3.51c1.11-1,2.19-1.94,3.16-2.73A10.06,10.06,0,0,0,332,274.5a14.37,14.37,0,0,0-3.94,2.92c.34-.59.67-1.17,1-1.71a14,14,0,0,1,3.19-3.93,6.58,6.58,0,0,0-2.4.86,11.46,11.46,0,0,0-2.33,1.87,22,22,0,0,0-1.79,2.12c.61-1.6,1.09-3,1.52-4.31a16.32,16.32,0,0,0-3.27,3.49c-1.06,1.44-2.05,3.07-3.15,4.64-.16.23-.33.46-.5.68a11.84,11.84,0,0,1-10.64-.91c-.3-.25-.6-.52-.9-.8a.62.62,0,0,0-.49-.49c-.31-.33-.61-.67-.91-1-.6-.73-1.15-1.48-1.65-2.22-.3-.45-.59-.9-.89-1.34l.21.15c.68.48,1.39,1,2.14,1.55a15.78,15.78,0,0,0,2.37,1.39,8,8,0,0,0,2.52.72,5.87,5.87,0,0,0,2.35-.18,4.23,4.23,0,0,0,1.72-1,5.29,5.29,0,0,1-1.82.44,6.31,6.31,0,0,1-1.36-.09,7.66,7.66,0,0,0-1.17-1.8,14.39,14.39,0,0,0-1.92-1.78,32.3,32.3,0,0,1-4.43-3.67,6.84,6.84,0,0,1-1.57-3c.62.22,1.28.43,2,.61a20,20,0,0,0,6.5.59,16.79,16.79,0,0,0,6.28-1.77,13.67,13.67,0,0,0,4.15-3.21,17,17,0,0,1-4.36,2.77,19,19,0,0,1-6.13,1.54,23.31,23.31,0,0,1-6.34-.4c-.76-.15-1.49-.32-2.17-.51a6.92,6.92,0,0,1-.14-1.62,8.54,8.54,0,0,1,.48-2.51,17.73,17.73,0,0,0,4.75.69,21.12,21.12,0,0,0,9-1.89c-2.31.19-5.47.59-8.95.56a33.73,33.73,0,0,1-4.43-.35c.08-.2.15-.4.22-.59a19.31,19.31,0,0,0,5.51-.08,19,19,0,0,0,5.54-1.81,16.16,16.16,0,0,0,3.82-2.69,41.2,41.2,0,0,1-4.21,1.8,32.58,32.58,0,0,1-5.37,1.39,31.64,31.64,0,0,1-5.53.37,40.28,40.28,0,0,1-4.56-.38,16.28,16.28,0,0,0,4.48,1.35l.18,0c-.13.18-.27.37-.4.57l-.11,0a34.88,34.88,0,0,1-3.94-.86,13,13,0,0,0,3.51,1.75l0,0a7.11,7.11,0,0,0-1,3.9c-.58-.18-1.12-.37-1.63-.55q.75.39,1.65.78a7.44,7.44,0,0,0,.24,1.45,6.81,6.81,0,0,0,.61,1.52,5.41,5.41,0,0,0,.45.72,6.67,6.67,0,0,0,.52.67,12.37,12.37,0,0,0,2.45,2.08c.84.57,1.66,1,2.43,1.51a21.25,21.25,0,0,1,2.1,1.39,10.53,10.53,0,0,1,1.49,1.38,6,6,0,0,1-.66-.14,9.37,9.37,0,0,1-2.13-.87,22.88,22.88,0,0,1-2.16-1.38c-.74-.51-1.47-1-2.23-1.49a18.23,18.23,0,0,0-2.24-1.14l-.68-.31-.36-.29a5.62,5.62,0,0,0-.9-.48,14.65,14.65,0,0,1-1.39-1.59,3.09,3.09,0,0,1-.49-1.08,6.82,6.82,0,0,1-.09-1.35c0-1,0-2,0-2.89a13.3,13.3,0,0,1,.17-1.77l.37.07a4.24,4.24,0,0,0,1.48,0,25.81,25.81,0,0,0-2.43-1.73,5.26,5.26,0,0,1-1.47-1.64l.21.08-.3-.26-.12-.3-.08.13c-12.79-11.22-3.46-29.07,1.27-31.67.78.16,1.5.29,2.15.39a23.91,23.91,0,0,0-14.24-3.4l-3.75-1.86a33.31,33.31,0,0,0-4.91-2,14.3,14.3,0,0,0-5.4-.64,9.1,9.1,0,0,0-3,.83c-1.66.23-3.09.48-3.09.48l-.06,0c7.81-6.35,30.46-24.7,31.84-25.26-7.86.71-29.4,18.9-35.46,24.14a4.12,4.12,0,0,0-1.81-.09,21.33,21.33,0,0,0-4,2.19,2.54,2.54,0,0,0-2.2.69c-1,1-2.61,5.22-2.61,5.22L248,231.11l2.2,2.61,4-3s.82,2.2,2.75,1.51,5.21-4,5.21-4a27,27,0,0,1,4.16-.06h0l.51.07c1.65.27,2.74,2.33,5.35,2.88a12.74,12.74,0,0,0,5.77-.55s.68,5.76,11.25,7.14c0,0-1.7,3.74-.19,10.56,1.33,6.05,6.38,9.74,8.34,10.77a1.94,1.94,0,0,0-.07,1.25,2.94,2.94,0,0,0,1.11,1.64,4,4,0,0,0,1.07.54,5.38,5.38,0,0,0-.82,1.7,10.72,10.72,0,0,0-.38,3,5.43,5.43,0,0,0,.24,1.71,3.45,3.45,0,0,0,1,1.38,5.28,5.28,0,0,0,1,.64,5.65,5.65,0,0,0,.77.87,11.85,11.85,0,0,0,1,.8,16.62,16.62,0,0,1-1.87,1.39,21.8,21.8,0,0,1-5.42,2.42c-2.28.72-5,1.23-7.82,2a31.83,31.83,0,0,0-4.28,1.39,29,29,0,0,0-4.1,2.05,29.56,29.56,0,0,0-3.69,2.62l-.49.46a5.77,5.77,0,0,1,.89-1.19,4.53,4.53,0,0,0-1.55,1.25,5.58,5.58,0,0,0-1,2.15,5.46,5.46,0,0,0,0,2.72,5.31,5.31,0,0,0,.59,1.37,5.6,5.6,0,0,0,.95,1.17,7.93,7.93,0,0,0,5.06,2,10.24,10.24,0,0,0,4-1c.08-.06,0-.07-.31,0a10.33,10.33,0,0,1-3.45,0,9.13,9.13,0,0,1-2.69-.94,7.48,7.48,0,0,1-2.53-2.16,4.11,4.11,0,0,1-.39-.82,5.18,5.18,0,0,1-.27-1.9,3.77,3.77,0,0,1,.23-.64,5.71,5.71,0,0,1,1.22-1.55A19,19,0,0,1,277,284a30.33,30.33,0,0,1,7.81-4.09c2.77-.95,5.57-1.5,8-2.17a27.77,27.77,0,0,0,6.12-2.33,13.63,13.63,0,0,0,2.85-2c.23-.23.41-.42.55-.59a5.69,5.69,0,0,0-.07,1.19,7.34,7.34,0,0,0,.6,2.65,7.42,7.42,0,0,0,1.52,2.25,5.58,5.58,0,0,0,1.81,1.25,40.63,40.63,0,0,1-2.1-4c-.41-.95-.74-1.86-1-2.7.12.18.24.38.35.58.41.71.8,1.49,1.28,2.31a16.89,16.89,0,0,0,1.67,2.42,14.15,14.15,0,0,0,1.72,1.74,3.82,3.82,0,0,1-.95.13,7.2,7.2,0,0,0-.82.15c-2.7-1.06-5.09-2.23-6.92-2.95a20.8,20.8,0,0,0,5.82,3.93,1.57,1.57,0,0,1-.23.67,2.39,2.39,0,0,1-1,.95l-.65-.15a34.36,34.36,0,0,0-6.35-1.09,11.25,11.25,0,0,0-5.16.83,16.51,16.51,0,0,1,5.06.14c1.88.31,3.93.89,6.14,1.42l1.14.25a1.4,1.4,0,0,1,.07.76,1.6,1.6,0,0,1-.66,1l-1.36-.56a25.63,25.63,0,0,0-5.86-1.83,10.37,10.37,0,0,0-2.71-.07,7.58,7.58,0,0,0-2.23.59,11.77,11.77,0,0,1,4.74.44,51.08,51.08,0,0,1,5.55,2.1,26.6,26.6,0,0,0,3.54,1.23,2.25,2.25,0,0,1,.08.24,54,54,0,0,1-5.46-.18c-2.81-.23-5.53-.57-8.05-.73a34.57,34.57,0,0,0-6.7.13c1.83.56,4,1.18,6.4,1.8a55.28,55.28,0,0,0,6.54,1.29c-.64,0-1.29,0-2,0-3.09-.12-6-.49-8.77-.84s-5.2-.67-7.29-.79a46.63,46.63,0,0,0,6.88,2.7,36.38,36.38,0,0,0,9.08,1.6,26,26,0,0,0,4.88-.28l-.8.17c-2.2.43-4.62.84-7.18,1.18s-5,.52-7.24.67l-6,.32a23.14,23.14,0,0,0,6,1.63,29.24,29.24,0,0,0,7.66,0,29.54,29.54,0,0,0,6.11-1.46,34.07,34.07,0,0,1-3.63,1.82,33.05,33.05,0,0,1-6.65,2.06,30.35,30.35,0,0,1-3.57.46,23.49,23.49,0,0,1-3.34.05,16.34,16.34,0,0,1-4.65-.9,6.28,6.28,0,0,0,1.76-1.46,9.57,9.57,0,0,1-3.15,1,4.81,4.81,0,0,1-3.51-.86,4.14,4.14,0,0,1-1.16-1.45,4.82,4.82,0,0,1-.41-1.75,11,11,0,0,1,.12-2.09,3.12,3.12,0,0,0,.61.73,4,4,0,0,0,1.06.7,5.83,5.83,0,0,0,2,.5c-.78-.84-2.13-1.69-2.65-2.91a2.67,2.67,0,0,1-.24-.92A1.75,1.75,0,0,1,272,290c.11-.3.29-.62.41-.95a1.69,1.69,0,0,0,.09-1c-.26.54-.79.78-1.33,1.42a2.41,2.41,0,0,0-.53,1.32,3.16,3.16,0,0,0,.25,1.45,7.37,7.37,0,0,0-.84,2.54,4.8,4.8,0,0,0,.24,2.25,4.67,4.67,0,0,0,1.48,2,4.75,4.75,0,0,0,2.31.95,5.47,5.47,0,0,0,2.23-.18,6.68,6.68,0,0,0,1-.4,10.84,10.84,0,0,0,1.7.9,13.6,13.6,0,0,0,3.05.85,19.06,19.06,0,0,0,3.51.23,23.69,23.69,0,0,0,3.77-.4,22.86,22.86,0,0,0,6.82-2.5,20.1,20.1,0,0,0,4.13-3l.37-.15c.56-.23,1.09-.47,1.6-.72,5.14,1.51,8.85,5.35,11.15,10.12a4,4,0,0,0-.15-1.56c-.38-1.41-7-9.37-7.86-10.45l.15-.1c1.13.09,5.9.4,7.71-.57.55.14,6,2.06,8.92,1.24l-.06.07-.34.15a7.43,7.43,0,0,0-1.51,1,7.31,7.31,0,0,0-.64.6,4.83,4.83,0,0,0-.54.72,3.81,3.81,0,0,0-.54,1.7,4.54,4.54,0,0,0,.18,1.62,6.14,6.14,0,0,0,1.46,2.44,10.19,10.19,0,0,0,1,1c-.19-.09-.33-.1-.44,0a.64.64,0,0,0,0,.65A.86.86,0,0,0,321.32,303.69ZM287,229.19c-2.38-2-2.93-1.1-6.23-1.65s-1.83-3.66-1.83-3.66a11.45,11.45,0,0,1-4.21,3.29c-2.56,1.1-4-.73-6.4-1.46a13.1,13.1,0,0,0-1.72-.4,8.55,8.55,0,0,1,2.93-4.47,12.13,12.13,0,0,1,3-.22,21,21,0,0,1,5,.93c1.74.54,3.39,1.18,4.94,1.68a22.5,22.5,0,0,0,4,1c1.81.58,4.33,1.19,7.11,1.85l1.19.28a21.72,21.72,0,0,0-4.8,7.76A13.17,13.17,0,0,0,287,229.19Z"/><path d="M349.59,275.68a5.73,5.73,0,0,0-.67-1.12c-.11-.15-.23-.29-.35-.43A3.26,3.26,0,0,0,347.2,273l0,.07a.57.57,0,0,0-.13-.08,5.23,5.23,0,0,0-2.09-.7,3.86,3.86,0,0,0-1.85.25,6.15,6.15,0,0,0-1.78-2,7,7,0,0,0-6.88-.77,5.87,5.87,0,0,0-.79.41,20.66,20.66,0,0,0-5.12-.34,11.1,11.1,0,0,0-2.27.41l0,0a9.36,9.36,0,0,0,1.88-3.06,21.39,21.39,0,0,1-2.55,2.34,18.05,18.05,0,0,1-3.54,2.13,18.34,18.34,0,0,1-3.94,1.23,20.48,20.48,0,0,1-3.45.33,9.11,9.11,0,0,0,3.54.64,11.1,11.1,0,0,0,3-.48c-1.37,1.28-2.52,2.58-3.73,3.58a12.21,12.21,0,0,1-2.26,1.56,8.09,8.09,0,0,1-2.27.82,6.56,6.56,0,0,0,2.49-.3,10.89,10.89,0,0,0,2.63-1.3,61,61,0,0,0,5-4.23,12.74,12.74,0,0,1,2.68-1.76,12.23,12.23,0,0,1,2.85-.9,47.38,47.38,0,0,1,4.87-.56,5.84,5.84,0,0,0-1.37,1.19,15.45,15.45,0,0,1,2.57-.74,10.94,10.94,0,0,1,3.1-.12,10.66,10.66,0,0,1,3,.81,14.13,14.13,0,0,1,2.34,1.29l-.06-.11a4.89,4.89,0,0,1,4.64,2.49,4.16,4.16,0,0,1-.06.93,5.64,5.64,0,0,1-1.86,2.88,10.77,10.77,0,0,1-3.16,2,13.89,13.89,0,0,1-3.18.86,6.15,6.15,0,0,0,3.53.56,7.59,7.59,0,0,0,4.14-1.9l-.27.5a22.76,22.76,0,0,1-3.23,4.51,41.26,41.26,0,0,1-8,6.31,19.57,19.57,0,0,0,4.35-1.79,18.82,18.82,0,0,0,4.64-3.62,15.81,15.81,0,0,0,3.14-5,12.92,12.92,0,0,0,.68-2.51l.12-.22a11.5,11.5,0,0,1-.66,3.38,19.46,19.46,0,0,1-2.43,4.61,21.37,21.37,0,0,1-7.7,6.53,22,22,0,0,1-8.12,2.26,16.66,16.66,0,0,0,8.7-.92,20,20,0,0,0,4.66-2.55c-.44.7-.91,1.45-1.43,2.23a24.32,24.32,0,0,1-2.54,1.56,23.25,23.25,0,0,1-4.6,1.88,23.7,23.7,0,0,1-4.91.81,27.34,27.34,0,0,1-4.12-.08,12.44,12.44,0,0,0,4.11,1.06,14.9,14.9,0,0,0,10.05-2.84c.28-.22.55-.43.81-.65a22.3,22.3,0,0,1-4.09,4.52,11.07,11.07,0,0,1-2.91,1.67,11.94,11.94,0,0,1-3.09.76,13.53,13.53,0,0,1-5.54-.53,9.14,9.14,0,0,0,2.38,1.34,5.06,5.06,0,0,0-1.31.44,6.28,6.28,0,0,0-2.66,2.52,7.19,7.19,0,0,0-.92,3.53,6.88,6.88,0,0,0,.58,2.8,13.91,13.91,0,0,1,1.5-5.67,8.31,8.31,0,0,1,2-2.35,7.35,7.35,0,0,1,1.61-1,10.42,10.42,0,0,0,1.91.34c-.43.12-.87.25-1.33.4a8.87,8.87,0,0,0-1.61.69,5.08,5.08,0,0,0-1.48,1.24,5,5,0,0,0-.95,1.86,7.16,7.16,0,0,0-.24,2.12,16.17,16.17,0,0,0,.82,4.22,21.39,21.39,0,0,1,.94,3.9,5.44,5.44,0,0,1-.58,3.38,5.9,5.9,0,0,1-1.54,1.69,4.33,4.33,0,0,0,.32-1,6.73,6.73,0,0,0,0-2.72,8.29,8.29,0,0,0-.69-2c-.29,1.21-.27,2.86-.62,4.46a6.2,6.2,0,0,1-2.13,3.6h0l-.11.09L321,326a3.11,3.11,0,0,0,1.95-.86,2,2,0,0,0,.25-.25l.32-.16a14.88,14.88,0,0,0,1.48-.89,5.47,5.47,0,0,0,1.37-1.35,5.05,5.05,0,0,0,.84-1.89,7.18,7.18,0,0,0,.15-2.12,17.87,17.87,0,0,0-.89-4.2,17.31,17.31,0,0,1-.86-3.88,5.22,5.22,0,0,1,.73-3.34,6.33,6.33,0,0,1,2.52-2c.61-.31,1.2-.58,1.76-.86a10.39,10.39,0,0,0,3.48-.47,10.69,10.69,0,0,0,3.55-1.85,14.42,14.42,0,0,0,2.69-2.86,20.34,20.34,0,0,0,1.81-3,21.09,21.09,0,0,0,1.66-4.69,18.71,18.71,0,0,0,3.41-3.62,17.87,17.87,0,0,0,2.57-5.22,10.75,10.75,0,0,0,.27-5.5A7.83,7.83,0,0,0,349.59,275.68Z"/><path d="M315.16,270.87a15.57,15.57,0,0,0,4.83-.1,17.49,17.49,0,0,0,5.68-2,11.55,11.55,0,0,0,2.58-1.88,7.15,7.15,0,0,0,1.71-2.51,9.29,9.29,0,0,0,.58-2.59,17.18,17.18,0,0,0,.06-2.23c-.19.65-.37,1.37-.6,2.13a11,11,0,0,1-.93,2.27,9.8,9.8,0,0,1-4.05,3.65,26.59,26.59,0,0,1-5.25,2.25A34.59,34.59,0,0,1,315.16,270.87Z"/><path d="M317.15,250.67a12,12,0,0,0,5.13-8.72,32.9,32.9,0,0,1-2.18,4.59A32.42,32.42,0,0,1,317.15,250.67Z"/><path d="M374.46,245.79a6.36,6.36,0,0,0,1.07-.44h0c.62-.33,1.27-.83,1.27-1.48,0-1.24-1.78-3.43-2.61-4.67s-3.7-2.6-3.7-2.6-.69-1.1-1.51-1.24a15.28,15.28,0,0,0-1.83-.12c-6.25-6.65-24.56-25.56-32-27.05.58.31,5,4.56,10.26,9.81l-.08.05c-1.21.83-1.75,2.15-1.21,2.94s2,.77,3.19-.06a4.51,4.51,0,0,0,.57-.48c4.69,4.66,9.74,9.73,13.4,13.4a8.84,8.84,0,0,1,1.24,3.8c-2-1-5.07-2.17-7.23-1.51-1.79.54-3.59,2.85-5.22,4.6,0-.05,0-.11,0-.16a3.49,3.49,0,0,0-1.78-2.32,16,16,0,0,0,.49,2.65c.08.31.16.61.25.9a5.45,5.45,0,0,1-.88.66v-.13a6,6,0,0,0-2.58-4.26,4.62,4.62,0,0,0-1.91-.75,21.79,21.79,0,0,1,2.52,3.29,17.27,17.27,0,0,1,1.11,2.18,1.28,1.28,0,0,1-1.11-.44c-5.13-5.3-6.77-4.21-6.77-4.21s2,6.59-3.48,9.52c-.36.19-.71.36-1.06.51.07-.22.13-.44.2-.67a26.28,26.28,0,0,0,.78-3.37,5.29,5.29,0,0,0-2.06,3,5.71,5.71,0,0,0-.23,1.55c-.34.11-.67.19-1,.26.16-.7.32-1.43.49-2.19.54-2.42,1.06-4.6,1.32-6.26a15.91,15.91,0,0,0-2.62,6,17.51,17.51,0,0,0-.39,2.68,7.51,7.51,0,0,1-1,0,39.15,39.15,0,0,1,.79-4.42,49,49,0,0,1,2.45-7.14,12.32,12.32,0,0,0-2.13,2.78,15.44,15.44,0,0,0-1.62,4.05,15.87,15.87,0,0,0-.42,4.34,3,3,0,0,0,0,.31,4.32,4.32,0,0,1-.56-.1c-.4-4.86,1.37-9.74,4.85-14.62l4.95,1.8s.88-3.39-2-5.13a6.64,6.64,0,0,0-1.93-1.08,10.27,10.27,0,0,0-4.7-.46,18.88,18.88,0,0,0-2.37.4c-.75.16-1.46.34-2.14.54a11.1,11.1,0,0,0-3,1.35,2.93,2.93,0,0,0,0-.84,2.84,2.84,0,0,0-.26-.93,1.71,1.71,0,0,0-.35-.49,1.42,1.42,0,0,0-.61-.35,2.19,2.19,0,0,0-.59-.07h-.46l-.9.06a16.84,16.84,0,0,0-5.43,1.34c-.24-.37-4.55-7.28-6.56-7.58,1.3,1.88,5.9,8.67,5.56,10-.39,1.6-3.44-1.54-3.44-1.54s5,8,3.07,7.67-2.43.11-.94,3.3c.13.29.26.61.38.94-1.12-.93-2.37-1.73-3.57-2.57a14.34,14.34,0,0,1-3.81-3.59c-.27-.42-1.06-1.84-1.14-1.7A39.31,39.31,0,0,1,298,243.1a17,17,0,0,0-3.13,3.28,4.41,4.41,0,0,0-.35.53,51.78,51.78,0,0,1,1.27-6.47c.59-2.31,1.23-4.49,1.82-6.46a25.73,25.73,0,0,1,.94-2.74,9.23,9.23,0,0,1,1.26-2.16,7,7,0,0,0-1.75,1.9,17,17,0,0,0-1.37,2.66,44.92,44.92,0,0,0-2.19,6.47,28.64,28.64,0,0,0-1,6.69,33.09,33.09,0,0,1-.67-3.83,9.62,9.62,0,0,0-.48,3.15,11.81,11.81,0,0,0,.74,3.91,11.68,11.68,0,0,0,2,3.43l.06.07a10,10,0,0,0,.89,1.19,20.82,20.82,0,0,0,4.36,4l.43-2.81c1.42,1.49,3.12,2.72,4.74,2.72,2.22,0,4.06-2.77,5.24-4.92l.49,1.25a12.94,12.94,0,0,0,3.11-4.15c1.07-1.76,2.68-5.81,1.66-13.54.14.47.28,1,.4,1.44a20.93,20.93,0,0,1-.95,13A25,25,0,0,1,313,256.5a15.19,15.19,0,0,0,2.39-2.63,11.66,11.66,0,0,0,1.86-.86,11,11,0,0,0,2.84-2.29,10.61,10.61,0,0,0,1.77-2.81,15.33,15.33,0,0,0,3,8.39,9,9,0,0,0,.68.82c.22.26.47.5.7.73.48.46,1,.88,1.42,1.28a15.53,15.53,0,0,1,2.35,2.4,12.31,12.31,0,0,0-1.95-2.79c-.41-.46-.83-.93-1.24-1.42-.21-.25-.42-.5-.6-.76s-.39-.53-.56-.82a16.52,16.52,0,0,1-2.44-8.22,22.53,22.53,0,0,1,1.47-8.57,42,42,0,0,1,3.13-6.52,25.68,25.68,0,0,0-4,6.15,22.19,22.19,0,0,0-1.45,4.19,20.16,20.16,0,0,0-.45,3.26,29.33,29.33,0,0,1-2.76,3.81,33.69,33.69,0,0,1-2.94,2.85l.33-.57a16.31,16.31,0,0,0,1-2.36,13,13,0,0,0,2.58-5.21,12.57,12.57,0,0,0,0-6.44c-.33,1.62-.68,3.78-1.26,6.12-.13.52-.26,1-.4,1.52,0-.12,0-.24,0-.36a17,17,0,0,0-1-6.94,15.29,15.29,0,0,0-1.69-3.36,23.52,23.52,0,0,0-1.36-4.27c1.44,0,3.18-.13,5.07-.29l.87-.08.41,0H321a.28.28,0,0,1,.12,0,.6.6,0,0,1,.16.16,2.09,2.09,0,0,1,.28.56,3.48,3.48,0,0,1-.12,2.49,2.84,2.84,0,0,0,1-1.67,26.79,26.79,0,0,1,3.27-.57l2.16-.27c.75-.11,1.51-.22,2.29-.3.34,0,.68-.06,1-.08-.79.17-1.35.35-1.35.35s-5.22,6.59-5.35,14.68,6.17,13.73,6.17,13.73l1.1-2.06,0,0h0c.92-1.8,2.12-4.16,2.21-4.5a36.33,36.33,0,0,1,2.19-3.7s6.87-.83,10.3-4c1.64-.69,6.31-.69,9.06-2.61,1.09-.28,6.31-2.06,6.31-2.06l4.8,1.65s1.93,4.11,2.75,4.66a3.87,3.87,0,0,0,2.33.28l3.85,4,2.06-1.51Z"/><path d="M320.8,263.6a18.31,18.31,0,0,1-5.24,1.85,27.61,27.61,0,0,1-5.59.45c-1.73,0-3.29-.15-4.58-.26a28.49,28.49,0,0,0,4.56.75,21.75,21.75,0,0,0,5.73-.28,15.61,15.61,0,0,0,5.37-2.09,11.76,11.76,0,0,0,3.37-3.16A14.83,14.83,0,0,1,320.8,263.6Z"/><path d="M311,303.21a24.05,24.05,0,0,0-2.38-2,4.37,4.37,0,0,0,1.47,3,4.32,4.32,0,0,0,3.1,1.23A23.74,23.74,0,0,0,311,303.21Z"/><path class="cls-3" d="M306,249a8.22,8.22,0,0,1,1.81-1.77,11.69,11.69,0,0,1,3-1.17S310,249,306,249Z"/><path class="cls-3" d="M303.12,249.07a15.56,15.56,0,0,0-2.06-1.66,16.23,16.23,0,0,0-3.06-1.35S298.89,249.1,303.12,249.07Z"/></g></svg>