<svg id="Layer_1" data-name="Layer 1" xmlns="http://www.w3.org/2000/svg" xmlns:xlink="http://www.w3.org/1999/xlink" viewBox="0 0 923.55 404.54"><defs><style>.cls-1{fill:#fd6e00;}.cls-2{filter:url(#filter);}.cls-3{fill:#fff;}.cls-4{fill:#6c0d08;}.cls-5{fill:#af201b;}</style><filter id="filter"><feOffset dx="8" dy="3" input="SourceAlpha"/><feGaussianBlur result="blur"/><feFlood flood-color="#fff"/><feComposite operator="in" in2="blur"/><feComposite in="SourceGraphic"/></filter></defs><path d="M180.23,130c-3.12-23.59-4.54-36.12,1.05-46.8,14.62-27.94,75.55-29.31,90.86-3,7.22,12.38,3.46,29.47,6.75,30,4.45.71,4.39-31.7,22.79-45.61,16.05-12.15,44.22-8.73,54.87,6.62,4.85,7,5.72,15.93,9.34,15.88C370,87,370,75.84,377.35,67.76c8.59-9.4,24.37-11.53,35.69-6.25C429.2,69,432.75,90,439.57,88.21c5.2-1.34,2.52-13.39,11-22.09,10.38-10.7,28.15-6.65,33.8-5.36a53.78,53.78,0,0,1,19.56,9,58.73,58.73,0,0,1,29.18-10.9c6.35-.5,20.82-1.63,34.15,9A50.66,50.66,0,0,1,580.8,85.22c.07-2.72.59-11.08,6.16-17.44,5.9-6.74,13.68-6.92,18.74-7,13.58-.31,23.61,7.76,27.56,11.35a149.68,149.68,0,0,1,23-6.06c33.81-6.09,81.36-2.36,87,18.15,2.7,9.79-4.69,21.44-5.52,22.74-1.11,1.75-7.52,11.85-16.55,12.09-4.09.11-4.66-1.91-7.18-1.25-8.23,2.17-11.12,26.24-10.3,43a105.73,105.73,0,0,0,6.26,30.88,24,24,0,0,1,11.22,1.46c13.36,5.2,17.65,21,18.19,23.13a79.5,79.5,0,0,1,30.73-22.27c20.65-8.2,38.28-4.35,46.92-2.33,15.88,3.71,47.33,15.66,47.74,33.14.15,6.57-4,17.48-11.49,23.51-3.87,3.13-8.44,4.78-8.19,7,.23,2,4,2.24,7.56,3.92,10.9,5.11,14.8,20.48,15.27,22.46,3.34,13.9-2,25.41-3.78,29.14-9.62,20.47-30.56,26.44-36.78,28.22-16,4.56-43.8,5.47-57.67-8.16-2-2-6.56-7-11.9-6.26-4.68.68-7,5.38-9.73,8.79-12.6,15.47-40.76,10.61-42.95,10.21-8.71-1.62-22.35-6.54-32.55-7.25-9.64-.66-8.9,1-37.54,3.62-24.31,2.23-29.75,1.48-34.75-2.71-6-5-8.08-12.27-13.38-12-3.9.2-4.33,4.2-10,8.44-8.17,6.14-19.32,6.8-27.4,4.08-5.94-2-6.48-4.59-11.45-4.84-6.26-.32-9.66,3.55-14.83,6.36-11,6-26.25,5.16-35.78-1.24-11-7.34-11.09-19.77-18.28-20-5.58-.18-7.73,7.22-13.95,13.36-19.42,19.18-62.46,10.31-69.64-8.75-2.46-6.52-1.08-15.21-4.89-16.62-2.39-.88-5.28,1.68-8,4.11-3,2.66-5.28,5.66-8.54,11.24-6.85,11.71-6.41,15-10.59,17.43-3.9,2.27-5.72.27-8.88,3.1-3.58,3.19-2.41,6.79-5.54,11.35-3.75,5.47-11.25,8.77-14.47,6.22-3.39-2.68,1.73-11.67-2.66-17-1.42-1.72-2.06-.93-5.82-4-4.55-3.64-4.63-5.59-6.92-6.39-3.94-1.38-5.43,3.85-11.2,5-7.2,1.45-10.27-5.52-18.51-4.56-3.64.43-4.61,2-8.95,4.1-8.78,4.33-22,6.51-32.54,1.51-9.69-4.59-10.34-12-16.75-11.65s-6.66,7.65-15.42,12.95c-9.42,5.7-24.18,6.44-31.78-1.3-3.77-3.84-4.88-8.85-8.94-9.28-3.58-.37-6.51,3.11-7.62,4.32-11,12.09-32.35,11.86-37.87,11.87-15.82,0-27.46-6.83-32.47-9.87-7.11-4.3-17.58-10.65-22.53-23.8a42.61,42.61,0,0,1-2.18-8.59c-2.08-14.06,3.62-23.5,6.75-34C76.47,244.48,63,237.6,71.06,218c6.41-15.6,19.67-22.81,23.1-24.51,17.31-8.6,35.85-2.93,41.45-1.22,1.56.48,2.94,1,3.07,1,17.26,6.2,22,15.86,26.69,13.7,4.15-1.91,1.42-10,7.56-15.34,4.43-3.87,7.89-1.44,11.16-3.93C191.93,181.74,184.08,159,180.23,130Z"/><path class="cls-1" d="M183.35,128.61c-3-20.83-4.38-31.89,1-41.32,14.1-24.67,72.86-25.87,87.62-2.68,7,10.93,3.34,26,6.51,26.48,4.3.62,4.24-28,22-40.26,15.48-10.73,42.64-7.71,52.92,5.84,4.67,6.16,5.51,14.07,9,14,3.95,0,3.93-9.86,11.05-17,8.29-8.3,23.5-10.18,34.43-5.52,15.57,6.64,19,25.12,25.58,23.57,5-1.19,2.43-11.82,10.57-19.5,10-9.45,27.14-5.87,32.59-4.73a54.13,54.13,0,0,1,18.87,8,59.6,59.6,0,0,1,28.13-9.62c6.13-.44,20.09-1.44,32.94,8a45.29,45.29,0,0,1,13.09,15.29c.07-2.4.57-9.78,5.94-15.4,5.7-5.95,13.2-6.11,18.07-6.21,13.1-.28,22.78,6.85,26.58,10a155.16,155.16,0,0,1,22.14-5.35c32.6-5.38,78.45-2.08,83.9,16,2.6,8.64-4.53,18.93-5.32,20.07-1.07,1.55-7.26,10.47-16,10.68-4,.1-4.5-1.69-6.92-1.1-7.94,1.91-10.73,23.16-9.94,37.93a86.62,86.62,0,0,0,6,27.25A25.26,25.26,0,0,1,705,184.31c12.88,4.59,17,18.55,17.54,20.42a76.67,76.67,0,0,1,29.64-19.66c19.91-7.23,36.91-3.83,45.24-2,15.32,3.27,45.65,13.82,46,29.25.15,5.8-3.9,15.43-11.08,20.75-3.73,2.76-8.14,4.23-7.9,6.2.22,1.74,3.82,2,7.3,3.46,10.51,4.51,14.26,18.08,14.72,19.83,3.22,12.27-2,22.43-3.65,25.72-9.27,18.07-29.46,23.34-35.47,24.91-15.44,4-42.23,4.83-55.61-7.2-1.94-1.75-6.32-6.21-11.48-5.53-4.51.6-6.7,4.75-9.38,7.76-12.15,13.66-39.31,9.37-41.42,9-8.4-1.42-21.55-5.77-31.39-6.39-9.3-.59-8.58.88-36.2,3.19-23.44,2-28.69,1.3-33.51-2.4-5.8-4.44-7.8-10.82-12.9-10.59-3.76.17-4.18,3.7-9.63,7.45-7.88,5.42-18.63,6-26.42,3.59-5.73-1.77-6.25-4-11-4.27-6-.28-9.31,3.14-14.29,5.62-10.64,5.32-25.32,4.55-34.5-1.09-10.56-6.49-10.7-17.46-17.64-17.65-5.38-.16-7.45,6.37-13.45,11.79-18.72,16.93-60.24,9.1-67.16-7.72-2.37-5.76-1-13.43-4.71-14.67-2.31-.78-5.09,1.48-7.73,3.63-2.88,2.34-5.09,5-8.23,9.91-6.61,10.34-6.18,13.24-10.22,15.39-3.75,2-5.51.24-8.56,2.74-3.45,2.82-2.33,6-5.34,10-3.62,4.83-10.85,7.74-14,5.49-3.27-2.36,1.67-10.3-2.56-15-1.37-1.52-2-.82-5.62-3.49-4.38-3.22-4.46-4.94-6.67-5.65-3.79-1.22-5.24,3.4-10.8,4.42-6.94,1.28-9.9-4.87-17.85-4-3.5.38-4.44,1.73-8.63,3.62-8.47,3.82-21.22,5.75-31.38,1.34-9.34-4.06-10-10.63-16.15-10.29s-6.43,6.75-14.87,11.43c-9.08,5-23.32,5.69-30.65-1.14-3.64-3.4-4.7-7.82-8.62-8.2-3.45-.33-6.28,2.75-7.34,3.81-10.64,10.68-31.21,10.48-36.53,10.48-15.25,0-26.48-6-31.31-8.71-6.86-3.8-17-9.4-21.73-21a35.06,35.06,0,0,1-2.1-7.58c-2-12.41,3.49-20.75,6.51-30,7-21.51-6-27.59,1.79-44.91,6.18-13.77,19-20.13,22.27-21.64,16.7-7.59,34.57-2.58,40-1.07,1.51.42,2.84.86,3,.9,16.64,5.47,21.23,14,25.74,12.09,4-1.68,1.37-8.8,7.29-13.53,4.28-3.42,7.61-1.28,10.77-3.48C194.63,174.31,187.06,154.21,183.35,128.61Z"/><g class="cls-2"><path d="M251.67,126.27a32.71,32.71,0,0,1,11.07,5.61A36.65,36.65,0,0,1,271,140.7a36.2,36.2,0,0,1,4.78,10.66,29.91,29.91,0,0,1,.82,11.35,29,29,0,0,1-3.69,10.94,28.51,28.51,0,0,1-8.75,9.23,49.24,49.24,0,0,1-12.65,4,80,80,0,0,1-13.33,1.09q-6.56,0-13.12-.61T212.16,186q-5.61-1-8.21-3.69t-1.23-8.48c.28-4.55.55-9.07.82-13.53s.48-9,.62-13.47.13-9,0-13.54A123.63,123.63,0,0,0,203,119.85a39.82,39.82,0,0,0-.62-6.63,55.41,55.41,0,0,1-.75-7.11,17.72,17.72,0,0,1,.89-6.5,8.58,8.58,0,0,1,4.3-4.78A50.5,50.5,0,0,1,219,90.93a71,71,0,0,1,12.85-1.16c1.92,0,3.81.07,5.68.2s3.71.3,5.54.48q8.88,1.1,13.74,4.85a14.85,14.85,0,0,1,5.87,8.89,17.15,17.15,0,0,1-1.77,10.94A34,34,0,0,1,251.67,126.27Zm-20.78-10.39a7.74,7.74,0,0,0,5.67-.2,8.27,8.27,0,0,0,3.62-3.28,7.76,7.76,0,0,0,1-4.79,7.37,7.37,0,0,0-2.46-4.72c-2.55-1.36-4.47-2-5.74-2a2.6,2.6,0,0,0-2.6,1.44,8.57,8.57,0,0,0-.68,3.69,31.75,31.75,0,0,0,.41,4.92C230.34,112.67,230.61,114.33,230.89,115.88Zm1.5,48.67a7,7,0,0,0,3.15.83,7.32,7.32,0,0,0,4.58-1.65,10.08,10.08,0,0,0,3.14-4,8.49,8.49,0,0,0,.62-4.85,6.59,6.59,0,0,0-2.88-4.31A11.91,11.91,0,0,0,236,149.1a2.94,2.94,0,0,0-2.94,1.58,9.41,9.41,0,0,0-.82,3.89,47.59,47.59,0,0,0,.13,5A36.63,36.63,0,0,1,232.39,164.55Z"/><path d="M317.43,164.28q0,3.69-.07,7.38a34.26,34.26,0,0,0,.62,7.25c.09,1.55.11,2.85.07,3.9a4.62,4.62,0,0,1-.76,2.53,4.44,4.44,0,0,1-2.12,1.5,21,21,0,0,1-4.17,1q-6.56.27-12.37.13a23.26,23.26,0,0,1-9.84-2.12,11.15,11.15,0,0,1-5.68-6.56q-1.64-4.58.28-13.05,4.1-18.33,9.09-36.24t9.91-36.09c.91-2.1,2.83-3.53,5.74-4.31a38.07,38.07,0,0,1,9.71-1.16,89.63,89.63,0,0,1,11.62.75c3.83.5,6.84.85,9,1a32.45,32.45,0,0,1,10,10.66,71.46,71.46,0,0,1,6.16,13.67,134.29,134.29,0,0,1,4,14.91q1.58,7.65,3.35,14.49.69,4.92,1.85,11.14a62.36,62.36,0,0,1,1.09,12.17,26.92,26.92,0,0,1-2.25,10.8q-2.19,4.86-8.34,7.18c-2.47.27-4.65.5-6.57.68s-3.64.28-5.19.28q-6,0-8.48-1.71a7.82,7.82,0,0,1-3.14-5.2,43.41,43.41,0,0,1-.62-8.82,81.92,81.92,0,0,0-1-12.71c-.1-1.18-.28-2.53-.55-4a15.71,15.71,0,0,0-1.37-4.17,9.56,9.56,0,0,0-2.46-3.14,4.54,4.54,0,0,0-3.83-.82,3.29,3.29,0,0,0-2.05,1.16,5.52,5.52,0,0,0-1,2,34.12,34.12,0,0,0-.75,7.73Q317.44,160.32,317.43,164.28Zm.82-48.53a8,8,0,0,0,2.46,1.36,8.64,8.64,0,0,0,3,.55,5.57,5.57,0,0,0,3.28-1,2.73,2.73,0,0,0,1.09-2.87,26.1,26.1,0,0,1-.54-4.37,26.1,26.1,0,0,0-.69-4.86,7.94,7.94,0,0,0-1.91-3.69c-.91-1-2.32-1.25-4.24-.89a11.71,11.71,0,0,0-1,3c-.32,1.37-.62,2.8-.89,4.31a36.29,36.29,0,0,0-.55,4.51A28,28,0,0,0,318.25,115.75Z"/><path d="M478.08,95.92q.41,8.2.2,16.41t-.61,16.4q-.42,8.21-.89,16.41t-.48,16.41q-.14,3.13-.27,6.63a35.48,35.48,0,0,1-.89,6.7,18.7,18.7,0,0,1-2.46,5.88,10.5,10.5,0,0,1-5.27,4,62.52,62.52,0,0,1-8.13,2.46,38,38,0,0,1-8.55,1,32.94,32.94,0,0,1-12.58-2.46,10.8,10.8,0,0,1-2.52-2.19,5.14,5.14,0,0,1-1.17-3,31.25,31.25,0,0,0-1.77-7.66q-1.38-3.69-3-7.24a51.86,51.86,0,0,0-3.35-7.11q-2.4-4.38-5.2-8.48a57.39,57.39,0,0,0-5.67-7.11c-1.91-2-3.56-3-4.92-3s-2.17,1-2.67,3-.43,5.47.21,10.39a28.39,28.39,0,0,0,.61,5.33q.62,3.15,1.37,6.64t1.3,7a27.45,27.45,0,0,1,.27,6.56,10.23,10.23,0,0,1-1.71,5.06,6.23,6.23,0,0,1-4.58,2.46c-2.46.27-5.38.71-8.75,1.3a57.83,57.83,0,0,1-10,.89,34.22,34.22,0,0,1-5.4-.41,15.58,15.58,0,0,1-4.65-1.51,11.33,11.33,0,0,1-3.62-2.94,11.63,11.63,0,0,1-2.19-4.58,195.48,195.48,0,0,1,.21-20l1.23-20q.62-10,.68-20a117.79,117.79,0,0,0-1.57-20,5,5,0,0,1,.89-4.24,8.4,8.4,0,0,1,3.35-2.32,17.33,17.33,0,0,1,4.51-1.1c1.64-.18,3.1-.36,4.37-.55a24,24,0,0,0,4.72-.75,18.88,18.88,0,0,1,4.72-.61,8.61,8.61,0,0,1,3.55.68,51.92,51.92,0,0,1,11.42,8.07q5.13,4.78,9.84,10.12t9.3,10.73a114.58,114.58,0,0,0,9.77,10.18,16.5,16.5,0,0,0,2.4-7.58,60.88,60.88,0,0,0,0-9l-.69-9.3a30.48,30.48,0,0,1,.48-8.47,15.2,15.2,0,0,1,7.32-4.31,35.49,35.49,0,0,1,9.77-1.3,44.7,44.7,0,0,1,12,1.64A21.2,21.2,0,0,1,478.08,95.92Z"/><path d="M556.14,133.93A71,71,0,0,1,555,150.47a58,58,0,0,1-5.47,16.2,45.7,45.7,0,0,1-10.11,13.2,31.2,31.2,0,0,1-15.11,7.38c-1.83.18-3.92.37-6.29.55s-4.83.27-7.38.27a63.64,63.64,0,0,1-8.41-.55,23.24,23.24,0,0,1-7.45-2.18,13.48,13.48,0,0,1-5.2-4.45,10.81,10.81,0,0,1-1.5-7.31q.4-9.71-.14-19.42t-1-19.41q-.4-9.7.14-19.35a90.94,90.94,0,0,1,3.14-19.07,6.56,6.56,0,0,1,2.47-3.42,12.27,12.27,0,0,1,3.75-1.64,23.52,23.52,0,0,1,4.38-.68A28.46,28.46,0,0,0,505,90q2.33-.27,4.44-.48c1.42-.13,2.81-.2,4.17-.2a48.69,48.69,0,0,1,17.5,3.07,38.68,38.68,0,0,1,13.81,8.82,37.64,37.64,0,0,1,8.75,14A46.78,46.78,0,0,1,556.14,133.93Zm-42.24-.14a10.17,10.17,0,0,0,3.28.55,7.43,7.43,0,0,0,5.74-2.39,12.93,12.93,0,0,0,3-5.75,17.29,17.29,0,0,0,.2-7A11.52,11.52,0,0,0,523.2,113c-2.56-2.46-4.74-3.69-6.57-3.69q-2.46,0-3.62,2.73a19.48,19.48,0,0,0-1.37,6.57,37.36,37.36,0,0,0,.48,8.06A36,36,0,0,0,513.9,133.79Z"/><path d="M597.16,96.19q-.4,9.44-1,18.94t-1,19q-.4,9.51-.21,19a176.33,176.33,0,0,0,1.44,18.93,21.91,21.91,0,0,1,.07,8.28,8.81,8.81,0,0,1-2.8,4.92,11.11,11.11,0,0,1-5.48,2.25,34.09,34.09,0,0,1-8.2.14,41.06,41.06,0,0,1-8.61-1.37,8.82,8.82,0,0,1-4.72-3.07,10.51,10.51,0,0,1-1.84-5.54,55.39,55.39,0,0,1,.13-8.61,161,161,0,0,0,1.23-17.5q.14-8.76-.13-17.57t-.69-17.57q-.4-8.75-.54-17.5a6.24,6.24,0,0,1,.88-4.24,8.5,8.5,0,0,1,3.29-2.87,18.2,18.2,0,0,1,4.85-1.64,28.81,28.81,0,0,1,5.74-.55,33.46,33.46,0,0,1,10.94,1.78C593.92,92.59,596.15,94.19,597.16,96.19Z"/><path d="M694.37,98.38q-1,3-2.19,7.18a40.35,40.35,0,0,1-3.14,7.72,17.92,17.92,0,0,1-4.72,5.75q-2.8,2.19-7.18,1.23a34.76,34.76,0,0,0-4.1-1.17,21.63,21.63,0,0,0-4.51-.47,10.63,10.63,0,0,0-6.09,1.71c-1.68,1.14-2.39,3.16-2.12,6.08q-.95,7.11-1.57,14.42a132.45,132.45,0,0,0-.41,14.63,101.64,101.64,0,0,0,1.44,14.43,69.23,69.23,0,0,0,4,13.94,18,18,0,0,1-7,3.15,39.89,39.89,0,0,1-8.13.82,67.78,67.78,0,0,1-7.39-.41c-2.46-.28-4.78-.5-7-.69-4.56-.63-7.32-2.21-8.27-4.71s-.85-5.81.34-9.92q2.33-13,5.61-25.49t5.47-25.5A71.89,71.89,0,0,0,626.48,124c-3.41,1.23-7,2.34-10.59,3.35-2.83.64-5,.43-6.5-.62a8.18,8.18,0,0,1-3.14-4.58,22.35,22.35,0,0,1-.75-7,52.71,52.71,0,0,1,.89-8.07q.75-4,1.71-7.59t1.5-5.6a34.54,34.54,0,0,1,6.49-2c2.69-.59,5.7-1.1,9-1.51s6.9-.73,10.73-.95,7.7-.35,11.62-.35q7.38,0,14.77.55T676,91.27a63.13,63.13,0,0,1,11.14,2.87A20.11,20.11,0,0,1,694.37,98.38Z"/><path d="M146.38,233.66a33.3,33.3,0,0,1,11.33,5.73A37.28,37.28,0,0,1,171,259.32a30.87,30.87,0,0,1,.84,11.61,29.6,29.6,0,0,1-3.78,11.19,29,29,0,0,1-8.95,9.44,50.34,50.34,0,0,1-12.94,4.06,82.56,82.56,0,0,1-13.63,1.12q-6.72,0-13.43-.63T106,294.78q-5.73-1-8.39-3.78t-1.26-8.67q.42-7,.84-13.85c.28-4.56.49-9.16.63-13.77s.14-9.24,0-13.85a124.54,124.54,0,0,0-1.19-13.78A40.71,40.71,0,0,0,96,220.3a56.14,56.14,0,0,1-.77-7.27,18.29,18.29,0,0,1,.91-6.65,8.77,8.77,0,0,1,4.41-4.89,51.14,51.14,0,0,1,12.44-4,72.52,72.52,0,0,1,13.15-1.19c2,0,3.89.07,5.81.21s3.79.31,5.66.49q9.09,1.13,14.06,5a15.16,15.16,0,0,1,6,9.09,17.55,17.55,0,0,1-1.82,11.19A34.91,34.91,0,0,1,146.38,233.66ZM125.12,223a8,8,0,0,0,5.81-.21,8.35,8.35,0,0,0,3.7-3.36,7.87,7.87,0,0,0,1-4.9,7.58,7.58,0,0,0-2.51-4.82c-2.62-1.4-4.57-2.1-5.88-2.1a2.66,2.66,0,0,0-2.66,1.47,8.92,8.92,0,0,0-.7,3.78,33.19,33.19,0,0,0,.42,5C124.56,219.74,124.84,221.44,125.12,223Zm1.54,49.79a7.19,7.19,0,0,0,3.22.84,7.47,7.47,0,0,0,4.68-1.68,10.34,10.34,0,0,0,3.22-4.06,8.6,8.6,0,0,0,.63-5,6.7,6.7,0,0,0-2.94-4.41A12.2,12.2,0,0,0,130.3,257a3,3,0,0,0-3,1.61,10,10,0,0,0-.84,4,47.23,47.23,0,0,0,.14,5.1A38.38,38.38,0,0,1,126.66,272.82Z"/><path d="M217.43,266.8a115.6,115.6,0,0,1-.42,12.87A25.08,25.08,0,0,1,214,290a15,15,0,0,1-7.28,6.37q-4.81,2.08-13.21,1.25a11.71,11.71,0,0,1-4.2-1.11,14.76,14.76,0,0,1-3.71-2.45,10.6,10.6,0,0,1-2.51-3.43,9.75,9.75,0,0,1-.91-4.19q.27-11.47.84-22.8a123.7,123.7,0,0,0-1-22.66,67.06,67.06,0,0,0-.42-6.92q-.42-4-.77-8.47t-.28-8.95a36.17,36.17,0,0,1,1-8.18,16.44,16.44,0,0,1,3-6.36,9.38,9.38,0,0,1,5.88-3.36q7.69-.42,17.06-1.68a140.57,140.57,0,0,1,18.74-1.26,75.7,75.7,0,0,1,11.4.84,37.39,37.39,0,0,1,10.21,3,26.23,26.23,0,0,1,8.26,6,28.11,28.11,0,0,1,5.66,9.72A33.68,33.68,0,0,1,264.5,229a29.51,29.51,0,0,1-2.87,12,34.71,34.71,0,0,1-7.41,10.07,57.6,57.6,0,0,1-11.05,8.18c-.28,1.31.6,2.57,2.66,3.78s4.52,2.52,7.41,3.91,5.78,2.9,8.67,4.48a18.81,18.81,0,0,1,6.43,5.32,7.85,7.85,0,0,1,2.17,5.24,8.9,8.9,0,0,1-1.68,4.9,16.72,16.72,0,0,1-4.4,4.19,31.64,31.64,0,0,1-5.95,3.15,29.07,29.07,0,0,1-6.22,1.75,14.36,14.36,0,0,1-5.46-.07,20.34,20.34,0,0,1-9.58-4.27,47,47,0,0,1-7.27-7.55q-3.28-4.27-6.22-8.95A56.4,56.4,0,0,0,217.43,266.8ZM215.75,233a8.34,8.34,0,0,0,1.89.56,12,12,0,0,0,1.75.14,8.7,8.7,0,0,0,5.25-1.68,13.4,13.4,0,0,0,3.77-4.27,16.64,16.64,0,0,0,2-5.52,12.17,12.17,0,0,0-.28-5.53,8.7,8.7,0,0,0-8.74-6.36c-2.33-.09-3.83.72-4.48,2.45A17.09,17.09,0,0,0,216,219q.07,3.71.35,7.55A16.52,16.52,0,0,1,215.75,233Z"/><path d="M461.78,205.12c-.66,2.06-1.4,4.5-2.24,7.35a41,41,0,0,1-3.22,7.9,18.42,18.42,0,0,1-4.82,5.87c-1.92,1.5-4.36,1.92-7.35,1.26a35.75,35.75,0,0,0-4.19-1.19,22,22,0,0,0-4.62-.49,10.88,10.88,0,0,0-6.22,1.75c-1.73,1.17-2.45,3.24-2.17,6.23q-1,7.27-1.61,14.75a133.66,133.66,0,0,0-.42,15,103.08,103.08,0,0,0,1.47,14.75,70.56,70.56,0,0,0,4.06,14.27,18.31,18.31,0,0,1-7.21,3.22,40.2,40.2,0,0,1-8.32.84,68.23,68.23,0,0,1-7.55-.42c-2.52-.28-4.9-.52-7.13-.7q-7-1-8.47-4.83t.35-10.14q2.38-13.29,5.74-26.08t5.59-26.09a73.89,73.89,0,0,0-11.12,3q-5.24,1.89-10.84,3.43-4.33,1-6.64-.63a8.44,8.44,0,0,1-3.22-4.69,23,23,0,0,1-.77-7.2,56.42,56.42,0,0,1,.91-8.25c.51-2.75,1.1-5.34,1.75-7.77s1.17-4.33,1.54-5.73a35.65,35.65,0,0,1,6.64-2q4.13-.91,9.23-1.54c3.41-.42,7.07-.74,11-1s7.88-.35,11.89-.35q7.56,0,15.11.56t14,1.68a64.51,64.51,0,0,1,11.4,2.94A20.41,20.41,0,0,1,461.78,205.12Z"/><path d="M516.74,258.69a7.48,7.48,0,0,0-4.75-1.54,8.39,8.39,0,0,0-5.18,1.68q-2.24,1.68-1.25,4.76a110.35,110.35,0,0,1,2.93,12.1,45.63,45.63,0,0,1,.56,12.37,10.16,10.16,0,0,1-4,5.6,20.09,20.09,0,0,1-6.51,2.87,36.44,36.44,0,0,1-7.48,1c-2.57.1-4.92.14-7.07.14a15.76,15.76,0,0,1-8.39-4,18.43,18.43,0,0,1-4.54-7.27,33.26,33.26,0,0,1-1.68-9.52q-.21-5.24-.07-10.49t.28-10.28a54,54,0,0,0-.42-9q.27-9.65.84-19.3t1.54-19.3a10.38,10.38,0,0,1,1.61-5.52,11.2,11.2,0,0,1,3.77-3.5,15.55,15.55,0,0,1,5.25-1.82,36,36,0,0,1,6-.49,49.56,49.56,0,0,1,7.07.49,54.23,54.23,0,0,1,6.08,1.19,9.54,9.54,0,0,1,5.24,5.38,20.24,20.24,0,0,1,1,7.49,50.65,50.65,0,0,1-1,8.25,48.82,48.82,0,0,0-1,7.55c2.51,1.59,4.66,2.38,6.43,2.38a3.93,3.93,0,0,0,4-2.73,15.3,15.3,0,0,0,.34-7.48q-.13-2.94-.14-6.15a29.31,29.31,0,0,1,.63-6.16,15.56,15.56,0,0,1,2.31-5.45,11,11,0,0,1,4.76-3.92,45.68,45.68,0,0,1,17.48-3.5,42,42,0,0,1,7.13.56,19.55,19.55,0,0,1,4,1.19,4.19,4.19,0,0,1,1.89,1.61,5.08,5.08,0,0,1,.63,2.24c0,.84.07,1.91.07,3.21q-.15,8.4-.7,16.72t-1,16.57q-.5,8.27-.7,16.58t.35,16.71q1.11,7.83-.35,12.94a15.88,15.88,0,0,1-5.11,8.11,19.91,19.91,0,0,1-9.23,4.06,62.94,62.94,0,0,1-12.72.91c-2.9-.19-4.92-1.05-6.09-2.59a11.44,11.44,0,0,1-2.17-5.6,35.06,35.06,0,0,1-.14-7,52.54,52.54,0,0,0,.14-6.64q0-3.92-.21-7.77T516.74,258.69Z"/><path d="M722.66,266.88c-6.57-4.3-12.52.07-17.76,4.11A46,46,0,0,1,682,280c-21,2.42-40.67-7.36-57.87-18.37a4.75,4.75,0,0,0-2.81-.81,10.48,10.48,0,0,0-3.61-.62,20.68,20.68,0,0,0-4.55.56c-1.63.37-3.22.82-4.76,1.33s-3,1.05-4.4,1.61-2.66,1.07-3.78,1.54a7.09,7.09,0,0,1-3.35,1.11c-1.78,0-2.92-1-3.43-2.93a10.4,10.4,0,0,1,.35-6.16,10.25,10.25,0,0,1,3.08-1.12,18.44,18.44,0,0,1,3.21-.28,36.28,36.28,0,0,1,5.53.42,20.69,20.69,0,0,0,5.38.14,5.57,5.57,0,0,0,5-2.37,14.38,14.38,0,0,0,2-5.74,28.46,28.46,0,0,0,.14-6.85q-.36-3.5-.63-5.88-1.41-6.71-8.54-5.87a22.11,22.11,0,0,0-4.33.7,42.26,42.26,0,0,0-4.13,1.33l-4.05,1.54a25.58,25.58,0,0,1-4.27,1.19,33.8,33.8,0,0,0-.56-3.57,29.8,29.8,0,0,1-.56-3.85,6.52,6.52,0,0,1,.49-3.21,3.46,3.46,0,0,1,2.73-1.82,11.07,11.07,0,0,1,3.5-.84c1.21-.09,2.46-.14,3.77-.14q3.08,0,6.23.28c2.09.19,4.17.28,6.22.28a24.62,24.62,0,0,0,6.64-.84,9.77,9.77,0,0,0,5.11-3.5q1.11-1.81,2.45-4.19a22.23,22.23,0,0,0,2-4.9,10.67,10.67,0,0,0,.28-4.83,5.82,5.82,0,0,0-2.79-3.84l-6.44-1c-2.42-.37-5-.75-7.76-1.12s-5.59-.67-8.53-.91-5.85-.35-8.74-.35a81.73,81.73,0,0,0-8.4.42,35.74,35.74,0,0,0-7.48,1.54,23.47,23.47,0,0,0-6.15,3,15.14,15.14,0,0,0-4.41,4.68,101.6,101.6,0,0,0-2.8,11.61q-1.26,6.72-2.09,14.34t-1.12,15.59q-.28,8-.07,15.53a130.73,130.73,0,0,0,1.12,14.19,61,61,0,0,0,2.58,11.54,12.35,12.35,0,0,0,8,6.58,43.2,43.2,0,0,0,12.45,1.68,110.87,110.87,0,0,0,13.64-.84c1.24-.16,2.41-.29,3.53-.41a4.85,4.85,0,0,0,3.31.13l2.25-.6c.76-.05,1.49-.08,2.17-.1a15.92,15.92,0,0,0,2.64-.73l.09,0a14.31,14.31,0,0,0,1.38-.59,129.2,129.2,0,0,1,41.07,4c9.53,2.57,15.43,5.59,26.35,5.41a67.31,67.31,0,0,0,25-5.48c6.72-2.82,14.32-6.53,17.57-13.5C729.59,278.37,728.26,270.54,722.66,266.88Z"/><path d="M669.57,248.13a76.13,76.13,0,0,1-.35,9.49,17,17,0,0,1-2.48,7.57,12,12,0,0,1-6,4.69c-2.66,1-6.29,1.34-10.9.93a10.7,10.7,0,0,1-3.46-.82,12.24,12.24,0,0,1-3-1.81,7.9,7.9,0,0,1-2.07-2.52,6.51,6.51,0,0,1-.75-3.1q.22-8.44.69-16.8a81.3,81.3,0,0,0-.81-16.7,42.53,42.53,0,0,0-.35-5.11q-.34-2.94-.63-6.24a63.1,63.1,0,0,1-.23-6.59,24.57,24.57,0,0,1,.81-6,11.57,11.57,0,0,1,2.48-4.69,7.92,7.92,0,0,1,4.84-2.47q6.33-.31,14.06-1.24a129.15,129.15,0,0,1,15.45-.93,70,70,0,0,1,9.39.62,33.58,33.58,0,0,1,8.42,2.22,21.54,21.54,0,0,1,6.8,4.43,20.27,20.27,0,0,1,4.67,7.17,22.53,22.53,0,0,1,2.24,10.1,19.86,19.86,0,0,1-2.36,8.82,26,26,0,0,1-6.11,7.42,47.92,47.92,0,0,1-9.1,6c-.23,1,.49,1.89,2.19,2.79s3.72,1.85,6.11,2.88,4.76,2.13,7.14,3.3a15.32,15.32,0,0,1,5.3,3.92,5.5,5.5,0,0,1,1.79,3.87,6.09,6.09,0,0,1-1.38,3.6,13.27,13.27,0,0,1-3.63,3.1,27.17,27.17,0,0,1-4.9,2.32,26.06,26.06,0,0,1-5.13,1.29,13.18,13.18,0,0,1-4.5-.05,17.72,17.72,0,0,1-7.89-3.15,36.29,36.29,0,0,1-6-5.57q-2.7-3.14-5.13-6.6A42.6,42.6,0,0,0,669.57,248.13Zm-1.39-24.95a7.52,7.52,0,0,0,1.56.41,10.36,10.36,0,0,0,1.44.1,7.79,7.79,0,0,0,4.32-1.23,10.27,10.27,0,0,0,3.11-3.15,11.43,11.43,0,0,0,1.62-4.07,8.06,8.06,0,0,0-.23-4.07,6.78,6.78,0,0,0-2.37-3.25,8.21,8.21,0,0,0-4.84-1.44q-2.88-.1-3.69,1.8a11.39,11.39,0,0,0-.74,4.64c0,1.82.13,3.68.28,5.57A10.91,10.91,0,0,1,668.18,223.18Z"/><path d="M773.71,258.61a9.63,9.63,0,0,0-4.82-5.81,35.8,35.8,0,0,0-8-3q-4.49-1.11-9.09-1.88a26.22,26.22,0,0,1-7.84-2.45q-8.38-3.36-12.79-8.25a18.75,18.75,0,0,1-3.43-21.47,28.11,28.11,0,0,1,7.83-9.93,42.81,42.81,0,0,1,13.29-7.21,54.4,54.4,0,0,1,18-2.79,78.76,78.76,0,0,1,16.86,1.95,97.42,97.42,0,0,1,18.81,6.44q3.21.84,3.42,3.57a13.48,13.48,0,0,1-1.05,5.94,38,38,0,0,1-3.21,6.36q-2,3.15-2.94,4.83a12.8,12.8,0,0,1-4.2,4.2,9.12,9.12,0,0,1-4.33,1.11,11.94,11.94,0,0,1-4.48-.9q-2.24-.92-4.61-2.1c-1.59-.79-3.2-1.52-4.83-2.17a15.57,15.57,0,0,0-5-1.12,3.56,3.56,0,0,0-3.78,2.1,3.38,3.38,0,0,0-.14,2.17,3.51,3.51,0,0,0,1.4,2,24.64,24.64,0,0,0,4.82,3.08,37.21,37.21,0,0,0,5.32,2.1q2.73.84,5.52,1.47t5.46,1.33q8.67,2.24,12.87,7.69a23.2,23.2,0,0,1,4.82,12.17,32.89,32.89,0,0,1-1.82,13.84,39.78,39.78,0,0,1-7.27,12.87,35,35,0,0,1-11.54,9,25.75,25.75,0,0,1-14.4,2.45,54.29,54.29,0,0,1-7.49-.28,85.4,85.4,0,0,1-8.74-1.33,66.61,66.61,0,0,1-8.88-2.45,37.28,37.28,0,0,1-7.9-3.77,21.86,21.86,0,0,1-5.81-5.32,14.09,14.09,0,0,1-2.72-7.13c.18-1.86.42-4,.7-6.5a26.82,26.82,0,0,1,1.67-6.86,14.41,14.41,0,0,1,3.5-5.24,7.4,7.4,0,0,1,6.15-1.68,20.42,20.42,0,0,1,5.18,1.75l5.73,2.72a61.09,61.09,0,0,0,5.88,2.45,16.61,16.61,0,0,0,5.59,1.05,9.33,9.33,0,0,0,4.48-1.12A10.09,10.09,0,0,0,773.71,258.61Z"/></g><path class="cls-3" d="M370.51,242.12a43.38,43.38,0,0,0-1.42-6.74,44.44,44.44,0,0,0-2.49-6.21,40.19,40.19,0,0,0-6.8-9.67,30.2,30.2,0,0,0-6.51-5.22,11.67,11.67,0,0,0-2.11-1c-.52-.17-.83-.2-.92-.06s.11.36.5.73,1,.82,1.74,1.46a52,52,0,0,1,5.83,5.47,44.85,44.85,0,0,1,6.41,9.26,39.91,39.91,0,0,1,4,12.24,39.33,39.33,0,0,1-.21,12.95,42.52,42.52,0,0,1-3.5,10.83,39.4,39.4,0,0,1-4.27,6.9c-.57.8-1.11,1.36-1.44,1.77l-.52.62.56-.58c.36-.39.93-.92,1.55-1.69a38,38,0,0,0,4.71-6.71,42.09,42.09,0,0,0,4.14-10.9,39.42,39.42,0,0,0,.74-13.43Z"/><path class="cls-3" d="M294.27,282.63l-.6-.79-.68-.91-.72-1a54.75,54.75,0,0,1-3.07-5.08,62.25,62.25,0,0,1-2.78-6.17c-.79-2.15-1.46-4.34-2-6.42s-.91-4-1.18-5.73c-.57-3.38-.86-5.69-1.56-5.69-.49,0-.8,2.39-.42,6a37.73,37.73,0,0,0,1.15,6,49.05,49.05,0,0,0,2.37,6.57,51.57,51.57,0,0,0,3.34,6.12,47.76,47.76,0,0,0,3.63,4.85l.82,1,.79.83.69.73c.21.22.43.41.61.59l1.17,1.11-1-1.24C294.64,283.09,294.46,282.88,294.27,282.63Z"/><path class="cls-3" d="M310.24,208.64c.48-.19,1-.41,1.51-.59l1.65-.55c.28-.09.56-.2.86-.29l.9-.23c.6-.16,1.22-.34,1.85-.49a49.46,49.46,0,0,1,8.09-1.1,47,47,0,0,1,8.2.44c.65.1,1.28.24,1.9.35l.93.17.88.23,1.71.44c.55.15,1.06.35,1.57.52s1,.32,1.43.49l1.27.53,1.11.47c.34.15.64.32.92.46l1.74.88-1.65-1.05c-.26-.17-.55-.37-.87-.55l-1.08-.58-1.23-.65c-.44-.21-.91-.41-1.41-.63s-1-.46-1.54-.66l-1.7-.59c-.3-.1-.59-.22-.9-.31l-.93-.25c-.63-.16-1.27-.35-1.93-.5a43.44,43.44,0,0,0-8.45-1,42.87,42.87,0,0,0-8.51.84c-.67.14-1.32.33-2,.49l-1,.25c-.31.09-.6.21-.9.31l-1.73.61c-.55.2-1.07.46-1.57.68s-1,.45-1.42.68l-1.22.72-1.06.65c-.32.22-.59.45-.84.65-1,.83-1.45,1.41-1.27,1.69C304,211.65,306.37,210.18,310.24,208.64Z"/><path class="cls-3" d="M363,265.14l.15-.27c.37-.8.78-1.62,1.11-2.48s.66-1.73,1-2.63.56-1.82.78-2.76a37.07,37.07,0,0,0,.95-5.78,39.42,39.42,0,0,0,0-5.85,38.82,38.82,0,0,0-2.34-10.61c-.32-.78-.59-1.54-.93-2.25l-.48-1-.51-1a36.23,36.23,0,0,0-3.78-5.88c-.51-.68-1-1.17-1.25-1.51l-.45-.52.41.55c.27.37.67.89,1.13,1.59a38.39,38.39,0,0,1,3.34,6.06c.14.33.29.66.44,1l.4,1.06c.29.71.51,1.48.77,2.25a42,42,0,0,1,1.18,5,37,37,0,0,1,.26,11,35.84,35.84,0,0,1-.88,4.64,39.9,39.9,0,0,0-52-44.77l.48-.19a41.16,41.16,0,0,1,4.65-1.38,43.14,43.14,0,0,1,4.62-.76,44.31,44.31,0,0,1,8.3,0c2.42.23,4.43.59,5.85.83.72.09,1.29.19,1.7.19s.65-.07.71-.22-.12-.3-.46-.52a8.73,8.73,0,0,0-1.56-.76,26,26,0,0,0-6-1.51,35.37,35.37,0,0,0-8.76-.05,37.44,37.44,0,0,0-4.87.91,38.75,38.75,0,0,0-4.83,1.65,35.1,35.1,0,0,0-8.56,5.14,38,38,0,0,0-4.28,4,39.9,39.9,0,0,0-4.81,4.83c.89-1.56,1.71-2.87,2.35-3.9.46-.8.85-1.41,1.06-1.87s.26-.77.14-.88-.36.05-.75.38a13.12,13.12,0,0,0-1.54,1.55,37.73,37.73,0,0,0-4.47,6.39,51.3,51.3,0,0,0-4.3,10.16,56.62,56.62,0,0,0-1.42,6.07,58.6,58.6,0,0,0-.68,6.39,56.94,56.94,0,0,0,.14,6.41,56.33,56.33,0,0,0,.89,6.14,54.09,54.09,0,0,0,3.3,10.43,50.41,50.41,0,0,0,3.6,6.82c.48.79.91,1.38,1.19,1.8l.43.63-.39-.66c-.25-.43-.64-1.05-1.06-1.87a52.57,52.57,0,0,1-3.15-7,55.43,55.43,0,0,1-2.12-7.36,39.9,39.9,0,0,0,54.77,21.82l-.37.22c-.54.32-1,.6-1.41.81l-1.26.68,1.34-.5c.43-.16.94-.37,1.52-.63l.93-.41,1-.49a45.09,45.09,0,0,0,4.67-2.68,48.7,48.7,0,0,0,4.92-3.76,45.37,45.37,0,0,0,4.33-4.47,33,33,0,0,0,3.13-4.44A15.63,15.63,0,0,0,363,265.14Z"/><path class="cls-4" d="M380.46,244.43s2.18-.64,2.18-1.79-1.66-3.21-2.43-4.36-3.47-2.44-3.47-2.44-.64-1-1.41-1.15a24.79,24.79,0,0,0-2.69-.13s-7.39-2.86-10.6-2.73-6.66,2.9-6.66,2.9-6.07-1.19-8.38.73c.64-.9-1.41-5-4-5.38s-11.16,1.41-11.16,1.41.39-1.67-1.79-1.93a25.26,25.26,0,0,0-6.16.64s-4.23-6.85-6.15-7.1-6.15,4.41-6.15,4.41l-5.9-1.67s-5.26-2.17-7.57-1.53c-.51-.13-9.87-3.72-11.66-3.85a47.68,47.68,0,0,0-6.93.77s-3.84-1.54-5.12-1.15a19.7,19.7,0,0,0-3.72,2,2.34,2.34,0,0,0-2.05.64c-.9.9-2.44,4.87-2.44,4.87l-3.85,3.08,2.05,2.43,3.72-2.82s.77,2,2.57,1.41,4.87-3.72,4.87-3.72a23.62,23.62,0,0,1,4.36,0c1.54.26,2.56,2.18,5,2.7a11.89,11.89,0,0,0,5.38-.52s.64,5.39,10.52,6.67c.12.51-.52,8.08,1.66,11.41-.38.39,1.93,6.67,6.16,8.59,0,0-1.29,1.92,1.53,2.82.13.64-2.92,7.5,3,9.32-4.11,4.41-10.34,5.17-15.81,6.69s-11,4.5-11.68,6.56-1.54,4.23-1.93,5.25-.51,4.36.65,5.9,3.84,1.15,3.84,1.15a22.64,22.64,0,0,0,7.31,1.67c4.23.26,5.51-.77,7.18-1.67a54.57,54.57,0,0,1,6.28-2.3l1.92-1.41s9.36,10.77,10.9,10.38,1.8-1.79,1.41-3.2-7.43-9.88-7.43-9.88,5.51.52,7.43-.51c.51.13,5.64,1.92,8.34,1.15-.52.65-3.08,2.44-3.34,4s2.05,4.74,2.05,4.74-2.05,21.29-.38,21.67,4.87-2.05,5.64-4.23c.49-1.4-.23-5.6-.81-8.43a9.16,9.16,0,0,1,.55-5.42,39.11,39.11,0,0,1,5.93-2.75,15.2,15.2,0,0,0,4.12-1.9,35.12,35.12,0,0,0,3.29-3.68,26.86,26.86,0,0,0,2.69-5.77s4.49-5.77,5-8.72.38-6.54-1.28-8.08a4.54,4.54,0,0,0-4-.89s-2.43-2.44-4.48-2.7a16.2,16.2,0,0,0-5.13.65l-6.93.64s2.31-2,2.44-3.34,2.31-1.92,2.18-4.1a6.84,6.84,0,0,1,.38-3.2s2.95-5.65,3.08-6.16a36.1,36.1,0,0,1,2.05-3.46s6.41-.77,9.62-3.72c1.54-.64,5.9-.64,8.46-2.43,1-.26,5.9-1.93,5.9-1.93l4.48,1.54s1.8,3.85,2.57,4.36a3.65,3.65,0,0,0,2.18.26l3.59,3.71,1.92-1.41Z"/><path class="cls-5" d="M351.1,269.31s-2.43-2.44-4.48-2.7a16.2,16.2,0,0,0-5.13.65l-6.93.64s.21-.18.49-.47a5.69,5.69,0,0,0-1.22.69,6.54,6.54,0,0,0-.84.74c-.16.16.09.4.24.24a3.07,3.07,0,0,1,.26-.25c-.08.14.07.34.23.24a4.41,4.41,0,0,1,3.08-.54,23,23,0,0,0,3.31.32c1.29-.05,2.55-.43,3.85-.5a10.74,10.74,0,0,1,3.6.46c1.93.6,4,2,4.47,4.09a2.93,2.93,0,0,1,0,1.44c-.16.52-.48,1-.69,1.47a1.8,1.8,0,0,0,0,1.44,11.28,11.28,0,0,0,.92,1.47,7.74,7.74,0,0,1,1.31,3.64,4.15,4.15,0,0,1-1.17,3.21.16.16,0,0,0,0,.18c1.34-1.86,3.72-5.39,4.09-7.49.51-2.95.38-6.54-1.28-8.08A4.54,4.54,0,0,0,351.1,269.31Z"/><path class="cls-5" d="M318,269.18c-2-1.22-5.28-3.06-3.15-9.37,0-.09-7.52-4.05-7.54-3.77a7.94,7.94,0,0,0,1.4.83s-1.29,1.92,1.53,2.82c.13.64-2.92,7.5,3,9.32-4.11,4.41-10.34,5.17-15.81,6.69s-10.76,5-11.4,7.07-2,2.13-2.21,4.74c-.09,1.09-.51,4.36.65,5.9s3.84,1.15,3.84,1.15a13.1,13.1,0,0,0,1.28.49A9,9,0,0,1,287,293.1a3.83,3.83,0,0,1-.87-1.77,5.24,5.24,0,0,1,.28-2.45,25.9,25.9,0,0,0,.81-2.59,4.49,4.49,0,0,0,.47,1,3.75,3.75,0,0,0,2.51,1.72,2.91,2.91,0,0,0,.78,0c.22,0,.22-.37,0-.34a3.11,3.11,0,0,1-2.73-1.21,3.83,3.83,0,0,1-.85-3c.37-2.41,2.49-4.07,4.62-4.94a28.9,28.9,0,0,1,3.86-1.13c1.4-.34,2.79-.71,4.17-1.12s2.77-.85,4.15-1.33c1.1-.39,2.21-.8,3.27-1.29a12.44,12.44,0,0,0,5.26-4l.18-.28.33.15,2.67,1.22,6,2.73c.1,0,1.26.38,1.24.24C322.84,272.28,319.86,270.32,318,269.18Z"/><path class="cls-5" d="M362,231.83c-3.2.13-6.66,2.9-6.66,2.9s-6.07-1.19-8.38.73c.64-.9-1.41-5-4-5.38s-11.16,1.41-11.16,1.41.39-1.67-1.79-1.93a25.26,25.26,0,0,0-6.16.64s-4.23-6.85-6.15-7.1-6.15,4.41-6.15,4.41l-5.9-1.67s-5.26-2.17-7.57-1.53c-.51-.13-9.87-3.72-11.66-3.85a36.71,36.71,0,0,0-5.74.57l0,.09a.91.91,0,0,1,0,.35c-.18-.13-.35.16-.17.29l0,0a.25.25,0,0,1-.27,0c-.2-.09-.38.21-.18.29A.62.62,0,0,0,281,222c1.46.89,3.26.54,4.88.29a8,8,0,0,1,6,.85,22.59,22.59,0,0,0,5.41,2.41c1.13.24,2.28.3,3.41.51a14.24,14.24,0,0,1,3.23,1.07,34.23,34.23,0,0,1,6.09,4,.17.17,0,0,0,.2,0c1.81-1.79,4.38-4.1,7.15-3.68,2.3.36,3.44,2.59,4.75,4.25a5.93,5.93,0,0,0,2.57,2,.17.17,0,0,0,.21-.12c.22-1.07,1.42-1.33,2.36-1.24,1.21.11,2.22.88,3.33,1.32a3.81,3.81,0,0,0,1.79.3,5.18,5.18,0,0,0,1.53-.5,3.17,3.17,0,0,1,1.76-.45c.7.14.88.86,1.16,1.41,1,1.85,3.39,1.3,5.09,1.39a4.41,4.41,0,0,1,1.68.37c.55.26,1,.64,1.55,1a3.58,3.58,0,0,0,2.9.45,28.34,28.34,0,0,0,3.1-1.33,4.53,4.53,0,0,1,1.69-.39,7.32,7.32,0,0,1,2,.4,4.85,4.85,0,0,0,1.85.21,6.81,6.81,0,0,0,1.76-.56,10.15,10.15,0,0,1,2.08-.69,11.16,11.16,0,0,1,2.16-.15c2.47,0,5.09.48,7.39-.67a4.46,4.46,0,0,0,.76-.48C368.36,233,364.23,231.74,362,231.83Z"/><path class="cls-5" d="M344.57,280.51a2.54,2.54,0,0,1-2.82.37,1.47,1.47,0,0,1-.4-2.08.17.17,0,0,0,0-.27c-1.47-.77-3,.68-3.48,2-.33.83-.48,1.72-.78,2.56a4.5,4.5,0,0,1-.6,1.15c-.25.35-.57.63-.81,1a2.34,2.34,0,0,0-.33,1.21,1.48,1.48,0,0,1-.52,1.24,9.34,9.34,0,0,1-1.2.66l-1.27.65c-1.51.82-3.08,2-3.44,3.78a4.2,4.2,0,0,0,.48,2.64,10.83,10.83,0,0,1,1,2.23h0c-.14,1.49-2,21.21-.37,21.58a2,2,0,0,0,.77,0c0-.05,0-.1,0-.15a13,13,0,0,0,.25-2.33c.05-.84.07-1.69,0-2.54a32.53,32.53,0,0,0-.55-5c-.15-.84-.3-1.68-.39-2.53a16.18,16.18,0,0,1,0-2.51c.09-1.68.35-3.36.33-5.05,0-.37,0-.74-.07-1.11h.08s0,.08,0,.11c0,.22.37.22.35,0s0-.22,0-.33c.11.16.37,0,.27-.19-.91-1.76.26-3.78,1.65-4.88,1.57-1.24,3.52-1.83,5.16-3a6.64,6.64,0,0,0,1.95-2,.54.54,0,0,0,.18-.33c0-.18-.22-.31-.31-.13l-.13.24a.58.58,0,0,1-.56.09c-.4-.11-.5-.57-.46-.94a3.35,3.35,0,0,1,1-1.87,20.78,20.78,0,0,1,3.51-2.41,7.47,7.47,0,0,0,1.76-1.56C344.88,280.64,344.74,280.38,344.57,280.51Z"/><path d="M320,214.11c1.65-1.13,2.39-2.92,1.65-4s-2.68-1-4.34.09-2.39,2.92-1.65,4S318.33,215.25,320,214.11Z"/><path d="M325.39,208.64c1.14-.78,1.65-2,1.14-2.75s-1.84-.72-3,.06-1.64,2-1.13,2.75S324.26,209.42,325.39,208.64Z"/><path d="M352.92,208.47c1.13-.78,1.64-2,1.13-2.75s-1.84-.72-3,.06-1.64,2-1.13,2.75S351.78,209.25,352.92,208.47Z"/><path d="M357.23,248.69c-1.14.77-1.64,2-1.13,2.75s1.84.71,3-.06,1.64-2,1.13-2.76S358.36,247.91,357.23,248.69Z"/><path d="M353.73,230.27c1.14-.78,1.64-2,1.14-2.75s-1.84-.72-3,.06-1.64,2-1.13,2.75S352.6,231,353.73,230.27Z"/><path d="M298.26,217.7c-1.14.78-1.64,2-1.14,2.75s1.84.72,3-.06,1.64-2,1.13-2.75S299.39,216.92,298.26,217.7Z"/><path d="M325.32,212.43c.32.48,1.17.46,1.9,0s1-1.28.72-1.76-1.17-.45-1.9,0S325,212,325.32,212.43Z"/><path d="M345.29,219.42c.73-.49,1-1.28.73-1.76s-1.18-.46-1.91,0-1.05,1.29-.72,1.76S344.57,219.92,345.29,219.42Z"/><path d="M348.71,216.86c.53-.36.82-.88.63-1.15s-.77-.19-1.3.18-.82.88-.63,1.15S348.18,217.23,348.71,216.86Z"/><path d="M312.52,211.1c.54-.37.82-.88.63-1.15s-.76-.19-1.3.17-.81.88-.63,1.15S312,211.46,312.52,211.1Z"/><path d="M337.52,218.81c.53-.36.82-.88.63-1.15s-.76-.19-1.3.18-.82.88-.63,1.15S337,219.18,337.52,218.81Z"/><path d="M305.46,218.79c-.53.37-.82.88-.63,1.15s.77.2,1.3-.17.82-.88.63-1.15S306,218.43,305.46,218.79Z"/><path d="M351.66,248.6c.53-.36.81-.88.63-1.15s-.77-.19-1.3.18-.82.88-.63,1.15S351.12,249,351.66,248.6Z"/><path d="M315.61,276.49a2,2,0,0,0-.29-.43A.94.94,0,0,0,315.61,276.49Z"/><path d="M330.83,298.52a.46.46,0,0,0,.53-.22.51.51,0,0,0,0-.37.2.2,0,0,0-.13-.12c-.35-.5-.75-1-1.11-1.61a6.09,6.09,0,0,1-.88-2.17,3,3,0,0,1,.42-2.27,5.65,5.65,0,0,1,.4-.48c.15-.15.34-.28.5-.43a6,6,0,0,1,1.17-.72,14.33,14.33,0,0,1,2.71-.89c.93-.23,1.85-.43,2.71-.69a11.25,11.25,0,0,0,2.4-1,6.2,6.2,0,0,0,1.69-1.43,7.94,7.94,0,0,1-1.91,1,16.65,16.65,0,0,1-2.38.56l-.63.09a4.84,4.84,0,0,1,1.08-3.15c.47-.25.95-.48,1.44-.7a40.12,40.12,0,0,0,4.41-2.08,9.37,9.37,0,0,0,3-2.62,16.36,16.36,0,0,1-3.41,1.81c-.95.39-2,.75-3.1,1.18a2.77,2.77,0,0,1-.67-1.77,3.87,3.87,0,0,1,0-.48,10.48,10.48,0,0,1,.87-.73c.49-.35,1-.66,1.54-1s1-.63,1.51-.94a23.34,23.34,0,0,0,2.43-1.79,25.65,25.65,0,0,0-2.85,1c-.53.22-1.07.45-1.64.72-.33.16-.67.33-1,.53a.61.61,0,0,1,.07-.1,10.31,10.31,0,0,1-2.11.58,64.63,64.63,0,0,1,7.82-5.64,21.15,21.15,0,0,0-4.22,1.69,24.34,24.34,0,0,0-3.09,2l.19-.21c1.1-1.21,2.18-2.31,3.22-3.28s2.05-1.81,2.95-2.55a9.54,9.54,0,0,0-4,1,13.51,13.51,0,0,0-3.68,2.74c.32-.56.62-1.1.93-1.6a13.06,13.06,0,0,1,3-3.68,6.33,6.33,0,0,0-2.25.81,10.29,10.29,0,0,0-2.17,1.75,19.17,19.17,0,0,0-1.67,2c.57-1.49,1-2.84,1.41-4a15.13,15.13,0,0,0-3.05,3.26c-1,1.35-1.92,2.87-2.94,4.34l-.47.63a11.05,11.05,0,0,1-9.94-.85c-.28-.24-.56-.48-.83-.75a.61.61,0,0,0-.46-.46c-.29-.3-.58-.62-.86-1-.56-.67-1.07-1.38-1.54-2.07-.28-.42-.55-.84-.83-1.25l.2.14c.64.45,1.29.95,2,1.45a14.53,14.53,0,0,0,2.21,1.3,7.71,7.71,0,0,0,2.35.67,5.49,5.49,0,0,0,2.2-.17,3.84,3.84,0,0,0,1.6-.92,4.61,4.61,0,0,1-1.69.41,6.25,6.25,0,0,1-1.28-.08,7.21,7.21,0,0,0-1.08-1.68,14.56,14.56,0,0,0-1.8-1.67,30.05,30.05,0,0,1-4.14-3.42,6.5,6.5,0,0,1-1.47-2.79,17.71,17.71,0,0,0,1.86.57,18.56,18.56,0,0,0,6.07.55,15.89,15.89,0,0,0,5.87-1.64,13,13,0,0,0,3.88-3,16.11,16.11,0,0,1-4.07,2.58,17.8,17.8,0,0,1-5.73,1.44,21.89,21.89,0,0,1-5.92-.37c-.71-.14-1.39-.3-2-.48a6.56,6.56,0,0,1-.13-1.52,8.1,8.1,0,0,1,.45-2.34,16.68,16.68,0,0,0,4.44.65,19.83,19.83,0,0,0,8.38-1.77c-2.17.18-5.12.55-8.37.52a33,33,0,0,1-4.13-.32c.07-.19.14-.38.2-.56a17.78,17.78,0,0,0,5.14-.06,17.53,17.53,0,0,0,5.18-1.7,15,15,0,0,0,3.57-2.51,38.6,38.6,0,0,1-3.93,1.68,29.88,29.88,0,0,1-5,1.29,28.33,28.33,0,0,1-5.16.35,35.41,35.41,0,0,1-4.26-.36,14.54,14.54,0,0,0,4.18,1.27l.17,0c-.12.17-.25.34-.37.53h-.11a35.59,35.59,0,0,1-3.67-.81,12.45,12.45,0,0,0,3.27,1.63l0,0a7,7,0,0,0-.85,2.36,6.78,6.78,0,0,0-.08,1.28c-.54-.17-1.05-.34-1.52-.51.47.24,1,.49,1.53.73a8.11,8.11,0,0,0,.23,1.35,6.88,6.88,0,0,0,.57,1.43,4.59,4.59,0,0,0,.42.66,5.91,5.91,0,0,0,.49.63,11,11,0,0,0,2.28,1.94c.79.53,1.56,1,2.28,1.41a20.83,20.83,0,0,1,2,1.3,9.69,9.69,0,0,1,1.39,1.3c-.2,0-.41-.08-.61-.14a8.24,8.24,0,0,1-2-.81,21.19,21.19,0,0,1-2-1.29c-.69-.48-1.37-1-2.07-1.39a17.38,17.38,0,0,0-2.1-1.07l-.63-.29-.35-.26a4,4,0,0,0-.83-.45,13.74,13.74,0,0,1-1.3-1.49,3.07,3.07,0,0,1-.46-1,6.84,6.84,0,0,1-.08-1.26c0-1,0-1.88,0-2.7a11.69,11.69,0,0,1,.16-1.65l.34.06a4,4,0,0,0,1.39,0,23.71,23.71,0,0,0-2.27-1.61A4.76,4.76,0,0,1,308.8,257l.2.08-.28-.24a2.33,2.33,0,0,1-.11-.28l-.08.12c-11.95-10.48-3.23-27.15,1.19-29.59.73.15,1.4.28,2,.37a20.72,20.72,0,0,0-6.45-2.64,21.21,21.21,0,0,0-6.85-.54l-3.49-1.73a32,32,0,0,0-4.6-1.91,13.15,13.15,0,0,0-5-.59,8.16,8.16,0,0,0-2.83.77c-1.55.22-2.9.45-2.9.45l-.05,0c7.3-5.93,28.45-23.07,29.74-23.6-7.34.67-27.46,17.66-33.12,22.55a3.9,3.9,0,0,0-1.7-.08,19.85,19.85,0,0,0-3.71,2,2.34,2.34,0,0,0-2.05.64c-.9.9-2.44,4.87-2.44,4.87l-3.85,3.08,2.05,2.43,3.72-2.82s.77,2.06,2.57,1.41,4.87-3.71,4.87-3.71a26.14,26.14,0,0,1,3.88-.06h0l.48.05c1.54.26,2.56,2.18,5,2.7a11.89,11.89,0,0,0,5.38-.52s.64,5.39,10.52,6.67c0,0-1.59,3.5-.18,9.87,1.24,5.65,6,9.1,7.78,10.05a1.94,1.94,0,0,0-.06,1.18,2.82,2.82,0,0,0,1,1.53,3.6,3.6,0,0,0,1,.5,5,5,0,0,0-.77,1.59,9.69,9.69,0,0,0-.35,2.85,4.75,4.75,0,0,0,.22,1.6,3.14,3.14,0,0,0,.9,1.28,4.13,4.13,0,0,0,.92.6,4.92,4.92,0,0,0,.72.81,7.93,7.93,0,0,0,.94.75,15.75,15.75,0,0,1-1.75,1.3A20.25,20.25,0,0,1,306.2,273c-2.13.67-4.66,1.15-7.31,1.83a31,31,0,0,0-4,1.3,28.48,28.48,0,0,0-3.83,1.91,27.39,27.39,0,0,0-3.44,2.45l-.46.43a5,5,0,0,1,.84-1.11,4.12,4.12,0,0,0-1.45,1.17,5,5,0,0,0-1,2,5.21,5.21,0,0,0,0,2.54,4.75,4.75,0,0,0,.55,1.27,5.5,5.5,0,0,0,.89,1.1,7.4,7.4,0,0,0,4.72,1.88,9.49,9.49,0,0,0,3.71-.92c.07-.06,0-.06-.3,0a9.25,9.25,0,0,1-3.22,0,8.4,8.4,0,0,1-2.51-.88,7,7,0,0,1-2.37-2,4.49,4.49,0,0,1-.36-.77,4.87,4.87,0,0,1-.25-1.77,2.79,2.79,0,0,1,.22-.61,5.06,5.06,0,0,1,1.13-1.44,17.94,17.94,0,0,1,1.57-1.25,28.1,28.1,0,0,1,7.3-3.82c2.58-.89,5.2-1.4,7.5-2a25.42,25.42,0,0,0,5.73-2.18,12,12,0,0,0,2.65-1.89c.22-.21.39-.4.52-.55a6.48,6.48,0,0,0-.07,1.11,6.93,6.93,0,0,0,2,4.58,5.36,5.36,0,0,0,1.68,1.16,39.59,39.59,0,0,1-2-3.76c-.38-.88-.68-1.74-.94-2.53l.33.55c.38.66.75,1.4,1.19,2.16a16.92,16.92,0,0,0,1.56,2.26,13,13,0,0,0,1.61,1.62,3.75,3.75,0,0,1-.89.13,3.72,3.72,0,0,0-.76.14c-2.53-1-4.75-2.09-6.47-2.76a19.48,19.48,0,0,0,5.44,3.67,1.45,1.45,0,0,1-.22.62,2.2,2.2,0,0,1-1,.89l-.61-.14a32,32,0,0,0-5.93-1,10.41,10.41,0,0,0-4.82.77,15.61,15.61,0,0,1,4.73.13c1.76.29,3.67.83,5.73,1.33l1.07.23a1.32,1.32,0,0,1,.06.71,1.39,1.39,0,0,1-.62.88l-1.26-.51a23.17,23.17,0,0,0-5.48-1.71,9.79,9.79,0,0,0-2.52-.07,7.34,7.34,0,0,0-2.09.55,11.29,11.29,0,0,1,4.43.41,47.05,47.05,0,0,1,5.18,2,24,24,0,0,0,3.31,1.14c0,.07.05.15.08.22a49.82,49.82,0,0,1-5.11-.16c-2.62-.22-5.16-.53-7.51-.68a31,31,0,0,0-6.26.12c1.7.52,3.71,1.1,6,1.68a51.21,51.21,0,0,0,6.11,1.21c-.6,0-1.2,0-1.82,0-2.89-.11-5.65-.45-8.19-.78s-4.86-.62-6.81-.74a43,43,0,0,0,6.42,2.52,33.81,33.81,0,0,0,8.49,1.5,25.31,25.31,0,0,0,4.56-.26L311,289c-2.06.41-4.32.79-6.7,1.1s-4.67.5-6.77.63l-5.64.31a21.4,21.4,0,0,0,5.57,1.51,27.07,27.07,0,0,0,7.15,0,27.91,27.91,0,0,0,5.71-1.37,32.61,32.61,0,0,1-3.4,1.7,29.86,29.86,0,0,1-6.2,1.92,28.62,28.62,0,0,1-3.34.44,21.82,21.82,0,0,1-3.12,0,15.07,15.07,0,0,1-4.34-.84,5.71,5.71,0,0,0,1.64-1.37,8.92,8.92,0,0,1-2.94,1,4.46,4.46,0,0,1-3.28-.81,3.7,3.7,0,0,1-1.08-1.35,4.38,4.38,0,0,1-.39-1.63,10.34,10.34,0,0,1,.11-2,3.48,3.48,0,0,0,.57.68,3.72,3.72,0,0,0,1,.65,5.43,5.43,0,0,0,1.83.47c-.73-.79-2-1.58-2.48-2.72a2.57,2.57,0,0,1-.23-.85,1.83,1.83,0,0,1,.11-.8c.11-.27.27-.57.38-.88a1.54,1.54,0,0,0,.09-.91c-.24.5-.74.72-1.25,1.32a2.38,2.38,0,0,0-.49,1.23,2.84,2.84,0,0,0,.23,1.35,7.09,7.09,0,0,0-.78,2.38,4.43,4.43,0,0,0,.23,2.1,4.19,4.19,0,0,0,1.38,1.89,4.31,4.31,0,0,0,2.15.89,5.08,5.08,0,0,0,3-.54,9.15,9.15,0,0,0,1.59.84,12.5,12.5,0,0,0,2.85.8,17.46,17.46,0,0,0,3.28.21,22.63,22.63,0,0,0,3.51-.37,21.59,21.59,0,0,0,6.38-2.33,19.22,19.22,0,0,0,3.85-2.84l.35-.14c.52-.22,1-.45,1.5-.68,4.79,1.41,8.26,5,10.41,9.45a3.87,3.87,0,0,0-.14-1.45c-.36-1.32-6.5-8.76-7.34-9.76l.13-.1c1.06.09,5.52.37,7.21-.53.51.13,5.64,1.92,8.34,1.15l-.06.07-.32.14a6.5,6.5,0,0,0-1.41.9,8.08,8.08,0,0,0-.6.57,3.65,3.65,0,0,0-.5.67,3.55,3.55,0,0,0-.51,1.58,4.44,4.44,0,0,0,.17,1.52,5.9,5.9,0,0,0,1.36,2.28,11.3,11.3,0,0,0,1,.9c-.18-.08-.32-.1-.42,0a.62.62,0,0,0,0,.6A.82.82,0,0,0,330.83,298.52Zm-32-69.6c-2.22-1.88-2.73-1-5.81-1.54s-1.71-3.42-1.71-3.42a10.78,10.78,0,0,1-3.93,3.08c-2.39,1-3.76-.68-6-1.37a12.62,12.62,0,0,0-1.61-.37,8.1,8.1,0,0,1,2.74-4.18,11.58,11.58,0,0,1,2.83-.2,19.68,19.68,0,0,1,4.65.87c1.63.5,3.17,1.1,4.61,1.56a21.14,21.14,0,0,0,3.76.91c1.69.55,4,1.12,6.64,1.73l1.12.26a20.22,20.22,0,0,0-4.49,7.26A12.28,12.28,0,0,0,298.79,228.92Z"/><path d="M357.23,272.35a5.8,5.8,0,0,0-.62-1.05c-.1-.14-.22-.27-.33-.4a3,3,0,0,0-1.28-1.1.43.43,0,0,1,0,.07l-.12-.08a4.88,4.88,0,0,0-2-.65,3.78,3.78,0,0,0-1.73.23,5.67,5.67,0,0,0-1.66-1.87,6.64,6.64,0,0,0-3.11-1.2,6.71,6.71,0,0,0-3.31.48,5.14,5.14,0,0,0-.74.38,19.53,19.53,0,0,0-4.78-.31,11.12,11.12,0,0,0-2.13.38l0,0a8.47,8.47,0,0,0,1.76-2.86,20,20,0,0,1-2.38,2.19,17.08,17.08,0,0,1-3.31,2,17.63,17.63,0,0,1-3.68,1.15,19.67,19.67,0,0,1-3.22.31,8.41,8.41,0,0,0,3.31.59,10,10,0,0,0,2.83-.45c-1.28,1.2-2.35,2.41-3.49,3.35a11.88,11.88,0,0,1-2.1,1.46,7.43,7.43,0,0,1-2.12.76,6,6,0,0,0,2.31-.28,9.67,9.67,0,0,0,2.46-1.21,57,57,0,0,0,4.68-3.95,12,12,0,0,1,2.5-1.65,11.4,11.4,0,0,1,2.66-.84,45.75,45.75,0,0,1,4.55-.52,5.5,5.5,0,0,0-1.28,1.12,13.7,13.7,0,0,1,2.4-.7,10.26,10.26,0,0,1,2.9-.11,10.57,10.57,0,0,1,2.8.75,13.76,13.76,0,0,1,2.18,1.21l-.06-.11a4.59,4.59,0,0,1,4.34,2.33,3.61,3.61,0,0,1-.06.87,5.17,5.17,0,0,1-1.74,2.7,9.82,9.82,0,0,1-2.95,1.84,12.84,12.84,0,0,1-3,.81,5.86,5.86,0,0,0,3.31.52,7.09,7.09,0,0,0,3.86-1.78c-.08.16-.16.32-.25.47a21.4,21.4,0,0,1-3,4.21,38.18,38.18,0,0,1-7.49,5.9,18.85,18.85,0,0,0,4.07-1.67,18,18,0,0,0,4.33-3.38,14.74,14.74,0,0,0,2.94-4.68,11.92,11.92,0,0,0,.64-2.34c0-.07.07-.14.11-.2a10.92,10.92,0,0,1-.62,3.15,18,18,0,0,1-2.27,4.31,20,20,0,0,1-7.2,6.09,20.3,20.3,0,0,1-7.58,2.12,15.69,15.69,0,0,0,8.13-.86,18.5,18.5,0,0,0,4.35-2.39c-.41.66-.85,1.36-1.33,2.09a25.07,25.07,0,0,1-2.37,1.46,22.44,22.44,0,0,1-4.3,1.75,21.88,21.88,0,0,1-4.58.76,26.64,26.64,0,0,1-3.86-.07,11.51,11.51,0,0,0,3.84,1,13.83,13.83,0,0,0,4.94-.47,14.22,14.22,0,0,0,4.45-2.18c.26-.2.51-.4.75-.61a20.77,20.77,0,0,1-3.81,4.23,10.63,10.63,0,0,1-2.72,1.56,11.66,11.66,0,0,1-2.88.71,12.65,12.65,0,0,1-5.18-.5,8.25,8.25,0,0,0,2.22,1.25,5,5,0,0,0-1.22.41,5.91,5.91,0,0,0-2.49,2.36,6.66,6.66,0,0,0-.86,3.29,6.37,6.37,0,0,0,.54,2.62,13.06,13.06,0,0,1,1.4-5.29,7.71,7.71,0,0,1,1.89-2.2,7.22,7.22,0,0,1,1.51-.94,9.69,9.69,0,0,0,1.78.33c-.4.11-.82.22-1.25.36a9.5,9.5,0,0,0-1.49.65,4.61,4.61,0,0,0-1.39,1.16,4.67,4.67,0,0,0-.89,1.73,6.62,6.62,0,0,0-.22,2,14.94,14.94,0,0,0,.77,3.95,20.15,20.15,0,0,1,.87,3.64,5.1,5.1,0,0,1-.53,3.16,5.89,5.89,0,0,1-1.45,1.58,4.32,4.32,0,0,0,.3-.9,6.21,6.21,0,0,0,0-2.54,7.53,7.53,0,0,0-.65-1.9c-.26,1.13-.25,2.68-.57,4.17a5.84,5.84,0,0,1-2,3.37h0l-.1.08.16-.08a2.86,2.86,0,0,0,1.82-.8l.24-.23.29-.16a12,12,0,0,0,1.38-.83,5.08,5.08,0,0,0,1.29-1.25,4.87,4.87,0,0,0,.78-1.77,7,7,0,0,0,.14-2,16.53,16.53,0,0,0-.83-3.91,16.29,16.29,0,0,1-.8-3.63,4.85,4.85,0,0,1,.68-3.12,5.9,5.9,0,0,1,2.35-1.87l1.65-.8a10.06,10.06,0,0,0,3.25-.44,9.88,9.88,0,0,0,3.32-1.73,13.38,13.38,0,0,0,2.51-2.67,19.89,19.89,0,0,0,1.69-2.85,19.4,19.4,0,0,0,1.54-4.38,17.43,17.43,0,0,0,3.19-3.38,16.42,16.42,0,0,0,2.4-4.88,9.87,9.87,0,0,0,.25-5.13A6.86,6.86,0,0,0,357.23,272.35Z"/><path d="M325.08,267.86a14.75,14.75,0,0,0,4.51-.1,16.32,16.32,0,0,0,5.3-1.9,11.14,11.14,0,0,0,2.41-1.76,6.54,6.54,0,0,0,1.59-2.34,8.39,8.39,0,0,0,.55-2.42,19,19,0,0,0,.06-2.09c-.18.61-.35,1.29-.57,2a10.33,10.33,0,0,1-.86,2.13,9.2,9.2,0,0,1-3.79,3.41,25.44,25.44,0,0,1-4.9,2.1A32.37,32.37,0,0,1,325.08,267.86Z"/><path d="M326.93,249a10.82,10.82,0,0,0,3.3-3.55,10.69,10.69,0,0,0,1.49-4.6,30.25,30.25,0,0,1-2,4.29A31.82,31.82,0,0,1,326.93,249Z"/><path d="M380.46,244.43a5.83,5.83,0,0,0,1-.41h0c.57-.31,1.18-.77,1.18-1.38,0-1.16-1.66-3.21-2.43-4.36s-3.47-2.44-3.47-2.44-.64-1-1.41-1.15a15.21,15.21,0,0,0-1.7-.12c-5.84-6.21-22.94-23.87-29.89-25.26.55.29,4.63,4.26,9.59,9.16l-.07.05c-1.13.77-1.64,2-1.13,2.75s1.84.71,3-.06a4,4,0,0,0,.54-.45c4.38,4.36,9.1,9.09,12.51,12.52a8.19,8.19,0,0,1,1.16,3.55c-1.85-.9-4.73-2-6.75-1.41-1.67.5-3.35,2.66-4.88,4.29l0-.15A3.24,3.24,0,0,0,356,237.4a13.82,13.82,0,0,0,.45,2.47c.07.29.15.57.23.84a5.36,5.36,0,0,1-.82.62v-.12a5.68,5.68,0,0,0-.77-2.26,5.54,5.54,0,0,0-1.64-1.72,4.23,4.23,0,0,0-1.78-.7A19.76,19.76,0,0,1,354,239.6a15.74,15.74,0,0,1,1,2,1.21,1.21,0,0,1-1-.41c-4.79-5-6.33-3.93-6.33-3.93s1.88,6.15-3.24,8.89q-.51.27-1,.48l.18-.64a23.34,23.34,0,0,0,.73-3.14,5,5,0,0,0-1.93,2.8,5.84,5.84,0,0,0-.21,1.45c-.32.1-.62.18-.91.25.15-.66.3-1.35.46-2,.5-2.26,1-4.3,1.23-5.85a14.84,14.84,0,0,0-2.45,5.57,18.13,18.13,0,0,0-.37,2.51c-.34,0-.66,0-1,0a37.62,37.62,0,0,1,.73-4.13,45,45,0,0,1,2.3-6.67,11.57,11.57,0,0,0-2,2.59,14.44,14.44,0,0,0-1.9,7.84c0,.1,0,.2,0,.3l-.53-.1c-.37-4.55,1.28-9.1,4.53-13.66l4.63,1.68s.82-3.16-1.84-4.79a6.11,6.11,0,0,0-1.8-1,9.64,9.64,0,0,0-4.39-.43,20.77,20.77,0,0,0-2.21.37c-.7.16-1.36.32-2,.51a10,10,0,0,0-2.83,1.26,4.11,4.11,0,0,0,0-.79,2.66,2.66,0,0,0-.24-.86,1.71,1.71,0,0,0-.33-.46,1.41,1.41,0,0,0-.57-.33,2.38,2.38,0,0,0-.56-.06h-.42l-.85.05a15.85,15.85,0,0,0-5.07,1.26c-.21-.35-4.25-6.81-6.12-7.09,1.21,1.76,5.51,8.1,5.19,9.38-.36,1.5-3.21-1.44-3.21-1.44s4.64,7.47,2.87,7.17-2.27.1-.89,3.08a9,9,0,0,1,.36.88c-1-.87-2.21-1.61-3.33-2.4a13.55,13.55,0,0,1-3.56-3.35c-.25-.4-1-1.73-1.06-1.59a37.13,37.13,0,0,1-5.11,7.09,16.28,16.28,0,0,0-2.92,3.06,5.39,5.39,0,0,0-.33.5,49.87,49.87,0,0,1,1.19-6c.55-2.15,1.15-4.19,1.7-6a24.64,24.64,0,0,1,.87-2.56,8.59,8.59,0,0,1,1.18-2,6.72,6.72,0,0,0-1.63,1.78,15.19,15.19,0,0,0-1.28,2.48,42.39,42.39,0,0,0-2,6,26.26,26.26,0,0,0-.9,6.24,32.33,32.33,0,0,1-.63-3.57,8.71,8.71,0,0,0-.44,2.94,11,11,0,0,0,.68,3.65,11.24,11.24,0,0,0,1.86,3.21l.06.06a9.42,9.42,0,0,0,.83,1.11,19.77,19.77,0,0,0,4.08,3.76l.4-2.63c1.32,1.39,2.91,2.54,4.43,2.54,2.07,0,3.78-2.59,4.89-4.6l.45,1.17a11.93,11.93,0,0,0,2.91-3.88c1-1.63,2.5-5.42,1.55-12.64.14.44.26.89.37,1.35a20.25,20.25,0,0,1,.53,6.13,20.47,20.47,0,0,1-1.41,6,24.1,24.1,0,0,1-2.42,4.48,14,14,0,0,0,2.23-2.47,10.54,10.54,0,0,0,4.39-2.93,10,10,0,0,0,1.66-2.63,14.34,14.34,0,0,0,2.76,7.84,9.41,9.41,0,0,0,.63.76c.21.25.44.47.66.69.45.43.9.82,1.33,1.19a14.85,14.85,0,0,1,2.19,2.25,11.1,11.1,0,0,0-1.83-2.61c-.37-.43-.77-.87-1.15-1.33-.19-.23-.39-.46-.56-.71s-.36-.5-.52-.76a15.41,15.41,0,0,1-2.28-7.68,20.91,20.91,0,0,1,1.37-8,40,40,0,0,1,2.93-6.09,23.68,23.68,0,0,0-3.77,5.74,19.86,19.86,0,0,0-1.35,3.92,17.81,17.81,0,0,0-.42,3,27,27,0,0,1-2.58,3.56,32.35,32.35,0,0,1-2.75,2.67c.11-.18.21-.35.31-.54a15.7,15.7,0,0,0,1-2.2,12.07,12.07,0,0,0,2.41-4.87,11.81,11.81,0,0,0,0-6c-.32,1.51-.65,3.53-1.18,5.72-.12.48-.25,1-.37,1.41l0-.33a15.71,15.71,0,0,0-.9-6.48,14.61,14.61,0,0,0-1.57-3.14,21.6,21.6,0,0,0-1.28-4c1.35,0,3-.13,4.74-.28l.82-.07.38,0h.24a.17.17,0,0,1,.11,0,.39.39,0,0,1,.15.14,2,2,0,0,1,.26.53,3.24,3.24,0,0,1-.11,2.32,2.63,2.63,0,0,0,.95-1.56A26,26,0,0,1,335,231c.64-.08,1.32-.16,2-.26s1.42-.2,2.14-.27c.32,0,.64-.06,1-.08-.74.16-1.26.33-1.26.33s-4.88,6.15-5,13.71,5.76,12.83,5.76,12.83l1-1.93,0,0h0c.86-1.68,2-3.89,2.06-4.2a36.1,36.1,0,0,1,2.05-3.46s6.41-.77,9.62-3.72c1.54-.64,5.9-.64,8.46-2.43,1-.26,5.9-1.93,5.9-1.93l4.48,1.54s1.8,3.85,2.57,4.36a3.65,3.65,0,0,0,2.18.26l3.59,3.71,1.92-1.41Z"/><path d="M330.35,261.07a17.24,17.24,0,0,1-4.91,1.73,25.91,25.91,0,0,1-5.22.41c-1.61,0-3.06-.14-4.28-.23a28.11,28.11,0,0,0,4.26.69,20.17,20.17,0,0,0,5.36-.26,14.7,14.7,0,0,0,5-2,11.15,11.15,0,0,0,3.15-2.95A14.09,14.09,0,0,1,330.35,261.07Z"/><path d="M321.15,298.06a23.74,23.74,0,0,0-2.22-1.88,4.32,4.32,0,0,0,4.27,3.95A24.68,24.68,0,0,0,321.15,298.06Z"/><path class="cls-3" d="M316.47,247.47a7.57,7.57,0,0,1,1.69-1.66,11,11,0,0,1,2.84-1.09S320.24,247.44,316.47,247.47Z"/><path class="cls-3" d="M313.83,247.5a14.06,14.06,0,0,0-1.93-1.56,14.8,14.8,0,0,0-2.86-1.25S309.87,247.52,313.83,247.5Z"/></svg>