<svg id="Layer_1" data-name="Layer 1" xmlns="http://www.w3.org/2000/svg" xmlns:xlink="http://www.w3.org/1999/xlink" viewBox="0 0 923.55 404.54"><defs><style>.cls-1{fill:#fd6e00;}.cls-2{filter:url(#filter);}.cls-3{fill:#fff;}</style><filter id="filter"><feOffset dx="8" dy="3" input="SourceAlpha"/><feGaussianBlur result="blur"/><feFlood flood-color="#fff"/><feComposite operator="in" in2="blur"/><feComposite in="SourceGraphic"/></filter></defs><path d="M179.15,131c-3.1-22.61-4.5-34.62,1-44.85C194.67,59.33,255,58,270.21,83.2c7.15,11.86,3.42,28.23,6.68,28.74,4.42.68,4.36-30.37,22.59-43.7,15.91-11.64,43.81-8.37,54.37,6.34,4.8,6.69,5.66,15.27,9.25,15.22,4,0,4-10.71,11.35-18.45,8.51-9,24.15-11,35.37-6,16,7.21,19.53,27.27,26.28,25.59,5.16-1.29,2.5-12.83,10.87-21.17,10.28-10.25,27.88-6.37,33.48-5.14a54.06,54.06,0,0,1,19.38,8.65,59.23,59.23,0,0,1,28.91-10.45c6.29-.47,20.64-1.56,33.84,8.65A48.78,48.78,0,0,1,576,88.08c.07-2.61.59-10.61,6.11-16.71,5.85-6.46,13.55-6.63,18.57-6.74,13.45-.3,23.39,7.43,27.3,10.87a153.22,153.22,0,0,1,22.75-5.81c33.5-5.83,80.6-2.26,86.2,17.39,2.68,9.39-4.65,20.55-5.47,21.79-1.1,1.68-7.45,11.37-16.4,11.6-4.05.1-4.62-1.84-7.11-1.2-8.15,2.07-11,25.14-10.2,41.17A98.4,98.4,0,0,0,704,190a24.45,24.45,0,0,1,11.12,1.4c13.24,5,17.49,20.13,18,22.16a78.74,78.74,0,0,1,30.46-21.34c20.46-7.85,37.92-4.16,46.48-2.23,15.74,3.56,46.9,15,47.31,31.75.15,6.3-4,16.75-11.39,22.53-3.83,3-8.37,4.59-8.11,6.73.22,1.88,3.92,2.14,7.49,3.76,10.8,4.89,14.66,19.62,15.13,21.52,3.31,13.32-2,24.35-3.75,27.92-9.53,19.62-30.27,25.34-36.44,27-15.87,4.38-43.4,5.25-57.14-7.82-2-1.89-6.5-6.74-11.79-6-4.64.65-6.88,5.16-9.64,8.43-12.49,14.82-40.39,10.17-42.56,9.78-8.63-1.55-22.14-6.27-32.25-7-9.55-.63-8.81,1-37.2,3.48-24.08,2.13-29.47,1.41-34.42-2.61-6-4.82-8-11.75-13.26-11.5-3.86.19-4.29,4-9.89,8.09-8.1,5.88-19.14,6.51-27.15,3.9-5.89-1.92-6.42-4.39-11.35-4.64-6.19-.3-9.57,3.4-14.68,6.1-10.94,5.78-26,4.94-35.45-1.19-10.85-7-11-18.94-18.12-19.16-5.53-.16-7.66,6.92-13.82,12.81-19.24,18.38-61.89,9.88-69-8.38-2.44-6.26-1.07-14.58-4.84-15.93-2.37-.84-5.23,1.61-8,3.94-3.26,2.8-4.06,4.63-8.46,10.76-5,7-7.62,10.59-10.59,12-2.24,1-4.12,1.24-7.34,3.34a28.66,28.66,0,0,0-5,4.18c-4.53,4.75-4.92,8.17-8.57,9.2a6,6,0,0,1-2.37.23c-4.45-.45-4.79-6.39-12.49-13.59-4.85-4.53-7-4.91-8-5-5-.44-5.72,3.75-11.1,4.8-7.13,1.39-10.17-5.3-18.34-4.37-3.6.41-4.56,1.88-8.86,3.93-8.71,4.15-21.81,6.24-32.25,1.45-9.59-4.4-10.24-11.54-16.59-11.17s-6.61,7.33-15.28,12.41c-9.33,5.46-24,6.17-31.49-1.24-3.74-3.69-4.83-8.49-8.86-8.9-3.54-.35-6.45,3-7.54,4.14-10.93,11.58-32.06,11.37-37.53,11.37-15.67,0-27.21-6.54-32.17-9.45-7-4.13-17.42-10.21-22.32-22.81a39.81,39.81,0,0,1-2.17-8.23c-2.06-13.47,3.59-22.52,6.69-32.59,7.2-23.36-6.14-30,1.84-48.75,6.35-15,19.49-21.86,22.89-23.49,17.15-8.24,35.52-2.81,41.07-1.17,1.54.46,2.9.93,3,1,17.1,5.94,21.81,15.19,26.45,13.13,4.12-1.84,1.41-9.56,7.49-14.7,4.39-3.71,7.82-1.38,11.06-3.77C190.74,180.57,183,158.75,179.15,131Z"/><path class="cls-1" d="M183.35,132.81c-3-20.83-4.38-31.89,1-41.32,14.1-24.67,72.86-25.87,87.62-2.68,7,10.93,3.34,26,6.51,26.48,4.3.62,4.24-28,22-40.26,15.48-10.73,42.64-7.71,52.92,5.84,4.67,6.16,5.51,14.07,9,14,3.95,0,3.93-9.86,11.05-17,8.29-8.3,23.5-10.18,34.43-5.52C423.43,79,426.86,97.5,433.44,96c5-1.19,2.43-11.82,10.57-19.5,10-9.45,27.14-5.87,32.59-4.73a54.13,54.13,0,0,1,18.87,8,59.6,59.6,0,0,1,28.13-9.62c6.13-.44,20.09-1.44,32.94,8a45.29,45.29,0,0,1,13.09,15.29c.07-2.4.57-9.78,5.94-15.4,5.7-6,13.2-6.11,18.07-6.21,13.1-.28,22.78,6.85,26.58,10a155.16,155.16,0,0,1,22.14-5.35c32.6-5.38,78.45-2.08,83.9,16,2.6,8.64-4.53,18.93-5.32,20.07-1.07,1.55-7.26,10.47-16,10.68-4,.1-4.5-1.69-6.92-1.1-7.94,1.91-10.73,23.16-9.94,37.93a86.62,86.62,0,0,0,6,27.25A25.26,25.26,0,0,1,705,188.51c12.88,4.59,17,18.55,17.54,20.42a76.55,76.55,0,0,1,29.64-19.66c19.91-7.23,36.91-3.83,45.24-2.05,15.32,3.27,45.65,13.82,46,29.25.15,5.8-3.9,15.43-11.08,20.75-3.73,2.76-8.14,4.23-7.9,6.2.22,1.74,3.82,2,7.3,3.46,10.51,4.51,14.26,18.08,14.72,19.83,3.22,12.27-2,22.43-3.65,25.72-9.27,18.07-29.46,23.34-35.47,24.91-15.44,4-42.23,4.83-55.61-7.2-1.94-1.75-6.32-6.21-11.48-5.53-4.51.6-6.7,4.75-9.38,7.76-12.15,13.66-39.31,9.37-41.42,9-8.4-1.42-21.55-5.77-31.39-6.39-9.3-.59-8.58.88-36.2,3.19-23.44,2-28.69,1.3-33.51-2.4-5.8-4.44-7.8-10.82-12.9-10.59-3.76.17-4.18,3.7-9.63,7.45-7.88,5.42-18.63,6-26.42,3.59-5.73-1.77-6.25-4-11-4.27-6-.28-9.31,3.13-14.29,5.62-10.64,5.32-25.32,4.55-34.5-1.09C469,310,468.88,299,461.94,298.84c-5.38-.16-7.45,6.37-13.45,11.79-18.72,16.93-60.24,9.1-67.16-7.72-2.37-5.76-1-13.43-4.71-14.67-2.31-.78-5.09,1.48-7.73,3.63-2.88,2.34-5.09,5-8.23,9.91-6.61,10.34-6.18,13.24-10.22,15.39-2.92,1.56-4.64.84-6.69,1.62a11.77,11.77,0,0,0-1.87,1.12,40,40,0,0,0-3.6,2.63c-4.55,3.77-7.34,9.26-10.46,9.68-6.43.85-10.4-20.32-20.09-20.93-4.58-.29-4.93,3.34-10.8,4.42-6.94,1.28-9.9-4.87-17.85-4-3.5.38-4.44,1.73-8.63,3.62-8.47,3.82-21.22,5.75-31.38,1.34-9.34-4.06-10-10.63-16.15-10.29s-6.43,6.75-14.87,11.43c-9.08,5-23.32,5.69-30.65-1.14-3.64-3.4-4.7-7.82-8.62-8.2-3.45-.33-6.28,2.75-7.34,3.81-10.64,10.68-31.21,10.47-36.53,10.48-15.25,0-26.48-6-31.31-8.71-6.86-3.8-17-9.4-21.73-21a35.06,35.06,0,0,1-2.1-7.58c-2-12.41,3.49-20.75,6.51-30,7-21.51-6-27.59,1.79-44.91,6.18-13.77,19-20.13,22.27-21.64,16.7-7.59,34.57-2.58,40-1.07,1.51.42,2.84.86,3,.9,16.64,5.47,21.23,14,25.74,12.09,4-1.68,1.37-8.8,7.29-13.53,4.28-3.42,7.61-1.28,10.77-3.48C194.63,178.51,187.06,158.41,183.35,132.81Z"/><g class="cls-2"><path d="M251.67,130.47a32.71,32.71,0,0,1,11.07,5.61A36.65,36.65,0,0,1,271,144.9a36.2,36.2,0,0,1,4.78,10.66,29.91,29.91,0,0,1,.82,11.35,29,29,0,0,1-3.69,10.94,28.39,28.39,0,0,1-8.75,9.22,48.88,48.88,0,0,1-12.65,4,80,80,0,0,1-13.33,1.09q-6.56,0-13.12-.61t-12.85-1.3q-5.61-1-8.21-3.69t-1.23-8.48q.42-6.84.82-13.53t.62-13.47q.19-6.77,0-13.54A123.63,123.63,0,0,0,203,124.05a39.82,39.82,0,0,0-.62-6.63,55.41,55.41,0,0,1-.75-7.11,17.72,17.72,0,0,1,.89-6.5,8.58,8.58,0,0,1,4.3-4.78A50.5,50.5,0,0,1,219,95.13,71,71,0,0,1,231.84,94c1.92,0,3.81.07,5.68.2s3.71.3,5.54.48q8.88,1.09,13.74,4.85a14.85,14.85,0,0,1,5.87,8.89,17.15,17.15,0,0,1-1.77,10.94A34.11,34.11,0,0,1,251.67,130.47Zm-20.78-10.39a7.74,7.74,0,0,0,5.67-.2,8.27,8.27,0,0,0,3.62-3.28,7.76,7.76,0,0,0,1-4.79,7.37,7.37,0,0,0-2.46-4.72c-2.55-1.36-4.47-2-5.74-2a2.6,2.6,0,0,0-2.6,1.44,8.57,8.57,0,0,0-.68,3.69,31.75,31.75,0,0,0,.41,4.92C230.34,116.87,230.61,118.53,230.89,120.08Zm1.5,48.67a7,7,0,0,0,3.15.82,7.31,7.31,0,0,0,4.58-1.64,10.08,10.08,0,0,0,3.14-4,8.51,8.51,0,0,0,.62-4.86,6.59,6.59,0,0,0-2.88-4.3A11.91,11.91,0,0,0,236,153.3a2.94,2.94,0,0,0-2.94,1.58,9.41,9.41,0,0,0-.82,3.89,47.65,47.65,0,0,0,.13,5A36.63,36.63,0,0,1,232.39,168.75Z"/><path d="M317.43,168.48q0,3.69-.07,7.38a34.31,34.31,0,0,0,.62,7.25c.09,1.55.11,2.85.07,3.9a4.62,4.62,0,0,1-.76,2.53,4.44,4.44,0,0,1-2.12,1.5,21,21,0,0,1-4.17,1q-6.56.27-12.37.13a23.26,23.26,0,0,1-9.84-2.12,11.15,11.15,0,0,1-5.68-6.56q-1.64-4.57.28-13,4.1-18.33,9.09-36.24t9.91-36.09c.91-2.1,2.83-3.53,5.74-4.31a38.07,38.07,0,0,1,9.71-1.16,89.63,89.63,0,0,1,11.62.75c3.83.5,6.84.85,9,1a32.45,32.45,0,0,1,10,10.66,71.46,71.46,0,0,1,6.16,13.67,134.29,134.29,0,0,1,4,14.91q1.58,7.65,3.35,14.49.69,4.92,1.85,11.14a62.36,62.36,0,0,1,1.09,12.17,26.92,26.92,0,0,1-2.25,10.8q-2.19,4.86-8.34,7.18c-2.47.27-4.65.5-6.57.68s-3.64.28-5.19.28q-6,0-8.48-1.71a7.82,7.82,0,0,1-3.14-5.2,43.41,43.41,0,0,1-.62-8.82,81.92,81.92,0,0,0-1-12.71c-.1-1.18-.28-2.53-.55-4a15.71,15.71,0,0,0-1.37-4.17,9.56,9.56,0,0,0-2.46-3.14,4.54,4.54,0,0,0-3.83-.82,3.29,3.29,0,0,0-2.05,1.16,5.52,5.52,0,0,0-1,2,34.12,34.12,0,0,0-.75,7.73Q317.44,164.52,317.43,168.48Zm.82-48.53a8,8,0,0,0,2.46,1.36,8.64,8.64,0,0,0,3,.55,5.57,5.57,0,0,0,3.28-1,2.73,2.73,0,0,0,1.09-2.87,26.1,26.1,0,0,1-.54-4.37,26.1,26.1,0,0,0-.69-4.86,7.94,7.94,0,0,0-1.91-3.69c-.91-1-2.32-1.25-4.24-.89a11.71,11.71,0,0,0-1,3c-.32,1.37-.62,2.8-.89,4.31a36.29,36.29,0,0,0-.55,4.51A28,28,0,0,0,318.25,120Z"/><path d="M478.08,100.12q.41,8.2.2,16.41t-.61,16.4q-.42,8.2-.89,16.41t-.48,16.41q-.14,3.13-.27,6.63a35.48,35.48,0,0,1-.89,6.7,18.7,18.7,0,0,1-2.46,5.88,10.5,10.5,0,0,1-5.27,4,62.52,62.52,0,0,1-8.13,2.46,38,38,0,0,1-8.55,1A32.94,32.94,0,0,1,438.15,190a10.8,10.8,0,0,1-2.52-2.19,5.14,5.14,0,0,1-1.17-3,31.25,31.25,0,0,0-1.77-7.66q-1.38-3.69-3-7.24a51.86,51.86,0,0,0-3.35-7.11q-2.4-4.38-5.2-8.48a57.39,57.39,0,0,0-5.67-7.11c-1.91-2-3.56-3-4.92-3s-2.17,1-2.67,3-.43,5.47.21,10.39a28.39,28.39,0,0,0,.61,5.33q.62,3.15,1.37,6.64t1.3,7a27.45,27.45,0,0,1,.27,6.56,10.23,10.23,0,0,1-1.71,5.06,6.23,6.23,0,0,1-4.58,2.46c-2.46.27-5.38.71-8.75,1.3a57.83,57.83,0,0,1-10,.89,34.22,34.22,0,0,1-5.4-.41,15.58,15.58,0,0,1-4.65-1.51,11.33,11.33,0,0,1-3.62-2.94,11.63,11.63,0,0,1-2.19-4.58,195.48,195.48,0,0,1,.21-20l1.23-20q.62-10,.68-20a117.79,117.79,0,0,0-1.57-20,5,5,0,0,1,.89-4.24A8.4,8.4,0,0,1,375.54,97a17.33,17.33,0,0,1,4.51-1.1c1.64-.18,3.1-.36,4.37-.55a24.76,24.76,0,0,0,4.72-.75,18.88,18.88,0,0,1,4.72-.61,8.61,8.61,0,0,1,3.55.68,51.92,51.92,0,0,1,11.42,8.07q5.13,4.78,9.84,10.12t9.3,10.73a114.58,114.58,0,0,0,9.77,10.18,16.5,16.5,0,0,0,2.4-7.58,60.88,60.88,0,0,0,0-9l-.69-9.3a30.48,30.48,0,0,1,.48-8.47,15.2,15.2,0,0,1,7.32-4.31,35.49,35.49,0,0,1,9.77-1.3,44.7,44.7,0,0,1,12,1.64A21.2,21.2,0,0,1,478.08,100.12Z"/><path d="M556.14,138.13A71,71,0,0,1,555,154.67a58,58,0,0,1-5.47,16.2,45.7,45.7,0,0,1-10.11,13.2,31.2,31.2,0,0,1-15.11,7.38c-1.83.18-3.92.37-6.29.55s-4.83.27-7.38.27a63.64,63.64,0,0,1-8.41-.55,23.24,23.24,0,0,1-7.45-2.18,13.48,13.48,0,0,1-5.2-4.45,10.81,10.81,0,0,1-1.5-7.31q.4-9.71-.14-19.42T487,139q-.4-9.7.14-19.35a90.94,90.94,0,0,1,3.14-19.07,6.56,6.56,0,0,1,2.47-3.42,12.27,12.27,0,0,1,3.75-1.64,23.52,23.52,0,0,1,4.38-.68,28.46,28.46,0,0,0,4.17-.55q2.33-.27,4.44-.48c1.42-.13,2.81-.2,4.17-.2a48.69,48.69,0,0,1,17.5,3.07,38.68,38.68,0,0,1,13.81,8.82,37.64,37.64,0,0,1,8.75,14A46.78,46.78,0,0,1,556.14,138.13ZM513.9,138a10.17,10.17,0,0,0,3.28.55,7.43,7.43,0,0,0,5.74-2.39,12.93,12.93,0,0,0,3-5.75,17.29,17.29,0,0,0,.2-7,11.52,11.52,0,0,0-2.93-6.15c-2.56-2.46-4.74-3.69-6.57-3.69q-2.46,0-3.62,2.73a19.48,19.48,0,0,0-1.37,6.57,37.36,37.36,0,0,0,.48,8.06A36,36,0,0,0,513.9,138Z"/><path d="M597.16,100.39q-.4,9.44-1,18.94t-1,19q-.4,9.51-.21,19a176.33,176.33,0,0,0,1.44,18.93,21.91,21.91,0,0,1,.07,8.28,8.81,8.81,0,0,1-2.8,4.92,11.11,11.11,0,0,1-5.48,2.25,34.09,34.09,0,0,1-8.2.14,41.06,41.06,0,0,1-8.61-1.37,8.82,8.82,0,0,1-4.72-3.07,10.51,10.51,0,0,1-1.84-5.54,55.39,55.39,0,0,1,.13-8.61,161,161,0,0,0,1.23-17.5q.14-8.76-.13-17.57t-.69-17.57q-.4-8.75-.54-17.5a6.23,6.23,0,0,1,.88-4.24A8.5,8.5,0,0,1,568.93,96a18.2,18.2,0,0,1,4.85-1.64,28.81,28.81,0,0,1,5.74-.55,33.46,33.46,0,0,1,10.94,1.78C593.92,96.79,596.15,98.39,597.16,100.39Z"/><path d="M694.37,102.58q-1,3-2.19,7.18a40.62,40.62,0,0,1-3.14,7.72,17.92,17.92,0,0,1-4.72,5.75q-2.8,2.19-7.18,1.23a33,33,0,0,0-4.1-1.17,21.63,21.63,0,0,0-4.51-.47,10.63,10.63,0,0,0-6.09,1.71c-1.68,1.14-2.39,3.16-2.12,6.08q-.95,7.11-1.57,14.42a132.45,132.45,0,0,0-.41,14.63,101.64,101.64,0,0,0,1.44,14.43,69.23,69.23,0,0,0,4,13.94,18,18,0,0,1-7,3.15,39.89,39.89,0,0,1-8.13.82,67.78,67.78,0,0,1-7.39-.41c-2.46-.28-4.78-.5-7-.69-4.56-.63-7.32-2.21-8.27-4.71s-.85-5.81.34-9.92q2.33-13,5.61-25.49t5.47-25.5a71.89,71.89,0,0,0-10.88,2.94c-3.41,1.23-7,2.34-10.59,3.35-2.83.63-5,.43-6.5-.62a8.18,8.18,0,0,1-3.14-4.58,22.35,22.35,0,0,1-.75-7,52.71,52.71,0,0,1,.89-8.07q.75-4,1.71-7.59t1.5-5.6a34.54,34.54,0,0,1,6.49-2q4-.9,9-1.51t10.73-1q5.74-.34,11.62-.35,7.38,0,14.77.55T676,95.47a63.13,63.13,0,0,1,11.14,2.87A20.11,20.11,0,0,1,694.37,102.58Z"/><path d="M146.38,237.86a33.3,33.3,0,0,1,11.33,5.73A37.28,37.28,0,0,1,171,263.52a30.87,30.87,0,0,1,.84,11.61,29.6,29.6,0,0,1-3.78,11.19,29,29,0,0,1-8.95,9.44,50.34,50.34,0,0,1-12.94,4.06,82.56,82.56,0,0,1-13.63,1.12q-6.72,0-13.43-.63T106,299q-5.73-1-8.39-3.78t-1.26-8.67q.42-7,.84-13.85c.28-4.56.49-9.16.63-13.77s.14-9.24,0-13.85a124.54,124.54,0,0,0-1.19-13.78A40.71,40.71,0,0,0,96,224.5a56.14,56.14,0,0,1-.77-7.27,18.29,18.29,0,0,1,.91-6.65,8.77,8.77,0,0,1,4.41-4.89,51.14,51.14,0,0,1,12.44-4,72.52,72.52,0,0,1,13.15-1.19c2,0,3.89.07,5.81.21s3.79.31,5.66.49q9.09,1.13,14.06,5a15.16,15.16,0,0,1,6,9.09,17.55,17.55,0,0,1-1.82,11.19A34.91,34.91,0,0,1,146.38,237.86Zm-21.26-10.63a8,8,0,0,0,5.81-.21,8.35,8.35,0,0,0,3.7-3.36,7.87,7.87,0,0,0,1-4.9,7.58,7.58,0,0,0-2.51-4.82c-2.62-1.4-4.57-2.1-5.88-2.1a2.66,2.66,0,0,0-2.66,1.47,8.92,8.92,0,0,0-.7,3.78,33.29,33.29,0,0,0,.42,5C124.56,223.94,124.84,225.64,125.12,227.23ZM126.66,277a7.19,7.19,0,0,0,3.22.84,7.47,7.47,0,0,0,4.68-1.68,10.34,10.34,0,0,0,3.22-4.06,8.6,8.6,0,0,0,.63-5,6.7,6.7,0,0,0-2.94-4.41,12.2,12.2,0,0,0-5.17-1.54,3,3,0,0,0-3,1.61,10,10,0,0,0-.84,4,47.23,47.23,0,0,0,.14,5.1A38.38,38.38,0,0,1,126.66,277Z"/><path d="M217.43,271a115.6,115.6,0,0,1-.42,12.87,25.08,25.08,0,0,1-3,10.28,15,15,0,0,1-7.28,6.37q-4.81,2.09-13.21,1.25a11.71,11.71,0,0,1-4.2-1.11,14.76,14.76,0,0,1-3.71-2.45,10.6,10.6,0,0,1-2.51-3.43,9.75,9.75,0,0,1-.91-4.19q.27-11.47.84-22.8a123.7,123.7,0,0,0-1-22.66,67.06,67.06,0,0,0-.42-6.92q-.42-4-.77-8.47t-.28-9a36.17,36.17,0,0,1,1-8.18,16.44,16.44,0,0,1,3-6.36,9.38,9.38,0,0,1,5.88-3.36q7.69-.42,17.06-1.68A140.57,140.57,0,0,1,226.24,200a75.7,75.7,0,0,1,11.4.84,37.39,37.39,0,0,1,10.21,3,26.23,26.23,0,0,1,8.26,6,28.11,28.11,0,0,1,5.66,9.72,33.68,33.68,0,0,1,2.73,13.71,29.51,29.51,0,0,1-2.87,12,34.71,34.71,0,0,1-7.41,10.07,57.6,57.6,0,0,1-11.05,8.18c-.28,1.31.6,2.57,2.66,3.78s4.52,2.51,7.41,3.91,5.78,2.9,8.67,4.48a18.91,18.91,0,0,1,6.43,5.31,7.89,7.89,0,0,1,2.17,5.25,8.84,8.84,0,0,1-1.68,4.89,16.59,16.59,0,0,1-4.4,4.2,31.64,31.64,0,0,1-5.95,3.15,29.07,29.07,0,0,1-6.22,1.75,14.36,14.36,0,0,1-5.46-.07,20.34,20.34,0,0,1-9.58-4.27,47,47,0,0,1-7.27-7.55q-3.28-4.27-6.22-8.95A56.4,56.4,0,0,0,217.43,271Zm-1.68-33.84a8.34,8.34,0,0,0,1.89.56,12,12,0,0,0,1.75.14,8.7,8.7,0,0,0,5.25-1.68,13.4,13.4,0,0,0,3.77-4.27,16.64,16.64,0,0,0,2-5.52,12.17,12.17,0,0,0-.28-5.53,8.7,8.7,0,0,0-8.74-6.36c-2.33-.09-3.83.72-4.48,2.45a17.09,17.09,0,0,0-.91,6.29q.07,3.7.35,7.55A16.52,16.52,0,0,1,215.75,237.16Z"/><path d="M461.78,209.32c-.66,2.06-1.4,4.5-2.24,7.35a41,41,0,0,1-3.22,7.9,18.42,18.42,0,0,1-4.82,5.87c-1.92,1.5-4.36,1.92-7.35,1.26a35.75,35.75,0,0,0-4.19-1.19,22,22,0,0,0-4.62-.49,10.88,10.88,0,0,0-6.22,1.75c-1.73,1.17-2.45,3.24-2.17,6.23q-1,7.27-1.61,14.75a133.66,133.66,0,0,0-.42,15,103.08,103.08,0,0,0,1.47,14.75,70.56,70.56,0,0,0,4.06,14.27,18.31,18.31,0,0,1-7.21,3.22,40.2,40.2,0,0,1-8.32.84,68.23,68.23,0,0,1-7.55-.42c-2.52-.28-4.9-.52-7.13-.7q-7-1-8.47-4.83t.35-10.14q2.38-13.29,5.74-26.08t5.59-26.09a73.89,73.89,0,0,0-11.12,3q-5.24,1.89-10.84,3.42-4.33,1-6.64-.62a8.44,8.44,0,0,1-3.22-4.69,23,23,0,0,1-.77-7.2,56.42,56.42,0,0,1,.91-8.25c.51-2.75,1.1-5.34,1.75-7.77s1.17-4.33,1.54-5.73a35.65,35.65,0,0,1,6.64-2q4.13-.92,9.23-1.54c3.41-.42,7.07-.74,11-1s7.88-.35,11.89-.35q7.56,0,15.11.56c5,.38,9.72.93,14,1.68a64.51,64.51,0,0,1,11.4,2.94A20.41,20.41,0,0,1,461.78,209.32Z"/><path d="M516.74,262.89a7.48,7.48,0,0,0-4.75-1.54,8.39,8.39,0,0,0-5.18,1.68q-2.24,1.68-1.25,4.76a110.35,110.35,0,0,1,2.93,12.1,45.63,45.63,0,0,1,.56,12.37,10.16,10.16,0,0,1-4,5.6,20.3,20.3,0,0,1-6.51,2.87,36.44,36.44,0,0,1-7.48,1c-2.57.1-4.92.14-7.07.14a15.76,15.76,0,0,1-8.39-4,18.43,18.43,0,0,1-4.54-7.27,33.26,33.26,0,0,1-1.68-9.52q-.21-5.24-.07-10.49t.28-10.28a54,54,0,0,0-.42-9q.27-9.64.84-19.3t1.54-19.3a10.38,10.38,0,0,1,1.61-5.52,11.2,11.2,0,0,1,3.77-3.5A15.55,15.55,0,0,1,482.2,202a36,36,0,0,1,6-.49,49.56,49.56,0,0,1,7.07.49,54.23,54.23,0,0,1,6.08,1.19,9.54,9.54,0,0,1,5.24,5.38,20.24,20.24,0,0,1,1,7.49,50.65,50.65,0,0,1-1,8.25,48.82,48.82,0,0,0-1,7.55c2.51,1.59,4.66,2.38,6.43,2.38a3.93,3.93,0,0,0,4-2.73,15.3,15.3,0,0,0,.34-7.48q-.13-2.94-.14-6.15a29.31,29.31,0,0,1,.63-6.16,15.56,15.56,0,0,1,2.31-5.45,11,11,0,0,1,4.76-3.92,45.68,45.68,0,0,1,17.48-3.5,42,42,0,0,1,7.13.56,19.55,19.55,0,0,1,4,1.19,4.19,4.19,0,0,1,1.89,1.61,5.08,5.08,0,0,1,.63,2.24c0,.84.07,1.91.07,3.21q-.15,8.4-.7,16.72t-1,16.57q-.5,8.26-.7,16.58t.35,16.71q1.11,7.83-.35,12.94a15.88,15.88,0,0,1-5.11,8.11,19.91,19.91,0,0,1-9.23,4.06,62.94,62.94,0,0,1-12.72.91c-2.9-.19-4.92-1.05-6.09-2.59a11.44,11.44,0,0,1-2.17-5.6,35.06,35.06,0,0,1-.14-7,52.54,52.54,0,0,0,.14-6.64q0-3.92-.21-7.77T516.74,262.89Z"/><path d="M722.66,271.08c-6.57-4.3-12.52.07-17.76,4.11a46,46,0,0,1-22.88,9c-21,2.42-40.67-7.36-57.87-18.37a4.75,4.75,0,0,0-2.81-.81,10.48,10.48,0,0,0-3.61-.62,20.68,20.68,0,0,0-4.55.56c-1.63.37-3.22.82-4.76,1.33s-3,1.05-4.4,1.61-2.66,1.07-3.78,1.54a7.09,7.09,0,0,1-3.35,1.11q-2.67,0-3.43-2.93a10.4,10.4,0,0,1,.35-6.16,10.25,10.25,0,0,1,3.08-1.12,18.44,18.44,0,0,1,3.21-.28,36.28,36.28,0,0,1,5.53.42,20.69,20.69,0,0,0,5.38.14,5.57,5.57,0,0,0,5-2.37,14.38,14.38,0,0,0,2-5.74,28.46,28.46,0,0,0,.14-6.85q-.36-3.49-.63-5.88-1.41-6.7-8.54-5.87a22.11,22.11,0,0,0-4.33.7,42.26,42.26,0,0,0-4.13,1.33l-4.05,1.54a25.58,25.58,0,0,1-4.27,1.19,33.8,33.8,0,0,0-.56-3.57,29.8,29.8,0,0,1-.56-3.85,6.52,6.52,0,0,1,.49-3.21,3.46,3.46,0,0,1,2.73-1.82,11.07,11.07,0,0,1,3.49-.84c1.22-.09,2.47-.14,3.78-.14q3.08,0,6.23.28c2.09.19,4.17.28,6.22.28a24.62,24.62,0,0,0,6.64-.84,9.77,9.77,0,0,0,5.11-3.5q1.11-1.81,2.45-4.19a22.23,22.23,0,0,0,2-4.9,10.67,10.67,0,0,0,.28-4.83,5.82,5.82,0,0,0-2.79-3.84l-6.44-1c-2.42-.37-5-.75-7.76-1.12s-5.59-.67-8.53-.91-5.85-.35-8.74-.35a81.73,81.73,0,0,0-8.4.42,35.74,35.74,0,0,0-7.48,1.54,23.47,23.47,0,0,0-6.15,3,15.14,15.14,0,0,0-4.41,4.68,101.6,101.6,0,0,0-2.8,11.61Q565.83,228.35,565,236t-1.12,15.59q-.28,8-.07,15.53a130.73,130.73,0,0,0,1.12,14.19,61,61,0,0,0,2.58,11.54,12.35,12.35,0,0,0,8,6.58,43.2,43.2,0,0,0,12.45,1.68,110.87,110.87,0,0,0,13.64-.84c1.24-.16,2.41-.29,3.53-.41a4.85,4.85,0,0,0,3.31.13l2.25-.6c.76-.05,1.49-.08,2.17-.1a15.92,15.92,0,0,0,2.64-.73l.09,0a14.31,14.31,0,0,0,1.38-.59,129.2,129.2,0,0,1,41.07,4c9.53,2.57,15.43,5.59,26.35,5.41a67.31,67.31,0,0,0,25-5.48c6.72-2.82,14.32-6.53,17.57-13.5C729.59,282.57,728.26,274.74,722.66,271.08Z"/><path d="M669.57,252.33a76.13,76.13,0,0,1-.35,9.49,17,17,0,0,1-2.48,7.57,12,12,0,0,1-6,4.69c-2.66,1-6.29,1.34-10.9.93a10.7,10.7,0,0,1-3.46-.82,12.24,12.24,0,0,1-3-1.81,7.9,7.9,0,0,1-2.07-2.52,6.51,6.51,0,0,1-.75-3.1q.22-8.44.69-16.8a81.43,81.43,0,0,0-.81-16.71,42.51,42.51,0,0,0-.35-5.1q-.34-2.94-.63-6.24a63.1,63.1,0,0,1-.23-6.59,24.57,24.57,0,0,1,.81-6,11.57,11.57,0,0,1,2.48-4.69,7.92,7.92,0,0,1,4.84-2.47q6.33-.31,14.06-1.24a129.15,129.15,0,0,1,15.45-.93,70,70,0,0,1,9.39.62,33.58,33.58,0,0,1,8.42,2.22,21.54,21.54,0,0,1,6.8,4.43,20.27,20.27,0,0,1,4.67,7.17,22.53,22.53,0,0,1,2.24,10.1,19.86,19.86,0,0,1-2.36,8.82,26,26,0,0,1-6.11,7.42,47.92,47.92,0,0,1-9.1,6c-.23,1,.49,1.89,2.19,2.79s3.72,1.85,6.11,2.88,4.76,2.13,7.14,3.3a15.32,15.32,0,0,1,5.3,3.92,5.5,5.5,0,0,1,1.79,3.87,6.09,6.09,0,0,1-1.38,3.6,13.27,13.27,0,0,1-3.63,3.1,27.17,27.17,0,0,1-4.9,2.32,26.06,26.06,0,0,1-5.13,1.29,12.91,12.91,0,0,1-4.5-.06,17.6,17.6,0,0,1-7.89-3.14,36.29,36.29,0,0,1-6-5.57q-2.7-3.13-5.13-6.6A42.6,42.6,0,0,0,669.57,252.33Zm-1.39-25a7.52,7.52,0,0,0,1.56.41,10.36,10.36,0,0,0,1.44.1,7.79,7.79,0,0,0,4.32-1.23,10.27,10.27,0,0,0,3.11-3.15,11.43,11.43,0,0,0,1.62-4.07,8.06,8.06,0,0,0-.23-4.07,6.78,6.78,0,0,0-2.37-3.25,8.14,8.14,0,0,0-4.84-1.44q-2.88-.1-3.69,1.8a11.39,11.39,0,0,0-.74,4.64c0,1.82.13,3.68.28,5.57A10.91,10.91,0,0,1,668.18,227.38Z"/><path d="M773.71,262.81a9.63,9.63,0,0,0-4.82-5.81,35.8,35.8,0,0,0-8-3q-4.49-1.11-9.09-1.88a26.22,26.22,0,0,1-7.84-2.45q-8.38-3.36-12.79-8.25a18.75,18.75,0,0,1-3.43-21.47,28.11,28.11,0,0,1,7.83-9.93,42.81,42.81,0,0,1,13.29-7.21,54.4,54.4,0,0,1,18-2.79,78.76,78.76,0,0,1,16.86,2,97.42,97.42,0,0,1,18.81,6.44q3.21.84,3.42,3.57a13.48,13.48,0,0,1-1.05,5.94,38,38,0,0,1-3.21,6.36q-2,3.15-2.94,4.83a12.8,12.8,0,0,1-4.2,4.2,9.12,9.12,0,0,1-4.33,1.11,11.76,11.76,0,0,1-4.48-.91q-2.24-.9-4.61-2.09c-1.59-.79-3.2-1.52-4.83-2.17a15.57,15.57,0,0,0-5-1.12,3.56,3.56,0,0,0-3.78,2.1,3.38,3.38,0,0,0-.14,2.17,3.51,3.51,0,0,0,1.4,2,24.64,24.64,0,0,0,4.82,3.08,37.21,37.21,0,0,0,5.32,2.1q2.73.84,5.52,1.47t5.46,1.33q8.67,2.24,12.87,7.69a23.2,23.2,0,0,1,4.82,12.17,32.89,32.89,0,0,1-1.82,13.84A39.78,39.78,0,0,1,798.54,289,35,35,0,0,1,787,298a25.75,25.75,0,0,1-14.4,2.45,54.29,54.29,0,0,1-7.49-.28,85.4,85.4,0,0,1-8.74-1.33,66.61,66.61,0,0,1-8.88-2.45,37.28,37.28,0,0,1-7.9-3.77,21.86,21.86,0,0,1-5.81-5.32,14.09,14.09,0,0,1-2.72-7.13c.18-1.86.42-4,.7-6.5a26.82,26.82,0,0,1,1.67-6.86,14.41,14.41,0,0,1,3.5-5.24,7.4,7.4,0,0,1,6.15-1.68,20.42,20.42,0,0,1,5.18,1.75l5.73,2.72a61.09,61.09,0,0,0,5.88,2.45,16.61,16.61,0,0,0,5.59,1,9.33,9.33,0,0,0,4.48-1.12A10.09,10.09,0,0,0,773.71,262.81Z"/></g><path class="cls-3" d="M336.42,304.35l4.78,6.18q3.66-11.56,7.31-23.14l-2-1.13Z"/><path d="M316.89,194.63c2.58,1.2,5.14,2.43,7.74,3.58,3.5,1.55,6.66,1.48,10-1,5.14-3.72,8.82-3.4,12.4,1.69,4.5,6.38,8.2,13.33,12.22,20,.42.69.72,1.45,1.1,2.23,4.92-1,9.75-2.13,14.63-2.95,7-1.17,13.11,1,18.5,5.44,3,2.43,3.64,6,.85,9.2a136,136,0,0,1-11.88,11.38,70.29,70.29,0,0,1-6.1,4.51L395,255.54l-.18.5-16.72-3.24-.24.93,9.76,9c-5.83,5.28-14.49,5.47-29.17.42q-3,9.52-6,19c-3,9.51-5.94,19-8.95,28.53a22.85,22.85,0,0,1-1.46,3l-5-5.31L326.86,322.2c-1.33-1.51-2.39-2.56-3.28-3.75-12.5-16.71-22.6-34.66-28.42-54.83a36.47,36.47,0,0,1-1.48-5.93c-.37-3.33-2.33-4.35-5.22-3.79-5.39,1-10.73,2.29-16.09,3.47A1.34,1.34,0,0,1,271,257l13.71-6.2c-5-3.82-10.34-7.31-14.95-11.54a47.52,47.52,0,0,1-8.43-10.72c-2.23-3.73-1.21-6,2.8-7.84a39.27,39.27,0,0,1,27.79-1.9c2,.58,4,1.4,6.34,2.2,2-4.53,3.81-9,5.85-13.45a62.94,62.94,0,0,1,4.59-8.62c1.13-1.69,3-2.91,4.52-4.34Zm9.37,120.57c2.62-3.74,4.58-6.57,6.57-9.38a195.57,195.57,0,0,0,23.83-46c1-2.79.49-4.19-2.27-5.35-5.45-2.28-10.82-4.78-16.13-7.37s-11.11-5-17-2.77c-7.79,2.9-15.31,6.54-22.87,10-.57.26-.9,1.92-.72,2.8A114.06,114.06,0,0,0,313.3,295.7C317.31,302.05,321.61,308.22,326.26,315.2Zm18.09-110.41,1.16-.46c2.07,5.37,4.29,10.68,6.13,16.13.71,2.12,1.63,3,4,2.7-2.74-7.72-5.51-15.16-10.41-21.57-2.84-3.71-5.1-3.92-8.81-1.13-3.34,2.51-6.62,5.15-10.15,7.36-1.69,1.05-3.91,1.25-5.89,1.83l-.21-.83,8.17-5.15c-4.09-1.83-7.37-3.17-10.53-4.75-2-1-3.67-.6-4.85,1.05a67.55,67.55,0,0,0-4.86,7.75c-2.41,4.62-4.58,9.37-7,14.41,3.79.2,5.68-.83,6.57-4a42.45,42.45,0,0,1,6.48-13c-.23,3.6-.59,7.59-.68,11.57,0,1.88,1,2.77,3.16,2.6a79.26,79.26,0,0,1,11.32-.26c6.49.43,12.95,1.22,19.56,1.88C348.49,215.21,346.08,210.06,344.35,204.79Zm46.25,22.27c-4.72-5.77-10.43-6.49-16.7-5.1-8.17,1.82-16.31,3.77-24.49,5.53-11.13,2.4-22.42,4.37-33.7,1.88-9.23-2-18.16-5.39-27.32-7.77a55.79,55.79,0,0,0-12.62-1.6c-2.11-.05-4.25,1.27-6.38,2a66,66,0,0,0,8.08-.38c6-.27,11.38,2.16,16.67,4.56,8.64,3.92,17.13,8.19,25.81,12a20.71,20.71,0,0,0,16.38.11c10.35-4.06,20.61-8.36,31.15-11.87C374.88,224,382.64,223.42,390.6,227.06ZM349.72,235l-.31-.52-16.89,8.24c3.23,1,6,2.49,8.76,2.51s5.27-1.53,7.91-2.39l-1.77-4.8a4.55,4.55,0,0,1-.13-.72ZM304,234.35c2.08,2.78,2.22,2.88.33,5.67-1.48,2.19-.47,2.89,1.4,3.8,5.16,2.51,9.67,0,14.73-1.46Zm65.12,6.93a34.86,34.86,0,0,0-4.6,2.13,11,11,0,0,0-5.3,8.83c-.14,1.81.35,3.67,2.69,3.65,2,0,4.06.17,4.45-3.06C366.78,248.94,368.12,245.15,369.09,241.28Zm-8.19,16.2c1.73,5,14.61,7.24,21.3,3.73-3.9-2.22-7.3-4.36-10.9-6.06-1-.49-2.64.3-4,.5l.08,1,7.15,3.2-.32.85ZM347,290.37l-.65-.39c-2.18,3.18-4.35,6.37-6.54,9.55-2.78,4-2.64,4.86,1.76,8.38C343.45,302,345.24,296.16,347,290.37Z"/><path class="cls-3" d="M326.26,315.2c-4.65-7-8.95-13.15-13-19.5a114.06,114.06,0,0,1-15.66-38.56c-.18-.88.15-2.54.72-2.8,7.56-3.49,15.08-7.13,22.87-10,5.92-2.2,11.59.11,17,2.77s10.68,5.09,16.13,7.37c2.76,1.16,3.29,2.56,2.27,5.35a195.57,195.57,0,0,1-23.83,46C330.84,308.63,328.88,311.46,326.26,315.2ZM335.82,283c1-9.54-.42-18.83-2.87-28.12a48.83,48.83,0,0,1,6.36,6.24c1.89,2.23,3.55,4.66,5.32,7l.77-.58q-5.34-7.5-10.66-15l.56-.63,17.31,10.41c-6.27-6.34-12.92-12-21.1-15.73a10.64,10.64,0,0,0-9.15-.16,102.18,102.18,0,0,0-15.23,8.27c-6,4.13-5.63,4.73-3.45,11.8,4.46,14.51,13.92,26.49,20,40.17.93,2.08,2.47,1.93,3.73.12a23,23,0,0,0,1.32-2.57c-2.86,1.73-4-.29-4.78-2-1.27-2.86-2.85-5.82-3.09-8.84a103.94,103.94,0,0,1-.12-19.24c.62-5.92,2.54-11.7,4.05-17.5.24-.93,1.3-1.65,2-2.46a12.91,12.91,0,0,1,2.07,2.33,17.33,17.33,0,0,1,1.48,4C332.2,267.92,334,275.44,335.82,283Z"/><path class="cls-3" d="M344.35,204.79c1.73,5.27,4.14,10.42,3.14,16.16-6.61-.66-13.07-1.45-19.56-1.88a79.26,79.26,0,0,0-11.32.26c-2.16.17-3.2-.72-3.16-2.6.09-4,.45-8,.68-11.57a42.45,42.45,0,0,0-6.48,13c-.89,3.16-2.78,4.19-6.57,4,2.44-5,4.61-9.79,7-14.41A67.55,67.55,0,0,1,313,200c1.18-1.65,2.81-2.07,4.85-1.05,3.16,1.58,6.44,2.92,10.53,4.75l-8.17,5.15.21.83c2-.58,4.2-.78,5.89-1.83,3.53-2.21,6.81-4.85,10.15-7.36,3.71-2.79,6-2.58,8.81,1.13,4.9,6.41,7.67,13.85,10.41,21.57-2.37.28-3.29-.58-4-2.7-1.84-5.45-4.06-10.76-6.13-16.13Z"/><path class="cls-3" d="M390.6,227.06c-8-3.64-15.72-3.11-23.12-.65-10.54,3.51-20.8,7.81-31.15,11.87a20.71,20.71,0,0,1-16.38-.11c-8.68-3.82-17.17-8.09-25.81-12-5.29-2.4-10.65-4.83-16.67-4.56a66,66,0,0,1-8.08.38c2.13-.71,4.27-2,6.38-2a55.79,55.79,0,0,1,12.62,1.6c9.16,2.38,18.09,5.73,27.32,7.77,11.28,2.49,22.57.52,33.7-1.88,8.18-1.76,16.32-3.71,24.49-5.53C380.17,220.57,385.88,221.29,390.6,227.06Z"/><path class="cls-3" d="M304,234.35c.48-.77,4.5.54,8.66,2.69a38.56,38.56,0,0,1,7.8,5.32c-1.78,1.27-6.8,4.51-12,3.06-2.47-.69-5.47-2.58-5.26-3.84.08-.44.51-.52,1.12-1.56a5.77,5.77,0,0,0,.81-2.28C305.25,235.85,303.65,234.88,304,234.35Z"/><path class="cls-3" d="M350.48,234.58c-.22-.54-4.93.28-10,2.75a36,36,0,0,0-8,5.39c2,1.34,7,4.36,12.19,3,1.47-.39,4.69-1.58,4.8-3.26,0-.33-.09-.41-.66-2.13a9.5,9.5,0,0,1-.72-2.8C348.32,235.73,350.64,235,350.48,234.58Z"/><path class="cls-3" d="M369.09,241.28c-1,3.87-2.31,7.66-2.76,11.55-.39,3.23-2.44,3-4.45,3.06-2.34,0-2.83-1.84-2.69-3.65a11,11,0,0,1,5.3-8.83A34.86,34.86,0,0,1,369.09,241.28Z"/><path class="cls-3" d="M360.9,257.48l13.32,3.22.32-.85-7.15-3.2-.08-1c1.35-.2,3-1,4-.5,3.6,1.7,7,3.84,10.9,6.06C375.51,264.72,362.63,262.47,360.9,257.48Z"/><path d="M335.82,283c-1.82-7.51-3.62-15-5.48-22.53a17.33,17.33,0,0,0-1.48-4,12.91,12.91,0,0,0-2.07-2.33c-.68.81-1.74,1.53-2,2.46-1.51,5.8-3.43,11.58-4.05,17.5a103.94,103.94,0,0,0,.12,19.24c.24,3,1.82,6,3.09,8.84.78,1.75,1.92,3.77,4.78,2a23,23,0,0,1-1.32,2.57c-1.26,1.81-2.8,2-3.73-.12-6.1-13.68-15.56-25.66-20-40.17-2.18-7.07-2.53-7.67,3.45-11.8a102.18,102.18,0,0,1,15.23-8.27,10.64,10.64,0,0,1,9.15.16c8.18,3.71,14.83,9.39,21.1,15.73L335.3,251.86l-.56.63q5.33,7.5,10.66,15l-.77.58c-1.77-2.35-3.43-4.78-5.32-7a48.83,48.83,0,0,0-6.36-6.24C335.4,264.12,336.81,273.41,335.82,283Zm-11.71-30.79c-5.31,3.7-10.08,8.17-12.91,14.3a11.21,11.21,0,0,0-.76,5.63c.11,1.17,1.42,2.21,2.19,3.31.82-.89,1.95-1.64,2.42-2.68C318.14,265.92,321.09,259.05,324.11,252.16Zm-15,13,12.47-15.27c-2.91,1.26-5.95,2.4-8.81,3.89C309.55,255.44,307.76,260.92,309.11,265.14Z"/><path class="cls-3" d="M324.11,252.16c-3,6.89-6,13.76-9.06,20.56-.47,1-1.6,1.79-2.42,2.68-.77-1.1-2.08-2.14-2.19-3.31a11.21,11.21,0,0,1,.76-5.63C314,260.33,318.8,255.86,324.11,252.16Z"/><path class="cls-3" d="M309.11,265.14c-1.35-4.22.44-9.7,3.66-11.38,2.86-1.49,5.9-2.63,8.81-3.89Z"/></svg>