<svg width="3001" height="3019" viewBox="0 0 3001 3019" fill="none" xmlns="http://www.w3.org/2000/svg">
<path d="M2679.35 1101.64C2672.07 1045.15 2660.3 989.33 2644.17 934.703C2627.51 881.954 2606.89 830.537 2582.5 780.888C2538.47 693.184 2481.71 612.473 2414.07 541.374C2366.56 491.022 2312.3 447.509 2252.83 412.08C2236.28 402.098 2218.77 393.8 2200.56 387.311C2187.68 383.101 2180.01 382.358 2177.78 385.825C2175.55 389.293 2180.5 394.742 2190.16 403.907C2199.82 413.071 2214.93 424.217 2233.26 440.069C2284.8 481.459 2333.08 526.754 2377.66 575.555C2440.01 645.033 2493.35 722.093 2536.43 804.914C2585.65 899.942 2619.11 1002.33 2635.5 1108.08C2651.51 1214.56 2649.75 1322.94 2630.3 1428.84C2613.56 1521.74 2584.4 1611.96 2543.61 1697.09C2514.33 1757.54 2478.89 1814.82 2437.85 1867.99C2423.73 1887.81 2410.36 1901.68 2402.18 1911.83L2389.3 1927.19L2403.17 1912.82C2412.09 1903.16 2426.21 1890.04 2441.57 1870.96C2486.33 1819.93 2525.45 1764.21 2558.23 1704.77C2604.77 1619.96 2639.28 1529.1 2660.77 1434.79C2685.89 1325.77 2692.09 1213.25 2679.1 1102.14L2679.35 1101.64Z" fill="white"/>
<path d="M790.97 2105.03L776.11 2085.46L759.266 2062.92L741.433 2038.15C713.829 1997.62 688.446 1955.61 665.393 1912.33C639.686 1862.67 616.7 1811.66 596.536 1759.5C576.968 1706.25 560.373 1652.01 546.998 1600.49C533.623 1548.97 524.458 1501.41 517.77 1458.56C503.652 1374.84 496.469 1317.63 479.131 1317.63C466.994 1317.63 459.316 1376.83 468.728 1466.24C474.19 1516.47 483.716 1566.17 497.212 1614.85C512.888 1670.42 532.505 1724.81 555.914 1777.59C580.039 1829.92 607.678 1880.57 638.642 1929.17C666.04 1971.08 696.071 2011.2 728.553 2049.3L748.864 2074.07L768.431 2094.63L785.521 2112.71C790.723 2118.16 796.172 2122.86 800.63 2127.32L829.61 2154.81L804.841 2124.1C800.135 2116.42 795.676 2111.22 790.97 2105.03Z" fill="white"/>
<path d="M1186.53 272.384C1198.42 267.678 1211.3 262.229 1223.93 257.771L1264.8 244.148C1271.73 241.918 1278.67 239.194 1286.1 236.965L1308.39 231.268C1323.25 227.305 1338.61 222.847 1354.21 219.131C1420.14 204.543 1487.16 195.43 1554.59 191.885C1622.48 189.586 1690.44 193.232 1757.7 202.784C1773.8 205.261 1789.4 208.728 1804.76 211.453L1827.79 215.664L1849.59 221.36L1891.94 232.259C1905.57 235.974 1918.2 240.928 1930.83 245.138C1943.46 249.349 1955.6 253.064 1966.25 257.275L1997.71 270.403L2025.2 282.044C2033.62 285.759 2041.05 289.97 2047.99 293.438L2091.09 315.234L2050.22 289.227C2043.78 285.016 2036.59 280.063 2028.67 275.604L2001.92 261.238L1971.45 245.138C1960.55 239.937 1948.91 234.983 1936.53 229.534C1924.14 224.085 1911.76 218.14 1898.38 213.187L1856.28 198.573C1848.85 196.096 1841.66 193.124 1833.99 190.895L1810.95 184.703C1795.35 180.74 1779.49 176.034 1763.15 172.318C1694.36 157.233 1624.26 148.937 1553.85 147.549C1483.07 147.442 1412.46 154.412 1343.07 168.355C1326.47 171.823 1310.37 176.529 1293.53 180.492L1268.76 186.684C1261.08 188.913 1253.9 191.886 1246.47 194.362L1203.62 209.471C1190 214.425 1177.12 220.865 1164.73 226.314C1152.35 231.763 1139.96 237.46 1129.56 243.157L1099.34 260.99L1073.09 277.09C1065.16 282.539 1058.47 288.236 1052.28 293.19C1027.51 313.748 1016.37 328.114 1020.82 335.049C1031.97 346.938 1090.67 310.528 1186.53 272.384Z" fill="white"/>
<path d="M2493.33 1671.82L2497.05 1665.13C2506.21 1645.32 2516.37 1625.01 2524.54 1603.71C2532.71 1582.41 2540.89 1560.86 2549.31 1538.57C2557.73 1516.27 2563.18 1493.49 2568.63 1470.2C2580.24 1423.18 2588.1 1375.31 2592.16 1327.04C2595.75 1278.81 2595.75 1230.38 2592.16 1182.14C2585.25 1092.26 2565.74 1003.79 2534.2 919.346C2526.27 900.026 2519.59 881.202 2511.17 863.616L2499.28 838.847L2486.64 814.078C2460.2 762.627 2428.85 713.853 2393.02 668.438C2380.39 651.595 2368.25 639.458 2362.06 631.037L2350.91 618.157L2361.07 631.78C2367.75 640.944 2377.66 653.824 2389.06 671.162C2421.09 718.603 2448.78 768.84 2471.78 821.261C2475.25 829.435 2478.97 837.609 2482.68 846.03L2492.59 872.285C2499.77 889.871 2505.22 908.943 2511.66 928.015C2523.92 968.661 2533.68 1010.02 2540.89 1051.86C2556.6 1141.85 2558.77 1233.68 2547.33 1324.32C2542.6 1363.06 2535.32 1401.46 2525.53 1439.24C2555.39 1270.43 2540.81 1096.75 2483.24 935.265C2425.67 773.783 2327.08 630.055 2197.16 518.2C2067.25 406.344 1910.46 330.209 1742.22 297.274C1573.98 264.338 1400.06 275.734 1237.55 330.343L1249.44 325.637C1287.13 311.989 1325.59 300.576 1364.62 291.456C1402.39 283.115 1440.59 276.83 1479.05 272.632C1547.42 266.199 1616.25 266.199 1684.63 272.632C1744.57 278.329 1794.36 287.245 1829.53 293.19C1847.36 295.419 1861.48 297.896 1871.63 297.896C1881.79 297.896 1887.73 296.162 1889.22 292.447C1890.71 288.732 1886.25 285.016 1877.83 279.567C1865.6 272.024 1852.66 265.719 1839.19 260.743C1791.31 242.405 1741.42 229.849 1690.57 223.342C1618.58 213.94 1545.7 213.524 1473.6 222.103C1432.94 226.945 1392.64 234.475 1352.97 244.643C1312.24 255.622 1272.28 269.274 1233.34 285.512C1156.96 317.629 1085.57 360.5 1021.32 412.823C983.487 443.071 948.045 476.195 915.31 511.899C872.258 548.305 832.4 588.329 796.172 631.532C818.216 592.893 838.526 560.446 854.378 534.934C865.772 515.119 875.432 500.01 880.634 488.616C885.835 477.222 887.073 469.544 884.101 466.82C881.129 464.095 875.184 468.058 865.525 476.231C851.765 487.946 839.005 500.788 827.38 514.623C785.107 563.415 748.003 616.456 716.664 672.896C672.219 752.707 636.511 837.079 610.158 924.547C595.682 973.979 583.94 1024.17 574.986 1074.89C566.481 1127.3 560.859 1180.14 558.143 1233.17C556.316 1286.11 557.474 1339.12 561.611 1391.93C566.16 1442.99 573.519 1493.77 583.655 1544.02C602.1 1632.67 629.487 1719.23 665.393 1802.35C690.758 1860.86 720.568 1917.33 754.56 1971.28C766.449 1990.85 777.1 2005.46 784.035 2015.86L794.686 2031.47L785.026 2015.12C778.834 2004.47 769.174 1989.11 758.771 1968.8C728.573 1912.99 702.497 1855.04 680.749 1795.42C659.064 1735.94 641.519 1675.02 628.24 1613.12C676.698 1741.71 751.441 1858.78 847.697 1956.86C943.953 2054.94 1059.6 2131.86 1187.27 2182.72C1314.93 2233.58 1451.79 2257.26 1589.12 2252.24C1726.45 2247.22 1861.22 2213.62 1984.83 2153.58L1975.66 2159.03C1962.29 2166.95 1950.89 2173.89 1940.74 2179.09L1909.53 2195.93L1942.72 2183.55C1953.37 2179.58 1966 2174.38 1980.37 2167.94L2003.4 2157.79L2028.17 2145.65C2068.02 2125.85 2106.64 2103.68 2143.84 2079.27C2186.4 2050.84 2227.1 2019.74 2265.71 1986.14C2303.95 1951.73 2339.78 1914.74 2372.96 1875.42C2401.78 1840.96 2427.71 1804.18 2450.48 1765.45C2468.87 1736.29 2483.28 1704.8 2493.33 1671.82Z" fill="white"/>
<path d="M2925.8 1158.86C2925.8 1158.86 2979.79 1143.01 2979.79 1114.52C2979.79 1086.04 2938.68 1035.02 2919.6 1006.53C2900.53 978.048 2833.66 946.096 2833.66 946.096C2833.66 946.096 2817.8 921.327 2798.73 917.612C2776.6 915.332 2754.36 914.257 2732.1 914.392C2732.1 914.392 2549.06 843.553 2469.55 846.773C2390.05 849.993 2304.59 918.602 2304.59 918.602C2304.59 918.602 2154.25 889.128 2097.03 936.684C2112.88 914.392 2062.11 812.84 1997.96 803.428C1933.8 794.015 1721.54 838.352 1721.54 838.352C1721.54 838.352 1731.2 796.988 1677.2 790.548C1625.88 789.553 1574.64 794.877 1524.62 806.4C1524.62 806.4 1419.85 636.733 1372.29 630.541C1324.74 624.349 1219.97 739.771 1219.97 739.771L1073.83 698.408C1073.83 698.408 943.547 644.659 886.331 660.511C873.699 657.291 641.862 568.372 597.526 565.152C539.921 567.311 482.552 573.685 425.878 584.223C425.878 584.223 330.766 546.079 299.062 555.739C266.662 568.902 235.771 585.51 206.922 605.277C197.808 603.674 188.442 604.276 179.608 607.034C170.774 609.792 162.729 614.625 156.146 621.129C133.854 643.421 95.7101 741.753 95.7101 741.753L0.350006 818.041L51.1258 878.229L143.266 808.381C143.266 808.381 162.338 857.919 206.922 843.305C251.506 828.692 327.546 751.165 327.546 751.165C363.466 747.836 399.618 747.836 435.538 751.165C473.682 757.605 498.947 805.161 559.383 818.041C604.201 824.035 649.797 819.628 692.638 805.161C692.638 805.161 708.491 938.665 953.207 970.37C956.179 983.002 940.327 1170.5 994.323 1252.98C984.911 1262.64 1042.13 1418.19 1146.9 1465.75C1146.9 1465.75 1114.95 1513.3 1184.8 1535.59C1188.02 1551.45 1112.47 1721.36 1259.1 1766.44C1157.3 1875.67 1002.99 1894.49 867.506 1932.14C732.021 1969.79 595.049 2043.6 578.206 2094.63C561.364 2145.65 540.063 2199.4 530.403 2224.66C520.743 2249.93 517.77 2332.65 546.502 2370.8C575.234 2408.94 641.615 2399.28 641.615 2399.28C699.249 2423.04 760.442 2437.02 822.675 2440.65C927.447 2447.09 959.151 2421.58 1000.52 2399.28C1051.15 2377.13 1103.1 2358.11 1156.06 2342.31L1203.62 2307.39C1203.62 2307.39 1435.46 2574.15 1473.6 2564.49C1511.74 2554.83 1518.18 2520.16 1508.52 2485.23C1498.86 2450.31 1324.49 2240.51 1324.49 2240.51C1324.49 2240.51 1460.97 2253.39 1508.52 2227.88C1521.16 2231.1 1648.22 2275.44 1715.1 2256.37C1702.22 2272.47 1638.81 2316.8 1632.37 2355.44C1625.93 2394.08 1683.14 2472.85 1683.14 2472.85C1683.14 2472.85 1632.37 3000.17 1673.73 3009.59C1715.1 3019 1794.36 2958.81 1813.43 2904.81C1825.56 2870.14 1807.73 2766.11 1793.36 2696.01C1784.19 2650.92 1788.94 2604.1 1806.99 2561.77C1853.96 2535 1903.09 2512.22 1953.87 2493.65C1990.05 2483.16 2024.44 2467.3 2055.91 2446.59C2085.18 2418.16 2112.41 2387.7 2137.4 2355.44C2165.2 2310.61 2187.57 2262.64 2204.03 2212.53C2204.03 2212.53 2315.24 2069.61 2327.88 1996.54C2340.51 1923.47 2337.29 1834.55 2296.17 1796.41C2282.54 1785.23 2266.47 1777.4 2249.26 1773.57C2232.05 1769.74 2214.18 1770.02 2197.1 1774.37C2197.1 1774.37 2136.91 1713.93 2086.13 1707.49C2043.19 1706.02 2000.29 1711.45 1959.07 1723.59L1787.42 1739.44C1787.42 1739.44 1844.64 1689.9 1847.86 1656.71C1851.08 1623.52 1905.07 1609.16 1901.85 1555.16C1898.63 1528.37 1901.86 1501.19 1911.26 1475.9C1911.26 1475.9 1984.33 1335.96 1987.55 1323.33C2002.87 1293.84 2019.82 1265.23 2038.33 1237.63C2038.33 1237.63 2197.1 1218.55 2276.6 1145.48C2314.75 1129.63 2422.74 1129.63 2486.15 1085.3C2510.92 1078.86 2632.28 1037.49 2632.28 1037.49L2743.25 1075.64C2743.25 1075.64 2787.83 1171 2806.91 1183.63C2823.82 1191.27 2842.67 1193.51 2860.9 1190.07L2949.82 1281.96L2997.38 1247.04L2925.8 1158.86Z" fill="#6C0D08"/>
<path d="M2198.58 1775.11C2198.58 1775.11 2138.39 1714.67 2087.62 1708.23C2044.68 1706.76 2001.77 1712.2 1960.55 1724.33L1788.91 1740.18C1788.91 1740.18 1794.11 1735.73 1801.04 1728.54C1790.3 1732.97 1780.15 1738.71 1770.83 1745.63C1763.38 1751.14 1756.42 1757.27 1750.02 1763.96C1746.06 1767.93 1752.25 1773.87 1755.96 1769.91C1757.99 1767.72 1760.14 1765.65 1762.4 1763.72C1760.42 1767.18 1764.14 1772.14 1768.1 1769.66C1791.04 1756.03 1818.18 1751.27 1844.39 1756.28C1871.49 1760.9 1898.89 1763.55 1926.37 1764.21C1958.33 1762.97 1989.53 1753.56 2021.73 1751.83C2051.89 1750.54 2082.04 1754.39 2110.9 1763.22C2158.71 1778.08 2209.98 1812.76 2221.62 1864.52C2224.58 1876.23 2224.58 1888.49 2221.62 1900.19C2217.65 1913.07 2209.73 1924.96 2204.53 1936.6C2202.07 1942.23 2200.81 1948.3 2200.81 1954.43C2200.81 1960.57 2202.07 1966.64 2204.53 1972.27C2211.18 1984.97 2218.8 1997.14 2227.32 2008.68C2245.59 2035.5 2256.75 2066.52 2259.76 2098.84C2260.85 2113.39 2258.83 2128 2253.83 2141.71C2248.84 2155.42 2240.98 2167.91 2230.78 2178.35C2230.34 2179 2230.1 2179.78 2230.1 2180.57C2230.1 2181.37 2230.34 2182.15 2230.78 2182.8C2263.97 2136.73 2322.92 2049.3 2332.09 1997.29C2344.72 1924.22 2341.5 1835.3 2300.38 1797.15C2286.45 1785.54 2269.92 1777.47 2252.19 1773.63C2234.46 1769.8 2216.07 1770.3 2198.58 1775.11Z" fill="#AF201B"/>
<path d="M1378.74 1771.89C1329.2 1741.67 1247.96 1696.1 1300.71 1539.8C1300.71 1537.58 1114.45 1439.49 1113.96 1446.43C1124.78 1454.45 1136.4 1461.34 1148.63 1466.98C1148.63 1466.98 1116.68 1514.54 1186.53 1536.83C1189.75 1552.68 1114.2 1722.6 1260.84 1767.68C1159.04 1876.91 1004.73 1895.73 869.24 1933.38C733.755 1971.03 602.728 2057.23 586.876 2108.5C571.024 2159.77 537.338 2161.26 532.137 2225.9C529.908 2252.9 519.505 2333.89 548.236 2372.04C576.968 2410.18 643.349 2400.52 643.349 2400.52C653.698 2405.12 664.28 2409.17 675.053 2412.66C650.922 2400.57 629.185 2384.21 610.902 2364.36C600.015 2351.88 592.585 2336.76 589.353 2320.52C586.804 2300.03 589.182 2279.22 596.288 2259.83C604.092 2238.82 610.789 2217.4 616.351 2195.68C619.197 2204.39 623.107 2212.71 627.992 2220.45C634.802 2231.5 643.853 2241 654.561 2248.34C665.27 2255.68 677.398 2260.69 690.162 2263.05C696.573 2263.92 703.071 2263.92 709.482 2263.05C714.931 2263.05 714.931 2253.89 709.482 2254.63C696.601 2255.71 683.656 2253.53 671.839 2248.29C660.023 2243.06 649.714 2234.93 641.863 2224.66C633.338 2214.45 627.059 2202.55 623.432 2189.75C619.805 2176.95 618.911 2163.53 620.809 2150.36C629.973 2090.66 682.483 2049.55 735.241 2028C766.421 2016.46 798.368 2007.11 830.849 2000.01C865.525 1991.59 899.953 1982.42 934.134 1972.27C968.315 1962.11 1002.74 1951.22 1036.93 1939.33C1064.17 1929.67 1091.66 1919.51 1117.92 1907.37C1169.49 1886.7 1214.5 1852.47 1248.2 1808.3L1252.66 1801.36L1260.84 1805.08L1326.97 1835.3L1475.58 1902.92C1478.06 1902.92 1506.79 1912.33 1506.29 1908.86C1498.62 1848.67 1424.81 1800.13 1378.74 1771.89Z" fill="#AF201B"/>
<path d="M2468.56 846.773C2389.3 849.993 2303.6 918.603 2303.6 918.603C2303.6 918.603 2153.26 889.128 2096.04 936.684C2111.89 914.392 2061.12 812.84 1996.96 803.428C1932.81 794.016 1720.54 838.352 1720.54 838.352C1720.54 838.352 1730.2 796.988 1676.21 790.548C1624.89 789.554 1573.65 794.878 1523.63 806.4C1523.63 806.4 1418.86 636.734 1371.3 630.541C1323.75 624.349 1218.98 739.772 1218.98 739.772L1072.84 698.408C1072.84 698.408 942.555 644.659 885.339 660.511C872.707 657.292 640.872 568.372 596.535 565.152C548.847 566.121 501.309 570.842 454.362 579.27V581.499C454.923 584.361 454.923 587.306 454.362 590.168C449.904 586.948 445.693 594.131 450.152 597.351C449.154 597.991 447.993 598.332 446.808 598.332C445.622 598.332 444.461 597.991 443.464 597.351C438.51 595.122 434.052 602.553 439.005 604.534C440.534 606.136 442.391 607.389 444.45 608.206C446.509 609.023 448.72 609.385 450.932 609.268C453.143 609.15 455.303 608.556 457.264 607.525C459.224 606.494 460.938 605.051 462.288 603.296C498.451 625.34 543.035 616.671 583.16 610.478C633.542 597.737 686.913 605.298 731.773 631.532C773.626 657.224 818.68 677.294 865.772 691.225C893.761 697.169 922.245 698.655 950.234 703.857C977.865 709.462 1004.72 718.36 1030.24 730.36C1083.9 757.924 1134.47 791.137 1181.08 829.435C1181.8 829.959 1182.67 830.24 1183.56 830.24C1184.45 830.24 1185.31 829.959 1186.03 829.435C1230.86 785.099 1294.52 727.883 1363.13 738.286C1420.1 747.202 1448.33 802.437 1480.78 843.553C1496.96 865.682 1519.01 882.842 1544.44 893.091C1544.97 893.241 1545.54 893.283 1546.09 893.214C1546.64 893.145 1547.18 892.968 1547.66 892.691C1548.14 892.415 1548.57 892.045 1548.91 891.603C1549.25 891.161 1549.5 890.657 1549.64 890.119C1555.09 863.616 1584.81 857.176 1608.09 859.405C1638.06 862.13 1663.08 881.202 1690.57 892.1C1704.54 898.112 1719.75 900.662 1734.91 899.531C1748.11 897.403 1760.9 893.224 1772.81 887.146C1785.94 879.258 1801.09 875.383 1816.4 876C1833.74 879.468 1838.2 897.301 1845.13 910.924C1869.9 956.747 1929.1 943.124 1971.21 945.353C1985.54 945.647 1999.68 948.761 2012.82 954.517C2026.44 960.957 2037.58 970.369 2051.21 979.286C2061.71 986.113 2073.55 990.637 2085.93 992.558C2098.31 994.479 2110.96 993.755 2123.04 990.432C2149.26 980.986 2174.9 969.985 2199.82 957.49C2213.02 951.604 2227.24 948.324 2241.68 947.83C2258.57 948.805 2275.25 952.139 2291.22 957.737C2306.01 962.414 2321.57 964.181 2337.04 962.939C2352.13 960.317 2366.8 955.65 2380.63 949.068C2397.14 941.529 2414.41 935.799 2432.15 931.978C2449.82 929.008 2467.74 927.764 2485.65 928.262C2546.83 928.262 2611.73 940.151 2668.69 911.667C2675.35 908.348 2681.66 904.365 2687.52 899.778C2626.09 875.753 2523.8 844.544 2468.56 846.773Z" fill="#AF201B"/>
<path d="M2036.84 2052.52C2027.44 2060.84 2015.77 2066.16 2003.32 2067.79C1990.87 2069.43 1978.22 2067.3 1966.99 2061.68C1962.89 2059.01 1959.36 2055.54 1956.63 2051.48C1953.89 2047.41 1952.01 2042.84 1951.08 2038.03C1950.16 2033.22 1950.21 2028.27 1951.24 2023.49C1952.28 2018.7 1954.26 2014.17 1957.09 2010.16C1957.6 2009.77 1958.02 2009.27 1958.3 2008.69C1958.59 2008.11 1958.74 2007.47 1958.74 2006.82C1958.74 2006.17 1958.59 2005.54 1958.3 2004.96C1958.02 2004.38 1957.6 2003.87 1957.09 2003.48C1920.68 1984.4 1882.78 2020.32 1870.89 2053.01C1862.72 2073.57 1859 2095.62 1851.57 2116.42C1848.02 2126.58 1843.01 2136.18 1836.71 2144.91C1830.52 2153.58 1822.59 2160.51 1816.65 2169.68C1811.25 2178.74 1808.42 2189.1 1808.47 2199.65C1808.9 2205.42 1807.96 2211.21 1805.72 2216.55C1803.48 2221.89 1800.01 2226.62 1795.59 2230.36C1786.1 2236.53 1776.17 2241.99 1765.87 2246.71L1734.41 2262.81C1697.01 2283.12 1658.13 2312.34 1649.21 2356.43C1645.92 2378.94 1650.09 2401.91 1661.1 2421.82C1671.41 2439.24 1679.72 2457.77 1685.87 2477.06C1682.4 2513.96 1636.33 3002.4 1676.7 3011.57C1683 3012.8 1689.48 3012.8 1695.78 3011.57C1695.78 3010.33 1695.78 3009.09 1695.78 3007.85C1699.57 2988.84 1701.65 2969.53 1701.97 2950.14C1703.21 2929.34 1703.7 2908.28 1701.97 2887.23C1700.63 2845.66 1696.08 2804.25 1688.35 2763.38C1684.63 2742.58 1680.91 2721.77 1678.69 2700.72C1677.08 2680.03 1677.08 2659.24 1678.69 2638.55C1680.91 2596.94 1687.35 2555.33 1686.86 2513.47C1686.86 2504.3 1686.86 2495.14 1685.13 2485.97H1687.11C1687.11 2485.97 1687.11 2487.95 1687.11 2488.7C1687.11 2494.15 1696.27 2494.15 1695.78 2488.7C1695.28 2483.25 1695.78 2483.25 1695.78 2480.52C1698.5 2484.49 1704.94 2480.52 1702.46 2475.82C1679.92 2432.23 1708.9 2382.19 1743.33 2354.95C1782.22 2324.23 1830.52 2309.62 1871.14 2280.64C1890.57 2267.74 1907.03 2250.85 1919.44 2231.1C1921.86 2229 1923.44 2226.1 1923.9 2222.93C1923.9 2218.47 1918.45 2215.25 1916.22 2219.71L1913 2225.65C1911.07 2227.18 1908.78 2228.19 1906.35 2228.58C1903.93 2228.97 1901.44 2228.73 1899.13 2227.88C1889.22 2225.16 1886.74 2213.76 1887.73 2204.6C1890.76 2186.89 1899.45 2170.63 1912.5 2158.28C1939.36 2135.46 1968.49 2115.46 1999.44 2098.59C2015.92 2088.09 2030.64 2075.05 2043.04 2059.95C2044.52 2055.74 2041.05 2049.3 2036.84 2052.52Z" fill="#AF201B"/>
<path d="M1428.27 407.869C1469.14 379.881 1487.47 335.544 1469.14 308.794C1450.81 282.044 1402.76 284.025 1361.64 311.023C1320.53 338.021 1302.45 383.348 1320.78 410.098C1339.1 436.849 1386.91 436.106 1428.27 407.869Z" fill="black"/>
<path d="M1561.78 272.384C1590.01 253.064 1602.64 222.846 1590.01 204.27C1577.38 185.693 1544.44 186.436 1515.71 205.756C1486.97 225.075 1475.09 255.293 1487.72 273.87C1500.35 292.447 1533.79 291.704 1561.78 272.384Z" fill="black"/>
<path d="M2243.66 268.173C2271.65 248.854 2284.28 218.636 2271.65 200.059C2259.02 181.482 2226.08 182.225 2197.34 201.545C2168.61 220.865 2156.72 251.083 2169.36 269.659C2181.99 288.236 2215.43 287.493 2243.66 268.173Z" fill="black"/>
<path d="M2350.42 1264.38C2322.18 1283.45 2309.8 1313.91 2322.43 1332.49C2335.06 1351.07 2368 1350.08 2396.73 1331C2425.47 1311.93 2437.35 1281.47 2424.72 1262.64C2412.09 1243.82 2378.4 1245.06 2350.42 1264.38Z" fill="black"/>
<path d="M2263.73 808.134C2291.96 788.814 2304.35 758.596 2291.96 740.019C2279.58 721.443 2246.39 722.186 2217.65 741.506C2188.92 760.825 2177.03 791.043 2189.67 809.62C2202.3 828.196 2235.74 826.215 2263.73 808.134Z" fill="black"/>
<path d="M889.799 496.789C861.562 516.109 849.177 546.327 861.562 564.904C873.946 583.48 907.136 582.737 935.868 563.418C964.6 544.098 976.489 513.88 963.857 495.303C951.225 476.727 917.787 477.47 889.799 496.789Z" fill="black"/>
<path d="M1560.04 366.258C1567.97 378.147 1589.02 377.651 1607.1 366.258C1625.18 354.864 1631.87 334.554 1624.94 322.665C1618 310.776 1595.96 311.519 1577.88 322.665C1559.8 333.811 1552.12 355.607 1560.04 366.258Z" fill="black"/>
<path d="M2054.68 539.392C2072.76 527.255 2079.44 507.688 2072.76 495.799C2066.07 483.91 2043.53 484.405 2025.45 495.799C2007.37 507.193 1999.44 527.751 2007.62 539.392C2015.79 551.033 2036.84 551.776 2054.68 539.392Z" fill="black"/>
<path d="M2139.39 475.984C2152.51 467.067 2159.7 454.188 2154.99 447.5C2150.28 440.812 2135.92 442.794 2122.79 451.958C2109.66 461.123 2102.48 473.755 2107.19 480.442C2111.89 487.13 2126.26 485.148 2139.39 475.984Z" fill="black"/>
<path d="M1243 333.316C1256.38 324.151 1263.31 311.519 1258.61 304.831C1253.9 298.144 1239.78 300.125 1226.41 309.042C1213.03 317.959 1206.34 330.839 1210.8 337.526C1215.26 344.214 1230.12 342.232 1243 333.316Z" fill="black"/>
<path d="M1862.22 524.283C1875.35 515.366 1882.53 502.487 1877.83 495.799C1873.12 489.112 1859 491.093 1845.63 500.257C1832.25 509.422 1825.32 522.054 1830.02 528.742C1834.73 535.429 1849.34 533.448 1862.22 524.283Z" fill="black"/>
<path d="M1068.13 523.788C1055.01 532.952 1047.82 545.584 1052.53 552.272C1057.24 558.96 1071.6 557.226 1084.73 548.061C1097.86 538.897 1105.04 526.265 1100.33 519.577C1095.63 512.889 1081.51 514.871 1068.13 523.788Z" fill="black"/>
<path d="M2212.45 1262.15C2225.58 1253.23 2232.52 1240.35 2228.06 1233.66C2223.6 1226.97 2208.99 1228.96 2195.86 1238.12C2182.73 1247.29 2175.55 1259.92 2180.25 1266.6C2184.96 1273.29 2199.08 1272.05 2212.45 1262.15Z" fill="black"/>
<path d="M1319.54 1952.95C1317.62 1949.1 1315.2 1945.52 1312.35 1942.3C1313.7 1946.45 1316.19 1950.14 1319.54 1952.95Z" fill="black"/>
<path d="M1696.52 2498.61C1699 2499.32 1701.65 2499.17 1704.04 2498.18C1706.42 2497.19 1708.4 2495.42 1709.65 2493.16C1710.79 2490.21 1710.79 2486.94 1709.65 2483.99C1709.37 2483.28 1708.94 2482.65 1708.38 2482.13C1707.82 2481.62 1707.16 2481.24 1706.43 2481.02C1697.76 2468.64 1687.85 2456.25 1678.93 2441.14C1668.26 2424.81 1660.86 2406.55 1657.14 2387.39C1655.07 2377.8 1654.93 2367.89 1656.71 2358.24C1658.5 2348.59 1662.18 2339.39 1667.54 2331.17C1670.62 2327.03 1673.93 2323.06 1677.45 2319.28C1681.16 2315.56 1685.87 2312.34 1689.83 2308.63C1698.78 2301.59 1708.5 2295.61 1718.81 2290.8C1740.4 2281.23 1762.88 2273.85 1785.93 2268.75C1808.97 2263.05 1831.76 2258.1 1853.06 2251.66C1873.76 2245.73 1893.71 2237.42 1912.5 2226.89C1928.47 2217.69 1942.65 2205.69 1954.36 2191.47C1939.79 2201.84 1923.88 2210.17 1907.05 2216.24C1887.77 2222.3 1868.07 2226.94 1848.1 2230.11L1832.5 2232.34C1831.91 2203.99 1841.39 2176.34 1859.25 2154.32C1870.89 2148.13 1882.78 2142.43 1894.92 2136.98C1932.34 2122.04 1968.82 2104.83 2004.15 2085.46C2033.28 2069.41 2058.62 2047.27 2078.45 2020.57C2052.17 2038.79 2023.82 2053.84 1993.99 2065.4C1970.46 2075.06 1944.45 2083.98 1917.21 2094.63C1906.7 2082.41 1900.83 2066.89 1900.61 2050.79C1900.37 2046.83 1900.37 2042.86 1900.61 2038.9C1907.47 2032.48 1914.66 2026.45 1922.16 2020.82C1934.3 2012.15 1946.93 2004.47 1960.31 1996.05C1973.68 1987.63 1985.08 1980.44 1997.71 1972.76C2018.71 1959.3 2038.81 1944.49 2057.9 1928.43C2033.9 1935.29 2010.33 1943.56 1987.31 1953.2C1974.18 1958.65 1960.8 1964.34 1946.68 1971.03C1938.51 1974.99 1930.09 1979.2 1921.92 1984.16C1922.41 1983.28 1922.99 1982.45 1923.65 1981.68C1906.79 1988.31 1889.27 1993.13 1871.39 1996.05C1932.38 1944.72 1997.13 1898.03 2065.08 1856.35C2028.83 1866.51 1993.79 1880.54 1960.55 1898.21C1933.83 1912.77 1908.24 1929.33 1884.02 1947.75L1888.72 1942.55C1915.97 1912.58 1942.72 1885.33 1968.48 1861.3C1994.24 1837.28 2019.26 1816.47 2041.55 1798.14C2007.11 1799.08 1973.3 1807.53 1942.47 1822.91C1908.44 1840.17 1877.62 1863.13 1851.32 1890.78C1859.25 1876.91 1866.68 1863.53 1874.36 1851.15C1893.35 1816.48 1918.54 1785.59 1948.67 1760C1928.98 1763.09 1910.07 1769.9 1892.94 1780.06C1873.14 1792.01 1855.05 1806.59 1839.19 1823.41C1824.29 1838.96 1810.47 1855.51 1797.82 1872.95C1811.94 1836.04 1822.59 1802.6 1832.75 1773.87C1803.71 1796.9 1778.25 1824.11 1757.2 1854.62C1732.43 1888.05 1709.65 1925.7 1684.38 1962.11L1672.74 1977.72C1632.93 1993.76 1589.9 2000.21 1547.13 1996.56C1504.36 1992.9 1463.05 1979.23 1426.54 1956.66C1419.6 1950.72 1412.67 1944.78 1405.98 1938.09C1405.35 1935.31 1403.95 1932.76 1401.93 1930.75C1399.91 1928.73 1397.37 1927.32 1394.59 1926.69C1387.4 1919.26 1380.22 1911.34 1373.29 1901.92C1359.42 1885.33 1346.78 1867.74 1335.14 1850.65C1328.21 1840.25 1321.52 1829.85 1314.58 1819.69L1319.54 1823.16C1335.39 1834.31 1351.49 1846.69 1369.07 1859.08C1386.34 1871.4 1404.65 1882.18 1423.81 1891.27C1442.21 1899.87 1461.86 1905.47 1482.02 1907.87C1500.28 1910.17 1518.82 1908.74 1536.51 1903.66C1551.38 1899.4 1564.98 1891.58 1576.14 1880.87C1562.96 1886.88 1548.75 1890.33 1534.28 1891.03C1523.68 1891.45 1513.05 1890.79 1502.58 1889.05C1495.64 1874 1486.63 1860 1475.83 1847.43C1462.16 1832.42 1447.24 1818.58 1431.24 1806.07C1394.6 1780.95 1360.29 1752.6 1328.7 1721.36C1311.08 1701.66 1298.57 1677.93 1292.29 1652.26C1307.38 1657.8 1322.76 1662.52 1338.36 1666.37C1387.38 1679.17 1438.18 1683.77 1488.71 1680C1539.34 1675.96 1588.71 1662.17 1634.1 1639.38C1670.56 1620.93 1703.17 1595.71 1730.2 1565.07C1700 1591.3 1666.01 1612.85 1629.4 1628.97C1584.4 1648.68 1536.44 1660.74 1487.47 1664.64C1438.4 1668.25 1389.07 1665.17 1340.84 1655.48C1323.25 1652.01 1306.41 1648.04 1291.3 1643.59C1288.77 1631.2 1287.69 1618.57 1288.08 1605.94C1288.92 1586.17 1292.67 1566.64 1299.23 1547.98C1334.99 1558.27 1371.99 1563.69 1409.2 1564.08C1480.76 1564.76 1551.6 1549.8 1616.76 1520.24C1563.01 1524.7 1489.95 1533.86 1409.45 1533.12C1375.22 1532.62 1341.05 1529.97 1307.15 1525.19C1308.89 1520.49 1310.62 1515.78 1312.11 1511.32C1354.39 1516.99 1397.28 1516.49 1439.42 1509.83C1484.12 1502.58 1527.41 1488.37 1567.72 1467.73C1600.07 1451.43 1629.86 1430.48 1656.15 1405.56C1624.49 1421.22 1591.99 1435.11 1558.8 1447.17C1518.52 1461.37 1477.09 1472.06 1434.96 1479.12C1392.71 1485.9 1349.93 1488.8 1307.15 1487.79C1271.83 1486.95 1236.6 1483.97 1201.64 1478.87C1234.37 1494.51 1269.27 1505.12 1305.17 1510.33H1309.38C1306.41 1514.54 1303.19 1518.75 1300.22 1523.46H1297.49C1266.86 1518.38 1236.52 1511.68 1206.59 1503.39C1231.46 1520.76 1258.75 1534.37 1287.59 1543.77C1277.11 1561.83 1269.97 1581.63 1266.53 1602.22C1264.87 1612.7 1264.21 1623.32 1264.55 1633.93C1251.18 1629.72 1238.54 1625.51 1226.9 1621.29C1238.54 1627.24 1251.67 1633.43 1264.8 1639.38C1265.75 1650.66 1267.66 1661.85 1270.5 1672.81C1273.86 1685.11 1278.6 1696.99 1284.61 1708.23C1287.61 1713.97 1291.09 1719.44 1295.02 1724.58C1298.71 1730.05 1302.76 1735.26 1307.15 1740.18C1323.7 1758.7 1342.7 1774.87 1363.63 1788.24C1383.19 1801.36 1402.27 1813.01 1420.1 1823.16C1437.21 1832.94 1453.75 1843.69 1469.64 1855.36C1482.14 1864.94 1493.67 1875.72 1504.07 1887.56C1499.11 1887.56 1493.91 1885.58 1488.96 1884.09C1471.64 1879.6 1454.98 1872.86 1439.42 1864.03C1422.32 1854.31 1405.78 1843.65 1389.88 1832.08C1372.79 1820.19 1355.95 1807.31 1338.61 1797.65C1321.89 1787.65 1304.51 1778.79 1286.59 1771.15L1270.99 1763.96L1262.32 1757.52C1255.93 1753.01 1249.03 1749.27 1241.76 1746.38C1230.16 1734.86 1219.4 1722.53 1209.56 1709.47C1204.31 1701.97 1200.44 1693.58 1198.17 1684.7C1196.55 1674.38 1195.89 1663.94 1196.19 1653.49C1196.19 1628.72 1196.19 1606.93 1196.19 1586.62C1196.54 1572.92 1197.87 1559.26 1200.15 1545.75L1208.57 1547.24C1219.96 1549.24 1231.61 1549.24 1243 1547.24C1225.06 1532.85 1206.28 1519.54 1186.78 1507.36C1172.2 1497.78 1159.94 1485.09 1150.86 1470.2L1155.82 1472.19L1148.88 1466.24C1147.82 1463.99 1146.91 1461.67 1146.16 1459.31L1144.17 1462.28C848.187 1202.7 1064.17 789.805 1173.65 729.369C1191.73 733.084 1208.33 736.304 1223.19 738.534C1174.01 707.873 1119.99 685.764 1063.43 673.144C1007.97 659.493 950.668 654.975 893.762 659.768L807.318 616.918C770.626 598.213 732.532 582.395 693.381 569.61C653.426 556.808 611.374 551.846 569.537 554.996C545.212 557.068 521.463 563.53 499.442 574.069C461.05 579.518 427.612 585.214 427.612 585.214H426.373C607.186 438.335 1131.05 13.7975 1163 0.669998C981.195 17.2651 482.847 438.088 342.655 559.207C328.937 555.455 314.558 554.778 300.548 557.226C268.246 570.43 237.442 587.036 208.656 606.763C199.542 605.16 190.176 605.762 181.342 608.52C172.508 611.278 164.463 616.111 157.879 622.615C135.587 644.907 97.4434 743.239 97.4434 743.239L2.08401 819.527L52.8598 879.716L145 809.867C145 809.867 164.072 860.891 208.656 844.792C253.24 828.692 329.28 752.899 329.28 752.899C361.233 750.023 393.356 749.527 425.383 751.413L437.272 752.652C475.416 759.091 500.68 806.648 561.116 819.527C605.934 825.521 651.531 821.114 694.372 806.648C694.372 806.648 710.225 940.152 954.941 971.856C954.941 971.856 915.558 1058.55 950.482 1216.32C981.195 1356.27 1099.09 1441.72 1143.18 1465.25C1139.66 1474.6 1139.14 1484.82 1141.7 1494.48C1145.52 1509.51 1154.23 1522.84 1166.47 1532.37C1174.03 1537.77 1182.38 1541.95 1191.23 1544.76C1182.59 1556.65 1176.13 1569.99 1172.16 1584.14C1165.78 1607.11 1162.86 1630.9 1163.49 1654.73C1163.03 1668.16 1164.88 1681.56 1168.94 1694.36C1173.58 1706.64 1181.25 1717.55 1191.23 1726.07C1198.13 1732.01 1205.8 1737.01 1214.02 1740.93C1219.21 1748.25 1225.19 1754.98 1231.86 1760.99C1239.14 1767.76 1246.92 1773.97 1255.14 1779.57C1241.45 1791.29 1226.97 1802.05 1211.79 1811.77C1172.71 1835.65 1130.54 1854.07 1086.46 1866.51C1033.71 1883.1 971.04 1894.99 905.403 1911.83C871.687 1920.31 838.586 1931.07 806.328 1944.03C773.564 1957.4 741.853 1973.21 711.463 1991.34C681.542 2009.35 653.055 2029.63 626.258 2052.02L614.864 2062.68C620.484 2052.59 627.487 2043.33 635.67 2035.18C621.643 2041.97 609.357 2051.89 599.755 2064.16C587.865 2078.59 579.397 2095.53 574.986 2113.7C569.796 2134.35 569.796 2155.96 574.986 2176.61C577.967 2187.71 582.557 2198.3 588.61 2208.07C594.754 2218.06 602.163 2227.22 610.653 2235.31C642.906 2264.15 684.318 2280.64 727.562 2281.88C759.422 2280.59 790.687 2272.84 819.455 2259.09C821.189 2257.61 819.455 2257.61 812.024 2259.09C785.643 2263.75 758.649 2263.75 732.268 2259.09C710.519 2255.17 689.533 2247.82 670.099 2237.3C647.074 2225.38 627.014 2208.45 611.396 2187.76C607.828 2181.7 604.843 2175.31 602.48 2168.69C597.729 2154.58 595.629 2139.71 596.288 2124.84C597.511 2119.61 599.34 2114.54 601.737 2109.74C608.821 2096.24 618.306 2084.16 629.726 2074.07C642.1 2063.03 655.083 2052.69 668.612 2043.11C723.907 2002.86 784.833 1970.97 849.425 1948.49C913.329 1926.45 978.223 1913.81 1035.19 1898.95C1084.51 1886.75 1132.16 1868.62 1177.12 1844.96C1201.02 1832.41 1223.1 1816.66 1242.75 1798.14C1248.2 1792.94 1252.41 1788.24 1255.63 1784.52C1254.27 1793.62 1253.69 1802.82 1253.9 1812.01C1255.73 1854.67 1273.39 1895.12 1303.44 1925.46C1315.34 1937.61 1329.47 1947.36 1345.05 1954.19C1326.88 1924.06 1310.34 1892.97 1295.51 1861.06C1286.1 1839.26 1278.67 1817.96 1272.23 1798.39L1280.4 1812.01C1289.81 1828.36 1298.98 1846.69 1309.88 1865.51C1321.22 1885.19 1334.14 1903.91 1348.52 1921.49C1360.61 1936.01 1373.95 1949.44 1388.4 1961.62C1381.2 1963.57 1373.8 1964.65 1366.35 1964.84C1359.97 1965.34 1353.66 1966.5 1347.53 1968.31C1284.86 1943.54 1229.87 1916.54 1187.27 1899.94C1226.72 1937.65 1272.28 1968.38 1322.01 1990.84C1321.4 1996.31 1319.53 2001.57 1316.56 2006.2C1310.8 2015.94 1302.14 2023.65 1291.8 2028.25L1276.69 2024.78C1228.61 2011.93 1179.44 2003.64 1129.81 2000.01C1089.06 1996.82 1048.14 2003.35 1010.42 2019.08C1049.41 2014.2 1088.92 2015.28 1127.58 2022.3C1171.17 2029.48 1218.48 2042.86 1269.5 2055.24L1296.01 2060.94C1298.11 2066.56 1298.62 2072.64 1297.49 2078.53C1296.51 2083 1294.65 2087.23 1292.01 2090.97C1289.37 2094.72 1286.02 2097.89 1282.14 2100.32L1250.93 2087.69C1207.61 2068 1162.02 2053.77 1115.19 2045.34C1094.55 2042.07 1073.57 2041.49 1052.78 2043.6C1034.94 2045.56 1017.5 2050.16 1001.01 2057.23C1037.9 2053.3 1075.2 2056.75 1110.74 2067.38C1154.44 2081.35 1197.28 2097.89 1239.04 2116.92C1265.64 2128.31 1293.04 2137.75 1321.02 2145.15C1321.02 2146.89 1322.26 2148.87 1323.01 2150.6C1280.78 2151.45 1238.53 2150.13 1196.44 2146.64C1131.54 2141.19 1068.63 2133.51 1010.42 2129.8C958.77 2125.55 906.821 2126.55 855.37 2132.77C897.477 2145.65 947.262 2160.02 1003.98 2174.38C1053.77 2187.43 1104.31 2197.44 1155.32 2204.35C1140.46 2204.35 1125.6 2204.35 1110.24 2204.35C1038.66 2201.63 970.297 2193.21 907.384 2185.03C844.471 2176.86 787.008 2169.68 738.709 2166.7C789.957 2191.73 843.133 2212.61 897.724 2229.12C965.947 2250.43 1036.62 2262.91 1108.01 2266.27C1145.78 2267.54 1183.58 2265.38 1220.96 2259.83L1205.35 2262.81C1154.33 2272.96 1098.35 2282.37 1039.4 2290.05C980.452 2297.73 923.732 2302.44 871.717 2305.66L732.021 2313.34C776.109 2331.97 822.518 2344.56 869.983 2350.74C928.756 2358.57 988.307 2358.57 1047.08 2350.74C1095.29 2344.43 1142.69 2333.06 1188.51 2316.8C1161.28 2332.46 1133.16 2346.52 1104.3 2358.91C1054.99 2380.29 1003.49 2396.24 950.73 2406.47C923.392 2411.72 895.768 2415.36 868.002 2417.36C842.275 2419.21 816.45 2419.21 790.723 2417.36C754.063 2415.75 717.841 2408.74 683.227 2396.56C698.782 2387.9 712.563 2376.39 723.847 2362.63C701.209 2375.08 676.562 2383.46 651.027 2387.39C622.363 2391.62 593.187 2384.41 569.785 2367.33C558.353 2358.45 549.186 2347 543.035 2333.89C537.246 2321.18 533.966 2307.47 533.375 2293.52C532.678 2276.96 533.591 2260.37 536.1 2243.98C540.068 2250.18 544.812 2255.84 550.217 2260.83C557.554 2267.49 565.918 2272.93 574.986 2276.93C589.299 2283.42 604.64 2287.36 620.314 2288.57C602.232 2269 570.776 2249.43 558.887 2221.2C555.791 2214.56 553.864 2207.44 553.19 2200.14C552.612 2193.42 553.542 2186.65 555.915 2180.33C558.639 2173.64 562.602 2166.21 565.327 2158.53C568.335 2151.42 569.112 2143.56 567.556 2135.99C561.611 2148.38 549.227 2153.82 536.595 2168.69C529.749 2177.49 525.541 2188.05 524.458 2199.15C523.601 2210.59 525.557 2222.07 530.155 2232.59C520.268 2250.94 513.726 2270.9 510.835 2291.54C508.512 2309.08 510.466 2326.93 516.532 2343.55C523.249 2362.09 535.105 2378.32 550.713 2390.37C566.107 2402.46 584.53 2410.08 603.966 2412.41C629.52 2415.66 655.457 2411 678.273 2399.04C690.685 2407.25 703.876 2414.22 717.655 2419.84C740.317 2429.22 764.014 2435.87 788.246 2439.66C815.103 2443.94 842.304 2445.68 869.488 2444.86C898.662 2444.07 927.73 2441.01 956.427 2435.69C1011.82 2424.91 1065.15 2405.44 1114.45 2377.98C1149.04 2358.6 1181.08 2334.97 1209.81 2307.64L1218.48 2304.17C1231.36 2298.72 1243.25 2293.02 1255.63 2287.33C1374.28 2322.25 1460.22 2411.17 1513.48 2521.39C1514.61 2509.31 1513.43 2497.12 1510.01 2485.48C1501.09 2452.78 1349.01 2268.5 1328.21 2243.74L1331.43 2241.26C1357.68 2243.49 1468.15 2250.42 1510.01 2228.13C1522.64 2231.35 1649.71 2275.69 1716.58 2256.61L1715.1 2258.35L1707.17 2261.82C1694.62 2267.71 1682.88 2275.2 1672.25 2284.11C1667.05 2288.56 1662.09 2293.27 1657.38 2298.23C1652.63 2303.27 1648.48 2308.83 1645 2314.82C1637.75 2326.68 1633.43 2340.1 1632.37 2353.96C1631.58 2366.65 1633.01 2379.39 1636.58 2391.61C1643.37 2412.74 1654.89 2432.06 1670.26 2448.08C1678.07 2455.99 1686.34 2463.44 1695.03 2470.37C1690.57 2468.39 1687.11 2467.89 1684.63 2470.37C1683.37 2472.64 1682.71 2475.2 1682.71 2477.8C1682.71 2480.4 1683.37 2482.96 1684.63 2485.23C1685.46 2488.22 1686.96 2490.98 1689.02 2493.3C1691.08 2495.62 1693.65 2497.43 1696.52 2498.61ZM903.916 774.696C848.929 728.13 836.297 749.927 760.009 736.552C683.721 723.177 717.655 651.843 717.655 651.843C691.625 684.54 658.284 710.669 620.314 728.13C561.116 752.899 527.183 711.288 471.701 694.197C458.623 690.275 445.301 687.213 431.823 685.033C442.966 644.23 466.719 607.993 499.69 581.499C522.763 576.981 546.305 575.317 569.785 576.545C608.904 579.071 647.574 586.306 684.96 598.094C725.333 610.478 763.477 625.34 799.145 636.734C829.434 647.077 860.608 654.622 892.275 659.273C934.134 672.896 991.35 687.014 1056.74 702.123L1084.48 708.563C1035.04 759.906 997.121 821.213 973.269 888.385C958.543 845.74 934.515 806.906 902.926 774.696H903.916Z" fill="black"/>
<path d="M2350.42 1850.41C2346.23 1841.22 2341.08 1832.5 2335.06 1824.4C2332.58 1820.93 2329.61 1817.71 2326.89 1814.49C2319.14 1802.56 2308.14 1793.11 2295.18 1787.24C2295.23 1787.82 2295.23 1788.4 2295.18 1788.98L2292.21 1787C2277.06 1778.09 2260.16 1772.6 2242.67 1770.9C2228.14 1769.43 2213.46 1771.38 2199.82 1776.59C2189.73 1758.29 2175.69 1742.46 2158.7 1730.28C2135.97 1713.98 2109.46 1703.75 2081.67 1700.55C2053.78 1697.53 2025.58 1701.62 1999.69 1712.44C1993.34 1715.08 1987.21 1718.23 1981.36 1721.86C1942.36 1714.45 1902.6 1711.87 1862.97 1714.18C1845.12 1715.59 1827.45 1718.74 1810.21 1723.59C1829.32 1703.12 1844.14 1679.04 1853.8 1652.75C1835.65 1672.39 1815.93 1690.53 1794.85 1706.99C1769.49 1726.56 1741.98 1743.18 1712.87 1756.53C1683.62 1769.33 1653.05 1778.88 1621.72 1785.02C1595.39 1789.76 1568.71 1792.33 1541.96 1792.69C1568.03 1803.03 1595.91 1808 1623.95 1807.31C1647.73 1806.98 1671.33 1803.22 1694.04 1796.16C1662.34 1825.88 1635.84 1855.85 1607.6 1879.14C1591.61 1893.03 1574.17 1905.15 1555.58 1915.3C1539.14 1924.21 1521.43 1930.55 1503.07 1934.12C1522.42 1935.57 1541.85 1933.21 1560.29 1927.19C1581.92 1920.14 1602.44 1910.05 1621.22 1897.22C1661.59 1866.71 1700.28 1834.05 1737.14 1799.38C1755.99 1783.23 1776.8 1769.5 1799.06 1758.51C1820.09 1748.91 1842.22 1741.92 1864.95 1737.71C1902.27 1731.54 1939.89 1727.24 1977.64 1724.83C1965.7 1732.37 1955.01 1741.73 1945.94 1752.57C1965.19 1744.99 1985.08 1739.19 2005.39 1735.23C2029.08 1730.92 2053.26 1730.01 2077.22 1732.51C2101.08 1735.48 2124.41 1741.73 2146.57 1751.08C2165.44 1759.42 2183.51 1769.45 2200.56 1781.05L2199.08 1778.33C2220.63 1776.74 2242.19 1781.32 2261.22 1791.54C2280.26 1801.76 2295.99 1817.2 2306.57 1836.04C2306.95 1843.26 2306.45 1850.49 2305.09 1857.59C2298.19 1883.89 2283.09 1907.31 2261.99 1924.46C2240.54 1943.88 2215.8 1959.31 2188.92 1970.04C2165.06 1979.71 2140.11 1986.45 2114.62 1990.1C2140.11 2002.28 2168.6 2006.76 2196.6 2002.98C2232.23 1998.41 2265.6 1983.02 2292.21 1958.89C2290.23 1962.86 2288.25 1966.82 2286.02 1970.53C2265.55 2008.17 2240.6 2043.18 2211.71 2074.81C2156.22 2131.08 2093.9 2180.18 2026.19 2220.95C2061.29 2211.14 2095.13 2197.26 2127 2179.58C2166.82 2157.33 2202.99 2129.09 2234.25 2095.86C2265.62 2062.16 2290.32 2022.83 2307.07 1979.95C2314.31 1961.22 2319.62 1941.8 2322.92 1921.99C2322.92 1920.25 2324.66 1918.52 2325.65 1917.03C2324.4 1943.66 2319.22 1969.95 2310.29 1995.06C2296.47 2033.02 2277.56 2068.94 2254.07 2101.81C2207.49 2165.59 2146.35 2217.3 2075.73 2252.65C2017.17 2282.24 1953.39 2300.07 1887.98 2305.16C1955.81 2315.98 2025.29 2308.63 2089.35 2283.86C2127.76 2269.06 2164 2249.14 2197.1 2224.66C2186.94 2241.01 2176.04 2258.35 2164.15 2276.43C2145.27 2289.56 2125.67 2301.63 2105.45 2312.59C2071.54 2330.68 2035.85 2345.21 1998.95 2355.94C1961.91 2366.22 1923.88 2372.53 1885.5 2374.76C1853.64 2376.5 1821.68 2375.92 1789.9 2373.03C1819.93 2386.73 1852.11 2395.11 1885.01 2397.8C1926.16 2401.33 1967.62 2397.38 2007.37 2386.16C2046.99 2374.75 2084.29 2356.47 2117.59 2332.16C2124.03 2327.21 2130.22 2322.25 2136.17 2317.05C2109.67 2356.14 2077.91 2391.4 2041.8 2421.82C2021.37 2437.96 1998.67 2450.98 1974.42 2460.46C1951.49 2469.34 1927.52 2475.25 1903.09 2478.05C1859.93 2482.86 1816.24 2478.64 1774.79 2465.66C1791.4 2478.77 1809.95 2489.21 1829.77 2496.62C1819.31 2498.69 1809.15 2502.11 1799.56 2506.78C1773.67 2519.74 1752.21 2540.08 1737.88 2565.23C1723.85 2590.1 1716.51 2618.17 1716.58 2646.72C1716.4 2669.06 1720.96 2691.18 1729.96 2711.62C1732.13 2665.98 1743.95 2621.33 1764.63 2580.59C1776.65 2559.63 1792.54 2541.14 1811.45 2526.1C1822.91 2516.83 1835.47 2509.01 1848.85 2502.82C1863.26 2506.91 1878.02 2509.65 1892.94 2510.99C1883.03 2513.71 1872.63 2516.44 1861.97 2519.91C1849.24 2524.21 1836.89 2529.6 1825.07 2536.01C1811.81 2543.21 1800.1 2552.98 1790.64 2564.74C1780.37 2577.32 1772.85 2591.92 1768.6 2607.59C1764.27 2623.73 1762.43 2640.43 1763.15 2657.13C1765.06 2690.45 1771.48 2723.36 1782.22 2754.96C1792.18 2784.28 1799.4 2814.47 1803.77 2845.12C1807.91 2871.94 1803.31 2899.39 1790.64 2923.39C1781.16 2938.52 1768.99 2951.79 1754.73 2962.53C1758.01 2955.39 1760.51 2947.91 1762.16 2940.23C1766.49 2919.49 1766.49 2898.07 1762.16 2877.32C1758.92 2860.99 1753.5 2845.16 1746.06 2830.26C1739.62 2858.25 1739.86 2896.64 1731.94 2933.55C1725.53 2966.24 1708.03 2995.73 1682.4 3017.02L1679.92 3019L1683.89 3017.02C1700.8 3016.02 1716.79 3008.99 1728.97 2997.2L1734.91 2991.51L1742.09 2987.54C1753.93 2981.46 1765.35 2974.59 1776.27 2966.98C1788.68 2958.64 1799.5 2948.16 1808.23 2936.02C1817.53 2922.85 1824.1 2907.94 1827.55 2892.18C1831.07 2875.92 1832.24 2859.24 1831.01 2842.64C1828.1 2809.65 1821.2 2777.13 1810.46 2745.8C1800.44 2716.68 1793.79 2686.52 1790.64 2655.89C1787.37 2628.97 1793.31 2601.73 1807.48 2578.61C1822.57 2558.41 1842.62 2542.45 1865.69 2532.29L1906.56 2512.48C1933.81 2513.27 1961 2509.59 1987.06 2501.58C2016.95 2492.67 2044.86 2478.12 2069.29 2458.73C2092.95 2439.64 2113.87 2417.39 2131.46 2392.59C2147.35 2370.27 2161.35 2346.66 2173.32 2322C2190.33 2287.5 2203.14 2251.08 2211.46 2213.52C2241.42 2189.26 2267.99 2161.11 2290.48 2129.8C2316.87 2093.09 2336.96 2052.24 2349.92 2008.93C2363.16 1967.86 2365.3 1924.02 2356.11 1881.86C2355.21 1871.22 2353.3 1860.69 2350.42 1850.41Z" fill="black"/>
<path d="M1554.1 1739.19C1591.24 1744.1 1628.92 1743.27 1665.81 1736.72C1711.96 1728.75 1756.38 1712.83 1797.08 1689.66C1818.84 1677.87 1838.92 1663.21 1856.77 1646.06C1873.97 1629.85 1887.41 1610.07 1896.16 1588.1C1903.64 1568.91 1908.23 1548.71 1909.78 1528.16C1911.22 1510.95 1911.72 1493.67 1911.26 1476.4C1906.81 1491.51 1902.6 1508.35 1897.15 1525.93C1892.03 1544.26 1884.88 1561.95 1875.85 1578.69C1853.14 1615.13 1820.59 1644.41 1781.97 1663.15C1743.45 1684.69 1702.77 1702.13 1660.6 1715.17C1625.69 1725.59 1590.1 1733.61 1554.1 1739.19Z" fill="black"/>
<path d="M1599.92 1272.05C1633.46 1249.3 1661.41 1219.24 1681.66 1184.12C1702.5 1149.46 1715.12 1110.49 1718.56 1070.19C1704.85 1106.85 1688.29 1142.38 1669.03 1176.45C1648.41 1210 1625.31 1241.96 1599.92 1272.05Z" fill="black"/>
<path d="M2925.8 1158.86C2934.35 1156.25 2942.64 1152.85 2950.56 1148.71C2964.68 1141.03 2979.79 1129.63 2979.79 1114.52C2979.79 1085.79 2938.68 1035.02 2919.6 1006.53C2900.53 978.048 2833.66 946.096 2833.66 946.096C2833.66 946.096 2817.8 921.327 2798.73 917.612C2784.76 915.835 2770.7 914.843 2756.62 914.64C2611.97 760.825 2188.43 323.408 2016.28 288.979C2029.91 296.162 2130.96 394.494 2253.82 515.862L2252.08 517.1C2224.1 536.172 2211.46 566.638 2224.09 585.214C2236.73 603.791 2269.67 602.8 2298.4 583.728C2303.18 580.413 2307.65 576.683 2311.78 572.582C2420.26 680.574 2537.17 797.731 2621.63 882.688C2637.86 909.394 2647.69 939.486 2650.37 970.617C2604.54 948.325 2533.21 921.08 2483.18 935.693C2441.81 948.078 2400.2 1001.58 2362.3 1041.95V1038.24C2359.61 1026.75 2354.42 1016.01 2347.1 1006.76C2339.78 997.513 2330.51 989.993 2319.95 984.735C2321.8 1005.42 2325.53 1025.9 2331.1 1045.91C2332.83 1053.1 2334.81 1060.03 2336.79 1066.72C2330.53 1072.48 2323.73 1077.62 2316.48 1082.08V1079.1C2314.16 1059.31 2307.66 1040.22 2297.41 1023.13C2287.11 1006.16 2273.25 991.62 2256.79 980.525C2243.61 971.455 2228.53 965.524 2212.7 963.187C2234.37 986.592 2253.7 1012.06 2270.41 1039.23C2279.83 1055.13 2288.11 1071.69 2295.18 1088.76C2290.55 1089.11 2285.9 1088.37 2281.6 1086.61C2277.3 1084.84 2273.47 1082.11 2270.41 1078.61C2151.77 954.765 2113.63 981.268 2113.63 981.268C2113.63 981.268 2160.19 1133.6 2033.37 1201.46C2024.95 1205.92 2016.7 1209.88 2008.61 1213.35L2013.06 1197.5C2020.88 1172.02 2026.92 1146.04 2031.15 1119.73C2007.6 1136.55 1990.68 1161.09 1983.34 1189.08C1980.11 1200.78 1978.36 1212.85 1978.14 1224.99C1970.21 1227.47 1962.78 1229.45 1955.6 1231.19C1959.32 1214.84 1963.03 1197.75 1966.99 1181.65C1979.38 1125.67 1991.76 1075.14 1997.46 1036.75C1967.92 1078.05 1947.26 1125.03 1936.78 1174.71C1932.27 1195.2 1929.21 1215.97 1927.61 1236.88C1919.19 1236.88 1911.26 1236.88 1902.84 1236.88C1906.96 1202.47 1913 1168.32 1920.92 1134.59C1935.56 1078.11 1954.61 1022.87 1977.89 969.379C1958.42 988.308 1941.75 1009.91 1928.36 1033.53C1894.54 1092.47 1878.22 1159.83 1881.29 1227.72C1881.29 1230.19 1881.29 1232.67 1881.29 1235.15L1868.17 1232.67C1859 1119.97 1899.87 1007.28 1980.37 894.329L2095.05 935.941C2095.05 935.941 2115.36 857.671 2049.47 817.298C2036.12 806.579 2021.05 798.204 2004.89 792.529C1969.96 780.623 1932.74 776.978 1896.16 781.879C1877.76 783.947 1859.48 787.006 1841.42 791.043C1824.08 795.006 1807.73 798.969 1791.88 803.675C1767.03 810.374 1743.39 820.903 1721.78 834.884C1722.41 828.377 1722.41 821.824 1721.78 815.317C1721.02 807.932 1719.01 800.73 1715.84 794.015C1713.77 789.79 1711 785.939 1707.66 782.622C1703.67 778.821 1698.83 776.02 1693.55 774.448C1689 773.406 1684.34 772.907 1679.68 772.962H1669.27L1648.22 774.2C1604.92 777.586 1562.49 788.132 1522.64 805.409C1517.44 796.74 1417.37 636.734 1371.06 629.798C1401.03 673.392 1507.53 830.426 1499.61 862.13C1490.69 899.283 1420.1 826.463 1420.1 826.463C1420.1 826.463 1535.03 1011.49 1491.19 1004.05C1447.34 996.624 1434.96 1006.53 1469.14 1080.34C1472.5 1087.45 1475.47 1094.72 1478.06 1102.14C1453.29 1080.59 1423.32 1062.26 1395.58 1042.69C1361.4 1020.61 1331.52 992.494 1307.4 959.719C1301.21 949.811 1282.63 916.869 1281.15 920.337C1246.02 983.652 1203.53 1042.6 1154.58 1095.95C1127.28 1117.96 1102.96 1143.44 1082.25 1171.74C1079.3 1175.71 1076.57 1179.85 1074.08 1184.12C1080.85 1134.03 1090.7 1084.4 1103.55 1035.51C1117.18 982.259 1132.04 931.73 1145.66 886.899C1151.68 865.384 1158.87 844.216 1167.21 823.49C1174.66 805.731 1184.5 789.066 1196.44 773.953C1180.43 786.092 1166.75 801.029 1156.06 818.041C1143.63 837.501 1133.02 858.063 1124.36 879.468C1104.17 927.703 1087.61 977.379 1074.82 1028.08C1061.21 1078.52 1053.73 1130.41 1052.53 1182.64C1045.68 1153.48 1040.47 1123.96 1036.93 1094.21C1029.15 1117.68 1025.46 1142.32 1026.03 1167.03C1026.48 1197.91 1032.17 1228.48 1042.87 1257.44C1053.72 1286.31 1069.28 1313.18 1088.94 1336.95L1090.43 1338.43C1096.59 1348.09 1103.47 1357.28 1110.98 1365.93C1140.12 1401.57 1174.14 1432.92 1212.04 1459.06L1221.95 1393.92C1254.64 1428.35 1294.03 1456.83 1331.67 1456.83C1382.95 1456.83 1425.3 1392.68 1452.79 1342.89L1463.94 1371.87C1494.29 1345.11 1518.83 1312.4 1536.02 1275.77C1560.79 1235.4 1597.94 1141.52 1574.41 962.691C1577.88 973.589 1580.85 984.736 1583.57 996.129C1595.66 1045.78 1600.08 1096.98 1596.7 1147.96C1592.63 1198.98 1580.85 1249.08 1561.78 1296.58C1545.77 1335.58 1525.68 1372.77 1501.84 1407.54C1522.61 1389.41 1541.16 1368.88 1557.07 1346.36C1598.88 1331.78 1636.3 1306.81 1665.81 1273.79C1682.82 1254.35 1696.7 1232.37 1706.92 1208.65C1710.04 1278.7 1733.83 1346.27 1775.28 1402.83C1780.15 1409.38 1785.36 1415.66 1790.89 1421.66C1796.09 1427.85 1801.79 1433.3 1807.24 1438.75C1818.38 1449.4 1829.53 1459.06 1840.18 1468.22C1860.18 1484.83 1878.36 1503.51 1894.42 1523.95C1882.5 1500.34 1867.24 1478.56 1849.09 1459.31C1839.93 1448.66 1830.02 1437.76 1820.61 1426.36C1815.9 1420.67 1810.95 1414.97 1806.74 1408.78C1802.53 1402.59 1797.82 1396.39 1793.86 1389.95C1758.6 1332.63 1739.11 1267.01 1737.39 1199.73C1735.65 1132.1 1747.18 1064.78 1771.32 1001.58C1791.21 949.34 1815.49 898.88 1843.89 850.736C1806.02 893.338 1774.57 941.232 1750.52 992.909C1736.01 1024.02 1724.81 1056.56 1717.08 1090C1711.51 1114.43 1708.03 1139.29 1706.67 1164.31C1687.81 1195.39 1666.43 1224.88 1642.77 1252.49C1621.39 1275.86 1598.65 1297.94 1574.66 1318.62C1577.38 1314.16 1579.86 1309.95 1582.33 1305.24C1591.98 1287.74 1600.26 1269.53 1607.1 1250.75C1635.91 1215.6 1656.33 1174.35 1666.8 1130.13C1679.59 1081.42 1679.59 1030.23 1666.8 981.516C1658.87 1018.92 1650.7 1068.95 1637.57 1123.19C1634.6 1135.08 1631.38 1147.96 1628.4 1158.12V1149.94C1632.32 1095.47 1624.72 1040.79 1606.11 989.441C1596.32 962.048 1583.27 935.935 1567.23 911.667C1559.9 877.691 1549.28 844.509 1535.52 812.592C1568.96 812.592 1609.83 809.372 1652.93 805.657L1673.24 803.923H1682.65H1688.59C1689.48 803.621 1690.43 803.621 1691.32 803.923C1692.84 804.727 1694.13 805.924 1695.03 807.391C1697.82 811.424 1699.99 815.848 1701.47 820.518C1707.7 839.351 1706.73 859.822 1698.75 877.982C1710.96 868.327 1719.3 854.62 1722.28 839.342C1747.83 833.392 1773.72 829.008 1799.8 826.215C1815.66 824.234 1832.5 822.252 1849.34 819.775C1866.19 817.298 1884.51 814.821 1902.35 813.088C1910.27 813.088 1918.2 811.601 1927.12 811.106C1908.79 815.069 1895.91 819.28 1895.91 819.28C1895.91 819.28 1775.04 971.608 1772.06 1158.86C1769.09 1346.11 1914.73 1476.64 1914.73 1476.64L1939.5 1428.84C1960.8 1387.23 1989.04 1332.49 1990.53 1324.81C2005.84 1295.32 2022.8 1266.71 2041.3 1239.11C2041.3 1239.11 2200.07 1220.04 2279.58 1146.97C2317.72 1131.12 2425.71 1131.12 2489.12 1086.78C2513.89 1080.34 2635.26 1038.98 2635.26 1038.98L2746.22 1077.12C2746.22 1077.12 2790.81 1172.48 2809.88 1185.12C2826.79 1192.75 2845.64 1195 2863.87 1191.56L2952.79 1283.45L3000.35 1248.52L2925.8 1158.86Z" fill="black"/>
<path d="M1684.63 1571.01C1646.49 1591.37 1605.49 1605.82 1563.02 1613.86C1520.37 1621.61 1477.05 1625.01 1433.72 1624.02C1393.84 1624.02 1357.93 1620.55 1327.71 1618.32C1362.39 1626.71 1397.67 1632.43 1433.23 1635.41C1477.57 1639.19 1522.22 1637.02 1565.99 1628.97C1609.97 1620.23 1651.95 1603.43 1689.83 1579.43C1720.35 1560.39 1746.85 1535.57 1767.85 1506.37C1743.54 1532 1715.48 1553.8 1684.63 1571.01Z" fill="black"/>
<path d="M1456.76 2487.21C1439.4 2470.58 1421.03 2455.03 1401.77 2440.65C1404.05 2467.2 1416.16 2491.94 1435.72 2510.03C1455.28 2528.13 1480.89 2538.27 1507.53 2538.48C1491.63 2520.41 1474.68 2503.29 1456.76 2487.21Z" fill="black"/>
<path d="M1340.84 1234.16C1352.55 1218.34 1366.67 1204.46 1382.7 1193.04C1404.78 1180.83 1428.46 1171.74 1453.04 1166.04C1453.04 1166.04 1434.22 1233.41 1340.84 1234.16Z" fill="white"/>
<path d="M1275.45 1234.9C1260.68 1220.64 1244.69 1207.71 1227.64 1196.26C1205.19 1183.47 1181.44 1173.09 1156.81 1165.3C1156.81 1165.3 1177.36 1235.4 1275.45 1234.9Z" fill="white"/>
</svg>
