
<svg width="2132" height="2132" viewBox="0 0 2132 2132" fill="none" xmlns="http://www.w3.org/2000/svg">
<path d="M1721.27 855.219C1713.82 797.502 1695.65 741.43 1667.55 689.51C1643.09 644.161 1611.57 602.423 1573.99 565.648C1547.45 539.627 1517.18 517.137 1484.04 498.814C1474.83 493.531 1465.05 489.163 1454.87 485.783C1447.8 483.511 1443.43 483.272 1442.01 485.065C1440.6 486.859 1443.56 489.609 1448.95 494.271C1454.35 498.934 1462.83 504.792 1472.86 513.042C1501.57 534.395 1528.42 557.821 1553.18 583.103C1607.69 639.117 1649.25 704.963 1675.26 776.549C1684.45 803.284 1691.5 830.619 1696.33 858.327C1700.62 886.041 1702.64 914.019 1702.37 942.018C1701.52 969.394 1698.6 996.681 1693.64 1023.68C1684.49 1071.65 1668.45 1118.25 1645.96 1162.24C1629.77 1193.5 1610.13 1223.11 1587.36 1250.6C1579.39 1260.88 1572.07 1268.05 1567.57 1273.31L1560.37 1281.21L1568.08 1273.67C1572.97 1268.77 1580.93 1261.72 1589.41 1252.15C1614.05 1225.7 1635.58 1196.88 1653.67 1166.19C1679.55 1122.51 1698.84 1075.72 1710.98 1027.14C1717.48 999.58 1721.78 971.607 1723.84 943.453C1725.5 914.024 1724.64 884.52 1721.27 855.219Z" fill="white"/>
<path d="M672.373 1373.74L664.149 1363.58L654.767 1351.62C651.683 1347.44 648.342 1343.02 645.001 1338.35C629.532 1317.45 615.372 1295.74 602.593 1273.31C588.209 1247.68 575.339 1221.34 564.04 1194.41C553.402 1167.47 544.224 1140.06 536.539 1112.27C529.728 1085.61 523.688 1060.5 520.347 1038.86C512.379 995.58 508.395 966.049 498.886 966.049C492.075 966.049 487.834 996.656 492.974 1042.33C496.113 1068.25 501.397 1093.91 508.781 1119.08C517.494 1147.67 528.402 1175.64 541.422 1202.77C554.956 1230.06 570.456 1256.46 587.814 1281.8C602.975 1303.47 619.631 1324.19 637.676 1343.85C641.66 1348.16 645.386 1352.34 649.113 1355.81L659.908 1366.45L669.289 1375.78C672.373 1378.65 675.2 1381.04 677.771 1383.31L693.834 1397.54L679.698 1381.63C677.514 1379.6 674.943 1377.45 672.373 1373.74Z" fill="white"/>
<path d="M892.124 426.601C898.807 424.21 905.618 421.34 912.815 419.069L935.561 412.015C939.416 410.819 943.399 409.504 947.383 408.428L960.234 405.319C968.587 403.406 977.069 401.015 985.936 399.102C1022.55 391.557 1059.77 386.839 1097.23 384.994C1134.9 383.879 1172.6 385.758 1209.93 390.614C1218.92 391.929 1227.53 393.722 1235.63 395.157L1248.48 397.309C1252.72 398.146 1256.71 399.341 1260.69 400.298L1284.21 405.917C1291.79 407.83 1298.86 410.46 1305.8 412.493C1312.74 414.525 1319.29 416.678 1325.59 418.83L1342.93 425.644L1358.23 431.622C1362.98 433.535 1367.09 435.687 1371.08 437.481L1395.11 449.437L1372.36 435.926C1368.77 433.774 1364.91 431.264 1360.41 428.872L1345.51 421.579L1328.67 413.21C1322.63 410.46 1315.82 407.95 1309.27 405.08C1302.71 402.211 1295.51 399.222 1287.93 396.711L1264.54 389.059C1260.56 387.744 1256.45 386.309 1251.69 385.233L1238.84 382.006C1230.23 379.853 1221.37 377.343 1212.24 375.43C1174.21 367.807 1135.48 363.564 1096.58 362.757C1056.94 362.526 1017.37 366.011 978.483 373.158C969.358 374.951 960.363 377.343 951.624 379.375L938.773 382.603C934.532 383.799 930.42 385.233 925.922 386.549L902.277 394.32C894.566 396.95 887.498 400.298 880.687 403.167C873.876 406.037 867.193 408.787 861.154 411.775C855.114 414.764 849.459 417.993 844.319 420.982C839.178 423.971 834.167 426.72 829.669 429.351C825.694 431.942 821.875 434.736 818.231 437.72C804.609 448.241 798.184 455.653 800.754 459.24C805.766 465.218 838.921 446.448 892.124 426.601Z" fill="white"/>
<path d="M1617.95 1150.29L1619.87 1146.82C1625.01 1136.54 1630.54 1126.14 1635.17 1115.14C1639.79 1104.14 1644.29 1092.9 1648.02 1081.54C1651.74 1070.19 1655.73 1057.63 1658.68 1045.68C1665.17 1021.42 1669.47 996.707 1671.53 971.788C1673.59 946.877 1673.59 921.856 1671.53 896.945C1669.52 872.815 1665.7 848.845 1660.1 825.209C1654.67 803.303 1647.76 781.74 1639.41 760.648C1635.04 750.844 1631.31 741.04 1626.55 731.954L1621.03 718.683L1614.09 706.01C1599.29 679.426 1581.82 654.206 1561.91 630.688C1554.98 622.079 1549.06 615.862 1544.82 611.439L1538.53 604.743L1544.18 611.917C1547.91 616.58 1553.56 623.155 1559.86 632.242C1577.66 656.71 1593.02 682.642 1605.74 709.716L1611.78 722.628L1617.3 736.138C1621.29 745.225 1624.37 755.029 1627.97 764.952C1634.75 785.829 1640.15 807.07 1644.16 828.557C1648.26 851.494 1650.71 874.66 1651.49 897.901C1652.06 921.865 1650.81 945.836 1647.76 969.636C1645.08 989.786 1641 1009.75 1635.55 1029.42C1652.07 942.218 1643.95 852.522 1611.99 769.124C1580.02 685.727 1525.3 611.49 1453.2 553.695C1381.1 495.9 1294.09 456.531 1200.71 439.448C1107.33 422.365 1010.78 428.156 920.525 456.252L927.079 453.861C948.112 446.812 969.566 440.904 991.334 436.166C1049.63 424.067 1109.62 420.676 1169.06 426.123C1202.35 428.992 1229.98 433.655 1249.64 436.644C1257.33 437.912 1265.1 438.75 1272.9 439.155C1278.55 439.155 1281.89 438.318 1282.66 436.285C1283.44 434.253 1281.12 432.46 1276.37 429.71C1269.59 425.778 1262.4 422.493 1254.91 419.906C1228.28 410.477 1200.54 404.016 1172.27 400.657C1132.28 395.776 1091.79 395.535 1051.73 399.94C1029.16 402.576 1006.8 406.57 984.779 411.896C939.534 422.924 896.247 439.999 856.27 462.588C837.046 473.492 818.55 485.47 800.883 498.456C779.885 514.346 760.21 531.692 742.026 550.344C718.094 569.222 695.912 589.938 675.715 612.276C688.566 592.19 699.36 575.452 708.099 562.3C714.524 552.018 719.793 544.247 722.621 538.389C725.448 532.53 726.347 528.585 724.548 527.269C722.749 525.954 719.794 527.269 714.396 532.052C706.675 538.074 699.537 544.715 693.064 551.899C669.681 577.138 649.14 604.54 631.764 633.677C607.001 674.907 587.136 718.524 572.522 763.756C555.847 815.566 546.134 869.097 543.607 923.128C542.572 950.519 543.216 977.942 545.535 1005.26C548.08 1031.63 552.155 1057.86 557.743 1083.81C567.973 1129.64 583.172 1174.39 603.107 1217.36C617.259 1247.57 633.84 1276.75 652.712 1304.64C659.265 1314.8 665.563 1322.33 669.032 1327.71L674.944 1335.72L669.675 1327.36C666.205 1321.74 660.808 1313.85 655.025 1303.44C638.246 1274.73 623.73 1244.92 611.589 1214.25C599.655 1183.49 589.952 1152.01 582.546 1120.04C609.421 1186.51 650.911 1247.04 704.364 1297.74C757.817 1348.44 822.055 1388.21 892.971 1414.5C963.886 1440.78 1039.92 1453.01 1116.2 1450.4C1192.49 1447.79 1267.35 1430.39 1336 1399.33L1330.98 1402.2C1323.53 1406.38 1317.1 1409.85 1311.58 1412.6L1294.36 1421.21L1312.74 1414.75C1318.65 1412.84 1325.59 1410.09 1333.55 1406.74L1346.4 1401.6L1360.28 1395.26C1382.42 1385.09 1403.88 1373.67 1424.54 1361.07C1448.21 1346.52 1470.83 1330.55 1492.26 1313.25C1513.59 1295.56 1533.52 1276.46 1551.89 1256.1C1567.85 1238.27 1582.25 1219.28 1594.94 1199.31C1604.81 1183.94 1612.54 1167.47 1617.95 1150.29Z" fill="white"/>
<path d="M1858.26 884.749C1858.26 884.749 1888.2 876.619 1888.2 861.794C1888.2 846.969 1865.33 820.786 1854.66 806.08C1843.99 791.374 1807.11 774.875 1807.11 774.875C1807.11 774.875 1798.24 761.724 1787.71 760.05C1775.4 758.952 1763.05 758.434 1750.69 758.495C1750.69 758.495 1648.92 721.791 1604.84 723.465C1560.76 725.139 1513.08 760.648 1513.08 760.648C1513.08 760.648 1429.55 745.344 1397.42 769.973C1406.29 758.017 1378.02 705.89 1342.81 700.988C1307.59 696.086 1189.37 719.041 1189.37 719.041C1189.37 719.041 1194.63 697.76 1164.69 694.412C1136.2 693.886 1107.76 696.657 1080 702.662C1080 702.662 1021.79 615.025 995.317 611.677C968.844 608.33 910.63 668.229 910.63 668.229L829.54 646.828C829.54 646.828 757.189 618.971 725.448 627.22C718.38 625.546 589.613 579.397 564.94 577.962C532.983 579.064 501.156 582.341 469.714 587.766C469.714 587.766 416.768 568.039 399.163 573.06C381.072 580.054 363.839 588.832 347.759 599.243C342.681 598.446 337.472 598.778 332.559 600.212C327.645 601.646 323.166 604.141 319.487 607.493C306.636 619.449 285.946 669.783 285.946 669.783L233 709.237L261.272 740.442L312.676 704.575C312.676 704.575 323.213 730.758 348.016 722.628C372.818 714.498 414.969 674.804 414.969 674.804C434.927 673.004 455.025 673.004 474.983 674.804C496.187 678.032 510.195 702.662 543.736 709.237C568.667 712.375 594.04 710.125 617.885 702.662C617.885 702.662 626.624 771.527 762.458 788.026C764.257 794.602 755.39 891.325 785.462 934.007C780.064 938.909 811.806 1019.37 870.021 1044C870.021 1044 852.415 1068.63 891.225 1079.87C893.024 1088 851.001 1175.52 932.605 1199.43C876.06 1255.86 790.345 1265.54 715.038 1285.03C639.732 1304.52 563.14 1342.66 554.402 1368.72C545.663 1394.79 533.198 1422.76 527.929 1435.91C522.66 1449.07 520.861 1491.75 536.667 1511.48C552.474 1531.2 589.613 1526.18 589.613 1526.18C621.596 1538.47 655.562 1545.71 690.108 1547.58C748.322 1550.81 766.057 1537.66 788.931 1526.18C817.158 1514.77 846.13 1505.03 875.675 1497.01L902.019 1478.96C902.019 1478.96 1030.53 1616.81 1051.99 1611.9C1073.45 1607 1076.66 1588.95 1071.39 1570.9C1066.13 1552.84 968.587 1444.52 968.587 1444.52C968.587 1444.52 1044.41 1451.1 1071.39 1437.95C1078.46 1439.62 1148.5 1462.58 1186.02 1452.77C1178.96 1460.9 1143.75 1483.86 1140.15 1503.58C1136.55 1523.31 1168.42 1564.32 1168.42 1564.32C1168.42 1564.32 1140.15 1836.67 1163.15 1841.7C1186.15 1846.72 1230.1 1815.39 1240.26 1787.54C1247.07 1769.6 1237.04 1715.8 1229.08 1679.93C1223.96 1656.64 1226.6 1632.45 1236.66 1610.59C1262.76 1596.74 1290.05 1584.94 1318.26 1575.32C1338.31 1569.98 1357.4 1561.92 1374.93 1551.41C1391.16 1536.65 1406.27 1520.87 1420.17 1504.18C1435.6 1481 1448.03 1456.2 1457.18 1430.3C1457.18 1430.3 1518.86 1356.53 1525.93 1318.75C1533 1280.97 1531.33 1235.06 1508.33 1215.33C1500.86 1209.5 1492.03 1205.39 1482.55 1203.31C1473.06 1201.23 1463.18 1201.25 1453.71 1203.37C1453.71 1203.37 1420.17 1172.17 1391.9 1168.94C1368.06 1168.17 1344.24 1170.96 1321.35 1177.19L1226.12 1185.32C1226.12 1185.32 1257.86 1159.14 1259.66 1142.64C1261.46 1126.14 1291.4 1118.73 1289.6 1090.15C1287.82 1076.29 1289.62 1062.23 1294.87 1049.14C1294.87 1049.14 1335.48 977.407 1337.28 970.353C1345.71 955.104 1355.11 940.332 1365.42 926.117C1365.42 926.117 1453.71 916.193 1497.79 878.293C1518.86 870.044 1578.88 870.044 1614.22 847.088C1628.23 843.741 1695.31 822.459 1695.31 822.459L1756.99 842.186C1756.99 842.186 1781.79 891.325 1792.33 897.901C1801.7 901.873 1812.16 903.043 1822.27 901.248L1871.75 949.072L1898.22 931.018L1858.26 884.749Z" fill="#6C0204"/>
<path d="M1453.97 1203.13C1453.97 1203.13 1420.43 1171.93 1392.15 1168.7C1368.31 1167.93 1344.5 1170.72 1321.6 1176.95L1226.38 1185.08C1226.38 1185.08 1229.2 1182.81 1233.06 1179.1C1227.1 1181.44 1221.45 1184.41 1216.22 1187.95C1212.1 1190.81 1208.24 1193.96 1204.66 1197.4C1202.6 1199.43 1205.94 1202.54 1208 1200.5L1211.6 1197.4C1210.57 1199.07 1212.63 1201.7 1214.68 1200.38C1227.46 1193.29 1242.61 1190.82 1257.22 1193.45C1272.21 1195.85 1287.37 1197.25 1302.58 1197.63C1320.45 1196.92 1337.79 1192.02 1355.66 1191.18C1372.39 1190.49 1389.12 1192.47 1405.13 1197.04C1431.73 1204.69 1460.39 1222.38 1466.69 1249.4C1468.36 1255.44 1468.36 1261.78 1466.69 1267.81C1463.84 1274.27 1460.63 1280.57 1457.05 1286.71C1455.68 1289.61 1454.98 1292.74 1454.98 1295.91C1454.98 1299.08 1455.68 1302.21 1457.05 1305.12C1460.79 1311.68 1465.09 1317.96 1469.9 1323.89C1480.09 1337.75 1486.33 1353.8 1488.02 1370.52C1488.62 1378.02 1487.5 1385.56 1484.73 1392.63C1481.96 1399.7 1477.61 1406.14 1471.96 1411.52C1471.67 1411.86 1471.51 1412.29 1471.51 1412.72C1471.51 1413.15 1471.67 1413.58 1471.96 1413.92C1490.33 1390 1523.36 1344.93 1528.12 1318.27C1535.18 1280.49 1533.51 1234.58 1510.51 1214.85C1502.81 1208.79 1493.64 1204.55 1483.79 1202.51C1473.94 1200.47 1463.71 1200.68 1453.97 1203.13Z" fill="#AF1B23"/>
<path d="M998.401 1201.58C970.258 1185.92 925.665 1162.36 954.966 1082.02C954.966 1080.83 851.515 1030.01 851.258 1034.2C857.228 1038.35 863.645 1041.92 870.406 1044.84C870.406 1044.84 852.8 1069.47 891.61 1080.71C893.409 1088.84 851.387 1176.35 932.99 1200.26C876.446 1256.7 790.73 1266.38 715.424 1285.87C640.118 1305.36 567.381 1350.07 558.514 1376.37C549.647 1402.68 531.399 1403.63 528.315 1436.99C527.029 1450.98 521.246 1492.82 537.053 1512.55C552.86 1532.28 589.999 1527.26 589.999 1527.26C589.999 1527.26 596.425 1530.01 607.605 1533.47C594.073 1527.26 581.878 1518.79 571.622 1508.49C565.591 1502.05 561.471 1494.26 559.671 1485.89C558.226 1475.3 559.594 1464.55 563.655 1454.57C567.381 1443.57 572.136 1432.81 574.706 1421.45C576.311 1425.91 578.513 1430.17 581.26 1434.12C585.026 1439.83 590.037 1444.73 595.97 1448.52C601.903 1452.31 608.625 1454.9 615.701 1456.12C619.285 1456.54 622.911 1456.54 626.495 1456.12C629.451 1456.12 629.451 1451.34 626.495 1451.7C619.332 1452.28 612.127 1451.17 605.546 1448.47C598.965 1445.77 593.22 1441.58 588.842 1436.27C584.02 1430.9 580.483 1424.64 578.467 1417.9C576.45 1411.16 576.001 1404.09 577.148 1397.18C582.288 1366.33 611.46 1345.05 641.403 1334.05C658.696 1328.01 676.433 1323.14 694.477 1319.46C713.753 1315.16 733.03 1310.38 751.792 1305.24C770.554 1300.1 790.345 1294.24 808.85 1288.14C824.143 1283.12 839.307 1277.98 853.957 1271.64C882.664 1260.91 907.68 1243.09 926.308 1220.11L928.75 1216.64L933.247 1218.56L970.001 1234.1L1052.5 1269.01C1053.92 1269.61 1069.72 1273.91 1069.6 1272.12C1065.48 1241.15 1024.49 1216.17 998.401 1201.58Z" fill="#AF1B23"/>
<path d="M1604.84 723.465C1560.76 725.019 1513.08 760.647 1513.08 760.647C1513.08 760.647 1429.55 745.344 1397.42 769.973C1406.29 758.017 1378.02 705.89 1342.81 700.988C1307.59 696.086 1189.37 719.041 1189.37 719.041C1189.37 719.041 1194.63 697.759 1164.69 694.412C1136.2 693.886 1107.76 696.657 1080 702.661C1080 702.661 1021.79 615.025 995.317 611.677C968.844 608.33 910.629 668.228 910.629 668.228L829.54 646.828C829.54 646.828 757.189 618.97 725.448 627.22C718.38 625.546 589.613 579.397 564.94 577.962C538.428 578.428 512 580.867 485.906 585.255C486.171 585.628 486.387 586.03 486.549 586.45C486.845 587.912 486.845 589.413 486.549 590.874C484.107 589.2 481.794 592.907 484.236 594.581C483.692 594.941 483.04 595.135 482.372 595.135C481.704 595.135 481.053 594.941 480.509 594.581C477.682 593.505 475.368 597.211 478.067 598.406C479.701 599.11 481.528 599.326 483.3 599.027C485.071 598.727 486.699 597.926 487.962 596.733C508.01 607.971 532.812 603.547 555.044 600.319C569.587 597.555 584.515 596.99 599.251 598.645C612.423 601.138 625.145 605.365 637.033 611.199C661.45 622.557 684.325 636.904 711.44 642.165C726.861 645.154 742.796 645.991 758.217 648.621C773.637 651.464 788.617 656.082 802.81 662.37C832.527 676.497 860.567 693.488 886.47 713.063C886.902 713.346 887.418 713.498 887.947 713.498C888.476 713.498 888.993 713.346 889.426 713.063C914.228 690.108 949.568 660.457 987.606 665.957C1019.35 670.5 1034.9 698.955 1053.02 720.237C1061.91 731.92 1074.15 741.036 1088.36 746.539C1088.65 746.611 1088.96 746.628 1089.26 746.588C1089.57 746.549 1089.86 746.455 1090.12 746.31C1090.38 746.166 1090.61 745.974 1090.79 745.747C1090.98 745.519 1091.11 745.261 1091.18 744.985C1094.27 731.236 1110.72 728.008 1123.83 729.084C1140.4 730.519 1154.28 740.442 1169.58 746.061C1177.35 749.179 1185.81 750.492 1194.25 749.887C1201.57 748.692 1208.67 746.517 1215.32 743.431C1222.61 739.382 1231 737.388 1239.48 737.692C1249.12 739.486 1251.56 748.692 1255.42 755.626C1268.27 779.538 1301.94 772.364 1325.46 773.56C1333.42 773.725 1341.27 775.308 1348.59 778.223C1356.17 781.57 1362.73 786.472 1369.92 790.178C1375.74 793.724 1382.3 796.08 1389.16 797.09C1396.03 798.1 1403.05 797.741 1409.76 796.037C1424.84 791.414 1439.6 785.944 1453.97 779.657C1461.36 776.789 1469.23 775.131 1477.23 774.755C1486.81 775.106 1496.3 776.757 1505.37 779.657C1513.67 782.098 1522.4 782.991 1531.07 782.287C1539.41 780.971 1547.5 778.556 1555.1 775.114C1564.27 771.207 1573.89 768.279 1583.76 766.386C1593.61 764.877 1603.59 764.197 1613.58 764.354C1647.5 764.354 1683.48 770.571 1715.23 755.865C1718.88 754.115 1722.36 752.075 1725.64 749.768C1691.71 739.007 1634.91 722.269 1604.84 723.465Z" fill="#AF1B23"/>
<path d="M1364.01 1346.6C1358.82 1350.87 1352.37 1353.6 1345.5 1354.43C1338.63 1355.26 1331.65 1354.16 1325.46 1351.27C1323.15 1349.9 1321.17 1348.12 1319.63 1346.02C1318.09 1343.92 1317.02 1341.56 1316.49 1339.06C1315.96 1336.57 1315.98 1334 1316.55 1331.52C1317.12 1329.03 1318.23 1326.68 1319.8 1324.6C1320.09 1324.42 1320.33 1324.17 1320.5 1323.88C1320.66 1323.58 1320.75 1323.26 1320.75 1322.93C1320.75 1322.6 1320.66 1322.28 1320.5 1321.99C1320.33 1321.69 1320.09 1321.44 1319.8 1321.26C1299.5 1311.45 1278.94 1329.99 1271.87 1346.48C1267.24 1357.12 1265.19 1368.48 1261.07 1379.24C1259.11 1384.49 1256.34 1389.44 1252.85 1393.95C1249.38 1398.37 1244.88 1401.96 1241.67 1406.62C1238.67 1411.33 1237.07 1416.69 1237.04 1422.16C1237.32 1425.13 1236.83 1428.12 1235.6 1430.87C1234.37 1433.61 1232.44 1436.04 1229.98 1437.95C1224.72 1441.15 1219.22 1443.98 1213.53 1446.43C1207.61 1449.18 1201.7 1451.82 1195.92 1454.8C1175.23 1465.21 1153.64 1480.27 1148.76 1502.63C1146.85 1514.23 1149.15 1526.1 1155.31 1536.34C1160.97 1545.37 1165.54 1554.95 1168.93 1564.92C1167.01 1583.93 1141.69 1836.32 1163.79 1841.1C1167.28 1841.7 1170.85 1841.7 1174.33 1841.1L1174.97 1839.07C1177.04 1829.25 1178.2 1819.29 1178.44 1809.3C1179.09 1798.53 1179.34 1787.66 1178.44 1776.78C1177.65 1755.23 1175.12 1733.77 1170.86 1712.57C1168.8 1701.81 1166.75 1691.05 1165.59 1680.17C1164.69 1669.47 1164.69 1658.71 1165.59 1648.01C1166.88 1626.49 1170.48 1604.97 1170.09 1583.45C1170.09 1578.67 1170.09 1573.88 1169.19 1569.22H1170.22C1170.22 1569.22 1170.22 1570.18 1170.22 1570.66C1170.22 1573.41 1175.23 1573.41 1174.97 1570.66L1174.2 1566.47C1175.74 1568.38 1179.34 1566.47 1178.06 1563.96C1165.21 1541.36 1181.53 1516.14 1200.67 1501.43C1222.26 1485.65 1249.12 1477.52 1271.61 1463.53C1282.45 1456.92 1291.65 1448.24 1298.6 1438.07C1299.81 1436.86 1300.65 1435.37 1301.04 1433.76C1301.04 1431.49 1297.96 1429.82 1296.67 1432.09C1296.15 1433.16 1295.55 1434.2 1294.87 1435.2C1293.8 1435.95 1292.56 1436.45 1291.24 1436.65C1289.92 1436.86 1288.56 1436.77 1287.29 1436.39C1281.76 1434.96 1280.35 1428.98 1280.86 1424.44C1282.73 1415.24 1287.73 1406.86 1295.13 1400.52C1310.04 1388.8 1326.19 1378.51 1343.32 1369.8C1352.5 1364.42 1360.66 1357.67 1367.48 1349.83C1368.76 1348.28 1366.84 1344.93 1364.01 1346.6Z" fill="#AF1B23"/>
<path d="M1026.16 496.662C1048.9 482.196 1059.06 459.24 1048.91 445.372C1038.75 431.503 1012.02 432.101 989.277 446.567C966.53 461.034 956.378 483.989 966.531 497.858C976.683 511.727 1004.18 511.248 1026.16 496.662Z" fill="black"/>
<path d="M1100.57 426.601C1116.24 416.678 1123.18 400.896 1116.24 391.451C1109.3 382.006 1090.54 382.245 1075.25 392.168C1059.96 402.091 1052.63 417.873 1059.7 427.438C1066.77 437.002 1085.02 436.524 1100.57 426.601Z" fill="black"/>
<path d="M1479.67 424.449C1495.22 414.526 1502.16 398.744 1495.22 389.179C1488.28 379.615 1469.52 380.093 1454.35 390.016C1439.19 399.94 1431.73 415.721 1438.67 425.884C1445.61 436.046 1463.6 434.372 1479.67 424.449Z" fill="black"/>
<path d="M1538.53 939.268C1522.98 949.191 1516.04 964.973 1522.98 974.418C1529.92 983.863 1548.68 983.624 1563.97 973.581C1579.26 963.538 1586.46 947.876 1579.52 938.431C1572.58 928.986 1554.2 929.225 1538.53 939.268Z" fill="black"/>
<path d="M1490.46 703.499C1506.14 693.456 1513.08 677.793 1506.01 668.229C1498.94 658.664 1480.31 659.142 1465.15 669.066C1449.98 678.989 1442.53 694.771 1449.6 704.216C1456.67 713.661 1474.91 713.422 1490.46 703.499Z" fill="black"/>
<path d="M727.247 542.573C711.698 552.616 704.629 568.278 711.697 578.44C718.765 588.603 737.4 587.527 752.564 577.603C767.728 567.68 775.181 551.898 768.113 542.453C761.045 533.008 742.797 532.649 727.247 542.573Z" fill="black"/>
<path d="M1099.54 475.142C1104.04 481.239 1115.73 481 1125.24 475.142C1134.75 469.284 1139.63 458.762 1135.14 452.665C1130.64 446.567 1118.94 446.806 1109.43 452.665C1099.92 458.523 1095.04 468.805 1099.54 475.142Z" fill="black"/>
<path d="M1374.42 564.452C1384.31 557.996 1388.81 547.953 1384.31 541.855C1379.82 535.758 1368.12 535.997 1358.61 541.855C1349.1 547.714 1344.22 558.355 1348.72 564.452C1353.22 570.55 1364.01 571.028 1374.42 564.452Z" fill="black"/>
<path d="M1421.33 531.932C1428.65 527.269 1432.63 520.693 1430.06 517.226C1427.49 513.759 1419.53 514.715 1412.2 519.378C1404.88 524.041 1400.89 531.334 1403.46 534.084C1406.03 536.834 1414 536.595 1421.33 531.932Z" fill="black"/>
<path d="M923.48 458.045C930.805 453.382 934.789 446.806 932.219 443.339C929.648 439.872 921.681 440.948 914.356 445.611C907.031 450.274 903.047 456.849 905.617 460.317C908.187 463.784 916.155 462.827 923.48 458.045Z" fill="black"/>
<path d="M1267.5 556.8C1274.82 552.137 1278.68 545.562 1276.11 542.094C1273.54 538.627 1265.57 539.703 1258.25 544.366C1250.92 549.029 1246.94 555.604 1249.51 559.072C1252.08 562.539 1260.05 561.582 1267.5 556.8Z" fill="black"/>
<path d="M826.328 556.561C819.003 561.224 815.147 567.919 817.717 571.267C820.288 574.614 828.255 573.777 835.58 569.114C842.905 564.452 846.761 557.876 844.319 554.409C841.877 550.942 833.653 552.496 826.328 556.561Z" fill="black"/>
<path d="M1461.93 938.192C1469.26 933.529 1473.24 926.834 1470.67 923.367C1468.1 919.9 1460.13 920.976 1452.68 925.638C1445.23 930.301 1441.5 936.877 1444.07 940.344C1446.64 943.811 1454.61 942.855 1461.93 938.192Z" fill="black"/>
<path d="M965.632 1295.19C964.531 1293.19 963.195 1291.3 961.648 1289.57C962.419 1291.74 963.793 1293.68 965.632 1295.19Z" fill="black"/>
<path d="M1175.36 1576.99C1176.73 1577.38 1178.21 1577.32 1179.54 1576.82C1180.87 1576.32 1181.98 1575.41 1182.68 1574.24C1183.35 1572.75 1183.35 1571.07 1182.68 1569.58C1182.68 1568.74 1181.78 1568.39 1181.01 1567.91C1176.13 1561.69 1170.6 1554.88 1165.72 1547.46C1159.75 1539 1155.61 1529.54 1153.51 1519.61C1152.39 1514.64 1152.34 1509.52 1153.35 1504.53C1154.36 1499.54 1156.43 1494.79 1159.42 1490.55C1161.01 1488.33 1162.86 1486.28 1164.95 1484.46C1167.01 1482.42 1169.45 1480.75 1171.76 1478.84C1176.78 1475.28 1182.16 1472.2 1187.82 1469.63C1199.82 1464.72 1212.3 1460.92 1225.09 1458.27C1237.94 1455.28 1250.79 1452.77 1262.49 1449.54C1273.91 1446.74 1284.95 1442.73 1295.39 1437.59C1304.26 1432.85 1312.14 1426.65 1318.65 1419.3C1310.68 1424.32 1302.04 1428.34 1292.94 1431.25C1282.24 1434.45 1271.29 1436.85 1260.17 1438.43L1251.44 1439.62C1251.14 1424.94 1256.42 1410.63 1266.34 1399.21C1272.77 1396.1 1279.19 1393.23 1286.13 1390.36C1306.92 1382.65 1327.18 1373.74 1346.79 1363.7C1363.01 1355.39 1377.12 1343.93 1388.17 1330.11C1373.53 1339.54 1357.74 1347.32 1341.14 1353.3C1328.28 1358.32 1313.63 1362.98 1298.47 1368.48C1292.69 1362.13 1289.46 1354.1 1289.35 1345.77C1289.22 1343.74 1289.22 1341.7 1289.35 1339.67C1293.09 1336.31 1297.09 1333.19 1301.3 1330.34C1307.98 1325.8 1315.3 1321.74 1322.5 1317.79C1329.7 1313.85 1336.77 1309.78 1343.32 1305.83C1354.96 1298.88 1366.12 1291.26 1376.73 1283C1363.35 1286.39 1350.21 1290.58 1337.41 1295.55C1330.21 1298.3 1322.76 1301.29 1314.92 1304.64C1310.46 1306.63 1305.84 1308.9 1301.04 1311.45L1301.94 1310.14C1292.95 1313.53 1283.6 1316.05 1274.05 1317.67C1307.86 1291.2 1343.82 1267.22 1381.62 1245.94C1361.46 1251.15 1341.98 1258.41 1323.53 1267.58C1308.7 1274.95 1294.48 1283.34 1280.99 1292.68L1283.69 1289.93C1298.77 1273.99 1313.51 1260 1327.9 1247.97C1342.16 1236.01 1356.04 1224.77 1368.51 1215.33C1349.09 1215.59 1329.98 1219.92 1312.61 1228C1293.7 1236.85 1276.58 1248.66 1261.97 1262.91C1266.34 1255.86 1270.58 1248.92 1274.82 1242.47C1285.31 1224.62 1299.2 1208.7 1315.82 1195.48C1304.92 1197.01 1294.44 1200.5 1284.98 1205.76C1273.99 1211.97 1263.92 1219.49 1255.03 1228.12C1246.8 1236.11 1239.12 1244.58 1232.03 1253.47C1239.87 1234.34 1246.04 1217.6 1251.56 1201.94C1235.43 1213.85 1221.27 1227.91 1209.54 1243.66C1195.92 1260.88 1183.2 1280.37 1169.06 1299.14C1167.01 1301.89 1164.82 1304.64 1162.64 1307.27C1140.52 1315.55 1116.63 1318.88 1092.88 1316.99C1069.13 1315.1 1046.18 1308.04 1025.9 1296.39C1022.05 1293.4 1018.19 1290.17 1014.34 1286.82C1014.03 1285.38 1013.27 1284.04 1012.15 1283C1011.03 1281.96 1009.6 1281.25 1008.04 1280.97C1004.06 1277.02 1000.2 1272.96 996.345 1269.01C988.634 1260.28 981.566 1251.32 975.141 1242.47C971.285 1237.09 967.559 1231.71 963.704 1226.45L966.402 1228.24C975.141 1233.98 984.265 1240.2 993.903 1246.77C1003.52 1253.13 1013.71 1258.69 1024.36 1263.39C1034.57 1267.9 1045.51 1270.81 1056.74 1272C1066.86 1273.19 1077.14 1272.46 1086.94 1269.85C1095.23 1267.55 1102.81 1263.46 1109.05 1257.89C1101.65 1260.93 1093.73 1262.71 1085.66 1263.15C1079.81 1263.38 1073.95 1263.02 1068.18 1262.08C1064.28 1254.28 1059.22 1247.04 1053.15 1240.56C1045.63 1232.78 1037.37 1225.66 1028.47 1219.27C1008.13 1206.25 989.078 1191.57 971.542 1175.4C961.692 1165.2 954.755 1152.87 951.367 1139.53C959.334 1142.16 967.816 1144.67 977.069 1146.82C1004.31 1153.41 1032.53 1155.8 1060.6 1153.88C1088.73 1151.8 1116.15 1144.61 1141.3 1132.71C1161.58 1123.24 1179.69 1110.21 1194.63 1094.34C1177.88 1107.97 1158.99 1119.13 1138.6 1127.45C1113.63 1137.64 1087.01 1143.86 1059.83 1145.87C1032.56 1147.74 1005.15 1146.13 978.353 1141.08C968.587 1139.29 959.206 1137.26 950.467 1134.99C949.051 1128.62 948.447 1122.12 948.668 1115.62C949.095 1105.38 951.174 1095.27 954.836 1085.61C974.688 1090.92 995.223 1093.69 1015.88 1093.86C1055.75 1094.32 1095.24 1086.61 1131.54 1071.26C1101.85 1073.53 1061.24 1078.31 1016.52 1077.96C997.466 1077.73 978.448 1076.33 959.591 1073.77C960.619 1071.38 961.519 1068.99 962.418 1066.72C985.949 1069.55 1009.79 1069.23 1033.23 1065.76C1058.01 1062 1082.03 1054.7 1104.42 1044.12C1122.37 1035.67 1138.91 1024.84 1153.51 1011.96C1135.92 1020.06 1117.86 1027.25 1099.41 1033.48C1076.96 1040.83 1053.87 1046.39 1030.4 1050.1C1006.9 1053.5 983.116 1054.98 959.334 1054.52C939.724 1054.04 920.159 1052.53 900.734 1049.98C918.989 1057.91 938.38 1063.35 958.306 1066.12H960.619C958.948 1068.27 957.149 1070.54 955.479 1072.93H954.065C936.989 1070.42 920.083 1066.99 903.433 1062.65C917.244 1071.71 932.453 1078.76 948.54 1083.58C939.517 1097.64 935.054 1113.83 935.689 1130.2C928.235 1128.05 921.296 1125.78 914.742 1123.63C921.167 1126.74 928.235 1129.84 935.946 1132.95C936.356 1138.81 937.389 1144.62 939.03 1150.29C940.847 1156.62 943.48 1162.72 946.869 1168.46C948.551 1171.47 950.485 1174.35 952.652 1177.07C954.694 1179.87 956.926 1182.54 959.334 1185.08C968.622 1194.61 979.206 1202.97 990.819 1209.95C1001.61 1216.76 1012.15 1221.9 1022.05 1228C1031.39 1233.04 1040.4 1238.59 1049.03 1244.62C1055.97 1249.53 1062.39 1255.06 1068.18 1261.12C1065.32 1260.71 1062.49 1260.15 1059.7 1259.45C1050.15 1257.04 1040.96 1253.54 1032.33 1249.04C1022.75 1244.03 1013.48 1238.52 1004.57 1232.55C995.06 1226.45 985.678 1220.59 975.912 1214.73C966.665 1209.58 957.047 1205.02 947.126 1201.1L938.387 1197.39L933.761 1193.93C930.1 1191.69 926.229 1189.77 922.195 1188.19C915.757 1182.26 909.787 1175.91 904.332 1169.18C901.357 1165.29 899.218 1160.91 898.035 1156.27C897.076 1150.94 896.688 1145.53 896.879 1140.13C896.879 1128.17 896.879 1116.21 896.879 1105.57C897.099 1098.48 897.829 1091.41 899.063 1084.41L903.818 1085.25C910.109 1086.29 916.547 1086.29 922.838 1085.25C912.866 1077.8 902.439 1070.89 891.61 1064.57C883.896 1059.34 877.458 1052.66 872.719 1044.96L875.418 1045.91L871.562 1042.81L870.02 1039.22L868.992 1040.77C704.629 906.628 824.528 693.216 885.313 662.131C895.337 664.044 904.589 665.598 912.942 666.794C858.012 635.776 794.012 621.559 729.945 626.144L681.754 603.906C661.438 594.389 640.338 586.393 618.656 579.994C596.263 573.338 572.706 570.74 549.261 572.343C535.893 573.566 522.851 576.923 510.708 582.266C489.376 585.016 470.999 588.005 470.999 588.005H470.228C570.594 512.085 861.667 292.695 879.402 286C778.393 294.489 501.584 511.966 423.707 574.614C416.136 572.654 408.19 572.286 400.447 573.538C382.356 580.532 365.123 589.31 349.043 599.722C343.966 598.924 338.757 599.256 333.844 600.69C328.93 602.124 324.451 604.619 320.772 607.971C307.921 619.927 287.231 670.381 287.231 670.381L233.128 709.237L261.4 740.442L312.804 704.574C312.804 704.574 323.342 730.877 348.144 722.628C372.946 714.378 415.097 674.804 415.097 674.804C432.871 673.286 450.744 673.047 468.557 674.087L475.111 674.924C496.315 678.152 510.323 702.781 543.864 709.357C568.795 712.494 594.168 710.244 618.014 702.781C618.014 702.781 626.752 771.647 762.587 788.146C762.587 788.146 740.74 832.861 760.145 914.4C777.237 986.733 842.134 1030.85 867.322 1043.16C865.255 1047.92 864.938 1053.17 866.422 1058.11C868.597 1065.98 873.638 1072.91 880.687 1077.72C884.896 1080.5 889.531 1082.68 894.437 1084.17C889.664 1090.32 886.097 1097.2 883.899 1104.5C880.458 1116.18 878.814 1128.26 879.016 1140.37C878.865 1147.29 879.906 1154.19 882.1 1160.81C884.833 1167.22 889.252 1172.9 894.951 1177.31C898.912 1180.3 903.223 1182.87 907.802 1184.96C910.707 1188.74 914.023 1192.22 917.697 1195.36C921.792 1198.76 926.082 1201.96 930.548 1204.93C922.965 1210.98 914.935 1216.54 906.517 1221.55C884.826 1234.1 861.392 1243.83 836.865 1250.48C807.565 1259.09 772.61 1265.18 736.371 1274.39C717.638 1278.72 699.258 1284.27 681.369 1291.01C663.138 1297.87 645.52 1306.07 628.68 1315.52C612.036 1324.82 596.183 1335.29 581.26 1346.84L574.963 1352.34C578.1 1347.16 581.944 1342.38 586.4 1338.12C578.651 1341.66 571.847 1346.77 566.481 1353.06C560.268 1360.67 555.885 1369.44 553.63 1378.77C550.682 1389.43 550.682 1400.62 553.63 1411.29C555.317 1417.05 557.869 1422.56 561.212 1427.66C564.586 1432.82 568.693 1437.52 573.421 1441.65C591.387 1456.51 614.419 1464.98 638.447 1465.56C656.275 1464.86 673.764 1460.8 689.85 1453.61C690.878 1452.89 689.85 1452.77 685.867 1453.61C671.192 1455.92 656.205 1455.92 641.531 1453.61C629.446 1451.57 617.781 1447.78 606.962 1442.37C594.178 1436.14 583.065 1427.32 574.449 1416.55C572.394 1413.46 570.713 1410.17 569.437 1406.74C566.77 1399.44 565.593 1391.73 565.967 1384.03C566.703 1381.4 567.692 1378.84 568.923 1376.37C572.954 1369.4 578.259 1363.13 584.601 1357.84C591.336 1352.06 598.415 1346.63 605.805 1341.58C636.522 1320.82 670.334 1304.35 706.171 1292.68C741.768 1281.33 777.751 1274.75 808.978 1266.74C836.283 1260.37 862.683 1251.02 887.626 1238.88C900.883 1232.4 913.192 1224.36 924.251 1214.97C927.207 1212.22 929.52 1209.95 931.319 1207.92C930.485 1212.62 930.183 1217.38 930.42 1222.14C930.848 1233.06 933.463 1243.8 938.13 1253.83C942.807 1263.83 949.429 1272.95 957.664 1280.73C964.274 1287.1 972.181 1292.18 980.924 1295.67C970.982 1280.21 961.972 1264.24 953.937 1247.85C948.668 1236.49 944.427 1225.61 941.086 1215.57C942.628 1217.72 944.17 1220.11 945.584 1222.5C950.853 1230.99 955.864 1240.32 962.033 1250.12C968.269 1260.33 975.45 1270.01 983.494 1279.05C990.203 1286.57 997.598 1293.53 1005.6 1299.86C1001.61 1300.85 997.513 1301.37 993.389 1301.41C989.842 1301.82 986.324 1302.42 982.851 1303.2C948.154 1290.53 917.44 1276.54 893.923 1267.93C915.811 1287.43 941.102 1303.32 968.715 1314.92C968.399 1317.77 967.388 1320.51 965.76 1322.93C962.769 1327.81 958.299 1331.76 952.909 1334.29L944.555 1332.5C917.853 1325.78 890.532 1321.42 862.952 1319.46C840.318 1317.88 817.601 1321.28 796.642 1329.39C818.28 1326.83 840.213 1327.4 861.667 1331.06C885.827 1334.77 912.171 1341.7 940.572 1348.04L955.222 1351.03C956.421 1353.92 956.732 1357.07 956.122 1360.11C955.066 1364.97 952.025 1369.26 947.64 1372.07L930.162 1365.37C906.093 1355.3 880.81 1347.96 854.856 1343.5C843.337 1341.8 831.628 1341.52 820.03 1342.66C810.147 1343.64 800.482 1346.01 791.373 1349.71C811.85 1347.59 832.578 1349.38 852.286 1354.97C876.563 1362.05 900.378 1370.43 923.609 1380.08C938.382 1385.97 953.584 1390.89 969.101 1394.79C969.501 1395.72 969.844 1396.68 970.129 1397.66C946.716 1398.04 923.298 1397.32 899.963 1395.5C863.852 1392.75 828.897 1388.69 796.513 1386.78C767.826 1384.7 738.99 1385.22 710.412 1388.33C733.929 1395.03 761.816 1402.44 792.658 1409.85C820.314 1416.56 848.38 1421.71 876.703 1425.27C868.478 1425.27 860.125 1425.27 851.001 1425.27C811.291 1423.84 773.895 1419.42 738.298 1415.23C702.701 1411.05 671.473 1407.22 644.615 1405.79C673.122 1418.71 702.686 1429.5 733.029 1438.07C770.895 1449.02 810.106 1455.45 849.716 1457.2C870.687 1457.91 891.683 1456.79 912.428 1453.85L902.148 1455.88C873.875 1461.02 842.776 1465.92 809.878 1469.99C776.98 1474.05 745.623 1476.21 716.837 1478L639.732 1481.82C664.374 1491.52 690.31 1498.07 716.837 1501.31C749.508 1505.33 782.604 1505.33 815.275 1501.31C842.041 1498.11 868.363 1492.26 893.794 1483.86C878.724 1491.97 863.146 1499.23 847.146 1505.62C819.671 1516.6 791.026 1524.86 761.687 1530.25C746.525 1532.92 731.205 1534.76 715.809 1535.75C701.535 1536.89 687.191 1537.09 672.887 1536.34C652.512 1535.48 632.382 1531.85 613.13 1525.58C621.754 1521.1 629.42 1515.18 635.748 1508.13C623.102 1514.27 609.404 1518.31 595.267 1520.08C579.367 1522.24 563.188 1518.55 550.161 1509.8C543.845 1505.15 538.748 1499.22 535.254 1492.47C532.103 1485.86 530.315 1478.76 529.985 1471.54C529.644 1463.19 530.16 1454.82 531.527 1446.55C533.645 1449.82 536.288 1452.76 539.366 1455.28C543.398 1458.73 547.997 1461.55 552.988 1463.65C561.106 1467.05 569.809 1469.07 578.69 1469.63C568.666 1459.59 551.317 1449.42 544.635 1434.84C542.907 1431.37 541.863 1427.65 541.55 1423.84C540.587 1420.39 540.587 1416.77 541.55 1413.32C542.964 1409.73 545.277 1405.9 546.819 1401.96C548.498 1398.18 548.901 1394.01 547.976 1390C544.635 1396.46 537.824 1399.33 530.884 1406.98C526.959 1411.48 524.585 1416.98 524.073 1422.76C523.663 1428.7 524.764 1434.64 527.286 1440.1C521.727 1449.52 518.068 1459.82 516.491 1470.47C515.2 1479.53 516.258 1488.76 519.575 1497.37C523.474 1506.79 530.047 1515.06 538.595 1521.28C547.224 1527.46 557.473 1531.38 568.28 1532.64C577.89 1533.76 587.647 1533.03 596.938 1530.48C601.353 1529.22 605.651 1527.62 609.789 1525.7C616.714 1529.88 624.025 1533.49 631.636 1536.46C644.231 1541.26 657.385 1544.67 670.831 1546.63C685.743 1548.83 700.843 1549.75 715.938 1549.38C732.198 1548.99 748.399 1547.39 764.386 1544.59C795.126 1539.04 824.714 1528.95 852.029 1514.7C871.287 1504.89 889.122 1492.84 905.103 1478.84L909.858 1477.04C917.055 1474.29 923.866 1471.42 930.42 1468.43C996.473 1486.49 1044.15 1532.4 1073.71 1589.43C1074.39 1583.15 1073.74 1576.81 1071.78 1570.78C1066.9 1553.92 981.823 1458.75 970.771 1445.84L972.699 1444.64C987.221 1445.72 1048.52 1449.42 1071.78 1437.83C1078.85 1439.5 1148.89 1462.46 1186.41 1452.65L1185.64 1453.49L1181.27 1455.28C1174.3 1458.52 1167.78 1462.53 1161.86 1467.24C1158.97 1469.47 1156.22 1471.87 1153.64 1474.41C1151.04 1477.07 1148.72 1479.96 1146.7 1483.02C1142.69 1489.19 1140.31 1496.15 1139.76 1503.35C1139.27 1509.88 1140.05 1516.44 1142.07 1522.71C1145.79 1533.67 1152.22 1543.66 1160.84 1551.89C1164.82 1556.14 1169.11 1560.14 1173.69 1563.84C1171.25 1562.77 1169.45 1562.65 1168.03 1563.84C1167.29 1565.02 1166.89 1566.36 1166.89 1567.73C1166.89 1569.09 1167.29 1570.44 1168.03 1571.61C1168.76 1572.95 1169.79 1574.13 1171.06 1575.06C1172.32 1575.99 1173.79 1576.65 1175.36 1576.99ZM734.314 686.282C703.729 662.37 696.661 673.13 654.253 666.555C611.845 659.979 630.736 622.796 630.736 622.796C616.288 639.694 597.75 653.173 576.634 662.131C543.735 675.283 525.23 653.403 494.387 644.676C487.144 642.621 479.759 641.023 472.284 639.893C478.374 618.793 491.57 600.064 509.937 586.451C522.621 584.089 535.572 583.205 548.49 583.82C570.313 585.091 591.89 588.825 612.745 594.939C635.105 601.395 656.309 609.047 676.228 615.025C692.934 620.466 710.14 624.468 727.632 626.981C750.892 633.915 783.276 641.208 819.002 649.099L834.295 652.447C806.904 678.96 785.879 710.584 772.61 745.224C764.677 723.188 751.599 703.06 734.314 686.282Z" fill="black"/>
<path d="M1538.65 1242.11C1536.34 1237.36 1533.45 1232.86 1530.04 1228.72C1528.63 1226.93 1527.09 1225.25 1525.55 1223.58C1521.14 1217.65 1515.04 1212.97 1507.94 1210.07V1210.9C1507.43 1210.52 1506.87 1210.2 1506.27 1209.95C1498.06 1205.42 1488.9 1202.56 1479.41 1201.58C1471.34 1200.75 1463.18 1201.78 1455.64 1204.57C1449.99 1195.13 1442.18 1186.97 1432.76 1180.66C1420.15 1172.12 1405.37 1166.79 1389.86 1165.17C1374.36 1163.56 1358.68 1165.72 1344.35 1171.45C1340.84 1172.84 1337.44 1174.48 1334.2 1176.35C1312.53 1172.46 1290.43 1171.09 1268.4 1172.29C1258.52 1172.97 1248.74 1174.62 1239.23 1177.19C1249.74 1166.56 1257.95 1154.14 1263.39 1140.6C1253.29 1150.74 1242.34 1160.09 1230.62 1168.58C1216.55 1178.66 1201.29 1187.21 1185.13 1194.05C1168.9 1200.71 1151.91 1205.64 1134.49 1208.75C1119.86 1211.23 1105.03 1212.55 1090.16 1212.7C1104.62 1218.04 1120.09 1220.64 1135.65 1220.35C1148.72 1220.09 1161.7 1218.16 1174.2 1214.61C1156.6 1229.91 1141.82 1245.46 1126.27 1257.41C1117.37 1264.63 1107.63 1270.88 1097.23 1276.06C1088.08 1280.67 1078.25 1283.98 1068.05 1285.87C1078.87 1286.6 1089.73 1285.38 1100.05 1282.28C1112.02 1278.54 1123.39 1273.31 1133.85 1266.74C1156.23 1250.96 1177.68 1234.08 1198.11 1216.17C1208.59 1207.83 1220.16 1200.76 1232.55 1195.12C1244.24 1190.16 1256.54 1186.54 1269.17 1184.36C1289.89 1181.13 1310.78 1178.89 1331.75 1177.67C1325.13 1181.53 1319.18 1186.33 1314.15 1191.9C1324.86 1188.06 1335.91 1185.1 1347.18 1183.05C1360.31 1180.81 1373.73 1180.33 1387.01 1181.61C1400.3 1183.07 1413.29 1186.33 1425.57 1191.3C1436.09 1195.54 1446.16 1200.71 1455.64 1206.72L1454.87 1205.41C1466.82 1204.56 1478.79 1206.91 1489.36 1212.19C1499.92 1217.46 1508.64 1225.44 1514.49 1235.18C1514.69 1238.9 1514.43 1242.63 1513.72 1246.29C1509.79 1259.8 1501.44 1271.84 1489.82 1280.73C1477.89 1290.84 1464.14 1298.93 1449.21 1304.64C1436.08 1309.56 1422.36 1313.01 1408.35 1314.92C1422.42 1321.28 1438.21 1323.61 1453.71 1321.62C1473.53 1319.29 1492.1 1311.36 1506.91 1298.9L1503.44 1304.88C1492.02 1324.36 1478.08 1342.47 1461.93 1358.8C1431.15 1387.8 1396.62 1413.14 1359.13 1434.24C1378.62 1429.22 1397.39 1422.04 1415.03 1412.84C1437.22 1401.41 1457.34 1386.81 1474.66 1369.56C1492.02 1352.17 1505.71 1331.89 1515.01 1309.78C1519 1300.08 1521.93 1290.02 1523.75 1279.77L1525.29 1277.14C1524.66 1290.93 1521.8 1304.55 1516.81 1317.55C1509.1 1337.14 1498.6 1355.68 1485.58 1372.67C1459.77 1405.67 1425.84 1432.44 1386.63 1450.74C1354.04 1465.92 1318.61 1475.09 1282.28 1477.76C1319.93 1483.42 1358.53 1479.63 1394.08 1466.76C1415.41 1459.12 1435.55 1448.87 1453.97 1436.27C1448.31 1444.64 1442.27 1453.61 1435.59 1462.93C1425.13 1469.77 1414.23 1476 1402.95 1481.59C1384.16 1491.02 1364.35 1498.56 1343.83 1504.06C1323.23 1509.34 1302.08 1512.59 1280.74 1513.75C1263.09 1514.67 1245.39 1514.35 1227.79 1512.79C1244.49 1519.8 1262.35 1524.09 1280.61 1525.46C1326.65 1529.01 1372.52 1516.95 1409.76 1491.51C1413.36 1488.88 1416.83 1486.37 1420.17 1483.74C1405.39 1503.9 1387.71 1522.09 1367.61 1537.78C1356.31 1546.16 1343.7 1552.9 1330.21 1557.74C1317.47 1562.41 1304.12 1565.46 1290.5 1566.83C1266.56 1569.33 1242.31 1567.17 1219.31 1560.49C1228.58 1567.23 1238.89 1572.63 1249.89 1576.51C1244.05 1577.54 1238.39 1579.31 1233.06 1581.78C1218.7 1588.43 1206.8 1598.92 1198.88 1611.9C1191.1 1624.79 1187.03 1639.33 1187.05 1654.11C1186.99 1665.63 1189.53 1677.03 1194.51 1687.58C1195.68 1663.97 1202.25 1640.86 1213.78 1619.8C1220.39 1609.02 1229.11 1599.49 1239.49 1591.7C1245.8 1586.9 1252.75 1582.88 1260.18 1579.74C1268.2 1581.81 1276.42 1583.17 1284.72 1583.81C1279.19 1585.24 1273.54 1586.8 1267.63 1588.59C1260.46 1590.7 1253.53 1593.46 1246.94 1596.84C1239.64 1600.61 1233.18 1605.64 1227.92 1611.67C1222.21 1618.2 1218.05 1625.77 1215.71 1633.9C1213.33 1642.16 1212.29 1650.7 1212.63 1659.25C1213.71 1676.43 1217.25 1693.4 1223.16 1709.7C1228.75 1724.86 1232.8 1740.47 1235.24 1756.33C1237.51 1770.2 1234.89 1784.37 1227.79 1796.74C1222.67 1804.61 1215.95 1811.48 1208 1816.95C1209.89 1813.13 1211.27 1809.12 1212.11 1804.99C1214.49 1794.26 1214.49 1783.2 1212.11 1772.47C1210.27 1764.18 1207.29 1756.15 1203.25 1748.56C1199.52 1763.03 1199.78 1782.75 1195.28 1801.88C1191.79 1818.75 1182.11 1833.96 1167.91 1844.92L1166.49 1846L1171.25 1843.73C1180.64 1843.15 1189.52 1839.51 1196.31 1833.45C1197.47 1832.54 1198.54 1831.54 1199.52 1830.46L1203.63 1828.54C1210.19 1825.34 1216.54 1821.79 1222.65 1817.9C1229.5 1813.53 1235.46 1808.07 1240.26 1801.76C1245.49 1795 1249.17 1787.31 1251.05 1779.17C1253.04 1770.85 1253.69 1762.31 1252.98 1753.82C1251.35 1736.72 1247.51 1719.86 1241.54 1703.61C1235.96 1688.59 1232.25 1673.02 1230.49 1657.22C1228.71 1643.3 1232.01 1629.24 1239.87 1617.28C1248.27 1606.85 1259.43 1598.62 1272.25 1593.37C1280.09 1589.67 1287.68 1586.44 1294.87 1583.09C1310.01 1583.59 1325.14 1581.69 1339.59 1577.47C1356.16 1572.84 1371.64 1565.33 1385.21 1555.35C1398.36 1545.47 1409.99 1533.97 1419.78 1521.16C1428.63 1509.85 1436.41 1497.85 1443.04 1485.29C1452.51 1467.45 1459.67 1448.63 1464.38 1429.22C1480.99 1416.67 1495.73 1402.12 1508.2 1385.94C1522.8 1366.95 1533.95 1345.87 1541.23 1323.53C1548.5 1302.26 1549.69 1279.6 1544.69 1257.77C1543.19 1252.39 1541.16 1247.15 1538.65 1242.11Z" fill="black"/>
<path d="M1096.2 1184.6C1116.83 1187.21 1137.77 1186.81 1158.27 1183.41C1183.9 1179.42 1208.6 1171.33 1231.26 1159.49C1243.38 1153.47 1254.54 1145.9 1264.42 1137.02C1273.97 1128.59 1281.46 1118.36 1286.39 1107.01C1290.46 1097.07 1292.97 1086.64 1293.84 1076.04C1294.72 1067.18 1294.98 1058.27 1294.62 1049.38C1292.17 1057.15 1289.86 1065.76 1286.9 1074.85C1284.02 1084.28 1280.01 1093.38 1274.95 1101.99C1262.39 1120.82 1244.34 1135.95 1222.91 1145.63C1201.52 1156.82 1178.9 1165.84 1155.44 1172.53C1136.01 1177.8 1116.22 1181.84 1096.2 1184.6Z" fill="black"/>
<path d="M1121.77 943.094C1140.26 931.23 1155.73 915.754 1167.12 897.746C1178.51 879.738 1185.53 859.634 1187.7 838.839C1179.89 857.776 1170.53 876.123 1159.68 893.716C1148.45 911.072 1135.77 927.582 1121.77 943.094Z" fill="black"/>
<path d="M1858.26 884.749C1863 883.388 1867.61 881.627 1872.01 879.489C1879.98 875.543 1888.33 869.565 1888.33 861.794C1888.33 846.969 1865.45 820.786 1854.79 805.96C1844.12 791.135 1807.24 774.875 1807.24 774.875C1807.24 774.875 1798.37 761.724 1787.83 760.05C1780.03 759.134 1772.18 758.655 1764.32 758.615C1684 679.109 1448.7 453.023 1353.09 435.209C1360.54 438.916 1417.34 489.728 1484.94 552.496L1483.91 553.094C1468.36 563.017 1461.42 578.799 1468.36 588.244C1475.3 597.689 1494.06 597.45 1509.35 587.527C1511.96 585.805 1514.41 583.886 1516.68 581.788C1576.95 637.502 1641.85 698.119 1688.88 741.997C1697.85 755.81 1703.3 771.351 1704.82 787.429C1679.11 775.473 1639.66 761.485 1611.9 769.375C1588.9 775.832 1565.77 803.45 1544.82 824.372C1544.82 823.775 1544.82 823.057 1544.82 822.459C1543.39 816.572 1540.61 811.043 1536.66 806.254C1532.71 801.465 1527.69 797.531 1521.95 794.722C1523.09 805.429 1525.19 816.027 1528.25 826.405C1529.27 830.111 1530.3 833.698 1531.46 837.165C1527.98 840.143 1524.2 842.787 1520.15 845.056V843.502C1518.86 833.299 1515.24 823.471 1509.52 814.684C1503.8 805.897 1496.12 798.356 1486.99 792.57C1479.64 787.907 1471.25 784.842 1462.45 783.603C1474.56 795.727 1485.41 808.899 1494.83 822.938C1500.24 831.301 1505.01 840.011 1509.1 849.001C1506.44 849.269 1503.75 848.93 1501.27 848.013C1498.78 847.097 1496.57 845.63 1494.83 843.741C1428.91 780.375 1407.83 793.407 1407.83 793.407C1407.83 793.407 1433.53 872.196 1363.11 907.226C1358.48 909.498 1353.99 911.53 1349.49 913.324C1350.39 910.694 1351.16 908.063 1352.06 905.313C1356.35 892.102 1359.7 878.643 1362.08 865.022C1348.98 873.689 1339.6 886.397 1335.61 900.89C1333.71 906.911 1332.72 913.147 1332.65 919.421C1328.28 920.737 1324.04 921.693 1319.8 922.53C1321.86 914.161 1323.92 905.433 1326.1 896.347C1333.04 867.413 1339.72 841.35 1343.06 821.503C1326.62 842.984 1315.15 867.413 1309.39 893.238C1306.84 903.782 1305.16 914.495 1304.38 925.28C1300.1 925.545 1295.81 925.545 1291.53 925.28C1293.83 907.499 1297.22 889.855 1301.68 872.435C1309.8 843.269 1320.33 814.729 1333.17 787.07C1322.39 796.88 1313.17 808.072 1305.8 820.307C1296.43 835.45 1289.42 851.753 1284.98 868.729C1280.62 885.711 1278.8 903.172 1279.58 920.617C1279.51 921.851 1279.51 923.089 1279.58 924.323C1277.16 924.072 1274.75 923.673 1272.38 923.128C1267.24 865.022 1289.99 806.678 1334.71 748.333L1398.32 769.854C1398.32 769.854 1409.63 729.323 1372.62 708.52C1365.19 702.956 1356.8 698.592 1347.82 695.608C1328.42 689.434 1307.74 687.551 1287.42 690.108C1277.17 691.099 1266.99 692.696 1256.96 694.89C1247.32 696.803 1238.2 698.955 1229.46 701.347C1215.82 704.915 1202.83 710.355 1190.91 717.487C1191.43 714.157 1191.43 710.774 1190.91 707.444C1190.48 703.588 1189.35 699.827 1187.57 696.325C1186.45 694.14 1184.93 692.157 1183.07 690.467C1180.87 688.482 1178.18 687.043 1175.23 686.282C1172.76 685.684 1170.2 685.402 1167.65 685.445H1161.74L1150.17 686.163C1126.11 687.847 1102.53 693.262 1080.39 702.184C1077.31 697.76 1021.92 615.145 996.088 611.558C1012.79 634.035 1071.91 715.215 1067.54 731.117C1062.53 750.246 1023.33 712.705 1023.33 712.705C1023.33 712.705 1087.59 808.352 1062.78 804.406C1037.98 800.461 1031.56 805.721 1050.7 843.86C1052.38 847.328 1054.05 851.153 1055.59 855.099C1041.19 843.98 1025.13 834.415 1009.71 824.372C990.697 812.981 974.1 798.432 960.748 781.451C957.278 776.429 947.126 759.452 946.098 761.126C926.645 794.127 903.001 824.834 875.675 852.588C860.445 863.93 846.917 877.119 835.451 891.803C833.79 893.812 832.287 895.93 830.953 898.14C834.622 872.059 840.073 846.222 847.274 820.786C854.856 793.168 863.081 767.104 870.663 743.551C874.025 732.429 878.058 721.492 882.743 710.792C886.856 701.54 892.303 692.852 898.935 684.967C889.989 691.176 882.363 698.879 876.446 707.683C869.584 717.782 863.693 728.424 858.84 739.486C847.362 764.569 837.954 790.428 830.697 816.84C823.032 842.936 818.718 869.785 817.846 896.825C814.013 881.731 811.138 866.441 809.235 851.034C804.943 863.181 802.859 875.909 803.067 888.695C803.372 904.665 806.588 920.472 812.577 935.442C818.566 950.376 827.258 964.246 838.279 976.451L839.05 977.288C842.478 982.288 846.301 987.043 850.487 991.515C866.621 1009.86 885.488 1025.96 906.517 1039.34L912.043 1005.74C930.291 1023.56 952.138 1038.26 972.957 1038.26C1001.49 1038.26 1025.13 1005.14 1040.3 979.44L1046.59 994.385C1063.38 980.524 1076.97 963.646 1086.56 944.768C1100.31 923.725 1121 875.304 1107.89 782.886C1109.69 788.505 1111.49 794.841 1113.03 800.102C1126.85 851.799 1122.57 906.249 1100.82 955.528C1092.29 975.652 1081.43 994.854 1068.44 1012.8C1079.96 1003.47 1090.27 992.916 1099.15 981.353C1107.43 978.585 1115.43 975.144 1123.06 971.071C1136.77 963.898 1149.11 954.644 1159.55 943.692C1168.98 933.673 1176.66 922.336 1182.3 910.096C1184.19 946.346 1197.61 981.257 1220.85 1010.41C1223.55 1013.83 1226.47 1017.1 1229.59 1020.21C1232.42 1023.32 1235.63 1026.19 1238.59 1028.94C1244.75 1034.44 1251.44 1039.46 1256.83 1044.24C1267.99 1052.76 1278.11 1062.38 1287.03 1072.93C1280.38 1060.79 1271.95 1049.56 1261.97 1039.58C1256.7 1034.08 1251.31 1028.46 1246.04 1022.6C1243.34 1019.61 1240.64 1016.62 1238.33 1013.51C1236.02 1010.41 1233.32 1007.18 1231.13 1003.71C1211.56 974.09 1200.75 940.189 1199.78 905.433C1198.86 870.462 1205.28 835.66 1218.67 802.971C1229.64 775.96 1243.1 749.879 1258.89 725.019C1238.06 747.113 1220.75 771.876 1207.49 798.548C1199.49 814.625 1193.25 831.408 1188.85 848.643C1185.79 861.466 1183.85 874.502 1183.07 887.619C1172.58 903.662 1160.72 918.895 1147.6 933.171C1135.76 945.231 1123.14 956.61 1109.82 967.245L1114.06 960.43C1119.13 951.353 1123.43 941.918 1126.91 932.214C1142.87 914.046 1154.21 892.75 1160.07 869.924C1167.25 844.694 1167.25 818.158 1160.07 792.928C1155.83 812.297 1151.33 838.122 1143.87 866.098C1142.2 872.315 1140.53 878.054 1138.73 884.271C1138.73 882.836 1138.73 881.402 1138.73 879.967C1140.69 851.779 1136.32 823.52 1125.88 796.993C1120.45 782.822 1113.15 769.33 1104.16 756.822C1100.1 739.326 1094.25 722.231 1086.69 705.77C1105.19 705.77 1127.55 704.216 1151.84 702.303L1163.02 701.347H1168.29H1171.25C1171.75 701.243 1172.28 701.243 1172.79 701.347C1173.6 701.857 1174.3 702.506 1174.84 703.26C1176.4 705.311 1177.61 707.568 1178.44 709.955C1181.9 719.715 1181.35 730.319 1176.9 739.725C1183.58 734.686 1188.13 727.615 1189.75 719.759C1203.59 716.681 1217.63 714.405 1231.77 712.944L1259.53 709.716C1269.17 708.4 1278.94 707.085 1288.96 706.129C1293.33 706.129 1297.7 705.412 1301.81 705.172C1291.66 707.205 1284.46 709.357 1284.46 709.357C1284.46 709.357 1217.38 788.146 1215.71 884.869C1214.04 981.592 1295 1049.02 1295 1049.02L1309.14 1024.39C1320.96 1002.87 1336.38 974.657 1337.54 970.592C1345.97 955.343 1355.37 940.572 1365.68 926.356C1365.68 926.356 1453.97 916.432 1498.05 878.532C1519.12 870.283 1579.13 870.283 1614.47 847.328C1628.48 843.98 1695.56 822.699 1695.56 822.699L1757.25 842.426C1757.25 842.426 1782.05 891.564 1792.59 898.14C1801.96 902.112 1812.42 903.282 1822.53 901.488L1872.01 949.311L1898.48 931.258L1858.26 884.749Z" fill="black"/>
<path d="M1168.68 1097.68C1147.57 1108.2 1124.86 1115.66 1101.34 1119.8C1077.65 1123.86 1053.58 1125.66 1029.5 1125.18C1007.27 1125.18 987.221 1123.39 970.643 1122.07C989.884 1126.53 1009.48 1129.53 1029.24 1131.04C1053.84 1132.95 1078.6 1131.83 1102.88 1127.69C1127.35 1123.42 1150.75 1114.95 1171.89 1102.7C1188.87 1092.9 1203.59 1080.06 1215.2 1064.92C1201.59 1078 1185.9 1089.05 1168.68 1097.68Z" fill="black"/>
<path d="M1042.74 1571.25C1033.11 1562.68 1022.89 1554.69 1012.15 1547.34C1013.09 1561.15 1019.89 1574.05 1031.04 1583.21C1036.3 1588 1042.54 1591.76 1049.37 1594.28C1056.21 1596.81 1063.52 1598.04 1070.88 1597.92C1062.14 1588.46 1052.74 1579.56 1042.74 1571.25Z" fill="black"/>
<path d="M978.482 923.128C985.015 914.998 992.861 907.86 1001.74 901.966C1013.84 895.671 1026.81 890.963 1040.3 887.977C1040.3 887.977 1029.89 923.128 978.482 923.128Z" fill="white"/>
<path d="M941.472 923.965C933.269 916.662 924.413 910.022 914.999 904.118C902.523 897.492 889.345 892.083 875.675 887.977C875.675 887.977 887.112 924.323 941.472 923.965Z" fill="white"/>
</svg>
