<svg width="1080" height="1080" viewBox="0 0 1080 1080" fill="none" xmlns="http://www.w3.org/2000/svg">
<g clip-path="url(#clip0_5_2)">
<rect width="1080" height="1080" rx="128" fill="white"/>
<path d="M1080 1080V0L0 0V1080H1080Z" fill="#FD6E00"/>
<path d="M582.69 775.46L607.26 807.19C619.767 767.57 632.28 727.953 644.8 688.34L634.52 682.57C617.24 713.523 599.964 744.487 582.69 775.46Z" fill="white"/>
<path d="M482.401 212C495.641 218.15 508.79 224.48 522.14 230.4C540.14 238.4 556.331 237.98 573.551 225.52C599.931 206.41 618.831 208.05 637.251 234.19C660.341 266.96 679.331 302.62 700.011 337.09C702.141 340.64 703.671 344.54 705.611 348.54C730.921 343.39 755.701 337.61 780.751 333.4C816.671 327.4 848.071 338.78 875.751 361.31C891.171 373.83 894.471 392.07 880.111 408.57C861.691 429.73 840.111 448.2 819.111 467.04C809.271 475.9 797.771 482.91 787.751 490.21L883.611 524.79L882.681 527.35L796.791 510.71L795.581 515.57C812.281 530.963 828.991 546.373 845.711 561.8C815.81 588.95 771.331 589.93 695.931 563.98C685.631 596.613 675.344 629.197 665.071 661.73C649.751 710.58 634.561 759.47 619.071 808.27C617.551 813.07 614.611 817.42 611.561 823.51L585.811 796.27L533.58 867.19C526.73 859.42 521.26 854 516.71 847.9C452.53 762.09 400.631 669.9 370.711 566.34C367.811 556.28 364.311 546.2 363.151 535.89C361.231 518.76 351.151 513.53 336.301 516.4C308.661 521.73 281.231 528.2 253.721 534.22C251.801 534.64 249.911 535.22 246.621 532.54L317.011 500.71C291.151 481.07 263.941 463.18 240.231 441.46C223.231 425.86 208.861 406.33 196.941 386.39C185.511 367.25 190.721 355.56 211.311 346.12C257.501 324.92 305.311 322.69 354.04 336.39C364.58 339.39 374.781 343.55 386.611 347.69C396.681 324.39 406.171 301.28 416.611 278.62C423.611 263.45 430.951 248.21 440.171 234.35C445.98 225.63 455.53 219.4 463.41 212.05L482.401 212ZM530.53 831.17C543.96 811.99 554.041 797.45 564.261 783.02C616.041 709.91 655.831 630.66 686.631 546.65C691.891 532.32 689.171 525.15 674.97 519.21C646.97 507.49 619.42 494.64 592.14 481.33C564.22 467.7 535.141 455.8 504.671 467.13C464.671 482.01 426.051 500.71 387.23 518.62C384.301 519.97 382.61 528.48 383.53 533.02C397.86 604.02 425.361 669.88 463.961 731.02C484.551 763.62 506.62 795.31 530.53 831.17ZM623.4 264.17L629.4 261.83C640.01 289.4 651.4 316.69 660.85 344.66C664.521 355.56 669.241 360 681.421 358.55C667.35 318.89 653.091 280.7 627.941 247.78C613.371 228.71 601.77 227.63 582.71 241.96C565.54 254.87 548.711 268.4 530.561 279.76C521.911 285.17 510.501 286.16 500.341 289.16L499.26 284.87L541.171 258.39C520.171 249.02 503.32 242.14 487.081 234C476.621 228.76 468.271 230.93 462.211 239.43C452.975 252.098 444.622 265.386 437.211 279.2C424.811 302.95 413.651 327.34 401.121 353.2C420.621 354.2 430.311 348.91 434.901 332.71C442.081 307.39 454.831 284.56 468.16 266.06C466.99 284.55 465.16 304.99 464.66 325.47C464.44 335.09 469.79 339.67 480.891 338.79C500.201 337.25 519.74 336.22 539.03 337.48C572.35 339.65 605.54 343.75 639.48 347.11C644.681 317.68 632.31 291.22 623.4 264.14V264.17ZM860.921 378.57C836.721 348.97 807.391 345.24 775.151 352.39C733.151 361.71 691.4 371.73 649.39 380.78C592.23 393.09 534.271 403.23 476.331 390.42C428.941 379.95 383.071 362.77 336.021 350.53C315.021 345.08 292.901 342.85 271.211 342.31C260.381 342.04 249.381 348.86 238.46 352.47C253.12 353.47 266.461 351.15 279.981 350.54C310.891 349.16 338.41 361.61 365.57 373.94C409.951 394.08 453.57 416.02 498.13 435.62C525.46 447.62 553.931 447.28 582.251 436.18C635.361 415.34 688.091 393.24 742.181 375.26C780.171 362.57 820.071 359.83 860.921 378.57ZM651.001 419.3L649.4 416.64L562.64 458.95C579.27 464.06 593.44 471.76 607.64 471.83C621.17 471.89 634.73 463.98 648.28 459.57C645.234 451.363 642.197 443.15 639.171 434.93C638.858 433.711 638.63 432.471 638.491 431.22L651.001 419.3ZM416.061 415.98C426.711 430.27 427.43 430.75 417.73 445.11C410.141 456.34 415.31 459.92 424.91 464.59C451.41 477.48 474.581 464.73 500.581 457.09L416.061 415.98ZM750.451 451.57C744.331 454.34 734.961 457.42 726.851 462.52C710.361 472.89 701.04 488.52 699.6 507.9C698.921 517.16 701.441 526.74 713.421 526.62C723.791 526.52 734.31 527.51 736.271 510.89C738.63 490.87 745.491 471.42 750.451 451.57ZM708.451 534.8C717.321 560.4 783.451 571.96 817.801 553.92C797.801 542.55 780.351 531.56 761.801 522.79C756.561 520.31 748.221 524.34 741.311 525.38L741.731 530.52L778.441 546.96L776.771 551.3L708.451 534.8ZM637.171 703.68L633.85 701.68C622.65 718.027 611.447 734.36 600.241 750.68C585.98 771.42 586.69 775.68 609.301 793.68C618.79 763.11 627.98 733.39 637.171 703.68Z" fill="black"/>
<path d="M530.53 831.17C506.62 795.31 484.53 763.62 463.96 731.01C425.36 669.88 397.86 604.01 383.53 533.01C382.61 528.47 384.3 519.96 387.23 518.61C426.05 500.7 464.66 482 504.67 467.12C535.1 455.79 564.22 467.69 592.14 481.32C619.42 494.63 646.98 507.48 674.97 519.2C689.17 525.14 691.89 532.31 686.63 546.64C655.83 630.64 616.04 709.9 564.26 783.01C554.04 797.45 543.96 811.99 530.53 831.17ZM579.62 665.57C584.62 616.57 577.43 568.85 564.9 521.14C576.709 530.81 587.626 541.519 597.52 553.14C607.22 564.64 615.78 577.14 624.83 589.14L628.83 586.14L574.1 509.02C575.1 507.95 576.01 506.87 576.97 505.79L665.9 559.25C633.64 526.82 599.46 497.57 557.47 478.57C541.15 471.18 525.1 470.94 510.47 477.73C483.57 490.21 456.53 503.41 432.24 520.2C401.57 541.4 403.37 544.49 414.53 580.82C437.43 655.34 486.04 716.82 517.36 787.1C522.14 797.8 530.04 797 536.5 787.7C539.29 783.7 541.05 778.95 543.28 774.54C528.61 783.38 522.75 773.05 518.73 764.03C512.2 749.37 504.09 734.14 502.86 718.66C500.25 685.86 498.79 652.43 502.24 619.82C505.44 589.46 515.31 559.75 523.04 529.97C524.28 525.19 529.71 521.5 533.2 517.31C536.84 521.31 541.44 524.72 543.88 529.31C547.225 535.825 549.767 542.722 551.45 549.85C561.03 588.38 570.27 626.98 579.62 665.57Z" fill="white"/>
<path d="M623.4 264.14C632.31 291.22 644.68 317.68 639.54 347.14C605.6 343.78 572.41 339.68 539.09 337.51C519.8 336.25 500.26 337.28 480.95 338.82C469.85 339.7 464.5 335.12 464.72 325.5C465.18 305.02 467.05 284.58 468.22 266.09C454.89 284.57 442.17 307.42 434.96 332.74C430.37 348.94 420.68 354.26 401.18 353.23C413.71 327.34 424.87 302.95 437.27 279.23C444.682 265.416 453.035 252.128 462.27 239.46C468.33 230.96 476.68 228.79 487.14 234.03C503.38 242.17 520.24 249.03 541.23 258.42L499.29 284.87L500.37 289.16C510.53 286.16 521.94 285.16 530.59 279.76C548.75 268.4 565.59 254.87 582.74 241.96C601.8 227.63 613.4 228.71 627.97 247.78C653.12 280.7 667.38 318.89 681.45 358.55C669.27 360 664.55 355.55 660.88 344.66C651.46 316.66 640.04 289.4 629.43 261.83L623.4 264.14Z" fill="white"/>
<path d="M860.92 378.57C820.07 359.83 780.17 362.57 742.17 375.22C688.08 393.22 635.35 415.3 582.24 436.14C553.93 447.24 525.46 447.57 498.17 435.57C453.56 415.97 409.99 394.03 365.61 373.89C338.45 361.56 310.93 349.11 280.02 350.49C266.55 351.1 253.16 353.49 238.5 352.42C249.42 348.81 260.42 341.99 271.25 342.26C292.94 342.8 315.111 345.03 336.061 350.48C383.061 362.72 428.98 379.9 476.37 390.37C534.31 403.18 592.27 393.04 649.43 380.73C691.43 371.68 733.24 361.66 775.19 352.34C807.391 345.2 836.72 348.93 860.92 378.57Z" fill="white"/>
<path d="M416.061 415.98C418.491 411.98 439.141 418.74 460.511 429.77C474.919 437.225 488.374 446.395 500.581 457.08C491.431 463.64 465.671 480.25 439.001 472.8C426.331 469.26 410.921 459.59 412.001 453.12C412.381 450.82 414.611 450.44 417.721 445.12C418.461 443.86 421.461 438.72 421.881 433.37C422.631 423.66 414.431 418.67 416.061 415.98Z" fill="white"/>
<path d="M654.9 417.17C653.76 414.36 629.58 418.6 603.76 431.28C588.873 438.614 575.042 447.921 562.64 458.95C572.73 465.82 598.54 481.32 625.28 474.31C632.83 472.31 649.34 466.21 649.91 457.56C650.03 455.87 649.44 455.46 646.54 446.62C643.9 438.62 642.54 434.54 642.82 432.27C643.79 423.05 655.73 419.2 654.9 417.17Z" fill="white"/>
<path d="M750.45 451.57C745.45 471.45 738.63 490.9 736.27 510.89C734.27 527.51 723.79 526.52 713.42 526.62C701.42 526.74 698.92 517.16 699.6 507.9C701.04 488.49 710.36 472.9 726.85 462.52C734.96 457.39 744.33 454.31 750.45 451.57Z" fill="white"/>
<path d="M708.42 534.77L776.79 551.27L778.46 546.93L741.75 530.49L741.33 525.35C748.24 524.35 756.58 520.28 761.82 522.76C780.32 531.53 797.82 542.52 817.82 553.89C783.44 571.93 717.29 560.37 708.42 534.77Z" fill="white"/>
<path d="M579.62 665.57C570.27 626.99 561.03 588.39 551.46 549.87C549.777 542.742 547.235 535.845 543.89 529.33C541.45 524.74 536.89 521.33 533.21 517.33C529.72 521.52 524.29 525.21 523.05 529.99C515.32 559.77 505.45 589.48 502.25 619.84C498.8 652.45 500.25 685.84 502.87 718.68C504.1 734.16 512.21 749.39 518.74 764.05C522.74 773.05 528.62 783.4 543.29 774.56C541.06 778.97 539.29 783.7 536.51 787.72C530.05 797.02 522.15 797.82 517.37 787.12C486.05 716.89 437.44 655.36 414.54 580.84C403.38 544.51 401.54 541.42 432.25 520.22C456.54 503.43 483.58 490.22 510.48 477.75C525.1 470.96 541.15 471.2 557.48 478.59C599.48 497.59 633.65 526.83 665.87 559.34L576.93 505.87C575.93 506.95 575.02 508.03 574.06 509.1L628.79 586.22L624.79 589.22C615.79 577.22 607.18 564.72 597.48 553.22C587.586 541.599 576.669 530.89 564.86 521.22C577.43 568.84 584.67 616.57 579.62 665.57ZM519.46 507.42C492.18 526.42 467.7 549.42 453.17 580.86C449.22 589.41 448.29 600.32 449.26 609.86C449.86 615.86 456.56 621.18 460.53 626.86C464.75 622.32 470.53 618.47 472.96 613.11C488.83 578.07 503.98 542.81 519.46 507.42ZM442.46 574.11L506.46 495.65C491.54 502.17 475.92 508.02 461.23 515.65C444.68 524.26 435.51 552.44 442.45 574.11H442.46Z" fill="black"/>
<path d="M519.46 507.42C503.98 542.81 488.83 578.07 472.96 613.01C470.52 618.37 464.75 622.22 460.53 626.76C456.53 621.13 449.86 615.76 449.26 609.76C448.26 600.27 449.26 589.36 453.17 580.76C467.7 549.4 492.17 526.44 519.46 507.42Z" fill="white"/>
<path d="M442.45 574.11C435.51 552.44 444.68 524.26 461.24 515.66C475.93 508.02 491.55 502.17 506.47 495.66L442.45 574.11Z" fill="white"/>
</g>
<defs>
<clipPath id="clip0_5_2">
<rect width="1080" height="1080" rx="128" fill="white"/>
</clipPath>
</defs>
</svg>
