<svg width="1800" height="1686" viewBox="0 0 1800 1686" fill="none" xmlns="http://www.w3.org/2000/svg">
<path d="M1608.47 615.194C1600.43 552.816 1580.78 492.215 1550.42 436.102C1523.98 387.09 1489.91 341.98 1449.3 302.235C1420.62 274.112 1387.91 249.806 1352.08 230.003C1342.13 224.293 1331.57 219.572 1320.56 215.919C1312.92 213.464 1308.19 213.205 1306.67 215.144C1305.14 217.082 1308.33 220.054 1314.17 225.093C1320 230.133 1329.17 236.464 1340 245.38C1371.03 268.457 1400.05 293.776 1426.8 321.1C1485.73 381.638 1530.64 452.802 1558.75 530.17C1568.69 559.065 1576.3 588.608 1581.53 618.553C1586.16 648.506 1588.35 678.744 1588.05 709.004C1587.13 738.592 1583.98 768.082 1578.61 797.258C1568.73 849.101 1551.4 899.472 1527.08 947.019C1509.58 980.803 1488.36 1012.8 1463.75 1042.51C1455.14 1053.62 1447.22 1061.37 1442.36 1067.06L1434.58 1075.59L1442.92 1067.45C1448.19 1062.15 1456.81 1054.53 1465.97 1044.19C1492.59 1015.6 1515.87 984.452 1535.42 951.282C1563.39 904.076 1584.23 853.508 1597.36 801.005C1604.38 771.216 1609.03 740.983 1611.25 710.555C1613.04 678.749 1612.12 646.862 1608.47 615.194Z" fill="white"/>
<path d="M474.861 1175.6L465.972 1164.62L455.833 1151.69C452.5 1147.17 448.889 1142.39 445.278 1137.35C428.559 1114.76 413.256 1091.29 399.444 1067.06C383.9 1039.36 369.99 1010.89 357.778 981.777C346.281 952.668 336.361 923.04 328.055 893.006C320.694 864.191 314.167 837.056 310.556 813.668C301.945 766.892 297.639 734.976 287.361 734.976C280 734.976 275.417 768.055 280.972 817.415C284.364 845.435 290.076 873.169 298.056 900.371C307.472 931.268 319.262 961.496 333.333 990.822C347.961 1020.31 364.712 1048.85 383.472 1076.23C399.858 1099.65 417.859 1122.05 437.361 1143.3C441.667 1147.95 445.694 1152.47 449.722 1156.22L461.389 1167.72L471.528 1177.8C474.861 1180.9 477.917 1183.48 480.695 1185.94L498.056 1201.31L482.778 1184.13C480.417 1181.93 477.639 1179.61 474.861 1175.6Z" fill="white"/>
<path d="M712.361 151.957C719.584 149.373 726.945 146.272 734.723 143.816L759.306 136.193C763.473 134.901 767.778 133.479 772.083 132.316L785.972 128.957C795 126.889 804.167 124.305 813.75 122.238C853.323 114.083 893.552 108.983 934.028 106.99C974.742 105.784 1015.49 107.816 1055.83 113.063C1065.56 114.485 1074.86 116.423 1083.61 117.973L1097.5 120.299C1102.08 121.204 1106.39 122.496 1110.69 123.53L1136.11 129.603C1144.31 131.67 1151.94 134.513 1159.44 136.71C1166.94 138.906 1174.03 141.232 1180.83 143.558L1199.58 150.923L1216.11 157.384C1221.25 159.452 1225.69 161.777 1230 163.716L1255.97 176.637L1231.39 162.036C1227.5 159.71 1223.33 156.996 1218.47 154.412L1202.36 146.53L1184.17 137.485C1177.64 134.513 1170.28 131.799 1163.19 128.698C1156.11 125.597 1148.33 122.367 1140.14 119.653L1114.86 111.383C1110.56 109.962 1106.11 108.411 1100.97 107.249L1087.08 103.76C1077.78 101.434 1068.19 98.7204 1058.33 96.653C1017.23 88.4148 975.373 83.8286 933.334 82.9562C890.49 82.707 847.727 86.4732 805.695 94.1978C795.834 96.1361 786.111 98.7204 776.667 100.917L762.778 104.406C758.195 105.698 753.75 107.249 748.889 108.67L723.334 117.069C715 119.912 707.362 123.53 700 126.631C692.639 129.732 685.417 132.704 678.889 135.934C672.361 139.165 666.25 142.654 660.695 145.884C655.139 149.114 649.723 152.086 644.862 154.929C640.565 157.73 636.438 160.75 632.5 163.974C617.778 175.345 610.834 183.356 613.612 187.233C619.028 193.694 654.861 173.407 712.361 151.957Z" fill="white"/>
<path d="M1496.81 934.097L1498.89 930.35C1504.44 919.237 1510.42 907.996 1515.42 896.108C1520.42 884.22 1525.28 872.074 1529.31 859.798C1533.33 847.523 1537.64 833.955 1540.83 821.034C1547.84 794.821 1552.49 768.11 1554.72 741.179C1556.94 714.256 1556.94 687.213 1554.72 660.29C1552.54 634.211 1548.41 608.305 1542.36 582.761C1536.5 559.086 1529.03 535.78 1520 512.985C1515.28 502.389 1511.25 491.793 1506.11 481.973L1500.14 467.63L1492.64 453.933C1476.65 425.203 1457.77 397.946 1436.25 372.528C1428.75 363.224 1422.36 356.505 1417.78 351.724L1410.97 344.488L1417.08 352.241C1421.11 357.28 1427.22 364.387 1434.03 374.207C1453.27 400.651 1469.87 428.679 1483.61 457.939L1490.14 471.894L1496.11 486.496C1500.42 496.316 1503.75 506.912 1507.64 517.636C1514.96 540.2 1520.81 563.156 1525.14 586.379C1529.57 611.169 1532.21 636.206 1533.06 661.324C1533.67 687.223 1532.33 713.13 1529.03 738.853C1526.13 760.631 1521.72 782.212 1515.83 803.461C1533.69 709.22 1524.91 612.28 1490.36 522.146C1455.82 432.012 1396.68 351.779 1318.76 289.316C1240.83 226.853 1146.8 184.304 1045.87 165.842C944.948 147.379 840.598 153.638 743.056 184.003L750.139 181.418C772.871 173.8 796.058 167.415 819.584 162.295C882.587 149.218 947.426 145.554 1011.67 151.44C1047.64 154.542 1077.5 159.581 1098.75 162.811C1107.06 164.181 1115.46 165.087 1123.89 165.525C1130 165.525 1133.61 164.62 1134.44 162.424C1135.28 160.227 1132.78 158.289 1127.64 155.317C1120.31 151.067 1112.54 147.517 1104.44 144.721C1075.66 134.531 1045.69 127.548 1015.14 123.918C971.915 118.643 928.155 118.382 884.862 123.142C860.467 125.992 836.295 130.308 812.5 136.064C763.6 147.983 716.817 166.437 673.611 190.851C652.834 202.636 632.844 215.581 613.75 229.616C591.057 246.79 569.793 265.536 550.139 285.695C524.275 306.097 500.302 328.487 478.473 352.629C492.361 330.92 504.028 312.83 513.472 298.617C520.417 287.504 526.111 279.105 529.167 272.774C532.222 266.442 533.195 262.178 531.25 260.757C529.306 259.335 526.112 260.756 520.278 265.925C511.934 272.434 504.219 279.612 497.223 287.375C471.951 314.652 449.751 344.268 430.972 375.758C404.208 420.319 382.739 467.459 366.945 516.344C348.923 572.338 338.426 630.193 335.695 688.588C334.576 718.191 335.272 747.83 337.778 777.359C340.529 805.858 344.933 834.197 350.973 862.253C362.028 911.783 378.455 960.141 400 1006.59C415.295 1039.24 433.216 1070.77 453.611 1100.91C460.695 1111.9 467.5 1120.04 471.25 1125.85L477.639 1134.51L471.945 1125.46C468.195 1119.39 462.361 1110.86 456.111 1099.62C437.978 1068.59 422.289 1036.37 409.167 1003.23C396.269 969.978 385.782 935.961 377.778 901.406C406.824 973.248 451.666 1038.66 509.436 1093.46C567.206 1148.26 636.633 1191.23 713.276 1219.65C789.919 1248.06 872.092 1261.27 954.539 1258.45C1036.99 1255.63 1117.89 1236.83 1192.08 1203.25L1186.67 1206.35C1178.61 1210.88 1171.67 1214.62 1165.69 1217.6L1147.08 1226.9L1166.94 1219.92C1173.33 1217.85 1180.83 1214.88 1189.44 1211.26L1203.33 1205.71L1218.33 1198.86C1242.26 1187.86 1265.45 1175.52 1287.78 1161.9C1313.36 1146.18 1337.81 1128.91 1360.97 1110.22C1384.02 1091.1 1405.56 1070.46 1425.42 1048.45C1442.67 1029.19 1458.23 1008.66 1471.94 987.075C1482.61 970.465 1490.96 952.663 1496.81 934.097Z" fill="white"/>
<path d="M1756.53 647.11C1756.53 647.11 1788.89 638.323 1788.89 622.3C1788.89 606.278 1764.17 577.98 1752.64 562.086C1741.11 546.193 1701.25 528.361 1701.25 528.361C1701.25 528.361 1691.67 514.147 1680.28 512.338C1666.98 511.152 1653.63 510.592 1640.28 510.658C1640.28 510.658 1530.28 470.989 1482.64 472.798C1435 474.607 1383.47 512.984 1383.47 512.984C1383.47 512.984 1293.19 496.445 1258.47 523.063C1268.06 510.142 1237.5 453.804 1199.44 448.506C1161.39 443.208 1033.61 468.017 1033.61 468.017C1033.61 468.017 1039.31 445.017 1006.94 441.399C976.156 440.83 945.411 443.825 915.417 450.315C915.417 450.315 852.5 355.6 823.889 351.982C795.278 348.364 732.361 413.101 732.361 413.101L644.722 389.971C644.722 389.971 566.528 359.864 532.222 368.78C524.583 366.971 385.417 317.094 358.75 315.543C324.213 316.735 289.815 320.276 255.833 326.139C255.833 326.139 198.611 304.819 179.583 310.246C160.031 317.804 141.406 327.291 124.028 338.544C118.54 337.682 112.91 338.041 107.6 339.59C102.289 341.14 97.4483 343.836 93.4722 347.46C79.5833 360.381 57.2222 414.781 57.2222 414.781L0 457.422L30.5555 491.147L86.1111 452.382C86.1111 452.382 97.5 480.68 124.306 471.894C151.111 463.107 196.667 420.208 196.667 420.208C218.236 418.262 239.958 418.262 261.528 420.208C284.444 423.696 299.583 450.315 335.833 457.422C362.779 460.813 390.201 458.381 415.972 450.315C415.972 450.315 425.417 524.743 572.222 542.574C574.167 549.681 564.583 654.217 597.083 700.346C591.25 705.644 625.556 792.606 688.472 819.224C688.472 819.224 669.444 845.842 711.389 857.989C713.333 866.775 667.917 961.361 756.111 987.204C695 1048.19 602.361 1058.66 520.972 1079.72C439.583 1100.78 356.806 1142 347.361 1170.17C337.917 1198.34 324.444 1228.58 318.75 1242.79C313.056 1257.01 311.111 1303.14 328.194 1324.46C345.278 1345.78 385.416 1340.35 385.416 1340.35C419.983 1353.63 456.692 1361.45 494.028 1363.48C556.944 1366.97 576.111 1352.75 600.833 1340.35C631.34 1328.02 662.652 1317.49 694.583 1308.82L723.055 1289.31C723.055 1289.31 861.944 1438.29 885.139 1433C908.333 1427.7 911.806 1408.19 906.111 1388.68C900.417 1369.16 795 1252.1 795 1252.1C795 1252.1 876.945 1259.2 906.111 1244.99C913.75 1246.8 989.444 1271.61 1030 1261.01C1022.36 1269.8 984.305 1294.61 980.417 1315.93C976.528 1337.25 1010.97 1381.57 1010.97 1381.57C1010.97 1381.57 980.417 1675.92 1005.28 1681.35C1030.14 1686.78 1077.64 1652.92 1088.61 1622.81C1095.97 1603.43 1085.14 1545.28 1076.53 1506.52C1071 1481.34 1073.86 1455.2 1084.72 1431.58C1112.93 1416.61 1142.43 1403.86 1172.92 1393.46C1194.58 1387.68 1215.22 1378.97 1234.17 1367.61C1251.7 1351.66 1268.03 1334.61 1283.06 1316.57C1299.74 1291.52 1313.16 1264.72 1323.06 1236.72C1323.06 1236.72 1389.72 1156.99 1397.36 1116.16C1405 1075.33 1403.19 1025.71 1378.33 1004.39C1370.27 998.093 1360.72 993.644 1350.47 991.4C1340.22 989.156 1329.55 989.179 1319.31 991.468C1319.31 991.468 1283.06 957.743 1252.5 954.254C1226.74 953.423 1200.99 956.433 1176.25 963.17L1073.33 971.957C1073.33 971.957 1107.64 943.658 1109.58 925.827C1111.53 907.995 1143.89 899.984 1141.94 869.101C1140.01 854.117 1141.97 838.92 1147.64 824.781C1147.64 824.781 1191.53 747.251 1193.47 739.628C1202.59 723.146 1212.74 707.182 1223.89 691.818C1223.89 691.818 1319.31 681.093 1366.94 640.132C1389.72 631.216 1454.58 631.216 1492.78 606.407C1507.92 602.789 1580.42 579.789 1580.42 579.789L1647.08 601.109C1647.08 601.109 1673.89 654.216 1685.28 661.323C1695.4 665.616 1706.71 666.881 1717.64 664.941L1771.11 716.627L1799.72 697.116L1756.53 647.11Z" fill="#6C0204"/>
<path d="M1319.58 991.21C1319.58 991.21 1283.33 957.485 1252.78 953.996C1227.01 953.165 1201.27 956.175 1176.53 962.912L1073.61 971.699C1073.61 971.699 1076.67 969.244 1080.83 965.238C1074.39 967.766 1068.29 970.974 1062.64 974.8C1058.19 977.887 1054.01 981.3 1050.14 985.008C1047.92 987.205 1051.53 990.564 1053.75 988.368L1057.64 985.008C1056.53 986.817 1058.75 989.66 1060.97 988.238C1074.78 980.566 1091.15 977.898 1106.94 980.744C1123.15 983.337 1139.53 984.848 1155.97 985.266C1175.28 984.491 1194.03 979.193 1213.33 978.289C1231.41 977.545 1249.5 979.687 1266.81 984.62C1295.56 992.89 1326.53 1012.01 1333.33 1041.22C1335.14 1047.74 1335.14 1054.59 1333.33 1061.12C1330.26 1068.09 1326.78 1074.91 1322.92 1081.53C1321.44 1084.67 1320.68 1088.06 1320.68 1091.48C1320.68 1094.91 1321.44 1098.29 1322.92 1101.43C1326.96 1108.53 1331.6 1115.31 1336.8 1121.72C1347.82 1136.7 1354.56 1154.04 1356.39 1172.11C1357.04 1180.22 1355.82 1188.37 1352.83 1196.01C1349.84 1203.65 1345.13 1210.61 1339.03 1216.43C1338.71 1216.8 1338.54 1217.25 1338.54 1217.72C1338.54 1218.19 1338.71 1218.65 1339.03 1219.02C1358.89 1193.17 1394.58 1144.46 1399.72 1115.64C1407.36 1074.81 1405.56 1025.19 1380.69 1003.87C1372.37 997.318 1362.46 992.741 1351.82 990.535C1341.17 988.329 1330.11 988.561 1319.58 991.21Z" fill="#AF1B23"/>
<path d="M827.222 989.53C796.805 972.603 748.611 947.148 780.278 860.315C780.278 859.023 668.472 804.106 668.195 808.629C674.646 813.118 681.581 816.972 688.889 820.129C688.889 820.129 669.861 846.747 711.805 858.893C713.75 867.68 668.333 962.266 756.528 988.109C695.417 1049.1 602.778 1059.56 521.389 1080.63C440 1101.69 361.389 1150.02 351.806 1178.44C342.222 1206.87 322.5 1207.9 319.167 1243.96C317.778 1259.07 311.528 1304.3 328.611 1325.62C345.694 1346.94 385.833 1341.51 385.833 1341.51C385.833 1341.51 392.778 1344.48 404.861 1348.23C390.237 1341.51 377.057 1332.36 365.972 1321.23C359.454 1314.27 355.002 1305.85 353.056 1296.8C351.495 1285.36 352.973 1273.74 357.361 1262.95C361.389 1251.06 366.528 1239.43 369.305 1227.16C371.039 1231.98 373.419 1236.58 376.389 1240.85C380.459 1247.02 385.875 1252.32 392.287 1256.42C398.699 1260.51 405.963 1263.31 413.611 1264.63C417.485 1265.08 421.404 1265.08 425.278 1264.63C428.472 1264.63 428.472 1259.46 425.278 1259.85C417.535 1260.47 409.749 1259.28 402.636 1256.36C395.524 1253.45 389.315 1248.92 384.583 1243.18C379.372 1237.38 375.549 1230.61 373.37 1223.32C371.19 1216.03 370.704 1208.4 371.944 1200.93C377.5 1167.59 409.028 1144.59 441.389 1132.7C460.079 1126.18 479.249 1120.91 498.75 1116.94C519.583 1112.28 540.416 1107.12 560.694 1101.56C580.972 1096 602.361 1089.67 622.361 1083.08C638.889 1077.65 655.278 1072.1 671.111 1065.25C702.137 1053.65 729.173 1034.4 749.306 1009.56L751.945 1005.81L756.806 1007.88L796.528 1024.68L885.695 1062.41C887.222 1063.05 904.306 1067.71 904.167 1065.77C899.722 1032.3 855.417 1005.29 827.222 989.53Z" fill="#AF1B23"/>
<path d="M1482.64 472.798C1435 474.478 1383.47 512.984 1383.47 512.984C1383.47 512.984 1293.19 496.445 1258.47 523.063C1268.06 510.142 1237.5 453.804 1199.44 448.506C1161.39 443.208 1033.61 468.017 1033.61 468.017C1033.61 468.017 1039.31 445.017 1006.94 441.399C976.156 440.831 945.411 443.825 915.417 450.315C915.417 450.315 852.5 355.6 823.889 351.982C795.278 348.364 732.361 413.101 732.361 413.101L644.722 389.971C644.722 389.971 566.528 359.864 532.222 368.78C524.583 366.971 385.417 317.094 358.75 315.544C330.098 316.048 301.534 318.684 273.334 323.426C273.619 323.829 273.852 324.263 274.028 324.718C274.347 326.298 274.347 327.919 274.028 329.499C271.389 327.69 268.889 331.695 271.528 333.504C270.94 333.894 270.236 334.103 269.514 334.103C268.792 334.103 268.088 333.894 267.5 333.504C264.444 332.342 261.944 336.347 264.861 337.639C266.627 338.399 268.602 338.633 270.516 338.31C272.43 337.986 274.19 337.12 275.555 335.83C297.222 347.976 324.028 343.196 348.055 339.707C363.773 336.72 379.906 336.109 395.833 337.898C410.068 340.591 423.818 345.16 436.667 351.465C463.055 363.741 487.778 379.247 517.083 384.932C533.75 388.162 550.972 389.067 567.639 391.91C584.304 394.982 600.494 399.974 615.833 406.769C647.95 422.038 678.255 440.401 706.25 461.557C706.718 461.862 707.275 462.027 707.847 462.027C708.419 462.027 708.977 461.862 709.445 461.557C736.25 436.747 774.444 404.702 815.555 410.646C849.861 415.556 866.667 446.309 886.25 469.31C895.857 481.936 909.094 491.789 924.444 497.737C924.764 497.815 925.096 497.833 925.423 497.79C925.75 497.747 926.064 497.645 926.348 497.489C926.632 497.333 926.88 497.126 927.078 496.88C927.276 496.634 927.419 496.355 927.5 496.057C930.833 481.198 948.611 477.709 962.778 478.872C980.694 480.422 995.694 491.147 1012.22 497.22C1020.62 500.59 1029.77 502.009 1038.89 501.355C1046.8 500.063 1054.48 497.713 1061.67 494.377C1069.54 490.001 1078.61 487.847 1087.78 488.175C1098.19 490.113 1100.83 500.063 1105 507.557C1118.89 533.4 1155.28 525.648 1180.69 526.94C1189.3 527.118 1197.78 528.829 1205.69 531.979C1213.89 535.597 1220.97 540.895 1228.75 544.901C1235.04 548.733 1242.12 551.279 1249.55 552.37C1256.97 553.462 1264.56 553.074 1271.81 551.232C1288.1 546.236 1304.06 540.325 1319.58 533.53C1327.57 530.43 1336.08 528.637 1344.72 528.232C1355.08 528.611 1365.33 530.396 1375.14 533.53C1384.11 536.167 1393.55 537.133 1402.92 536.372C1411.93 534.95 1420.67 532.339 1428.89 528.619C1438.8 524.397 1449.19 521.233 1459.86 519.187C1470.51 517.556 1481.29 516.821 1492.08 516.99C1528.75 516.99 1567.64 523.709 1601.94 507.816C1605.89 505.925 1609.66 503.72 1613.19 501.226C1576.53 489.596 1515.14 471.506 1482.64 472.798Z" fill="#AF1B23"/>
<path d="M1222.36 1146.27C1216.75 1150.88 1209.78 1153.83 1202.36 1154.73C1194.93 1155.62 1187.39 1154.43 1180.69 1151.31C1178.2 1149.83 1176.06 1147.9 1174.4 1145.64C1172.73 1143.37 1171.58 1140.81 1171.01 1138.12C1170.43 1135.42 1170.46 1132.65 1171.07 1129.96C1171.69 1127.28 1172.88 1124.74 1174.58 1122.49C1174.9 1122.29 1175.16 1122.02 1175.33 1121.7C1175.51 1121.39 1175.61 1121.04 1175.61 1120.68C1175.61 1120.33 1175.51 1119.98 1175.33 1119.66C1175.16 1119.35 1174.9 1119.08 1174.58 1118.87C1152.64 1108.28 1130.42 1128.31 1122.78 1146.14C1117.78 1157.64 1115.56 1169.91 1111.11 1181.54C1108.99 1187.21 1106 1192.57 1102.22 1197.44C1098.47 1202.22 1093.61 1206.09 1090.14 1211.13C1086.89 1216.22 1085.17 1222.02 1085.14 1227.93C1085.44 1231.14 1084.91 1234.36 1083.58 1237.33C1082.25 1240.31 1080.16 1242.93 1077.5 1244.99C1071.82 1248.45 1065.88 1251.51 1059.72 1254.16C1053.33 1257.13 1046.94 1259.98 1040.69 1263.21C1018.33 1274.45 995 1290.73 989.722 1314.89C987.657 1327.43 990.15 1340.26 996.806 1351.33C1002.92 1361.09 1007.86 1371.45 1011.53 1382.21C1009.44 1402.76 982.083 1675.53 1005.97 1680.7C1009.74 1681.35 1013.6 1681.35 1017.36 1680.7L1018.06 1678.51C1020.29 1667.9 1021.54 1657.14 1021.81 1646.33C1022.5 1634.7 1022.78 1622.94 1021.81 1611.18C1020.95 1587.9 1018.21 1564.7 1013.61 1541.8C1011.39 1530.17 1009.17 1518.54 1007.92 1506.78C1006.94 1495.21 1006.94 1483.59 1007.92 1472.02C1009.31 1448.76 1013.19 1425.5 1012.78 1402.24C1012.78 1397.07 1012.78 1391.91 1011.81 1386.87H1012.92C1012.92 1386.87 1012.92 1387.9 1012.92 1388.42C1012.92 1391.39 1018.33 1391.39 1018.06 1388.42L1017.22 1383.89C1018.89 1385.96 1022.78 1383.89 1021.39 1381.18C1007.5 1356.76 1025.14 1329.49 1045.83 1313.6C1069.17 1296.54 1098.19 1287.76 1122.5 1272.64C1134.21 1265.49 1144.15 1256.11 1151.67 1245.12C1152.97 1243.81 1153.88 1242.21 1154.31 1240.47C1154.31 1238.01 1150.97 1236.2 1149.58 1238.66C1149.02 1239.82 1148.37 1240.94 1147.64 1242.02C1146.48 1242.83 1145.14 1243.37 1143.71 1243.59C1142.28 1243.82 1140.82 1243.72 1139.44 1243.31C1133.47 1241.76 1131.94 1235.3 1132.5 1230.39C1134.51 1220.45 1139.92 1211.39 1147.92 1204.54C1164.04 1191.88 1181.48 1180.75 1200 1171.34C1209.92 1165.52 1218.74 1158.23 1226.11 1149.76C1227.5 1148.08 1225.42 1144.46 1222.36 1146.27Z" fill="#AF1B23"/>
<path d="M857.222 227.677C881.805 212.042 892.777 187.233 881.805 172.244C870.833 157.255 841.944 157.901 817.36 173.536C792.777 189.171 781.805 213.98 792.777 228.969C803.75 243.958 833.472 243.441 857.222 227.677Z" fill="black"/>
<path d="M937.638 151.957C954.583 141.232 962.083 124.176 954.583 113.968C947.083 103.76 926.805 104.018 910.277 114.743C893.75 125.468 885.833 142.524 893.472 152.862C901.111 163.199 920.833 162.682 937.638 151.957Z" fill="black"/>
<path d="M1347.36 149.631C1364.17 138.907 1371.67 121.85 1364.17 111.513C1356.67 101.176 1336.39 101.693 1320 112.418C1303.61 123.142 1295.56 140.199 1303.06 151.182C1310.56 162.165 1330 160.356 1347.36 149.631Z" fill="black"/>
<path d="M1410.97 706.032C1394.17 716.757 1386.67 733.813 1394.17 744.021C1401.67 754.229 1421.94 753.971 1438.47 743.117C1455 732.263 1462.78 715.335 1455.28 705.127C1447.78 694.919 1427.92 695.178 1410.97 706.032Z" fill="black"/>
<path d="M1359.03 451.22C1375.97 440.366 1383.47 423.438 1375.83 413.101C1368.19 402.764 1348.06 403.281 1331.67 414.006C1315.28 424.73 1307.22 441.787 1314.86 451.995C1322.5 462.203 1342.22 461.944 1359.03 451.22Z" fill="black"/>
<path d="M534.167 277.296C517.362 288.15 509.722 305.077 517.361 316.06C525 327.044 545.139 325.881 561.528 315.156C577.917 304.431 585.973 287.375 578.334 277.167C570.695 266.959 550.973 266.571 534.167 277.296Z" fill="black"/>
<path d="M936.528 204.419C941.389 211.009 954.028 210.75 964.306 204.419C974.583 198.087 979.861 186.716 975 180.126C970.139 173.536 957.5 173.795 947.222 180.126C936.944 186.458 931.667 197.57 936.528 204.419Z" fill="black"/>
<path d="M1233.61 300.942C1244.31 293.965 1249.17 283.111 1244.31 276.521C1239.44 269.931 1226.81 270.189 1216.53 276.521C1206.25 282.852 1200.97 294.352 1205.83 300.942C1210.69 307.532 1222.36 308.049 1233.61 300.942Z" fill="black"/>
<path d="M1284.31 265.795C1292.22 260.756 1296.53 253.649 1293.75 249.902C1290.97 246.155 1282.36 247.188 1274.44 252.228C1266.53 257.267 1262.22 265.149 1265 268.121C1267.78 271.093 1276.39 270.835 1284.31 265.795Z" fill="black"/>
<path d="M746.25 185.941C754.166 180.902 758.472 173.795 755.694 170.047C752.916 166.3 744.305 167.463 736.389 172.502C728.472 177.542 724.166 184.649 726.944 188.396C729.722 192.143 738.333 191.11 746.25 185.941Z" fill="black"/>
<path d="M1118.06 292.672C1125.97 287.633 1130.14 280.526 1127.36 276.779C1124.58 273.032 1115.97 274.195 1108.06 279.234C1100.14 284.274 1095.83 291.38 1098.61 295.128C1101.39 298.875 1110 297.841 1118.06 292.672Z" fill="black"/>
<path d="M641.25 292.414C633.334 297.453 629.167 304.689 631.945 308.307C634.722 311.925 643.334 311.021 651.25 305.981C659.167 300.942 663.334 293.835 660.695 290.088C658.056 286.341 649.167 288.02 641.25 292.414Z" fill="black"/>
<path d="M1328.19 704.869C1336.11 699.83 1340.42 692.594 1337.64 688.846C1334.86 685.099 1326.25 686.262 1318.19 691.301C1310.14 696.341 1306.11 703.448 1308.89 707.195C1311.67 710.942 1320.28 709.908 1328.19 704.869Z" fill="black"/>
<path d="M791.806 1090.71C790.616 1088.54 789.172 1086.5 787.5 1084.63C788.333 1086.98 789.819 1089.07 791.806 1090.71Z" fill="black"/>
<path d="M1018.47 1395.27C1019.96 1395.69 1021.55 1395.62 1022.99 1395.08C1024.43 1394.54 1025.63 1393.56 1026.39 1392.29C1027.11 1390.68 1027.11 1388.87 1026.39 1387.25C1026.39 1386.35 1025.42 1385.96 1024.58 1385.45C1019.31 1378.73 1013.33 1371.36 1008.06 1363.35C1001.61 1354.2 997.126 1343.98 994.861 1333.24C993.649 1327.88 993.589 1322.34 994.686 1316.95C995.782 1311.56 998.013 1306.43 1001.25 1301.84C1002.96 1299.44 1004.97 1297.23 1007.22 1295.25C1009.44 1293.06 1012.08 1291.25 1014.58 1289.18C1020.01 1285.34 1025.82 1282.01 1031.94 1279.23C1044.91 1273.93 1058.4 1269.81 1072.22 1266.96C1086.11 1263.72 1100 1261.01 1112.64 1257.52C1124.98 1254.5 1136.91 1250.16 1148.19 1244.6C1157.79 1239.48 1166.3 1232.78 1173.33 1224.83C1164.73 1230.26 1155.39 1234.61 1145.56 1237.75C1133.99 1241.21 1122.15 1243.8 1110.14 1245.51L1100.69 1246.8C1100.37 1230.93 1106.08 1215.46 1116.81 1203.12C1123.75 1199.76 1130.69 1196.66 1138.19 1193.56C1160.66 1185.22 1182.56 1175.6 1203.75 1164.75C1221.28 1155.76 1236.53 1143.38 1248.47 1128.44C1232.65 1138.63 1215.59 1147.05 1197.64 1153.5C1183.75 1158.93 1167.92 1163.97 1151.53 1169.91C1145.28 1163.04 1141.79 1154.36 1141.67 1145.36C1141.53 1143.17 1141.53 1140.97 1141.67 1138.77C1145.72 1135.14 1150.03 1131.77 1154.58 1128.69C1161.81 1123.78 1169.72 1119.39 1177.5 1115.13C1185.28 1110.86 1192.92 1106.47 1200 1102.21C1212.58 1094.69 1224.64 1086.45 1236.11 1077.53C1221.64 1081.19 1207.45 1085.72 1193.61 1091.09C1185.83 1094.07 1177.78 1097.3 1169.31 1100.91C1164.49 1103.07 1159.49 1105.52 1154.31 1108.28L1155.28 1106.86C1145.56 1110.52 1135.46 1113.25 1125.14 1115C1161.67 1086.39 1200.54 1060.47 1241.39 1037.47C1219.61 1043.1 1198.55 1050.95 1178.61 1060.86C1162.58 1068.82 1147.22 1077.89 1132.64 1087.99L1135.56 1085.02C1151.85 1067.79 1167.78 1052.67 1183.33 1039.67C1198.75 1026.74 1213.75 1014.6 1227.22 1004.39C1206.23 1004.68 1185.58 1009.36 1166.81 1018.09C1146.38 1027.65 1127.87 1040.42 1112.08 1055.82C1116.81 1048.19 1121.39 1040.7 1125.97 1033.72C1137.3 1014.43 1152.32 997.222 1170.28 982.94C1158.49 984.587 1147.17 988.362 1136.94 994.053C1125.07 1000.76 1114.19 1008.88 1104.58 1018.22C1095.68 1026.85 1087.38 1036 1079.72 1045.61C1088.19 1024.94 1094.86 1006.85 1100.83 989.918C1083.4 1002.79 1068.09 1017.99 1055.42 1035.01C1040.69 1053.62 1026.94 1074.68 1011.67 1094.97C1009.44 1097.94 1007.08 1100.91 1004.72 1103.76C980.821 1112.7 954.996 1116.3 929.327 1114.26C903.659 1112.22 878.865 1104.59 856.944 1092C852.778 1088.77 848.611 1085.28 844.444 1081.66C844.116 1080.09 843.293 1078.66 842.081 1077.53C840.868 1076.4 839.322 1075.63 837.638 1075.33C833.333 1071.06 829.167 1066.67 825 1062.41C816.667 1052.97 809.027 1043.28 802.083 1033.72C797.916 1027.91 793.889 1022.09 789.722 1016.41L792.639 1018.35C802.083 1024.55 811.944 1031.27 822.361 1038.37C832.751 1045.24 843.765 1051.25 855.278 1056.33C866.315 1061.2 878.14 1064.35 890.277 1065.64C901.214 1066.92 912.318 1066.13 922.916 1063.31C931.87 1060.83 940.06 1056.4 946.805 1050.39C938.81 1053.67 930.25 1055.59 921.527 1056.08C915.205 1056.32 908.871 1055.93 902.639 1054.91C898.423 1046.49 892.952 1038.66 886.389 1031.65C878.269 1023.25 869.344 1015.55 859.722 1008.65C837.738 994.581 817.146 978.711 798.194 961.232C787.548 950.215 780.05 936.885 776.389 922.468C785 925.31 794.167 928.024 804.167 930.349C833.608 937.473 864.106 940.048 894.444 937.973C924.846 935.729 954.48 927.959 981.667 915.102C1003.58 904.868 1023.15 890.783 1039.31 873.624C1021.2 888.355 1000.78 900.425 978.75 909.417C951.763 920.426 922.985 927.152 893.611 929.316C864.143 931.34 834.516 929.601 805.555 924.147C795 922.209 784.861 920.012 775.417 917.557C773.886 910.675 773.234 903.649 773.472 896.624C773.933 885.564 776.181 874.63 780.139 864.191C801.593 869.932 823.787 872.931 846.111 873.107C889.2 873.608 931.878 865.27 971.111 848.686C939.028 851.141 895.139 856.309 846.805 855.922C826.211 855.674 805.658 854.163 785.277 851.399C786.389 848.815 787.361 846.231 788.333 843.775C813.764 846.836 839.536 846.488 864.861 842.742C891.649 838.673 917.602 830.785 941.805 819.354C961.207 810.22 979.079 798.511 994.861 784.595C975.849 793.35 956.328 801.115 936.389 807.854C912.122 815.802 887.17 821.811 861.805 825.814C836.403 829.495 810.703 831.095 785 830.595C763.806 830.076 742.661 828.437 721.667 825.685C741.396 834.257 762.353 840.132 783.889 843.129H786.388C784.583 845.455 782.639 847.91 780.833 850.495H779.305C760.85 847.775 742.578 844.065 724.583 839.382C739.51 849.17 755.948 856.794 773.333 861.995C763.581 877.197 758.758 894.697 759.444 912.389C751.389 910.063 743.889 907.608 736.805 905.282C743.75 908.641 751.389 912.001 759.722 915.36C760.166 921.693 761.282 927.969 763.055 934.097C765.02 940.937 767.865 947.531 771.528 953.737C773.346 956.986 775.435 960.097 777.777 963.041C779.985 966.066 782.397 968.958 785 971.698C795.038 981.996 806.477 991.031 819.027 998.575C830.694 1005.94 842.083 1011.5 852.778 1018.09C862.873 1023.53 872.612 1029.53 881.944 1036.05C889.444 1041.36 896.374 1047.33 902.639 1053.88C899.549 1053.44 896.489 1052.83 893.472 1052.07C883.152 1049.47 873.216 1045.69 863.889 1040.83C853.538 1035.41 843.523 1029.46 833.889 1023C823.611 1016.41 813.472 1010.08 802.916 1003.74C792.922 998.174 782.528 993.252 771.805 989.013L762.361 985.008L757.361 981.26C753.405 978.845 749.221 976.769 744.861 975.058C737.903 968.651 731.451 961.784 725.555 954.513C722.34 950.313 720.028 945.575 718.75 940.558C717.712 934.796 717.294 928.952 717.5 923.113C717.5 910.192 717.5 897.271 717.5 885.77C717.737 878.106 718.526 870.465 719.861 862.899L725 863.804C731.799 864.925 738.757 864.925 745.555 863.804C734.778 855.753 723.509 848.289 711.805 841.449C703.469 835.805 696.51 828.583 691.388 820.258L694.305 821.292L690.139 817.932L688.472 814.056L687.361 815.736C509.722 670.756 639.305 440.107 705 406.511C715.833 408.578 725.833 410.258 734.861 411.55C675.494 378.027 606.325 362.662 537.083 367.617L485 343.583C463.042 333.297 440.239 324.655 416.805 317.74C392.604 310.546 367.144 307.739 341.805 309.47C327.357 310.793 313.262 314.421 300.139 320.195C277.083 323.167 257.222 326.398 257.222 326.398H256.389C364.861 244.346 679.444 7.23605 698.611 0C589.444 9.17428 290.277 244.217 206.111 311.926C197.928 309.807 189.34 309.409 180.972 310.762C161.419 318.321 142.795 327.808 125.416 339.061C119.928 338.199 114.299 338.558 108.989 340.107C103.678 341.657 98.837 344.353 94.8609 347.977C80.972 360.898 58.6109 415.427 58.6109 415.427L0.13855 457.422L30.6941 491.147L86.2496 452.382C86.2496 452.382 97.6387 480.81 124.444 471.894C151.25 462.978 196.805 420.208 196.805 420.208C216.014 418.567 235.331 418.308 254.583 419.433L261.666 420.337C284.583 423.826 299.722 450.444 335.972 457.551C362.917 460.942 390.34 458.51 416.111 450.444C416.111 450.444 425.555 524.872 572.361 542.704C572.361 542.704 548.75 591.03 569.722 679.155C588.194 757.33 658.333 805.011 685.555 818.32C683.322 823.456 682.98 829.136 684.583 834.472C686.933 842.982 692.382 850.47 700 855.663C704.549 858.67 709.558 861.023 714.861 862.641C709.703 869.281 705.847 876.718 703.472 884.608C699.753 897.232 697.976 910.284 698.194 923.372C698.031 930.856 699.157 938.315 701.528 945.468C704.481 952.399 709.257 958.53 715.416 963.3C719.697 966.533 724.356 969.307 729.305 971.569C732.445 975.648 736.029 979.415 740 982.811C744.426 986.487 749.062 989.938 753.888 993.148C745.693 999.693 737.015 1005.69 727.916 1011.11C704.473 1024.68 679.146 1035.2 652.639 1042.38C620.972 1051.68 583.194 1058.27 544.028 1068.22C523.782 1072.9 503.918 1078.9 484.583 1086.18C464.88 1093.6 445.839 1102.46 427.639 1112.67C409.65 1122.72 392.517 1134.04 376.389 1146.53L369.583 1152.47C372.974 1146.87 377.128 1141.7 381.944 1137.09C373.569 1140.93 366.216 1146.44 360.416 1153.25C353.701 1161.47 348.964 1170.95 346.528 1181.03C343.341 1192.55 343.341 1204.65 346.528 1216.17C348.35 1222.4 351.109 1228.36 354.722 1233.88C358.368 1239.45 362.806 1244.53 367.917 1248.99C387.334 1265.05 412.226 1274.2 438.194 1274.84C457.463 1274.08 476.365 1269.68 493.75 1261.92C494.861 1261.14 493.75 1261.01 489.444 1261.92C473.585 1264.41 457.387 1264.41 441.527 1261.92C428.467 1259.71 415.86 1255.61 404.166 1249.77C390.35 1243.04 378.34 1233.5 369.027 1221.86C366.807 1218.52 364.99 1214.97 363.611 1211.26C360.728 1203.37 359.456 1195.04 359.861 1186.71C360.656 1183.87 361.725 1181.1 363.055 1178.44C367.412 1170.9 373.146 1164.13 380 1158.41C387.278 1152.16 394.929 1146.29 402.916 1140.84C436.114 1118.4 472.657 1100.6 511.389 1087.99C549.861 1075.72 588.75 1068.61 622.5 1059.95C652.01 1053.07 680.542 1042.96 707.5 1029.85C721.827 1022.84 735.13 1014.16 747.083 1004C750.277 1001.03 752.777 998.575 754.722 996.379C753.82 1001.46 753.494 1006.61 753.75 1011.76C754.213 1023.55 757.039 1035.17 762.083 1046C767.138 1056.81 774.295 1066.67 783.194 1075.07C790.339 1081.95 798.885 1087.44 808.333 1091.22C797.588 1074.51 787.851 1057.26 779.166 1039.54C773.472 1027.26 768.889 1015.5 765.277 1004.65C766.944 1006.97 768.611 1009.56 770.139 1012.14C775.833 1021.32 781.25 1031.4 787.916 1041.99C794.656 1053.02 802.417 1063.49 811.111 1073.26C818.361 1081.38 826.354 1088.91 835 1095.75C830.695 1096.82 826.262 1097.38 821.805 1097.43C817.972 1097.87 814.169 1098.51 810.416 1099.36C772.916 1085.67 739.722 1070.55 714.305 1061.24C737.962 1082.31 765.295 1099.48 795.138 1112.03C794.796 1115.1 793.704 1118.06 791.944 1120.68C788.712 1125.96 783.881 1130.23 778.055 1132.96L769.027 1131.02C740.168 1123.77 710.641 1119.05 680.833 1116.94C656.371 1115.23 631.819 1118.9 609.166 1127.66C632.553 1124.9 656.258 1125.51 679.444 1129.47C705.555 1133.48 734.027 1140.97 764.722 1147.82L780.555 1151.05C781.851 1154.18 782.187 1157.58 781.528 1160.87C780.386 1166.12 777.1 1170.75 772.361 1173.79L753.472 1166.55C727.459 1155.67 700.133 1147.73 672.083 1142.91C659.633 1141.08 646.979 1140.77 634.444 1142C623.763 1143.06 613.318 1145.63 603.472 1149.63C625.604 1147.33 648.006 1149.27 669.305 1155.31C695.543 1162.96 721.281 1172.02 746.389 1182.45C762.356 1188.82 778.785 1194.13 795.555 1198.34C795.988 1199.36 796.359 1200.39 796.666 1201.44C771.363 1201.86 746.053 1201.08 720.833 1199.12C681.805 1196.15 644.027 1191.75 609.027 1189.68C578.024 1187.44 546.859 1188 515.972 1191.36C541.389 1198.6 571.528 1206.61 604.861 1214.62C634.751 1221.87 665.083 1227.44 695.694 1231.29C686.805 1231.29 677.777 1231.29 667.916 1231.29C625 1229.74 584.583 1224.96 546.111 1220.44C507.639 1215.92 473.888 1211.78 444.861 1210.23C475.67 1224.19 507.622 1235.86 540.416 1245.12C581.341 1256.96 623.718 1263.9 666.528 1265.79C689.192 1266.57 711.885 1265.36 734.305 1262.17L723.194 1264.37C692.639 1269.93 659.028 1275.22 623.472 1279.62C587.916 1284.01 554.028 1286.34 522.917 1288.28L439.583 1292.41C466.216 1302.89 494.247 1309.97 522.917 1313.47C558.226 1317.81 593.996 1317.81 629.305 1313.47C658.232 1310.01 686.681 1303.68 714.166 1294.61C697.878 1303.37 681.043 1311.22 663.75 1318.12C634.056 1330 603.097 1338.92 571.389 1344.74C555.002 1347.63 538.445 1349.62 521.805 1350.69C506.378 1351.93 490.876 1352.14 475.416 1351.33C453.396 1350.4 431.64 1346.48 410.833 1339.7C420.154 1334.86 428.439 1328.47 435.277 1320.84C421.61 1327.47 406.806 1331.85 391.527 1333.76C374.343 1336.09 356.857 1332.11 342.778 1322.65C335.952 1317.62 330.443 1311.21 326.666 1303.91C323.261 1296.77 321.329 1289.1 320.972 1281.3C320.603 1272.27 321.161 1263.22 322.639 1254.29C324.928 1257.82 327.785 1261 331.111 1263.72C335.469 1267.45 340.439 1270.5 345.833 1272.77C354.606 1276.44 364.013 1278.63 373.611 1279.23C362.778 1268.38 344.027 1257.39 336.805 1241.63C334.938 1237.88 333.81 1233.86 333.472 1229.74C332.431 1226.01 332.431 1222.1 333.472 1218.37C335 1214.49 337.5 1210.36 339.166 1206.09C340.98 1202 341.416 1197.5 340.416 1193.17C336.805 1200.15 329.444 1203.25 321.944 1211.52C317.702 1216.39 315.137 1222.33 314.583 1228.58C314.14 1234.99 315.33 1241.41 318.055 1247.31C312.047 1257.5 308.093 1268.62 306.388 1280.14C304.993 1289.93 306.136 1299.9 309.722 1309.21C313.936 1319.39 321.04 1328.33 330.277 1335.05C339.603 1341.73 350.681 1345.97 362.361 1347.33C372.747 1348.55 383.291 1347.75 393.333 1345C398.105 1343.63 402.749 1341.9 407.222 1339.83C414.706 1344.35 422.608 1348.24 430.833 1351.46C444.446 1356.64 458.662 1360.33 473.194 1362.45C489.311 1364.83 505.631 1365.83 521.944 1365.42C539.518 1365 557.028 1363.27 574.305 1360.25C607.528 1354.25 639.506 1343.34 669.028 1327.94C689.841 1317.34 709.117 1304.32 726.389 1289.18L731.528 1287.24C739.305 1284.27 746.667 1281.17 753.75 1277.94C825.139 1297.45 876.666 1347.07 908.611 1408.7C909.352 1401.92 908.644 1395.07 906.528 1388.55C901.25 1370.33 809.305 1267.47 797.361 1253.52L799.444 1252.22C815.138 1253.39 881.389 1257.39 906.528 1244.86C914.167 1246.67 989.861 1271.48 1030.42 1260.88L1029.58 1261.79L1024.86 1263.72C1017.33 1267.22 1010.29 1271.56 1003.89 1276.65C1000.76 1279.06 997.793 1281.65 995 1284.4C992.194 1287.28 989.683 1290.39 987.5 1293.7C983.167 1300.37 980.596 1307.9 980 1315.67C979.469 1322.73 980.316 1329.82 982.5 1336.6C986.514 1348.44 993.46 1359.24 1002.78 1368.13C1007.08 1372.73 1011.72 1377.05 1016.67 1381.05C1014.03 1379.89 1012.08 1379.76 1010.56 1381.05C1009.75 1382.32 1009.32 1383.77 1009.32 1385.25C1009.32 1386.73 1009.75 1388.18 1010.56 1389.45C1011.34 1390.9 1012.45 1392.17 1013.82 1393.17C1015.19 1394.18 1016.78 1394.89 1018.47 1395.27ZM541.805 432.613C508.75 406.769 501.111 418.399 455.277 411.292C409.444 404.185 429.861 363.999 429.861 363.999C414.246 382.262 394.21 396.829 371.389 406.511C335.833 420.725 315.833 397.078 282.5 387.646C274.671 385.425 266.689 383.698 258.611 382.477C265.193 359.673 279.455 339.43 299.305 324.718C313.014 322.165 327.01 321.211 340.972 321.875C364.558 323.248 387.877 327.284 410.416 333.892C434.583 340.87 457.5 349.139 479.028 355.6C497.082 361.48 515.679 365.805 534.583 368.522C559.722 376.016 594.722 383.898 633.333 392.427L649.861 396.045C620.258 424.7 597.535 458.877 583.194 496.316C574.62 472.5 560.485 450.745 541.805 432.613Z" fill="black"/>
<path d="M1411.11 1033.33C1408.61 1028.2 1405.49 1023.34 1401.81 1018.86C1400.28 1016.92 1398.61 1015.11 1396.94 1013.31C1392.18 1006.89 1385.59 1001.84 1377.92 998.704V999.609C1377.37 999.19 1376.76 998.843 1376.11 998.575C1367.24 993.676 1357.34 990.592 1347.08 989.53C1338.36 988.635 1329.54 989.744 1321.39 992.76C1315.29 982.561 1306.85 973.738 1296.67 966.917C1283.03 957.694 1267.06 951.927 1250.3 950.183C1233.55 948.439 1216.6 950.777 1201.11 956.967C1197.32 958.473 1193.65 960.244 1190.14 962.265C1166.72 958.057 1142.84 956.582 1119.03 957.872C1108.35 958.615 1097.78 960.39 1087.5 963.17C1098.87 951.682 1107.73 938.255 1113.61 923.63C1102.7 934.582 1090.86 944.694 1078.19 953.866C1062.99 964.761 1046.49 973.996 1029.03 981.389C1011.49 988.586 993.131 993.918 974.306 997.283C958.492 999.961 942.462 1001.39 926.389 1001.55C942.024 1007.32 958.739 1010.13 975.556 1009.82C989.685 1009.54 1003.7 1007.45 1017.22 1003.61C998.195 1020.15 982.222 1036.95 965.417 1049.87C955.802 1057.67 945.272 1064.43 934.028 1070.03C924.147 1075.01 913.52 1078.58 902.5 1080.63C914.189 1081.42 925.931 1080.1 937.083 1076.75C950.018 1072.71 962.306 1067.06 973.611 1059.95C997.795 1042.9 1020.98 1024.66 1043.06 1005.29C1054.38 996.286 1066.89 988.644 1080.28 982.552C1092.91 977.185 1106.21 973.279 1119.86 970.923C1142.26 967.427 1164.83 965.011 1187.5 963.687C1180.34 967.859 1173.92 973.047 1168.47 979.064C1180.05 974.922 1191.99 971.723 1204.17 969.501C1218.37 967.084 1232.86 966.562 1247.22 967.951C1261.59 969.527 1275.62 973.054 1288.89 978.417C1300.26 983.006 1311.15 988.587 1321.39 995.086L1320.56 993.665C1333.48 992.748 1346.41 995.291 1357.83 1000.99C1369.25 1006.69 1378.68 1015.32 1385 1025.84C1385.21 1029.86 1384.93 1033.89 1384.17 1037.86C1379.92 1052.45 1370.89 1065.46 1358.33 1075.07C1345.44 1086 1330.58 1094.75 1314.44 1100.91C1300.25 1106.23 1285.42 1109.96 1270.28 1112.03C1285.49 1118.9 1302.55 1121.42 1319.31 1119.26C1340.72 1116.75 1360.79 1108.18 1376.81 1094.71L1373.06 1101.17C1360.71 1122.23 1345.65 1141.8 1328.19 1159.45C1294.92 1190.79 1257.6 1218.18 1217.08 1240.98C1238.15 1235.56 1258.43 1227.79 1277.5 1217.85C1301.49 1205.5 1323.23 1189.72 1341.94 1171.08C1360.71 1152.28 1375.51 1130.36 1385.56 1106.47C1389.87 1095.98 1393.03 1085.12 1395 1074.04L1396.67 1071.19C1395.98 1086.1 1392.9 1100.82 1387.5 1114.87C1379.17 1136.04 1367.82 1156.08 1353.75 1174.44C1325.86 1210.11 1289.19 1239.04 1246.81 1258.81C1211.59 1275.22 1173.29 1285.14 1134.03 1288.02C1174.73 1294.14 1216.44 1290.04 1254.86 1276.13C1277.91 1267.87 1299.68 1256.79 1319.58 1243.18C1313.47 1252.22 1306.94 1261.92 1299.72 1271.99C1288.42 1279.38 1276.64 1286.11 1264.44 1292.15C1244.14 1302.35 1222.72 1310.49 1200.56 1316.44C1178.28 1322.15 1155.42 1325.66 1132.36 1326.91C1113.29 1327.91 1094.16 1327.56 1075.14 1325.88C1093.18 1333.45 1112.49 1338.08 1132.22 1339.57C1181.99 1343.41 1231.56 1330.38 1271.81 1302.88C1275.69 1300.03 1279.44 1297.32 1283.06 1294.48C1267.08 1316.27 1247.97 1335.93 1226.25 1352.88C1214.03 1361.94 1200.41 1369.22 1185.83 1374.46C1172.06 1379.5 1157.63 1382.8 1142.92 1384.28C1117.04 1386.98 1090.83 1384.65 1065.97 1377.43C1076 1384.71 1087.14 1390.55 1099.03 1394.75C1092.71 1395.86 1086.59 1397.77 1080.83 1400.43C1065.31 1407.63 1052.45 1418.97 1043.89 1433C1035.49 1446.93 1031.09 1462.64 1031.11 1478.61C1031.04 1491.06 1033.79 1503.39 1039.17 1514.79C1040.44 1489.27 1047.54 1464.29 1060 1441.52C1067.14 1429.88 1076.56 1419.58 1087.78 1411.16C1094.6 1405.97 1102.12 1401.63 1110.14 1398.24C1118.82 1400.47 1127.7 1401.94 1136.67 1402.63C1130.69 1404.18 1124.58 1405.86 1118.19 1407.8C1110.44 1410.08 1102.95 1413.06 1095.83 1416.72C1087.94 1420.78 1080.97 1426.22 1075.28 1432.74C1069.11 1439.8 1064.61 1447.99 1062.08 1456.77C1059.51 1465.7 1058.38 1474.93 1058.75 1484.17C1059.92 1502.73 1063.75 1521.07 1070.14 1538.69C1076.18 1555.08 1080.55 1571.95 1083.19 1589.09C1085.64 1604.07 1082.82 1619.39 1075.14 1632.76C1069.61 1641.27 1062.34 1648.69 1053.75 1654.6C1055.79 1650.48 1057.28 1646.14 1058.19 1641.68C1060.77 1630.09 1060.77 1618.13 1058.19 1606.53C1056.2 1597.57 1052.98 1588.89 1048.61 1580.69C1044.58 1596.32 1044.86 1617.65 1040 1638.32C1036.23 1656.55 1025.77 1672.99 1010.42 1684.84L1008.89 1686L1014.03 1683.54C1024.18 1682.92 1033.77 1678.99 1041.11 1672.43C1042.37 1671.45 1043.53 1670.37 1044.58 1669.2L1049.03 1667.13C1056.11 1663.67 1062.98 1659.83 1069.58 1655.63C1076.98 1650.91 1083.43 1645 1088.61 1638.19C1094.27 1630.89 1098.24 1622.57 1100.28 1613.77C1102.43 1604.78 1103.13 1595.55 1102.36 1586.38C1100.6 1567.89 1096.45 1549.67 1090 1532.1C1083.96 1515.87 1079.95 1499.05 1078.06 1481.97C1076.13 1466.93 1079.7 1451.73 1088.19 1438.81C1097.27 1427.54 1109.33 1418.63 1123.19 1412.97C1131.67 1408.96 1139.86 1405.47 1147.64 1401.86C1164 1402.4 1180.35 1400.34 1195.97 1395.78C1213.88 1390.77 1230.61 1382.66 1245.28 1371.88C1259.48 1361.2 1272.05 1348.77 1282.64 1334.92C1292.2 1322.7 1300.61 1309.73 1307.78 1296.16C1318.01 1276.87 1325.75 1256.53 1330.83 1235.56C1348.79 1221.99 1364.72 1206.26 1378.19 1188.78C1393.97 1168.26 1406.03 1145.48 1413.89 1121.33C1421.75 1098.34 1423.04 1073.85 1417.64 1050.26C1416.01 1044.45 1413.82 1038.78 1411.11 1033.33Z" fill="black"/>
<path d="M932.917 971.181C955.214 974 977.847 973.564 1000 969.889C1027.7 965.583 1054.4 956.839 1078.89 944.046C1091.98 937.531 1104.04 929.355 1114.72 919.754C1125.04 910.65 1133.14 899.589 1138.47 887.321C1142.87 876.581 1145.58 865.311 1146.53 853.854C1147.48 844.276 1147.75 834.65 1147.36 825.039C1144.72 833.438 1142.22 842.741 1139.03 852.562C1135.91 862.756 1131.58 872.595 1126.11 881.893C1112.53 902.248 1093.03 918.602 1069.86 929.057C1046.75 941.156 1022.3 950.903 996.944 958.13C975.946 963.832 954.554 968.192 932.917 971.181Z" fill="black"/>
<path d="M960.556 710.167C980.534 697.345 997.261 680.618 1009.57 661.156C1021.87 641.694 1029.46 619.966 1031.81 597.491C1023.37 617.958 1013.25 637.787 1001.53 656.801C989.391 675.558 975.691 693.402 960.556 710.167Z" fill="black"/>
<path d="M1756.53 647.11C1761.66 645.639 1766.63 643.736 1771.39 641.425C1780 637.16 1789.03 630.7 1789.03 622.301C1789.03 606.278 1764.31 577.98 1752.78 561.957C1741.25 545.934 1701.39 528.361 1701.39 528.361C1701.39 528.361 1691.81 514.147 1680.42 512.338C1671.99 511.349 1663.5 510.831 1655 510.788C1568.19 424.86 1313.89 180.514 1210.56 161.261C1218.61 165.266 1280 220.183 1353.06 288.021L1351.94 288.667C1335.14 299.392 1327.64 316.448 1335.14 326.656C1342.64 336.864 1362.92 336.606 1379.44 325.881C1382.26 324.02 1384.91 321.946 1387.36 319.679C1452.5 379.893 1522.64 445.405 1573.47 492.827C1583.17 507.756 1589.06 524.553 1590.69 541.929C1562.92 529.007 1520.28 513.889 1490.28 522.417C1465.42 529.395 1440.42 559.244 1417.78 581.856C1417.78 581.21 1417.78 580.435 1417.78 579.789C1416.23 573.426 1413.22 567.45 1408.95 562.275C1404.69 557.099 1399.26 552.847 1393.06 549.811C1394.28 561.383 1396.56 572.837 1399.86 584.053C1400.97 588.059 1402.08 591.935 1403.33 595.682C1399.58 598.901 1395.48 601.759 1391.11 604.211V602.531C1389.72 591.503 1385.81 580.882 1379.62 571.385C1373.44 561.889 1365.14 553.738 1355.28 547.485C1347.33 542.445 1338.26 539.133 1328.75 537.794C1341.84 550.898 1353.56 565.133 1363.75 580.306C1369.6 589.344 1374.75 598.758 1379.17 608.475C1376.29 608.764 1373.39 608.397 1370.7 607.407C1368.02 606.416 1365.63 604.831 1363.75 602.789C1292.5 534.305 1269.72 548.389 1269.72 548.389C1269.72 548.389 1297.5 633.542 1221.39 671.402C1216.39 673.857 1211.53 676.054 1206.67 677.992C1207.64 675.15 1208.47 672.307 1209.44 669.335C1214.08 655.057 1217.7 640.51 1220.28 625.789C1206.11 635.156 1195.98 648.891 1191.67 664.554C1189.62 671.062 1188.54 677.801 1188.47 684.582C1183.75 686.004 1179.17 687.037 1174.58 687.942C1176.81 678.897 1179.03 669.464 1181.39 659.644C1188.89 628.374 1196.11 600.205 1199.72 578.755C1181.95 601.972 1169.55 628.374 1163.33 656.284C1160.57 667.68 1158.76 679.258 1157.92 690.914C1153.29 691.201 1148.65 691.201 1144.03 690.914C1146.51 671.696 1150.17 652.627 1155 633.801C1163.78 602.279 1175.15 571.434 1189.03 541.541C1177.38 552.143 1167.42 564.239 1159.44 577.463C1149.32 593.828 1141.74 611.448 1136.94 629.795C1132.24 648.149 1130.27 667.021 1131.11 685.874C1131.04 687.209 1131.04 688.546 1131.11 689.88C1128.49 689.609 1125.89 689.177 1123.33 688.588C1117.78 625.789 1142.36 562.732 1190.69 499.675L1259.44 522.934C1259.44 522.934 1271.67 479.13 1231.67 456.647C1223.63 450.634 1214.57 445.916 1204.86 442.691C1183.89 436.02 1161.54 433.984 1139.58 436.747C1128.5 437.818 1117.51 439.545 1106.67 441.916C1096.25 443.984 1086.39 446.309 1076.94 448.894C1062.2 452.751 1048.16 458.63 1035.28 466.338C1035.84 462.739 1035.84 459.083 1035.28 455.484C1034.82 451.316 1033.6 447.251 1031.67 443.467C1030.46 441.105 1028.82 438.962 1026.81 437.135C1024.43 434.991 1021.52 433.435 1018.33 432.613C1015.66 431.966 1012.9 431.662 1010.14 431.708H1003.75L991.25 432.483C965.249 434.304 939.759 440.156 915.833 449.798C912.5 445.017 852.639 355.73 824.722 351.853C842.777 376.146 906.666 463.883 901.944 481.068C896.527 501.743 854.166 461.169 854.166 461.169C854.166 461.169 923.611 564.542 896.805 560.277C870 556.013 863.055 561.699 883.75 602.918C885.555 606.666 887.361 610.8 889.028 615.065C873.472 603.048 856.111 592.71 839.444 581.856C818.895 569.545 800.958 553.82 786.527 535.468C782.777 530.041 771.805 511.692 770.694 513.501C749.67 549.168 724.116 582.355 694.583 612.351C678.123 624.61 663.503 638.864 651.111 654.734C649.316 656.905 647.691 659.194 646.25 661.582C650.214 633.394 656.106 605.47 663.889 577.98C672.083 548.131 680.972 519.962 689.166 494.507C692.8 482.486 697.159 470.666 702.222 459.102C706.667 449.103 712.555 439.713 719.722 431.191C710.053 437.901 701.811 446.227 695.416 455.742C688 466.657 681.633 478.158 676.389 490.113C663.984 517.222 653.815 545.17 645.972 573.716C637.688 601.919 633.026 630.936 632.083 660.161C627.941 643.848 624.834 627.323 622.777 610.671C618.139 623.8 615.886 637.556 616.111 651.374C616.441 668.635 619.916 685.718 626.389 701.897C632.861 718.037 642.256 733.028 654.166 746.218L655 747.123C658.704 752.526 662.836 757.666 667.361 762.499C684.798 782.322 705.189 799.726 727.916 814.185L733.888 777.876C753.611 797.129 777.222 813.022 799.722 813.022C830.555 813.022 856.111 777.23 872.5 749.448L879.305 765.6C897.445 750.62 912.139 732.379 922.5 711.976C937.361 689.234 959.722 636.902 945.555 537.019C947.5 543.092 949.444 549.94 951.111 555.626C966.044 611.498 961.421 670.346 937.916 723.605C928.692 745.354 916.956 766.107 902.916 785.499C915.372 775.419 926.514 764.013 936.111 751.516C945.056 748.524 953.7 744.806 961.944 740.403C976.771 732.651 990.103 722.65 1001.39 710.813C1011.58 699.985 1019.88 687.732 1025.97 674.504C1028.02 713.682 1042.52 751.413 1067.64 782.915C1070.56 786.617 1073.71 790.155 1077.08 793.511C1080.14 796.87 1083.61 799.972 1086.81 802.944C1093.47 808.887 1100.69 814.315 1106.53 819.483C1118.58 828.692 1129.52 839.09 1139.17 850.495C1131.98 837.369 1122.86 825.236 1112.08 814.444C1106.39 808.5 1100.56 802.427 1094.86 796.095C1091.94 792.865 1089.03 789.634 1086.53 786.275C1084.03 782.915 1081.11 779.426 1078.75 775.679C1057.6 743.666 1045.91 707.027 1044.86 669.464C1043.87 631.669 1050.81 594.056 1065.28 558.727C1077.14 529.533 1091.68 501.346 1108.75 474.478C1086.24 498.357 1067.53 525.12 1053.19 553.946C1044.56 571.322 1037.81 589.46 1033.06 608.087C1029.74 621.946 1027.65 636.035 1026.81 650.211C1015.47 667.55 1002.65 684.013 988.472 699.442C975.676 712.476 962.04 724.775 947.639 736.268L952.222 728.903C957.704 719.093 962.348 708.896 966.111 698.408C983.365 678.772 995.616 655.757 1001.94 631.087C1009.71 603.82 1009.71 575.14 1001.94 547.873C997.361 568.806 992.5 596.716 984.444 626.952C982.639 633.672 980.833 639.874 978.889 646.593C978.889 645.042 978.889 643.492 978.889 641.941C981.007 611.476 976.277 580.935 965 552.266C959.126 536.95 951.242 522.368 941.528 508.85C937.133 489.941 930.808 471.465 922.639 453.675C942.639 453.675 966.805 451.995 993.055 449.927L1005.14 448.894H1010.83H1014.03C1014.58 448.782 1015.15 448.782 1015.69 448.894C1016.57 449.446 1017.32 450.147 1017.92 450.961C1019.6 453.178 1020.91 455.617 1021.81 458.197C1025.54 468.746 1024.95 480.207 1020.14 490.372C1027.36 484.926 1032.27 477.284 1034.03 468.793C1048.99 465.467 1064.16 463.007 1079.44 461.428L1109.44 457.939C1119.86 456.517 1130.42 455.096 1141.25 454.062C1145.97 454.062 1150.69 453.287 1155.14 453.029C1144.17 455.225 1136.39 457.551 1136.39 457.551C1136.39 457.551 1063.89 542.704 1062.08 647.239C1060.28 751.774 1147.78 824.652 1147.78 824.652L1163.06 798.033C1175.83 774.775 1192.5 744.28 1193.75 739.886C1202.87 723.405 1213.02 707.441 1224.17 692.077C1224.17 692.077 1319.58 681.352 1367.22 640.391C1390 631.475 1454.86 631.475 1493.06 606.666C1508.19 603.048 1580.69 580.047 1580.69 580.047L1647.36 601.368C1647.36 601.368 1674.17 654.475 1685.56 661.582C1695.68 665.875 1706.99 667.139 1717.92 665.2L1771.39 716.886L1800 697.375L1756.53 647.11Z" fill="black"/>
<path d="M1011.25 877.242C988.439 888.609 963.897 896.67 938.472 901.147C912.872 905.532 886.858 907.48 860.833 906.961C836.805 906.961 815.139 905.023 797.222 903.602C818.016 908.423 839.197 911.664 860.555 913.293C887.139 915.361 913.899 914.144 940.139 909.675C966.586 905.057 991.878 895.899 1014.72 882.669C1033.07 872.071 1048.98 858.193 1061.53 841.837C1046.82 855.969 1029.86 867.911 1011.25 877.242Z" fill="black"/>
<path d="M875.138 1389.06C864.73 1379.79 853.689 1371.16 842.083 1363.22C843.101 1378.15 850.444 1392.09 862.499 1401.98C868.186 1407.16 874.921 1411.22 882.312 1413.95C889.704 1416.68 897.604 1418.02 905.555 1417.88C896.108 1407.66 885.947 1398.04 875.138 1389.06Z" fill="black"/>
<path d="M805.694 688.588C812.754 679.802 821.234 672.087 830.833 665.717C843.906 658.913 857.928 653.826 872.5 650.599C872.5 650.599 861.25 688.588 805.694 688.588Z" fill="white"/>
<path d="M765.694 689.493C756.829 681.6 747.257 674.424 737.083 668.043C723.6 660.882 709.358 655.036 694.583 650.599C694.583 650.599 706.944 689.88 765.694 689.493Z" fill="white"/>
</svg>
